<svg width="24" height="31" viewBox="0 0 24 31" fill="none" xmlns="http://www.w3.org/2000/svg">
<path d="M23.5802 12.5807C24.0579 9.38724 21.6264 7.67049 18.3017 6.52524L19.3802 2.19924L16.7469 1.54299L15.6969 5.75499C15.0047 5.58249 14.2937 5.41974 13.5872 5.25849L14.6447 1.01874L12.0129 0.362488L10.9337 4.68699C10.3607 4.55649 9.79819 4.42749 9.25219 4.29174L9.25519 4.27824L5.62369 3.37149L4.92319 6.18399C4.92319 6.18399 6.87694 6.63174 6.83569 6.65949C7.90219 6.92574 8.09494 7.63149 8.06269 8.19099L6.83419 13.1192C6.90769 13.138 7.00294 13.165 7.10794 13.207C7.02019 13.1852 6.92644 13.1612 6.82969 13.138L5.10769 20.0417C4.97719 20.3657 4.64644 20.8517 3.90094 20.6672C3.92719 20.7055 1.98694 20.1895 1.98694 20.1895L0.679688 23.2037L4.10644 24.058C4.74394 24.2177 5.36869 24.385 5.98369 24.5425L4.89394 28.918L7.52419 29.5742L8.60344 25.2452C9.32194 25.4402 10.0194 25.6202 10.7019 25.7897L9.62644 30.0985L12.2597 30.7547L13.3494 26.3875C17.8397 27.2372 21.2162 26.8945 22.6374 22.8332C23.7827 19.5632 22.5804 17.677 20.2179 16.447C21.9384 16.0502 23.2344 14.9185 23.5802 12.5807ZM17.5637 21.0175C16.7499 24.2875 11.2442 22.5197 9.45919 22.0765L10.9052 16.2797C12.6902 16.7252 18.4142 17.6072 17.5637 21.0175ZM18.3782 12.5335C17.6357 15.508 13.0532 13.9967 11.5667 13.6262L12.8777 8.36874C14.3642 8.73924 19.1514 9.43074 18.3782 12.5335Z" fill="white"/>
</svg>
