<svg width="30" height="28" viewBox="0 0 30 28" fill="none" xmlns="http://www.w3.org/2000/svg">
<path d="M17.9613 9.80226V6.23202H26.1256V0.792175H3.89391V6.23202H12.0592V9.79938C5.42319 10.1042 0.433594 11.4184 0.433594 12.9928C0.433594 14.5672 5.42559 15.8815 12.0592 16.1882V27.6242H17.9632V16.1872C24.5872 15.8815 29.5667 14.5682 29.5667 12.9952C29.5667 11.4223 24.5872 10.109 17.9632 9.80322M17.9632 15.2186V15.2157C17.7966 15.2263 16.9408 15.2776 15.0352 15.2776C13.5117 15.2776 12.4398 15.2344 12.0621 15.2147V15.2195C6.19935 14.9599 1.82319 13.9389 1.82319 12.7173C1.82319 11.4957 6.19983 10.4762 12.0621 10.216V14.2024C12.4461 14.2288 13.5443 14.2936 15.0602 14.2936C16.8808 14.2936 17.7962 14.2178 17.9642 14.2024V10.216C23.8154 10.4767 28.1814 11.4986 28.1814 12.7159C28.1814 13.9331 23.8134 14.9555 17.9642 15.2162" fill="white"/>
</svg>
