<svg width="20" height="21" viewBox="0 0 20 21" fill="none" xmlns="http://www.w3.org/2000/svg">
<path fill-rule="evenodd" clip-rule="evenodd" d="M3.31504 0.857147H16.7722C17.2865 0.857147 17.715 0.942861 18.2293 1.2C18.8293 1.45715 19.1722 1.88572 19.3436 2.22858C19.3436 2.22858 19.3436 2.31429 19.4293 2.31429C19.6865 2.74286 19.8579 3.25715 19.8579 3.85715C19.8579 4.37143 19.7722 4.88572 19.4293 5.4L10.9436 19.9714C10.7722 20.3143 10.4293 20.4857 10.0008 20.4857C9.6579 20.4857 9.31504 20.3143 9.0579 19.9714L0.743614 5.4C0.572186 5.05715 0.229328 4.62858 0.229328 3.94286C0.143614 3.34286 0.315042 2.82858 0.572185 2.31429C0.829328 1.80001 1.2579 1.37143 1.8579 1.2C2.37218 0.857147 2.97219 0.857147 3.31504 0.857147ZM8.97219 2.91429H3.31504C2.97219 2.91429 2.80076 2.91429 2.71504 3C2.54361 3.08572 2.4579 3.17143 2.37219 3.34286C2.28647 3.42858 2.28647 3.6 2.28647 3.77143C2.28647 3.85715 2.37218 3.94286 2.54361 4.28572L8.97219 15.4286V2.91429ZM11.0293 2.91429V15.5143L17.5436 4.28572C17.6293 4.11429 17.6293 3.94286 17.6293 3.77143C17.6293 3.6 17.6293 3.42858 17.5436 3.34286C17.4579 3.25715 17.4579 3.17143 17.3722 3.17143L17.2865 3.08572C17.115 3 16.9436 3 16.6865 3H11.0293V2.91429Z" fill="white"/>
</svg>
