<?xml version="1.0" encoding="UTF-8"?>
<svg id="Layer_2" data-name="Layer 2" xmlns="http://www.w3.org/2000/svg" viewBox="0 0 400 400">
  <defs>
    <style>
      .cls-1 {
        fill: #fdfbfc;
      }

      .cls-1, .cls-2 {
        stroke-width: 0px;
      }

      .cls-2 {
        fill: #1c2d3f;
      }
    </style>
  </defs>
  <g id="Layer_1-2" data-name="Layer 1">
    <g>
      <rect class="cls-1" x="297.88" width="6.25" height="3.75"/>
      <rect class="cls-1" x="212.12" y="87.62" width="6.25" height="3.12"/>
      <rect class="cls-1" x="304.12" y="3.75" width="6.25" height="6.25"/>
      <rect class="cls-1" x="199.62" y="75.12" width="6.25" height="6.25"/>
      <rect class="cls-1" x="196.5" y="68.88" width="3.12" height="6.25"/>
      <rect class="cls-1" x="205.88" y="81.38" width="6.25" height="6.25"/>
      <rect class="cls-1" x="329.12" y="3.75" width="6.25" height="6.25"/>
      <rect class="cls-1" x="335.38" width="6.25" height="3.75"/>
      <rect class="cls-1" x="322.88" y="10" width="6.25" height="6.25"/>
      <path class="cls-1" d="M199.62,12.62v12.5h6.25v-6.25h6.25v6.25h-6.25v6.25h-6.25v12.5h6.25v-6.25h6.25v-6.25h6.25v-6.25h6.25v6.25h-6.25v6.25h-6.25v6.25h-6.25v6.25h-6.25v18.75h6.25v6.25h6.25v-25h6.25v18.75h18.75v6.25h-25v6.25h6.25v6.25h18.75v-6.25h6.25v-6.25h6.25v-6.25h6.25v-6.25h6.25v6.25h-6.25v6.25h-6.25v6.25h-6.25v6.25h12.5v-6.25h6.25v-6.25h6.25v6.25h-6.25v6.25h12.5v3.12h90.25v-3.12h12.5v-6.25h-6.25v-6.25h6.25v6.25h6.25v6.25h12.5v-6.25h-6.25v-6.25h-6.25v-6.25h-6.25v-6.25h6.25v6.25h6.25v6.25h6.25v6.25h3.88v-31.25h-3.88v-6.25h3.88V0h-2.12v3.75h-12.5v6.25h6.25v6.25h-6.25v-6.25h-6.25V3.75h-12.5v6.25h6.25v6.25h6.25v6.25h6.25v6.25h-6.25v-6.25h-6.25v-6.25h-6.25v-6.25h-6.25V3.75h-18.75v6.25h-6.25v6.25h25v6.25h-18.75v18.75h-6.25v-25h-6.25v6.25h-6.25v18.75h6.25v6.25h6.25v6.25h6.25v6.25h6.25v6.25h-6.25v-6.25h-6.25v-6.25h-6.25v-6.25h-6.25v12.5h6.25v6.25h6.25v6.25h-6.25v-6.25h-6.25v12.5h-6.25v-12.5h-6.25v6.25h-6.25v-6.25h6.25v-6.25h6.25v-12.5h-6.25v6.25h-6.25v6.25h-6.25v6.25h-6.25v-6.25h6.25v-6.25h6.25v-6.25h6.25v-6.25h6.25v-18.75h-6.25v-6.25h-6.25v25h-6.25v-18.75h-18.75v-6.25h25v-6.25h-6.25V3.75h-18.75v6.25h-6.25v6.25h-6.25v6.25h-6.25v6.25h-6.25v-6.25h6.25v-6.25h6.25v-6.25h6.25V3.75h-12.5v6.25h-6.25v6.25h-6.25v-6.25h6.25V3.75h-12.5V0h-45.12v12.62h3.12ZM366.62,41.25v6.25h-6.25v-6.25h6.25ZM347.88,28.75h12.5v6.25h-6.25v6.25h-6.25v-12.5ZM279.12,28.75h12.5v12.5h-6.25v-6.25h-6.25v-6.25ZM272.88,41.25h6.25v6.25h-6.25v-6.25ZM237.12,43.88h6.25v6.25h-6.25v-6.25ZM237.12,56.38v6.25h-12.5v-12.5h6.25v6.25h6.25Z"/>
      <rect class="cls-1" x="316.62" y="16.25" width="6.25" height="6.25"/>
      <rect class="cls-1" x="310.38" y="10" width="6.25" height="6.25"/>
      <rect class="cls-2" x="396.12" y="43.88" width="3.88" height="6.25"/>
      <polygon class="cls-2" points="396.12 87.62 383.62 87.62 383.62 81.38 377.38 81.38 377.38 87.62 364.88 87.62 364.88 90.75 400 90.75 400 81.38 396.12 81.38 396.12 87.62"/>
      <rect class="cls-2" x="371.12" y="75.12" width="6.25" height="6.25"/>
      <rect class="cls-2" x="377.38" y="62.62" width="6.25" height="6.25"/>
      <rect class="cls-2" x="383.62" y="68.88" width="6.25" height="6.25"/>
      <rect class="cls-2" x="389.88" y="75.12" width="6.25" height="6.25"/>
      <polygon class="cls-2" points="212.12 90.75 212.12 87.62 205.88 87.62 205.88 81.38 199.62 81.38 199.62 75.12 196.5 75.12 196.5 90.75 212.12 90.75"/>
      <rect class="cls-2" x="199.62" y="68.88" width="6.25" height="6.25"/>
      <rect class="cls-2" x="205.88" y="75.12" width="6.25" height="6.25"/>
      <rect class="cls-2" x="212.12" y="81.38" width="6.25" height="6.25"/>
      <polygon class="cls-2" points="199.62 68.88 199.62 50.12 205.88 50.12 205.88 43.88 199.62 43.88 199.62 31.38 205.88 31.38 205.88 25.12 199.62 25.12 199.62 12.62 196.5 12.62 196.5 68.88 199.62 68.88"/>
      <rect class="cls-2" x="205.88" y="18.88" width="6.25" height="6.25"/>
      <rect class="cls-2" x="218.38" y="25.12" width="6.25" height="6.25"/>
      <rect class="cls-2" x="212.12" y="31.38" width="6.25" height="6.25"/>
      <rect class="cls-2" x="205.88" y="37.62" width="6.25" height="6.25"/>
      <polygon class="cls-2" points="237.12 68.88 218.38 68.88 218.38 50.12 212.12 50.12 212.12 75.12 237.12 75.12 237.12 68.88"/>
      <polygon class="cls-2" points="224.62 50.12 224.62 62.62 237.12 62.62 237.12 56.38 230.88 56.38 230.88 50.12 224.62 50.12"/>
      <rect class="cls-2" x="237.12" y="43.88" width="6.25" height="6.25"/>
      <polygon class="cls-2" points="274.62 90.75 274.62 87.62 262.12 87.62 262.12 81.38 255.88 81.38 255.88 87.62 243.38 87.62 243.38 81.38 237.12 81.38 237.12 87.62 218.38 87.62 218.38 90.75 274.62 90.75"/>
      <rect class="cls-2" x="262.12" y="75.12" width="6.25" height="6.25"/>
      <rect class="cls-2" x="243.38" y="75.12" width="6.25" height="6.25"/>
      <rect class="cls-2" x="249.62" y="68.88" width="6.25" height="6.25"/>
      <rect class="cls-2" x="255.88" y="62.62" width="6.25" height="6.25"/>
      <polygon class="cls-2" points="310.38 3.75 310.38 10 316.62 10 316.62 16.25 322.88 16.25 322.88 10 329.12 10 329.12 3.75 335.38 3.75 335.38 0 304.12 0 304.12 3.75 310.38 3.75"/>
      <rect class="cls-2" x="297.88" y="3.75" width="6.25" height="6.25"/>
      <rect class="cls-2" x="304.12" y="10" width="6.25" height="6.25"/>
      <rect class="cls-2" x="310.38" y="16.25" width="6.25" height="6.25"/>
      <rect class="cls-2" x="335.38" y="3.75" width="6.25" height="6.25"/>
      <rect class="cls-2" x="329.12" y="10" width="6.25" height="6.25"/>
      <rect class="cls-2" x="322.88" y="16.25" width="6.25" height="6.25"/>
      <polygon class="cls-2" points="316.62 41.25 310.38 41.25 310.38 47.5 316.62 47.5 316.62 60 310.38 60 310.38 66.25 316.62 66.25 316.62 78.75 322.88 78.75 322.88 66.25 329.12 66.25 329.12 60 322.88 60 322.88 47.5 329.12 47.5 329.12 41.25 322.88 41.25 322.88 22.5 316.62 22.5 316.62 41.25"/>
      <rect class="cls-2" x="304.12" y="66.25" width="6.25" height="6.25"/>
      <rect class="cls-2" x="329.12" y="66.25" width="6.25" height="6.25"/>
      <rect class="cls-2" x="291.62" y="60" width="6.25" height="6.25"/>
      <rect class="cls-2" x="297.88" y="53.75" width="6.25" height="6.25"/>
      <rect class="cls-2" x="304.12" y="47.5" width="6.25" height="6.25"/>
      <rect class="cls-2" x="329.12" y="47.5" width="6.25" height="6.25"/>
      <rect class="cls-2" x="335.38" y="53.75" width="6.25" height="6.25"/>
      <rect class="cls-2" x="341.62" y="60" width="6.25" height="6.25"/>
      <polygon class="cls-2" points="279.12 22.5 297.88 22.5 297.88 41.25 304.12 41.25 304.12 16.25 279.12 16.25 279.12 22.5"/>
      <polygon class="cls-2" points="285.38 41.25 291.62 41.25 291.62 28.75 279.12 28.75 279.12 35 285.38 35 285.38 41.25"/>
      <rect class="cls-2" x="272.88" y="41.25" width="6.25" height="6.25"/>
      <polygon class="cls-2" points="341.62 41.25 341.62 22.5 360.38 22.5 360.38 16.25 335.38 16.25 335.38 41.25 341.62 41.25"/>
      <polygon class="cls-2" points="354.12 35 360.38 35 360.38 28.75 347.88 28.75 347.88 41.25 354.12 41.25 354.12 35"/>
      <rect class="cls-2" x="360.38" y="41.25" width="6.25" height="6.25"/>
      <polygon class="cls-2" points="254.12 3.75 254.12 10 260.38 10 260.38 3.75 272.88 3.75 272.88 10 279.12 10 279.12 3.75 297.88 3.75 297.88 0 241.62 0 241.62 3.75 254.12 3.75"/>
      <rect class="cls-2" x="247.88" y="10" width="6.25" height="6.25"/>
      <rect class="cls-2" x="266.62" y="10" width="6.25" height="6.25"/>
      <rect class="cls-2" x="260.38" y="16.25" width="6.25" height="6.25"/>
      <rect class="cls-2" x="254.12" y="22.5" width="6.25" height="6.25"/>
      <polygon class="cls-2" points="360.38 3.75 360.38 10 366.62 10 366.62 3.75 379.12 3.75 379.12 10 385.38 10 385.38 3.75 397.88 3.75 397.88 0 341.62 0 341.62 3.75 360.38 3.75"/>
      <rect class="cls-2" x="385.38" y="10" width="6.25" height="6.25"/>
      <rect class="cls-2" x="379.12" y="22.5" width="6.25" height="6.25"/>
      <rect class="cls-2" x="372.88" y="16.25" width="6.25" height="6.25"/>
      <rect class="cls-2" x="366.62" y="10" width="6.25" height="6.25"/>
      <rect class="cls-1" x="322.88" y="165.25" width="6.25" height="6.25"/>
      <rect class="cls-1" x="329.12" y="171.5" width="6.25" height="6.25"/>
      <rect class="cls-1" x="316.62" y="159" width="6.25" height="6.25"/>
      <rect class="cls-1" x="304.12" y="171.5" width="6.25" height="6.25"/>
      <rect class="cls-1" x="297.88" y="177.75" width="6.25" height="6.25"/>
      <rect class="cls-1" x="310.38" y="165.25" width="6.25" height="6.25"/>
      <rect class="cls-1" x="212.12" y="267.88" width="6.25" height="3.12"/>
      <rect class="cls-1" x="205.88" y="93.88" width="6.25" height="6.25"/>
      <rect class="cls-1" x="199.62" y="100.12" width="6.25" height="6.25"/>
      <rect class="cls-1" x="212.12" y="90.75" width="6.25" height="3.12"/>
      <rect class="cls-1" x="304.12" y="184" width="6.25" height="6.25"/>
      <rect class="cls-1" x="196.5" y="106.38" width="3.12" height="6.25"/>
      <rect class="cls-1" x="199.62" y="255.38" width="6.25" height="6.25"/>
      <rect class="cls-1" x="196.5" y="249.12" width="3.12" height="6.25"/>
      <rect class="cls-1" x="205.88" y="261.62" width="6.25" height="6.25"/>
      <rect class="cls-1" x="329.12" y="184" width="6.25" height="6.25"/>
      <rect class="cls-1" x="335.38" y="177.75" width="6.25" height="6.25"/>
      <rect class="cls-1" x="322.88" y="190.25" width="6.25" height="6.25"/>
      <path class="cls-1" d="M396.12,106.38h-6.25v6.25h-6.25v6.25h-6.25v-6.25h6.25v-6.25h6.25v-6.25h6.25v-6.25h-12.5v6.25h-6.25v6.25h-6.25v-6.25h6.25v-6.25h-12.5v-3.12h-90.25v3.12h-12.5v6.25h6.25v6.25h-6.25v-6.25h-6.25v-6.25h-12.5v6.25h6.25v6.25h6.25v6.25h6.25v6.25h-6.25v-6.25h-6.25v-6.25h-6.25v-6.25h-6.25v-6.25h-18.75v6.25h-6.25v6.25h25v6.25h-18.75v18.75h-6.25v-25h-6.25v6.25h-6.25v18.75h6.25v6.25h6.25v6.25h6.25v6.25h6.25v6.25h-6.25v-6.25h-6.25v-6.25h-6.25v-6.25h-6.25v12.5h6.25v6.25h6.25v6.25h-6.25v-6.25h-6.25v12.5h-3.12v24h3.12v12.5h6.25v-6.25h6.25v6.25h-6.25v6.25h-6.25v12.5h6.25v-6.25h6.25v-6.25h6.25v-6.25h6.25v6.25h-6.25v6.25h-6.25v6.25h-6.25v6.25h-6.25v18.75h6.25v6.25h6.25v-25h6.25v18.75h18.75v6.25h-25v6.25h6.25v6.25h18.75v-6.25h6.25v-6.25h6.25v-6.25h6.25v-6.25h6.25v6.25h-6.25v6.25h-6.25v6.25h-6.25v6.25h12.5v-6.25h6.25v-6.25h6.25v6.25h-6.25v6.25h12.5v3.12h90.25v-3.12h12.5v-6.25h-6.25v-6.25h6.25v6.25h6.25v6.25h12.5v-6.25h-6.25v-6.25h-6.25v-6.25h-6.25v-6.25h6.25v6.25h6.25v6.25h6.25v6.25h3.88v-31.25h-3.88v-6.25h3.88v-86.5h-3.88v-6.25h3.88v-31.25h-3.88v6.25ZM360.38,134h6.25v6.25h-6.25v-6.25ZM360.38,146.5v6.25h-12.5v-12.5h6.25v6.25h6.25ZM285.38,140.25h6.25v12.5h-12.5v-6.25h6.25v-6.25ZM272.88,134h6.25v6.25h-6.25v-6.25ZM243.38,131.38v6.25h-6.25v-6.25h6.25ZM224.62,118.88h12.5v6.25h-6.25v6.25h-6.25v-12.5ZM237.12,242.88h-12.5v-12.5h6.25v6.25h6.25v6.25ZM243.38,230.38h-6.25v-6.25h6.25v6.25ZM279.12,227.75h-6.25v-6.25h6.25v6.25ZM279.12,215.25v-6.25h12.5v12.5h-6.25v-6.25h-6.25ZM354.12,221.5h-6.25v-12.5h12.5v6.25h-6.25v6.25ZM366.62,227.75h-6.25v-6.25h6.25v6.25ZM397.88,177.75v6.25h-12.5v6.25h6.25v6.25h-6.25v-6.25h-6.25v-6.25h-12.5v6.25h6.25v6.25h6.25v6.25h6.25v6.25h-6.25v-6.25h-6.25v-6.25h-6.25v-6.25h-6.25v-6.25h-18.75v6.25h-6.25v6.25h25v6.25h-18.75v18.75h-6.25v-25h-6.25v6.25h-6.25v18.75h6.25v6.25h6.25v6.25h6.25v6.25h6.25v6.25h-6.25v-6.25h-6.25v-6.25h-6.25v-6.25h-6.25v12.5h6.25v6.25h6.25v6.25h-6.25v-6.25h-6.25v12.5h-6.25v-12.5h-6.25v6.25h-6.25v-6.25h6.25v-6.25h6.25v-12.5h-6.25v6.25h-6.25v6.25h-6.25v6.25h-6.25v-6.25h6.25v-6.25h6.25v-6.25h6.25v-6.25h6.25v-18.75h-6.25v-6.25h-6.25v25h-6.25v-18.75h-18.75v-6.25h25v-6.25h-6.25v-6.25h-18.75v6.25h-6.25v6.25h-6.25v6.25h-6.25v6.25h-6.25v-6.25h6.25v-6.25h6.25v-6.25h6.25v-6.25h-12.5v6.25h-6.25v6.25h-6.25v-6.25h6.25v-6.25h-12.5v-6.25h12.5v-6.25h-6.25v-6.25h6.25v6.25h6.25v6.25h12.5v-6.25h-6.25v-6.25h-6.25v-6.25h-6.25v-6.25h6.25v6.25h6.25v6.25h6.25v6.25h6.25v6.25h18.75v-6.25h6.25v-6.25h-25v-6.25h18.75v-18.75h6.25v25h6.25v-6.25h6.25v-18.75h-6.25v-6.25h-6.25v-6.25h-6.25v-6.25h-6.25v-6.25h6.25v6.25h6.25v6.25h6.25v6.25h6.25v-12.5h-6.25v-6.25h-6.25v-6.25h6.25v6.25h6.25v-12.5h6.25v12.5h6.25v-6.25h6.25v6.25h-6.25v6.25h-6.25v12.5h6.25v-6.25h6.25v-6.25h6.25v-6.25h6.25v6.25h-6.25v6.25h-6.25v6.25h-6.25v6.25h-6.25v18.75h6.25v6.25h6.25v-25h6.25v18.75h18.75v6.25h-25v6.25h6.25v6.25h18.75v-6.25h6.25v-6.25h6.25v-6.25h6.25v-6.25h6.25v6.25h-6.25v6.25h-6.25v6.25h-6.25v6.25h12.5v-6.25h6.25v-6.25h6.25v6.25h-6.25v6.25h12.5Z"/>
      <rect class="cls-1" x="316.62" y="196.5" width="6.25" height="6.25"/>
      <rect class="cls-1" x="310.38" y="190.25" width="6.25" height="6.25"/>
      <rect class="cls-2" x="396.12" y="224.12" width="3.88" height="6.25"/>
      <polygon class="cls-2" points="396.12 267.88 383.62 267.88 383.62 261.62 377.38 261.62 377.38 267.88 364.88 267.88 364.88 271 400 271 400 261.62 396.12 261.62 396.12 267.88"/>
      <rect class="cls-2" x="371.12" y="255.38" width="6.25" height="6.25"/>
      <rect class="cls-2" x="377.38" y="242.88" width="6.25" height="6.25"/>
      <rect class="cls-2" x="383.62" y="249.12" width="6.25" height="6.25"/>
      <rect class="cls-2" x="389.88" y="255.38" width="6.25" height="6.25"/>
      <polygon class="cls-2" points="205.88 267.88 205.88 261.62 199.62 261.62 199.62 255.38 196.5 255.38 196.5 271 212.12 271 212.12 267.88 205.88 267.88"/>
      <rect class="cls-2" x="199.62" y="249.12" width="6.25" height="6.25"/>
      <rect class="cls-2" x="205.88" y="255.38" width="6.25" height="6.25"/>
      <rect class="cls-2" x="212.12" y="261.62" width="6.25" height="6.25"/>
      <polygon class="cls-2" points="199.62 249.12 199.62 230.38 205.88 230.38 205.88 224.12 199.62 224.12 199.62 211.62 205.88 211.62 205.88 205.38 199.62 205.38 199.62 192.88 196.5 192.88 196.5 249.12 199.62 249.12"/>
      <rect class="cls-2" x="205.88" y="199.12" width="6.25" height="6.25"/>
      <rect class="cls-2" x="218.38" y="205.38" width="6.25" height="6.25"/>
      <rect class="cls-2" x="212.12" y="211.62" width="6.25" height="6.25"/>
      <rect class="cls-2" x="205.88" y="217.88" width="6.25" height="6.25"/>
      <polygon class="cls-2" points="237.12 249.12 218.38 249.12 218.38 230.38 212.12 230.38 212.12 255.38 237.12 255.38 237.12 249.12"/>
      <polygon class="cls-2" points="230.88 230.38 224.62 230.38 224.62 242.88 237.12 242.88 237.12 236.62 230.88 236.62 230.88 230.38"/>
      <rect class="cls-2" x="237.12" y="224.12" width="6.25" height="6.25"/>
      <polygon class="cls-2" points="262.12 267.88 262.12 261.62 255.88 261.62 255.88 267.88 243.38 267.88 243.38 261.62 237.12 261.62 237.12 267.88 218.38 267.88 218.38 271 274.62 271 274.62 267.88 262.12 267.88"/>
      <rect class="cls-2" x="262.12" y="255.38" width="6.25" height="6.25"/>
      <rect class="cls-2" x="243.38" y="255.38" width="6.25" height="6.25"/>
      <rect class="cls-2" x="249.62" y="249.12" width="6.25" height="6.25"/>
      <rect class="cls-2" x="255.88" y="242.88" width="6.25" height="6.25"/>
      <rect class="cls-2" x="396.12" y="131.38" width="3.88" height="6.25"/>
      <polygon class="cls-2" points="364.88 93.88 377.38 93.88 377.38 100.12 383.62 100.12 383.62 93.88 396.12 93.88 396.12 100.12 400 100.12 400 90.75 364.88 90.75 364.88 93.88"/>
      <rect class="cls-2" x="371.12" y="100.12" width="6.25" height="6.25"/>
      <rect class="cls-2" x="389.88" y="100.12" width="6.25" height="6.25"/>
      <rect class="cls-2" x="383.62" y="106.38" width="6.25" height="6.25"/>
      <rect class="cls-2" x="377.38" y="112.62" width="6.25" height="6.25"/>
      <polygon class="cls-2" points="329.12 171.5 322.88 171.5 322.88 165.25 316.62 165.25 316.62 171.5 310.38 171.5 310.38 177.75 304.12 177.75 304.12 184 310.38 184 310.38 190.25 316.62 190.25 316.62 196.5 322.88 196.5 322.88 190.25 329.12 190.25 329.12 184 335.38 184 335.38 177.75 329.12 177.75 329.12 171.5"/>
      <rect class="cls-2" x="310.38" y="159" width="6.25" height="6.25"/>
      <rect class="cls-2" x="304.12" y="165.25" width="6.25" height="6.25"/>
      <rect class="cls-2" x="297.88" y="171.5" width="6.25" height="6.25"/>
      <rect class="cls-2" x="297.88" y="184" width="6.25" height="6.25"/>
      <rect class="cls-2" x="304.12" y="190.25" width="6.25" height="6.25"/>
      <rect class="cls-2" x="310.38" y="196.5" width="6.25" height="6.25"/>
      <rect class="cls-2" x="322.88" y="159" width="6.25" height="6.25"/>
      <rect class="cls-2" x="329.12" y="165.25" width="6.25" height="6.25"/>
      <rect class="cls-2" x="335.38" y="171.5" width="6.25" height="6.25"/>
      <rect class="cls-2" x="335.38" y="184" width="6.25" height="6.25"/>
      <rect class="cls-2" x="329.12" y="190.25" width="6.25" height="6.25"/>
      <rect class="cls-2" x="322.88" y="196.5" width="6.25" height="6.25"/>
      <polygon class="cls-2" points="316.62 221.5 310.38 221.5 310.38 227.75 316.62 227.75 316.62 240.25 310.38 240.25 310.38 246.5 316.62 246.5 316.62 259 322.88 259 322.88 246.5 329.12 246.5 329.12 240.25 322.88 240.25 322.88 227.75 329.12 227.75 329.12 221.5 322.88 221.5 322.88 202.75 316.62 202.75 316.62 221.5"/>
      <rect class="cls-2" x="304.12" y="246.5" width="6.25" height="6.25"/>
      <rect class="cls-2" x="329.12" y="246.5" width="6.25" height="6.25"/>
      <rect class="cls-2" x="291.62" y="240.25" width="6.25" height="6.25"/>
      <rect class="cls-2" x="297.88" y="234" width="6.25" height="6.25"/>
      <rect class="cls-2" x="304.12" y="227.75" width="6.25" height="6.25"/>
      <rect class="cls-2" x="329.12" y="227.75" width="6.25" height="6.25"/>
      <rect class="cls-2" x="335.38" y="234" width="6.25" height="6.25"/>
      <rect class="cls-2" x="341.62" y="240.25" width="6.25" height="6.25"/>
      <polygon class="cls-2" points="322.88 140.25 329.12 140.25 329.12 134 322.88 134 322.88 121.5 329.12 121.5 329.12 115.25 322.88 115.25 322.88 102.75 316.62 102.75 316.62 115.25 310.38 115.25 310.38 121.5 316.62 121.5 316.62 134 310.38 134 310.38 140.25 316.62 140.25 316.62 159 322.88 159 322.88 140.25"/>
      <rect class="cls-2" x="329.12" y="109" width="6.25" height="6.25"/>
      <rect class="cls-2" x="304.12" y="109" width="6.25" height="6.25"/>
      <rect class="cls-2" x="341.62" y="115.25" width="6.25" height="6.25"/>
      <rect class="cls-2" x="335.38" y="121.5" width="6.25" height="6.25"/>
      <rect class="cls-2" x="329.12" y="127.75" width="6.25" height="6.25"/>
      <rect class="cls-2" x="304.12" y="127.75" width="6.25" height="6.25"/>
      <rect class="cls-2" x="297.88" y="121.5" width="6.25" height="6.25"/>
      <rect class="cls-2" x="291.62" y="115.25" width="6.25" height="6.25"/>
      <polygon class="cls-2" points="297.88 140.25 297.88 159 279.12 159 279.12 165.25 304.12 165.25 304.12 140.25 297.88 140.25"/>
      <polygon class="cls-2" points="279.12 152.75 291.62 152.75 291.62 140.25 285.38 140.25 285.38 146.5 279.12 146.5 279.12 152.75"/>
      <rect class="cls-2" x="272.88" y="134" width="6.25" height="6.25"/>
      <polygon class="cls-2" points="360.38 159 341.62 159 341.62 140.25 335.38 140.25 335.38 165.25 360.38 165.25 360.38 159"/>
      <polygon class="cls-2" points="347.88 140.25 347.88 152.75 360.38 152.75 360.38 146.5 354.12 146.5 354.12 140.25 347.88 140.25"/>
      <rect class="cls-2" x="360.38" y="134" width="6.25" height="6.25"/>
      <polygon class="cls-2" points="279.12 202.75 297.88 202.75 297.88 221.5 304.12 221.5 304.12 196.5 279.12 196.5 279.12 202.75"/>
      <polygon class="cls-2" points="291.62 221.5 291.62 209 279.12 209 279.12 215.25 285.38 215.25 285.38 221.5 291.62 221.5"/>
      <rect class="cls-2" x="272.88" y="221.5" width="6.25" height="6.25"/>
      <polygon class="cls-2" points="341.62 221.5 341.62 202.75 360.38 202.75 360.38 196.5 335.38 196.5 335.38 221.5 341.62 221.5"/>
      <polygon class="cls-2" points="360.38 209 347.88 209 347.88 221.5 354.12 221.5 354.12 215.25 360.38 215.25 360.38 209"/>
      <rect class="cls-2" x="360.38" y="221.5" width="6.25" height="6.25"/>
      <polygon class="cls-2" points="279.12 177.75 279.12 171.5 272.88 171.5 272.88 177.75 260.38 177.75 260.38 171.5 254.12 171.5 254.12 177.75 241.62 177.75 241.62 184 254.12 184 254.12 190.25 260.38 190.25 260.38 184 272.88 184 272.88 190.25 279.12 190.25 279.12 184 297.88 184 297.88 177.75 279.12 177.75"/>
      <rect class="cls-2" x="247.88" y="165.25" width="6.25" height="6.25"/>
      <rect class="cls-2" x="247.88" y="190.25" width="6.25" height="6.25"/>
      <rect class="cls-2" x="254.12" y="152.75" width="6.25" height="6.25"/>
      <rect class="cls-2" x="260.38" y="159" width="6.25" height="6.25"/>
      <rect class="cls-2" x="266.62" y="165.25" width="6.25" height="6.25"/>
      <rect class="cls-2" x="266.62" y="190.25" width="6.25" height="6.25"/>
      <rect class="cls-2" x="260.38" y="196.5" width="6.25" height="6.25"/>
      <rect class="cls-2" x="254.12" y="202.75" width="6.25" height="6.25"/>
      <polygon class="cls-2" points="385.38 171.5 379.12 171.5 379.12 177.75 366.62 177.75 366.62 171.5 360.38 171.5 360.38 177.75 341.62 177.75 341.62 184 360.38 184 360.38 190.25 366.62 190.25 366.62 184 379.12 184 379.12 190.25 385.38 190.25 385.38 184 397.88 184 397.88 177.75 385.38 177.75 385.38 171.5"/>
      <rect class="cls-2" x="385.38" y="190.25" width="6.25" height="6.25"/>
      <rect class="cls-2" x="385.38" y="165.25" width="6.25" height="6.25"/>
      <rect class="cls-2" x="379.12" y="202.75" width="6.25" height="6.25"/>
      <rect class="cls-2" x="372.88" y="196.5" width="6.25" height="6.25"/>
      <rect class="cls-2" x="366.62" y="190.25" width="6.25" height="6.25"/>
      <rect class="cls-2" x="366.62" y="165.25" width="6.25" height="6.25"/>
      <rect class="cls-2" x="372.88" y="159" width="6.25" height="6.25"/>
      <rect class="cls-2" x="379.12" y="152.75" width="6.25" height="6.25"/>
      <polygon class="cls-2" points="199.62 100.12 205.88 100.12 205.88 93.88 212.12 93.88 212.12 90.75 196.5 90.75 196.5 106.38 199.62 106.38 199.62 100.12"/>
      <rect class="cls-2" x="212.12" y="93.88" width="6.25" height="6.25"/>
      <rect class="cls-2" x="205.88" y="100.12" width="6.25" height="6.25"/>
      <rect class="cls-2" x="199.62" y="106.38" width="6.25" height="6.25"/>
      <polygon class="cls-2" points="199.62 156.38 205.88 156.38 205.88 150.12 199.62 150.12 199.62 137.62 205.88 137.62 205.88 131.38 199.62 131.38 199.62 112.62 196.5 112.62 196.5 168.88 199.62 168.88 199.62 156.38"/>
      <rect class="cls-2" x="205.88" y="156.38" width="6.25" height="6.25"/>
      <rect class="cls-2" x="205.88" y="137.62" width="6.25" height="6.25"/>
      <rect class="cls-2" x="212.12" y="143.88" width="6.25" height="6.25"/>
      <rect class="cls-2" x="218.38" y="150.12" width="6.25" height="6.25"/>
      <polygon class="cls-2" points="218.38 131.38 218.38 112.62 237.12 112.62 237.12 106.38 212.12 106.38 212.12 131.38 218.38 131.38"/>
      <polygon class="cls-2" points="230.88 125.12 237.12 125.12 237.12 118.88 224.62 118.88 224.62 131.38 230.88 131.38 230.88 125.12"/>
      <rect class="cls-2" x="237.12" y="131.38" width="6.25" height="6.25"/>
      <polygon class="cls-2" points="218.38 93.88 237.12 93.88 237.12 100.12 243.38 100.12 243.38 93.88 255.88 93.88 255.88 100.12 262.12 100.12 262.12 93.88 274.62 93.88 274.62 90.75 218.38 90.75 218.38 93.88"/>
      <rect class="cls-2" x="262.12" y="100.12" width="6.25" height="6.25"/>
      <rect class="cls-2" x="255.88" y="112.62" width="6.25" height="6.25"/>
      <rect class="cls-2" x="249.62" y="106.38" width="6.25" height="6.25"/>
      <rect class="cls-2" x="243.38" y="100.12" width="6.25" height="6.25"/>
      <rect class="cls-1" x="322.88" y="345.5" width="6.25" height="6.25"/>
      <rect class="cls-1" x="329.12" y="351.75" width="6.25" height="6.25"/>
      <rect class="cls-1" x="316.62" y="339.25" width="6.25" height="6.25"/>
      <rect class="cls-1" x="304.12" y="351.75" width="6.25" height="6.25"/>
      <rect class="cls-1" x="297.88" y="358" width="6.25" height="6.25"/>
      <rect class="cls-1" x="310.38" y="345.5" width="6.25" height="6.25"/>
      <rect class="cls-1" x="205.88" y="274.12" width="6.25" height="6.25"/>
      <rect class="cls-1" x="199.62" y="280.38" width="6.25" height="6.25"/>
      <rect class="cls-1" x="212.12" y="271" width="6.25" height="3.12"/>
      <rect class="cls-1" x="304.12" y="364.25" width="6.25" height="6.25"/>
      <rect class="cls-1" x="196.5" y="286.62" width="3.12" height="6.25"/>
      <rect class="cls-1" x="329.12" y="364.25" width="6.25" height="6.25"/>
      <rect class="cls-1" x="335.38" y="358" width="6.25" height="6.25"/>
      <rect class="cls-1" x="322.88" y="370.5" width="6.25" height="6.25"/>
      <path class="cls-1" d="M400,317.88h-3.88v-6.25h3.88v-31.25h-3.88v6.25h-6.25v6.25h-6.25v6.25h-6.25v-6.25h6.25v-6.25h6.25v-6.25h6.25v-6.25h-12.5v6.25h-6.25v6.25h-6.25v-6.25h6.25v-6.25h-12.5v-3.12h-90.25v3.12h-12.5v6.25h6.25v6.25h-6.25v-6.25h-6.25v-6.25h-12.5v6.25h6.25v6.25h6.25v6.25h6.25v6.25h-6.25v-6.25h-6.25v-6.25h-6.25v-6.25h-6.25v-6.25h-18.75v6.25h-6.25v6.25h25v6.25h-18.75v18.75h-6.25v-25h-6.25v6.25h-6.25v18.75h6.25v6.25h6.25v6.25h6.25v6.25h6.25v6.25h-6.25v-6.25h-6.25v-6.25h-6.25v-6.25h-6.25v12.5h6.25v6.25h6.25v6.25h-6.25v-6.25h-6.25v12.5h-3.12v24h3.12v12.5h6.25v-6.25h6.25v6.25h-6.25v6.25h-6.25v8.12h6.25v-1.88h6.25v-6.25h6.25v-6.25h6.25v6.25h-6.25v6.25h-6.25v1.88h73.25v-4.5h-6.25v-6.25h12.5v10.75h6.25v-17h-18.75v-6.25h25v-6.25h-6.25v-6.25h-18.75v6.25h-6.25v6.25h-6.25v6.25h-6.25v6.25h-6.25v-6.25h6.25v-6.25h6.25v-6.25h6.25v-6.25h-12.5v6.25h-6.25v6.25h-6.25v-6.25h6.25v-6.25h-12.5v-6.25h12.5v-6.25h-6.25v-6.25h6.25v6.25h6.25v6.25h12.5v-6.25h-6.25v-6.25h-6.25v-6.25h-6.25v-6.25h6.25v6.25h6.25v6.25h6.25v6.25h6.25v6.25h18.75v-6.25h6.25v-6.25h-25v-6.25h18.75v-18.75h6.25v25h6.25v-6.25h6.25v-18.75h-6.25v-6.25h-6.25v-6.25h-6.25v-6.25h-6.25v-6.25h6.25v6.25h6.25v6.25h6.25v6.25h6.25v-12.5h-6.25v-6.25h-6.25v-6.25h6.25v6.25h6.25v-12.5h6.25v12.5h6.25v-6.25h6.25v6.25h-6.25v6.25h-6.25v12.5h6.25v-6.25h6.25v-6.25h6.25v-6.25h6.25v6.25h-6.25v6.25h-6.25v6.25h-6.25v6.25h-6.25v18.75h6.25v6.25h6.25v-25h6.25v18.75h18.75v6.25h-25v6.25h6.25v6.25h18.75v-6.25h6.25v-6.25h6.25v-6.25h6.25v-6.25h6.25v6.25h-6.25v6.25h-6.25v6.25h-6.25v6.25h12.5v-6.25h6.25v-6.25h6.25v6.25h-6.25v6.25h12.5v6.25h-12.5v6.25h6.25v6.25h-6.25v-6.25h-6.25v-6.25h-12.5v6.25h6.25v6.25h6.25v6.25h6.25v6.25h-6.25v-6.25h-6.25v-6.25h-6.25v-6.25h-6.25v-6.25h-18.75v6.25h-6.25v6.25h25v6.25h-18.75v17h6.25v-10.75h12.5v6.25h-6.25v4.5h45.88v-82.12ZM230.88,311.62h-6.25v-12.5h12.5v6.25h-6.25v6.25ZM243.38,317.88h-6.25v-6.25h6.25v6.25ZM272.88,320.5v-6.25h6.25v6.25h-6.25ZM291.62,333h-12.5v-6.25h6.25v-6.25h6.25v12.5ZM360.38,333h-12.5v-12.5h6.25v6.25h6.25v6.25ZM366.62,320.5h-6.25v-6.25h6.25v6.25Z"/>
      <polygon class="cls-1" points="329.12 376.75 329.12 383 322.88 383 322.88 400 335.38 400 335.38 376.75 329.12 376.75"/>
      <polygon class="cls-1" points="310.38 383 310.38 376.75 304.12 376.75 304.12 400 316.62 400 316.62 383 310.38 383"/>
      <rect class="cls-1" x="316.62" y="376.75" width="6.25" height="6.25"/>
      <rect class="cls-1" x="310.38" y="370.5" width="6.25" height="6.25"/>
      <polygon class="cls-2" points="205.88 391.88 205.88 385.62 199.62 385.62 199.62 373.12 196.5 373.12 196.5 400 199.62 400 199.62 391.88 205.88 391.88"/>
      <rect class="cls-2" x="205.88" y="379.38" width="6.25" height="6.25"/>
      <rect class="cls-2" x="218.38" y="385.62" width="6.25" height="6.25"/>
      <rect class="cls-2" x="212.12" y="391.88" width="6.25" height="6.25"/>
      <rect class="cls-2" x="205.88" y="398.12" width="6.25" height="1.88"/>
      <rect class="cls-2" x="396.12" y="311.62" width="3.88" height="6.25"/>
      <polygon class="cls-2" points="364.88 274.12 377.38 274.12 377.38 280.38 383.62 280.38 383.62 274.12 396.12 274.12 396.12 280.38 400 280.38 400 271 364.88 271 364.88 274.12"/>
      <rect class="cls-2" x="371.12" y="280.38" width="6.25" height="6.25"/>
      <rect class="cls-2" x="389.88" y="280.38" width="6.25" height="6.25"/>
      <rect class="cls-2" x="383.62" y="286.62" width="6.25" height="6.25"/>
      <rect class="cls-2" x="377.38" y="292.88" width="6.25" height="6.25"/>
      <polygon class="cls-2" points="316.62 376.75 322.88 376.75 322.88 370.5 329.12 370.5 329.12 364.25 335.38 364.25 335.38 358 329.12 358 329.12 351.75 322.88 351.75 322.88 345.5 316.62 345.5 316.62 351.75 310.38 351.75 310.38 358 304.12 358 304.12 364.25 310.38 364.25 310.38 370.5 316.62 370.5 316.62 376.75"/>
      <rect class="cls-2" x="310.38" y="339.25" width="6.25" height="6.25"/>
      <rect class="cls-2" x="304.12" y="345.5" width="6.25" height="6.25"/>
      <rect class="cls-2" x="297.88" y="351.75" width="6.25" height="6.25"/>
      <rect class="cls-2" x="297.88" y="364.25" width="6.25" height="6.25"/>
      <rect class="cls-2" x="304.12" y="370.5" width="6.25" height="6.25"/>
      <rect class="cls-2" x="310.38" y="376.75" width="6.25" height="6.25"/>
      <rect class="cls-2" x="322.88" y="339.25" width="6.25" height="6.25"/>
      <rect class="cls-2" x="329.12" y="345.5" width="6.25" height="6.25"/>
      <rect class="cls-2" x="335.38" y="351.75" width="6.25" height="6.25"/>
      <rect class="cls-2" x="335.38" y="364.25" width="6.25" height="6.25"/>
      <rect class="cls-2" x="329.12" y="370.5" width="6.25" height="6.25"/>
      <rect class="cls-2" x="322.88" y="376.75" width="6.25" height="6.25"/>
      <rect class="cls-2" x="316.62" y="383" width="6.25" height="17"/>
      <polygon class="cls-2" points="322.88 320.5 329.12 320.5 329.12 314.25 322.88 314.25 322.88 301.75 329.12 301.75 329.12 295.5 322.88 295.5 322.88 283 316.62 283 316.62 295.5 310.38 295.5 310.38 301.75 316.62 301.75 316.62 314.25 310.38 314.25 310.38 320.5 316.62 320.5 316.62 339.25 322.88 339.25 322.88 320.5"/>
      <rect class="cls-2" x="329.12" y="289.25" width="6.25" height="6.25"/>
      <rect class="cls-2" x="304.12" y="289.25" width="6.25" height="6.25"/>
      <rect class="cls-2" x="341.62" y="295.5" width="6.25" height="6.25"/>
      <rect class="cls-2" x="335.38" y="301.75" width="6.25" height="6.25"/>
      <rect class="cls-2" x="329.12" y="308" width="6.25" height="6.25"/>
      <rect class="cls-2" x="304.12" y="308" width="6.25" height="6.25"/>
      <rect class="cls-2" x="297.88" y="301.75" width="6.25" height="6.25"/>
      <rect class="cls-2" x="291.62" y="295.5" width="6.25" height="6.25"/>
      <polygon class="cls-2" points="297.88 320.5 297.88 339.25 279.12 339.25 279.12 345.5 304.12 345.5 304.12 320.5 297.88 320.5"/>
      <polygon class="cls-2" points="285.38 326.75 279.12 326.75 279.12 333 291.62 333 291.62 320.5 285.38 320.5 285.38 326.75"/>
      <rect class="cls-2" x="272.88" y="314.25" width="6.25" height="6.25"/>
      <polygon class="cls-2" points="360.38 339.25 341.62 339.25 341.62 320.5 335.38 320.5 335.38 345.5 360.38 345.5 360.38 339.25"/>
      <polygon class="cls-2" points="354.12 320.5 347.88 320.5 347.88 333 360.38 333 360.38 326.75 354.12 326.75 354.12 320.5"/>
      <rect class="cls-2" x="360.38" y="314.25" width="6.25" height="6.25"/>
      <polygon class="cls-2" points="279.12 376.75 279.12 383 297.88 383 297.88 400 304.12 400 304.12 376.75 279.12 376.75"/>
      <polygon class="cls-2" points="279.12 389.25 279.12 395.5 285.38 395.5 285.38 400 291.62 400 291.62 389.25 279.12 389.25"/>
      <polygon class="cls-2" points="360.38 383 360.38 376.75 335.38 376.75 335.38 400 341.62 400 341.62 383 360.38 383"/>
      <polygon class="cls-2" points="360.38 395.5 360.38 389.25 347.88 389.25 347.88 400 354.12 400 354.12 395.5 360.38 395.5"/>
      <polygon class="cls-2" points="279.12 358 279.12 351.75 272.88 351.75 272.88 358 260.38 358 260.38 351.75 254.12 351.75 254.12 358 241.62 358 241.62 364.25 254.12 364.25 254.12 370.5 260.38 370.5 260.38 364.25 272.88 364.25 272.88 370.5 279.12 370.5 279.12 364.25 297.88 364.25 297.88 358 279.12 358"/>
      <rect class="cls-2" x="247.88" y="345.5" width="6.25" height="6.25"/>
      <rect class="cls-2" x="247.88" y="370.5" width="6.25" height="6.25"/>
      <rect class="cls-2" x="254.12" y="333" width="6.25" height="6.25"/>
      <rect class="cls-2" x="260.38" y="339.25" width="6.25" height="6.25"/>
      <rect class="cls-2" x="266.62" y="345.5" width="6.25" height="6.25"/>
      <rect class="cls-2" x="266.62" y="370.5" width="6.25" height="6.25"/>
      <rect class="cls-2" x="260.38" y="376.75" width="6.25" height="6.25"/>
      <rect class="cls-2" x="254.12" y="383" width="6.25" height="6.25"/>
      <polygon class="cls-2" points="360.38 364.25 360.38 370.5 366.62 370.5 366.62 364.25 379.12 364.25 379.12 370.5 385.38 370.5 385.38 364.25 397.88 364.25 397.88 358 385.38 358 385.38 351.75 379.12 351.75 379.12 358 366.62 358 366.62 351.75 360.38 351.75 360.38 358 341.62 358 341.62 364.25 360.38 364.25"/>
      <rect class="cls-2" x="385.38" y="370.5" width="6.25" height="6.25"/>
      <rect class="cls-2" x="385.38" y="345.5" width="6.25" height="6.25"/>
      <rect class="cls-2" x="379.12" y="383" width="6.25" height="6.25"/>
      <rect class="cls-2" x="372.88" y="376.75" width="6.25" height="6.25"/>
      <rect class="cls-2" x="366.62" y="370.5" width="6.25" height="6.25"/>
      <rect class="cls-2" x="366.62" y="345.5" width="6.25" height="6.25"/>
      <rect class="cls-2" x="372.88" y="339.25" width="6.25" height="6.25"/>
      <rect class="cls-2" x="379.12" y="333" width="6.25" height="6.25"/>
      <polygon class="cls-2" points="196.5 286.62 199.62 286.62 199.62 280.38 205.88 280.38 205.88 274.12 212.12 274.12 212.12 271 196.5 271 196.5 286.62"/>
      <rect class="cls-2" x="212.12" y="274.12" width="6.25" height="6.25"/>
      <rect class="cls-2" x="205.88" y="280.38" width="6.25" height="6.25"/>
      <rect class="cls-2" x="199.62" y="286.62" width="6.25" height="6.25"/>
      <polygon class="cls-2" points="196.5 349.12 199.62 349.12 199.62 336.62 205.88 336.62 205.88 330.38 199.62 330.38 199.62 317.88 205.88 317.88 205.88 311.62 199.62 311.62 199.62 292.88 196.5 292.88 196.5 349.12"/>
      <rect class="cls-2" x="205.88" y="336.62" width="6.25" height="6.25"/>
      <rect class="cls-2" x="205.88" y="317.88" width="6.25" height="6.25"/>
      <rect class="cls-2" x="212.12" y="324.12" width="6.25" height="6.25"/>
      <rect class="cls-2" x="218.38" y="330.38" width="6.25" height="6.25"/>
      <polygon class="cls-2" points="218.38 311.62 218.38 292.88 237.12 292.88 237.12 286.62 212.12 286.62 212.12 311.62 218.38 311.62"/>
      <polygon class="cls-2" points="237.12 299.12 224.62 299.12 224.62 311.62 230.88 311.62 230.88 305.38 237.12 305.38 237.12 299.12"/>
      <rect class="cls-2" x="237.12" y="311.62" width="6.25" height="6.25"/>
      <polygon class="cls-2" points="218.38 274.12 237.12 274.12 237.12 280.38 243.38 280.38 243.38 274.12 255.88 274.12 255.88 280.38 262.12 280.38 262.12 274.12 274.62 274.12 274.62 271 218.38 271 218.38 274.12"/>
      <rect class="cls-2" x="262.12" y="280.38" width="6.25" height="6.25"/>
      <rect class="cls-2" x="255.88" y="292.88" width="6.25" height="6.25"/>
      <rect class="cls-2" x="249.62" y="286.62" width="6.25" height="6.25"/>
      <rect class="cls-2" x="243.38" y="280.38" width="6.25" height="6.25"/>
      <rect class="cls-1" x="193.38" y="68.88" width="3.12" height="6.25"/>
      <rect class="cls-1" x="174.62" y="87.62" width="6.25" height="3.12"/>
      <rect class="cls-1" x="180.88" y="81.38" width="6.25" height="6.25"/>
      <rect class="cls-1" x="51.38" width="6.25" height="3.75"/>
      <rect class="cls-1" x="187.12" y="75.12" width="6.25" height="6.25"/>
      <rect class="cls-1" x="57.62" y="3.75" width="6.25" height="6.25"/>
      <rect class="cls-1" x="82.62" y="3.75" width="6.25" height="6.25"/>
      <rect class="cls-1" x="88.88" width="6.25" height="3.75"/>
      <rect class="cls-1" x="76.38" y="10" width="6.25" height="6.25"/>
      <path class="cls-1" d="M9.38,81.38h6.25v-6.25h6.25v6.25h-6.25v6.25h12.5v3.12h90.25v-3.12h12.5v-6.25h-6.25v-6.25h6.25v6.25h6.25v6.25h12.5v-6.25h-6.25v-6.25h-6.25v-6.25h-6.25v-6.25h6.25v6.25h6.25v6.25h6.25v6.25h6.25v6.25h18.75v-6.25h6.25v-6.25h-25v-6.25h18.75v-18.75h6.25v25h6.25v-6.25h6.25v-18.75h-6.25v-6.25h-6.25v-6.25h-6.25v-6.25h-6.25v-6.25h6.25v6.25h6.25v6.25h6.25v6.25h6.25v-12.5h-6.25v-6.25h-6.25v-6.25h6.25v6.25h6.25v-12.5h3.12V0h-45.12v3.75h-12.5v6.25h6.25v6.25h-6.25v-6.25h-6.25V3.75h-12.5v6.25h6.25v6.25h6.25v6.25h6.25v6.25h-6.25v-6.25h-6.25v-6.25h-6.25v-6.25h-6.25V3.75h-18.75v6.25h-6.25v6.25h25v6.25h-18.75v18.75h-6.25v-25h-6.25v6.25h-6.25v18.75h6.25v6.25h6.25v6.25h6.25v6.25h6.25v6.25h-6.25v-6.25h-6.25v-6.25h-6.25v-6.25h-6.25v12.5h6.25v6.25h6.25v6.25h-6.25v-6.25h-6.25v12.5h-6.25v-12.5h-6.25v6.25h-6.25v-6.25h6.25v-6.25h6.25v-12.5h-6.25v6.25h-6.25v6.25h-6.25v6.25h-6.25v-6.25h6.25v-6.25h6.25v-6.25h6.25v-6.25h6.25v-18.75h-6.25v-6.25h-6.25v25h-6.25v-18.75h-18.75v-6.25h25v-6.25h-6.25V3.75h-18.75v6.25h-6.25v6.25h-6.25v6.25h-6.25v6.25h-6.25v-6.25h6.25v-6.25h6.25v-6.25h6.25V3.75h-12.5v6.25h-6.25v6.25H1.38v-6.25h6.25V3.75H0v71.38h3.12v-6.25h6.25v-6.25h6.25v6.25h-6.25v6.25H3.12v6.25H0v6.25h9.38v-6.25ZM162.12,50.12h6.25v12.5h-12.5v-6.25h6.25v-6.25ZM149.62,43.88h6.25v6.25h-6.25v-6.25ZM120.12,41.25v6.25h-6.25v-6.25h6.25ZM101.38,28.75h12.5v6.25h-6.25v6.25h-6.25v-12.5ZM32.62,28.75h12.5v12.5h-6.25v-6.25h-6.25v-6.25ZM26.38,41.25h6.25v6.25h-6.25v-6.25Z"/>
      <rect class="cls-1" x="70.12" y="16.25" width="6.25" height="6.25"/>
      <rect class="cls-1" x="63.88" y="10" width="6.25" height="6.25"/>
      <polygon class="cls-2" points="196.5 75.12 193.38 75.12 193.38 81.38 187.12 81.38 187.12 87.62 180.88 87.62 180.88 90.75 196.5 90.75 196.5 75.12"/>
      <rect class="cls-2" x="187.12" y="68.88" width="6.25" height="6.25"/>
      <rect class="cls-2" x="180.88" y="75.12" width="6.25" height="6.25"/>
      <rect class="cls-2" x="174.62" y="81.38" width="6.25" height="6.25"/>
      <polygon class="cls-2" points="196.5 12.62 193.38 12.62 193.38 25.12 187.12 25.12 187.12 31.38 193.38 31.38 193.38 43.88 187.12 43.88 187.12 50.12 193.38 50.12 193.38 68.88 196.5 68.88 196.5 12.62"/>
      <rect class="cls-2" x="180.88" y="18.88" width="6.25" height="6.25"/>
      <rect class="cls-2" x="180.88" y="37.62" width="6.25" height="6.25"/>
      <rect class="cls-2" x="174.62" y="31.38" width="6.25" height="6.25"/>
      <rect class="cls-2" x="168.38" y="25.12" width="6.25" height="6.25"/>
      <polygon class="cls-2" points="174.62 50.12 174.62 68.88 155.88 68.88 155.88 75.12 180.88 75.12 180.88 50.12 174.62 50.12"/>
      <polygon class="cls-2" points="155.88 62.62 168.38 62.62 168.38 50.12 162.12 50.12 162.12 56.38 155.88 56.38 155.88 62.62"/>
      <rect class="cls-2" x="149.62" y="43.88" width="6.25" height="6.25"/>
      <polygon class="cls-2" points="174.62 87.62 155.88 87.62 155.88 81.38 149.62 81.38 149.62 87.62 137.12 87.62 137.12 81.38 130.88 81.38 130.88 87.62 118.38 87.62 118.38 90.75 174.62 90.75 174.62 87.62"/>
      <rect class="cls-2" x="124.62" y="75.12" width="6.25" height="6.25"/>
      <rect class="cls-2" x="130.88" y="62.62" width="6.25" height="6.25"/>
      <rect class="cls-2" x="137.12" y="68.88" width="6.25" height="6.25"/>
      <rect class="cls-2" x="143.38" y="75.12" width="6.25" height="6.25"/>
      <polygon class="cls-2" points="28.12 87.62 15.62 87.62 15.62 81.38 9.38 81.38 9.38 87.62 0 87.62 0 90.75 28.12 90.75 28.12 87.62"/>
      <rect class="cls-2" x="15.62" y="75.12" width="6.25" height="6.25"/>
      <rect class="cls-2" y="75.12" width="3.12" height="6.25"/>
      <rect class="cls-2" x="3.12" y="68.88" width="6.25" height="6.25"/>
      <rect class="cls-2" x="9.38" y="62.62" width="6.25" height="6.25"/>
      <polygon class="cls-2" points="63.88 3.75 63.88 10 70.12 10 70.12 16.25 76.38 16.25 76.38 10 82.62 10 82.62 3.75 88.88 3.75 88.88 0 57.62 0 57.62 3.75 63.88 3.75"/>
      <rect class="cls-2" x="51.38" y="3.75" width="6.25" height="6.25"/>
      <rect class="cls-2" x="57.62" y="10" width="6.25" height="6.25"/>
      <rect class="cls-2" x="63.88" y="16.25" width="6.25" height="6.25"/>
      <rect class="cls-2" x="88.88" y="3.75" width="6.25" height="6.25"/>
      <rect class="cls-2" x="82.62" y="10" width="6.25" height="6.25"/>
      <rect class="cls-2" x="76.38" y="16.25" width="6.25" height="6.25"/>
      <polygon class="cls-2" points="70.12 41.25 63.88 41.25 63.88 47.5 70.12 47.5 70.12 60 63.88 60 63.88 66.25 70.12 66.25 70.12 78.75 76.38 78.75 76.38 66.25 82.62 66.25 82.62 60 76.38 60 76.38 47.5 82.62 47.5 82.62 41.25 76.38 41.25 76.38 22.5 70.12 22.5 70.12 41.25"/>
      <rect class="cls-2" x="57.62" y="66.25" width="6.25" height="6.25"/>
      <rect class="cls-2" x="82.62" y="66.25" width="6.25" height="6.25"/>
      <rect class="cls-2" x="45.12" y="60" width="6.25" height="6.25"/>
      <rect class="cls-2" x="51.38" y="53.75" width="6.25" height="6.25"/>
      <rect class="cls-2" x="57.62" y="47.5" width="6.25" height="6.25"/>
      <rect class="cls-2" x="82.62" y="47.5" width="6.25" height="6.25"/>
      <rect class="cls-2" x="88.88" y="53.75" width="6.25" height="6.25"/>
      <rect class="cls-2" x="95.12" y="60" width="6.25" height="6.25"/>
      <polygon class="cls-2" points="32.62 22.5 51.38 22.5 51.38 41.25 57.62 41.25 57.62 16.25 32.62 16.25 32.62 22.5"/>
      <polygon class="cls-2" points="38.88 41.25 45.12 41.25 45.12 28.75 32.62 28.75 32.62 35 38.88 35 38.88 41.25"/>
      <rect class="cls-2" x="26.38" y="41.25" width="6.25" height="6.25"/>
      <polygon class="cls-2" points="95.12 41.25 95.12 22.5 113.88 22.5 113.88 16.25 88.88 16.25 88.88 41.25 95.12 41.25"/>
      <polygon class="cls-2" points="107.62 35 113.88 35 113.88 28.75 101.38 28.75 101.38 41.25 107.62 41.25 107.62 35"/>
      <rect class="cls-2" x="113.88" y="41.25" width="6.25" height="6.25"/>
      <polygon class="cls-2" points="7.62 10 13.88 10 13.88 3.75 26.38 3.75 26.38 10 32.62 10 32.62 3.75 51.38 3.75 51.38 0 0 0 0 3.75 7.62 3.75 7.62 10"/>
      <rect class="cls-2" x="1.38" y="10" width="6.25" height="6.25"/>
      <rect class="cls-2" x="20.12" y="10" width="6.25" height="6.25"/>
      <rect class="cls-2" x="13.88" y="16.25" width="6.25" height="6.25"/>
      <rect class="cls-2" x="7.62" y="22.5" width="6.25" height="6.25"/>
      <polygon class="cls-2" points="113.88 3.75 113.88 10 120.12 10 120.12 3.75 132.62 3.75 132.62 10 138.88 10 138.88 3.75 151.38 3.75 151.38 0 95.12 0 95.12 3.75 113.88 3.75"/>
      <rect class="cls-2" x="138.88" y="10" width="6.25" height="6.25"/>
      <rect class="cls-2" x="132.62" y="22.5" width="6.25" height="6.25"/>
      <rect class="cls-2" x="126.38" y="16.25" width="6.25" height="6.25"/>
      <rect class="cls-2" x="120.12" y="10" width="6.25" height="6.25"/>
      <rect class="cls-1" x="193.38" y="249.12" width="3.12" height="6.25"/>
      <rect class="cls-1" x="76.38" y="165.25" width="6.25" height="6.25"/>
      <rect class="cls-1" x="82.62" y="171.5" width="6.25" height="6.25"/>
      <rect class="cls-1" x="174.62" y="267.88" width="6.25" height="3.12"/>
      <rect class="cls-1" x="180.88" y="261.62" width="6.25" height="6.25"/>
      <rect class="cls-1" x="70.12" y="159" width="6.25" height="6.25"/>
      <rect class="cls-1" x="57.62" y="171.5" width="6.25" height="6.25"/>
      <rect class="cls-1" x="51.38" y="177.75" width="6.25" height="6.25"/>
      <rect class="cls-1" x="63.88" y="165.25" width="6.25" height="6.25"/>
      <rect class="cls-1" x="187.12" y="255.38" width="6.25" height="6.25"/>
      <rect class="cls-1" x="174.62" y="90.75" width="6.25" height="3.12"/>
      <rect class="cls-1" x="57.62" y="184" width="6.25" height="6.25"/>
      <rect class="cls-1" x="187.12" y="100.12" width="6.25" height="6.25"/>
      <rect class="cls-1" x="180.88" y="93.88" width="6.25" height="6.25"/>
      <rect class="cls-1" x="82.62" y="184" width="6.25" height="6.25"/>
      <rect class="cls-1" x="88.88" y="177.75" width="6.25" height="6.25"/>
      <rect class="cls-1" x="76.38" y="190.25" width="6.25" height="6.25"/>
      <path class="cls-1" d="M9.38,261.62h6.25v-6.25h6.25v6.25h-6.25v6.25h12.5v3.12h90.25v-3.12h12.5v-6.25h-6.25v-6.25h6.25v6.25h6.25v6.25h12.5v-6.25h-6.25v-6.25h-6.25v-6.25h-6.25v-6.25h6.25v6.25h6.25v6.25h6.25v6.25h6.25v6.25h18.75v-6.25h6.25v-6.25h-25v-6.25h18.75v-18.75h6.25v25h6.25v-6.25h6.25v-18.75h-6.25v-6.25h-6.25v-6.25h-6.25v-6.25h-6.25v-6.25h6.25v6.25h6.25v6.25h6.25v6.25h6.25v-12.5h-6.25v-6.25h-6.25v-6.25h6.25v6.25h6.25v-12.5h3.12v-24h-3.12v-12.5h-6.25v6.25h-6.25v-6.25h6.25v-6.25h6.25v-12.5h-6.25v6.25h-6.25v6.25h-6.25v6.25h-6.25v-6.25h6.25v-6.25h6.25v-6.25h6.25v-6.25h6.25v-18.75h-6.25v-6.25h-6.25v25h-6.25v-18.75h-18.75v-6.25h25v-6.25h-6.25v-6.25h-18.75v6.25h-6.25v6.25h-6.25v6.25h-6.25v6.25h-6.25v-6.25h6.25v-6.25h6.25v-6.25h6.25v-6.25h-12.5v6.25h-6.25v6.25h-6.25v-6.25h6.25v-6.25h-12.5v-3.12H28.12v3.12h-12.5v6.25h6.25v6.25h-6.25v-6.25h-6.25v-6.25H0v6.25h3.12v6.25h6.25v6.25h6.25v6.25h-6.25v-6.25H3.12v-6.25H0v71.38h7.62v-6.25H1.38v-6.25h6.25v6.25h6.25v6.25h12.5v-6.25h-6.25v-6.25h-6.25v-6.25h-6.25v-6.25h6.25v6.25h6.25v6.25h6.25v6.25h6.25v6.25h18.75v-6.25h6.25v-6.25h-25v-6.25h18.75v-18.75h6.25v25h6.25v-6.25h6.25v-18.75h-6.25v-6.25h-6.25v-6.25h-6.25v-6.25h-6.25v-6.25h6.25v6.25h6.25v6.25h6.25v6.25h6.25v-12.5h-6.25v-6.25h-6.25v-6.25h6.25v6.25h6.25v-12.5h6.25v12.5h6.25v-6.25h6.25v6.25h-6.25v6.25h-6.25v12.5h6.25v-6.25h6.25v-6.25h6.25v-6.25h6.25v6.25h-6.25v6.25h-6.25v6.25h-6.25v6.25h-6.25v18.75h6.25v6.25h6.25v-25h6.25v18.75h18.75v6.25h-25v6.25h6.25v6.25h18.75v-6.25h6.25v-6.25h6.25v-6.25h6.25v-6.25h6.25v6.25h-6.25v6.25h-6.25v6.25h-6.25v6.25h12.5v-6.25h6.25v-6.25h6.25v6.25h-6.25v6.25h12.5v6.25h-12.5v6.25h6.25v6.25h-6.25v-6.25h-6.25v-6.25h-12.5v6.25h6.25v6.25h6.25v6.25h6.25v6.25h-6.25v-6.25h-6.25v-6.25h-6.25v-6.25h-6.25v-6.25h-18.75v6.25h-6.25v6.25h25v6.25h-18.75v18.75h-6.25v-25h-6.25v6.25h-6.25v18.75h6.25v6.25h6.25v6.25h6.25v6.25h6.25v6.25h-6.25v-6.25h-6.25v-6.25h-6.25v-6.25h-6.25v12.5h6.25v6.25h6.25v6.25h-6.25v-6.25h-6.25v12.5h-6.25v-12.5h-6.25v6.25h-6.25v-6.25h6.25v-6.25h6.25v-12.5h-6.25v6.25h-6.25v6.25h-6.25v6.25h-6.25v-6.25h6.25v-6.25h6.25v-6.25h6.25v-6.25h6.25v-18.75h-6.25v-6.25h-6.25v25h-6.25v-18.75h-18.75v-6.25h25v-6.25h-6.25v-6.25h-18.75v6.25h-6.25v6.25h-6.25v6.25h-6.25v6.25h-6.25v-6.25h6.25v-6.25h6.25v-6.25h6.25v-6.25h-12.5v6.25h-6.25v6.25H1.38v-6.25h6.25v-6.25H0v71.38h3.12v-6.25h6.25v-6.25h6.25v6.25h-6.25v6.25H3.12v6.25H0v6.25h9.38v-6.25ZM26.38,140.25v-6.25h6.25v6.25h-6.25ZM45.12,152.75h-12.5v-6.25h6.25v-6.25h6.25v12.5ZM113.88,152.75h-12.5v-12.5h6.25v6.25h6.25v6.25ZM120.12,140.25h-6.25v-6.25h6.25v6.25ZM168.38,242.88h-12.5v-6.25h6.25v-6.25h6.25v12.5ZM155.88,118.88h12.5v12.5h-6.25v-6.25h-6.25v-6.25ZM149.62,137.62v-6.25h6.25v6.25h-6.25ZM149.62,224.12h6.25v6.25h-6.25v-6.25ZM120.12,221.5v6.25h-6.25v-6.25h6.25ZM101.38,209h12.5v6.25h-6.25v6.25h-6.25v-12.5ZM32.62,209h12.5v12.5h-6.25v-6.25h-6.25v-6.25ZM26.38,221.5h6.25v6.25h-6.25v-6.25Z"/>
      <rect class="cls-1" x="70.12" y="196.5" width="6.25" height="6.25"/>
      <rect class="cls-1" x="193.38" y="106.38" width="3.12" height="6.25"/>
      <rect class="cls-1" x="63.88" y="190.25" width="6.25" height="6.25"/>
      <polygon class="cls-2" points="196.5 255.38 193.38 255.38 193.38 261.62 187.12 261.62 187.12 267.88 180.88 267.88 180.88 271 196.5 271 196.5 255.38"/>
      <rect class="cls-2" x="187.12" y="249.12" width="6.25" height="6.25"/>
      <rect class="cls-2" x="180.88" y="255.38" width="6.25" height="6.25"/>
      <rect class="cls-2" x="174.62" y="261.62" width="6.25" height="6.25"/>
      <polygon class="cls-2" points="196.5 192.88 193.38 192.88 193.38 205.38 187.12 205.38 187.12 211.62 193.38 211.62 193.38 224.12 187.12 224.12 187.12 230.38 193.38 230.38 193.38 249.12 196.5 249.12 196.5 192.88"/>
      <rect class="cls-2" x="180.88" y="199.12" width="6.25" height="6.25"/>
      <rect class="cls-2" x="180.88" y="217.88" width="6.25" height="6.25"/>
      <rect class="cls-2" x="174.62" y="211.62" width="6.25" height="6.25"/>
      <rect class="cls-2" x="168.38" y="205.38" width="6.25" height="6.25"/>
      <polygon class="cls-2" points="174.62 230.38 174.62 249.12 155.88 249.12 155.88 255.38 180.88 255.38 180.88 230.38 174.62 230.38"/>
      <polygon class="cls-2" points="162.12 236.62 155.88 236.62 155.88 242.88 168.38 242.88 168.38 230.38 162.12 230.38 162.12 236.62"/>
      <rect class="cls-2" x="149.62" y="224.12" width="6.25" height="6.25"/>
      <polygon class="cls-2" points="174.62 267.88 155.88 267.88 155.88 261.62 149.62 261.62 149.62 267.88 137.12 267.88 137.12 261.62 130.88 261.62 130.88 267.88 118.38 267.88 118.38 271 174.62 271 174.62 267.88"/>
      <rect class="cls-2" x="124.62" y="255.38" width="6.25" height="6.25"/>
      <rect class="cls-2" x="130.88" y="242.88" width="6.25" height="6.25"/>
      <rect class="cls-2" x="137.12" y="249.12" width="6.25" height="6.25"/>
      <rect class="cls-2" x="143.38" y="255.38" width="6.25" height="6.25"/>
      <polygon class="cls-2" points="28.12 267.88 15.62 267.88 15.62 261.62 9.38 261.62 9.38 267.88 0 267.88 0 271 28.12 271 28.12 267.88"/>
      <rect class="cls-2" x="15.62" y="255.38" width="6.25" height="6.25"/>
      <rect class="cls-2" y="255.38" width="3.12" height="6.25"/>
      <rect class="cls-2" x="3.12" y="249.12" width="6.25" height="6.25"/>
      <rect class="cls-2" x="9.38" y="242.88" width="6.25" height="6.25"/>
      <polygon class="cls-2" points="180.88 90.75 180.88 93.88 187.12 93.88 187.12 100.12 193.38 100.12 193.38 106.38 196.5 106.38 196.5 90.75 180.88 90.75"/>
      <rect class="cls-2" x="174.62" y="93.88" width="6.25" height="6.25"/>
      <rect class="cls-2" x="180.88" y="100.12" width="6.25" height="6.25"/>
      <rect class="cls-2" x="187.12" y="106.38" width="6.25" height="6.25"/>
      <polygon class="cls-2" points="193.38 112.62 193.38 131.38 187.12 131.38 187.12 137.62 193.38 137.62 193.38 150.12 187.12 150.12 187.12 156.38 193.38 156.38 193.38 168.88 196.5 168.88 196.5 112.62 193.38 112.62"/>
      <rect class="cls-2" x="180.88" y="156.38" width="6.25" height="6.25"/>
      <rect class="cls-2" x="168.38" y="150.12" width="6.25" height="6.25"/>
      <rect class="cls-2" x="174.62" y="143.88" width="6.25" height="6.25"/>
      <rect class="cls-2" x="180.88" y="137.62" width="6.25" height="6.25"/>
      <polygon class="cls-2" points="155.88 112.62 174.62 112.62 174.62 131.38 180.88 131.38 180.88 106.38 155.88 106.38 155.88 112.62"/>
      <polygon class="cls-2" points="162.12 131.38 168.38 131.38 168.38 118.88 155.88 118.88 155.88 125.12 162.12 125.12 162.12 131.38"/>
      <rect class="cls-2" x="149.62" y="131.38" width="6.25" height="6.25"/>
      <polygon class="cls-2" points="118.38 90.75 118.38 93.88 130.88 93.88 130.88 100.12 137.12 100.12 137.12 93.88 149.62 93.88 149.62 100.12 155.88 100.12 155.88 93.88 174.62 93.88 174.62 90.75 118.38 90.75"/>
      <rect class="cls-2" x="124.62" y="100.12" width="6.25" height="6.25"/>
      <rect class="cls-2" x="143.38" y="100.12" width="6.25" height="6.25"/>
      <rect class="cls-2" x="137.12" y="106.38" width="6.25" height="6.25"/>
      <rect class="cls-2" x="130.88" y="112.62" width="6.25" height="6.25"/>
      <polygon class="cls-2" points="63.88 190.25 70.12 190.25 70.12 196.5 76.38 196.5 76.38 190.25 82.62 190.25 82.62 184 88.88 184 88.88 177.75 82.62 177.75 82.62 171.5 76.38 171.5 76.38 165.25 70.12 165.25 70.12 171.5 63.88 171.5 63.88 177.75 57.62 177.75 57.62 184 63.88 184 63.88 190.25"/>
      <rect class="cls-2" x="63.88" y="159" width="6.25" height="6.25"/>
      <rect class="cls-2" x="57.62" y="165.25" width="6.25" height="6.25"/>
      <rect class="cls-2" x="51.38" y="171.5" width="6.25" height="6.25"/>
      <rect class="cls-2" x="51.38" y="184" width="6.25" height="6.25"/>
      <rect class="cls-2" x="57.62" y="190.25" width="6.25" height="6.25"/>
      <rect class="cls-2" x="63.88" y="196.5" width="6.25" height="6.25"/>
      <rect class="cls-2" x="76.38" y="159" width="6.25" height="6.25"/>
      <rect class="cls-2" x="82.62" y="165.25" width="6.25" height="6.25"/>
      <rect class="cls-2" x="88.88" y="171.5" width="6.25" height="6.25"/>
      <rect class="cls-2" x="88.88" y="184" width="6.25" height="6.25"/>
      <rect class="cls-2" x="82.62" y="190.25" width="6.25" height="6.25"/>
      <rect class="cls-2" x="76.38" y="196.5" width="6.25" height="6.25"/>
      <polygon class="cls-2" points="70.12 221.5 63.88 221.5 63.88 227.75 70.12 227.75 70.12 240.25 63.88 240.25 63.88 246.5 70.12 246.5 70.12 259 76.38 259 76.38 246.5 82.62 246.5 82.62 240.25 76.38 240.25 76.38 227.75 82.62 227.75 82.62 221.5 76.38 221.5 76.38 202.75 70.12 202.75 70.12 221.5"/>
      <rect class="cls-2" x="57.62" y="246.5" width="6.25" height="6.25"/>
      <rect class="cls-2" x="82.62" y="246.5" width="6.25" height="6.25"/>
      <rect class="cls-2" x="45.12" y="240.25" width="6.25" height="6.25"/>
      <rect class="cls-2" x="51.38" y="234" width="6.25" height="6.25"/>
      <rect class="cls-2" x="57.62" y="227.75" width="6.25" height="6.25"/>
      <rect class="cls-2" x="82.62" y="227.75" width="6.25" height="6.25"/>
      <rect class="cls-2" x="88.88" y="234" width="6.25" height="6.25"/>
      <rect class="cls-2" x="95.12" y="240.25" width="6.25" height="6.25"/>
      <polygon class="cls-2" points="76.38 140.25 82.62 140.25 82.62 134 76.38 134 76.38 121.5 82.62 121.5 82.62 115.25 76.38 115.25 76.38 102.75 70.12 102.75 70.12 115.25 63.88 115.25 63.88 121.5 70.12 121.5 70.12 134 63.88 134 63.88 140.25 70.12 140.25 70.12 159 76.38 159 76.38 140.25"/>
      <rect class="cls-2" x="82.62" y="109" width="6.25" height="6.25"/>
      <rect class="cls-2" x="57.62" y="109" width="6.25" height="6.25"/>
      <rect class="cls-2" x="95.12" y="115.25" width="6.25" height="6.25"/>
      <rect class="cls-2" x="88.88" y="121.5" width="6.25" height="6.25"/>
      <rect class="cls-2" x="82.62" y="127.75" width="6.25" height="6.25"/>
      <rect class="cls-2" x="57.62" y="127.75" width="6.25" height="6.25"/>
      <rect class="cls-2" x="51.38" y="121.5" width="6.25" height="6.25"/>
      <rect class="cls-2" x="45.12" y="115.25" width="6.25" height="6.25"/>
      <polygon class="cls-2" points="51.38 140.25 51.38 159 32.62 159 32.62 165.25 57.62 165.25 57.62 140.25 51.38 140.25"/>
      <polygon class="cls-2" points="38.88 146.5 32.62 146.5 32.62 152.75 45.12 152.75 45.12 140.25 38.88 140.25 38.88 146.5"/>
      <rect class="cls-2" x="26.38" y="134" width="6.25" height="6.25"/>
      <polygon class="cls-2" points="113.88 159 95.12 159 95.12 140.25 88.88 140.25 88.88 165.25 113.88 165.25 113.88 159"/>
      <polygon class="cls-2" points="107.62 140.25 101.38 140.25 101.38 152.75 113.88 152.75 113.88 146.5 107.62 146.5 107.62 140.25"/>
      <rect class="cls-2" x="113.88" y="134" width="6.25" height="6.25"/>
      <polygon class="cls-2" points="32.62 202.75 51.38 202.75 51.38 221.5 57.62 221.5 57.62 196.5 32.62 196.5 32.62 202.75"/>
      <polygon class="cls-2" points="38.88 221.5 45.12 221.5 45.12 209 32.62 209 32.62 215.25 38.88 215.25 38.88 221.5"/>
      <rect class="cls-2" x="26.38" y="221.5" width="6.25" height="6.25"/>
      <polygon class="cls-2" points="95.12 221.5 95.12 202.75 113.88 202.75 113.88 196.5 88.88 196.5 88.88 221.5 95.12 221.5"/>
      <polygon class="cls-2" points="107.62 215.25 113.88 215.25 113.88 209 101.38 209 101.38 221.5 107.62 221.5 107.62 215.25"/>
      <rect class="cls-2" x="113.88" y="221.5" width="6.25" height="6.25"/>
      <polygon class="cls-2" points="7.62 190.25 13.88 190.25 13.88 184 26.38 184 26.38 190.25 32.62 190.25 32.62 184 51.38 184 51.38 177.75 32.62 177.75 32.62 171.5 26.38 171.5 26.38 177.75 13.88 177.75 13.88 171.5 7.62 171.5 7.62 177.75 0 177.75 0 184 7.62 184 7.62 190.25"/>
      <rect class="cls-2" x="1.38" y="165.25" width="6.25" height="6.25"/>
      <rect class="cls-2" x="1.38" y="190.25" width="6.25" height="6.25"/>
      <rect class="cls-2" x="7.62" y="152.75" width="6.25" height="6.25"/>
      <rect class="cls-2" x="13.88" y="159" width="6.25" height="6.25"/>
      <rect class="cls-2" x="20.12" y="165.25" width="6.25" height="6.25"/>
      <rect class="cls-2" x="20.12" y="190.25" width="6.25" height="6.25"/>
      <rect class="cls-2" x="13.88" y="196.5" width="6.25" height="6.25"/>
      <rect class="cls-2" x="7.62" y="202.75" width="6.25" height="6.25"/>
      <polygon class="cls-2" points="113.88 184 113.88 190.25 120.12 190.25 120.12 184 132.62 184 132.62 190.25 138.88 190.25 138.88 184 151.38 184 151.38 177.75 138.88 177.75 138.88 171.5 132.62 171.5 132.62 177.75 120.12 177.75 120.12 171.5 113.88 171.5 113.88 177.75 95.12 177.75 95.12 184 113.88 184"/>
      <rect class="cls-2" x="138.88" y="190.25" width="6.25" height="6.25"/>
      <rect class="cls-2" x="138.88" y="165.25" width="6.25" height="6.25"/>
      <rect class="cls-2" x="132.62" y="202.75" width="6.25" height="6.25"/>
      <rect class="cls-2" x="126.38" y="196.5" width="6.25" height="6.25"/>
      <rect class="cls-2" x="120.12" y="190.25" width="6.25" height="6.25"/>
      <rect class="cls-2" x="120.12" y="165.25" width="6.25" height="6.25"/>
      <rect class="cls-2" x="126.38" y="159" width="6.25" height="6.25"/>
      <rect class="cls-2" x="132.62" y="152.75" width="6.25" height="6.25"/>
      <polygon class="cls-2" points="9.38 100.12 15.62 100.12 15.62 93.88 28.12 93.88 28.12 90.75 0 90.75 0 93.88 9.38 93.88 9.38 100.12"/>
      <rect class="cls-2" x="15.62" y="100.12" width="6.25" height="6.25"/>
      <rect class="cls-2" x="9.38" y="112.62" width="6.25" height="6.25"/>
      <rect class="cls-2" x="3.12" y="106.38" width="6.25" height="6.25"/>
      <rect class="cls-2" y="100.12" width="3.12" height="6.25"/>
      <rect class="cls-1" x="76.38" y="345.5" width="6.25" height="6.25"/>
      <rect class="cls-1" x="82.62" y="351.75" width="6.25" height="6.25"/>
      <rect class="cls-1" x="70.12" y="339.25" width="6.25" height="6.25"/>
      <rect class="cls-1" x="57.62" y="351.75" width="6.25" height="6.25"/>
      <rect class="cls-1" x="51.38" y="358" width="6.25" height="6.25"/>
      <rect class="cls-1" x="63.88" y="345.5" width="6.25" height="6.25"/>
      <rect class="cls-1" x="174.62" y="271" width="6.25" height="3.12"/>
      <rect class="cls-1" x="57.62" y="364.25" width="6.25" height="6.25"/>
      <rect class="cls-1" x="187.12" y="280.38" width="6.25" height="6.25"/>
      <rect class="cls-1" x="180.88" y="274.12" width="6.25" height="6.25"/>
      <rect class="cls-1" x="82.62" y="364.25" width="6.25" height="6.25"/>
      <rect class="cls-1" x="88.88" y="358" width="6.25" height="6.25"/>
      <rect class="cls-1" x="76.38" y="370.5" width="6.25" height="6.25"/>
      <polygon class="cls-1" points="82.62 376.75 82.62 383 76.38 383 76.38 400 88.88 400 88.88 376.75 82.62 376.75"/>
      <polygon class="cls-1" points="32.62 383 32.62 376.75 57.62 376.75 57.62 370.5 51.38 370.5 51.38 364.25 32.62 364.25 32.62 370.5 26.38 370.5 26.38 376.75 20.12 376.75 20.12 383 13.88 383 13.88 389.25 7.62 389.25 7.62 383 13.88 383 13.88 376.75 20.12 376.75 20.12 370.5 26.38 370.5 26.38 364.25 13.88 364.25 13.88 370.5 7.62 370.5 7.62 376.75 1.38 376.75 1.38 370.5 7.62 370.5 7.62 364.25 0 364.25 0 400 38.88 400 38.88 395.5 32.62 395.5 32.62 389.25 45.12 389.25 45.12 400 51.38 400 51.38 383 32.62 383"/>
      <path class="cls-1" d="M187.12,391.88v-6.25h-6.25v-6.25h6.25v6.25h6.25v-12.5h3.12v-24h-3.12v-12.5h-6.25v6.25h-6.25v-6.25h6.25v-6.25h6.25v-12.5h-6.25v6.25h-6.25v6.25h-6.25v6.25h-6.25v-6.25h6.25v-6.25h6.25v-6.25h6.25v-6.25h6.25v-18.75h-6.25v-6.25h-6.25v25h-6.25v-18.75h-18.75v-6.25h25v-6.25h-6.25v-6.25h-18.75v6.25h-6.25v6.25h-6.25v6.25h-6.25v6.25h-6.25v-6.25h6.25v-6.25h6.25v-6.25h6.25v-6.25h-12.5v6.25h-6.25v6.25h-6.25v-6.25h6.25v-6.25h-12.5v-3.12H28.12v3.12h-12.5v6.25h6.25v6.25h-6.25v-6.25h-6.25v-6.25H0v6.25h3.12v6.25h6.25v6.25h6.25v6.25h-6.25v-6.25H3.12v-6.25H0v71.38h7.62v-6.25H1.38v-6.25h6.25v6.25h6.25v6.25h12.5v-6.25h-6.25v-6.25h-6.25v-6.25h-6.25v-6.25h6.25v6.25h6.25v6.25h6.25v6.25h6.25v6.25h18.75v-6.25h6.25v-6.25h-25v-6.25h18.75v-18.75h6.25v25h6.25v-6.25h6.25v-18.75h-6.25v-6.25h-6.25v-6.25h-6.25v-6.25h-6.25v-6.25h6.25v6.25h6.25v6.25h6.25v6.25h6.25v-12.5h-6.25v-6.25h-6.25v-6.25h6.25v6.25h6.25v-12.5h6.25v12.5h6.25v-6.25h6.25v6.25h-6.25v6.25h-6.25v12.5h6.25v-6.25h6.25v-6.25h6.25v-6.25h6.25v6.25h-6.25v6.25h-6.25v6.25h-6.25v6.25h-6.25v18.75h6.25v6.25h6.25v-25h6.25v18.75h18.75v6.25h-25v6.25h6.25v6.25h18.75v-6.25h6.25v-6.25h6.25v-6.25h6.25v-6.25h6.25v6.25h-6.25v6.25h-6.25v6.25h-6.25v6.25h12.5v-6.25h6.25v-6.25h6.25v6.25h-6.25v6.25h12.5v6.25h-12.5v6.25h6.25v6.25h-6.25v-6.25h-6.25v-6.25h-12.5v6.25h6.25v6.25h6.25v6.25h6.25v6.25h-6.25v-6.25h-6.25v-6.25h-6.25v-6.25h-6.25v-6.25h-18.75v6.25h-6.25v6.25h25v6.25h-18.75v17h6.25v-10.75h12.5v6.25h-6.25v4.5h73.25v-1.88h-6.25v-6.25h-6.25v-6.25h6.25v6.25h6.25v6.25h6.25v1.88h6.25v-8.12h-6.25ZM26.38,320.5v-6.25h6.25v6.25h-6.25ZM45.12,333h-12.5v-6.25h6.25v-6.25h6.25v12.5ZM113.88,333h-12.5v-12.5h6.25v6.25h6.25v6.25ZM120.12,320.5h-6.25v-6.25h6.25v6.25ZM155.88,317.88h-6.25v-6.25h6.25v6.25ZM162.12,311.62v-6.25h-6.25v-6.25h12.5v12.5h-6.25Z"/>
      <polygon class="cls-1" points="63.88 383 63.88 376.75 57.62 376.75 57.62 400 70.12 400 70.12 383 63.88 383"/>
      <rect class="cls-1" x="70.12" y="376.75" width="6.25" height="6.25"/>
      <rect class="cls-1" x="193.38" y="286.62" width="3.12" height="6.25"/>
      <rect class="cls-1" x="63.88" y="370.5" width="6.25" height="6.25"/>
      <polygon class="cls-2" points="193.38 373.12 193.38 385.62 187.12 385.62 187.12 391.88 193.38 391.88 193.38 400 196.5 400 196.5 373.12 193.38 373.12"/>
      <rect class="cls-2" x="180.88" y="379.38" width="6.25" height="6.25"/>
      <rect class="cls-2" x="180.88" y="398.12" width="6.25" height="1.88"/>
      <rect class="cls-2" x="174.62" y="391.88" width="6.25" height="6.25"/>
      <rect class="cls-2" x="168.38" y="385.62" width="6.25" height="6.25"/>
      <polygon class="cls-2" points="180.88 271 180.88 274.12 187.12 274.12 187.12 280.38 193.38 280.38 193.38 286.62 196.5 286.62 196.5 271 180.88 271"/>
      <rect class="cls-2" x="174.62" y="274.12" width="6.25" height="6.25"/>
      <rect class="cls-2" x="180.88" y="280.38" width="6.25" height="6.25"/>
      <rect class="cls-2" x="187.12" y="286.62" width="6.25" height="6.25"/>
      <polygon class="cls-2" points="193.38 292.88 193.38 311.62 187.12 311.62 187.12 317.88 193.38 317.88 193.38 330.38 187.12 330.38 187.12 336.62 193.38 336.62 193.38 349.12 196.5 349.12 196.5 292.88 193.38 292.88"/>
      <rect class="cls-2" x="180.88" y="336.62" width="6.25" height="6.25"/>
      <rect class="cls-2" x="168.38" y="330.38" width="6.25" height="6.25"/>
      <rect class="cls-2" x="174.62" y="324.12" width="6.25" height="6.25"/>
      <rect class="cls-2" x="180.88" y="317.88" width="6.25" height="6.25"/>
      <polygon class="cls-2" points="155.88 292.88 174.62 292.88 174.62 311.62 180.88 311.62 180.88 286.62 155.88 286.62 155.88 292.88"/>
      <polygon class="cls-2" points="168.38 299.12 155.88 299.12 155.88 305.38 162.12 305.38 162.12 311.62 168.38 311.62 168.38 299.12"/>
      <rect class="cls-2" x="149.62" y="311.62" width="6.25" height="6.25"/>
      <polygon class="cls-2" points="118.38 271 118.38 274.12 130.88 274.12 130.88 280.38 137.12 280.38 137.12 274.12 149.62 274.12 149.62 280.38 155.88 280.38 155.88 274.12 174.62 274.12 174.62 271 118.38 271"/>
      <rect class="cls-2" x="124.62" y="280.38" width="6.25" height="6.25"/>
      <rect class="cls-2" x="143.38" y="280.38" width="6.25" height="6.25"/>
      <rect class="cls-2" x="137.12" y="286.62" width="6.25" height="6.25"/>
      <rect class="cls-2" x="130.88" y="292.88" width="6.25" height="6.25"/>
      <polygon class="cls-2" points="63.88 370.5 70.12 370.5 70.12 376.75 76.38 376.75 76.38 370.5 82.62 370.5 82.62 364.25 88.88 364.25 88.88 358 82.62 358 82.62 351.75 76.38 351.75 76.38 345.5 70.12 345.5 70.12 351.75 63.88 351.75 63.88 358 57.62 358 57.62 364.25 63.88 364.25 63.88 370.5"/>
      <rect class="cls-2" x="63.88" y="339.25" width="6.25" height="6.25"/>
      <rect class="cls-2" x="57.62" y="345.5" width="6.25" height="6.25"/>
      <rect class="cls-2" x="51.38" y="351.75" width="6.25" height="6.25"/>
      <rect class="cls-2" x="51.38" y="364.25" width="6.25" height="6.25"/>
      <rect class="cls-2" x="57.62" y="370.5" width="6.25" height="6.25"/>
      <rect class="cls-2" x="63.88" y="376.75" width="6.25" height="6.25"/>
      <rect class="cls-2" x="76.38" y="339.25" width="6.25" height="6.25"/>
      <rect class="cls-2" x="82.62" y="345.5" width="6.25" height="6.25"/>
      <rect class="cls-2" x="88.88" y="351.75" width="6.25" height="6.25"/>
      <rect class="cls-2" x="88.88" y="364.25" width="6.25" height="6.25"/>
      <rect class="cls-2" x="82.62" y="370.5" width="6.25" height="6.25"/>
      <rect class="cls-2" x="76.38" y="376.75" width="6.25" height="6.25"/>
      <rect class="cls-2" x="70.12" y="383" width="6.25" height="17"/>
      <polygon class="cls-2" points="76.38 320.5 82.62 320.5 82.62 314.25 76.38 314.25 76.38 301.75 82.62 301.75 82.62 295.5 76.38 295.5 76.38 283 70.12 283 70.12 295.5 63.88 295.5 63.88 301.75 70.12 301.75 70.12 314.25 63.88 314.25 63.88 320.5 70.12 320.5 70.12 339.25 76.38 339.25 76.38 320.5"/>
      <rect class="cls-2" x="82.62" y="289.25" width="6.25" height="6.25"/>
      <rect class="cls-2" x="57.62" y="289.25" width="6.25" height="6.25"/>
      <rect class="cls-2" x="95.12" y="295.5" width="6.25" height="6.25"/>
      <rect class="cls-2" x="88.88" y="301.75" width="6.25" height="6.25"/>
      <rect class="cls-2" x="82.62" y="308" width="6.25" height="6.25"/>
      <rect class="cls-2" x="57.62" y="308" width="6.25" height="6.25"/>
      <rect class="cls-2" x="51.38" y="301.75" width="6.25" height="6.25"/>
      <rect class="cls-2" x="45.12" y="295.5" width="6.25" height="6.25"/>
      <polygon class="cls-2" points="51.38 320.5 51.38 339.25 32.62 339.25 32.62 345.5 57.62 345.5 57.62 320.5 51.38 320.5"/>
      <polygon class="cls-2" points="38.88 326.75 32.62 326.75 32.62 333 45.12 333 45.12 320.5 38.88 320.5 38.88 326.75"/>
      <rect class="cls-2" x="26.38" y="314.25" width="6.25" height="6.25"/>
      <polygon class="cls-2" points="113.88 339.25 95.12 339.25 95.12 320.5 88.88 320.5 88.88 345.5 113.88 345.5 113.88 339.25"/>
      <polygon class="cls-2" points="107.62 320.5 101.38 320.5 101.38 333 113.88 333 113.88 326.75 107.62 326.75 107.62 320.5"/>
      <rect class="cls-2" x="113.88" y="314.25" width="6.25" height="6.25"/>
      <polygon class="cls-2" points="32.62 376.75 32.62 383 51.38 383 51.38 400 57.62 400 57.62 376.75 32.62 376.75"/>
      <polygon class="cls-2" points="32.62 389.25 32.62 395.5 38.88 395.5 38.88 400 45.12 400 45.12 389.25 32.62 389.25"/>
      <polygon class="cls-2" points="113.88 383 113.88 376.75 88.88 376.75 88.88 400 95.12 400 95.12 383 113.88 383"/>
      <polygon class="cls-2" points="113.88 395.5 113.88 389.25 101.38 389.25 101.38 400 107.62 400 107.62 395.5 113.88 395.5"/>
      <polygon class="cls-2" points="7.62 370.5 13.88 370.5 13.88 364.25 26.38 364.25 26.38 370.5 32.62 370.5 32.62 364.25 51.38 364.25 51.38 358 32.62 358 32.62 351.75 26.38 351.75 26.38 358 13.88 358 13.88 351.75 7.62 351.75 7.62 358 0 358 0 364.25 7.62 364.25 7.62 370.5"/>
      <rect class="cls-2" x="1.38" y="345.5" width="6.25" height="6.25"/>
      <rect class="cls-2" x="1.38" y="370.5" width="6.25" height="6.25"/>
      <rect class="cls-2" x="7.62" y="333" width="6.25" height="6.25"/>
      <rect class="cls-2" x="13.88" y="339.25" width="6.25" height="6.25"/>
      <rect class="cls-2" x="20.12" y="345.5" width="6.25" height="6.25"/>
      <rect class="cls-2" x="20.12" y="370.5" width="6.25" height="6.25"/>
      <rect class="cls-2" x="13.88" y="376.75" width="6.25" height="6.25"/>
      <rect class="cls-2" x="7.62" y="383" width="6.25" height="6.25"/>
      <polygon class="cls-2" points="113.88 364.25 113.88 370.5 120.12 370.5 120.12 364.25 132.62 364.25 132.62 370.5 138.88 370.5 138.88 364.25 151.38 364.25 151.38 358 138.88 358 138.88 351.75 132.62 351.75 132.62 358 120.12 358 120.12 351.75 113.88 351.75 113.88 358 95.12 358 95.12 364.25 113.88 364.25"/>
      <rect class="cls-2" x="138.88" y="370.5" width="6.25" height="6.25"/>
      <rect class="cls-2" x="138.88" y="345.5" width="6.25" height="6.25"/>
      <rect class="cls-2" x="132.62" y="383" width="6.25" height="6.25"/>
      <rect class="cls-2" x="126.38" y="376.75" width="6.25" height="6.25"/>
      <rect class="cls-2" x="120.12" y="370.5" width="6.25" height="6.25"/>
      <rect class="cls-2" x="120.12" y="345.5" width="6.25" height="6.25"/>
      <rect class="cls-2" x="126.38" y="339.25" width="6.25" height="6.25"/>
      <rect class="cls-2" x="132.62" y="333" width="6.25" height="6.25"/>
      <polygon class="cls-2" points="9.38 280.38 15.62 280.38 15.62 274.12 28.12 274.12 28.12 271 0 271 0 274.12 9.38 274.12 9.38 280.38"/>
      <rect class="cls-2" x="15.62" y="280.38" width="6.25" height="6.25"/>
      <rect class="cls-2" x="9.38" y="292.88" width="6.25" height="6.25"/>
      <rect class="cls-2" x="3.12" y="286.62" width="6.25" height="6.25"/>
      <rect class="cls-2" y="280.38" width="3.12" height="6.25"/>
    </g>
  </g>
</svg>