<?xml version="1.0" encoding="UTF-8"?>
<svg id="Layer_2" data-name="Layer 2" xmlns="http://www.w3.org/2000/svg" viewBox="0 0 400 400">
  <defs>
    <style>
      .cls-1 {
        fill: #fdfbfc;
      }

      .cls-1, .cls-2 {
        stroke-width: 0px;
      }

      .cls-2 {
        fill: #1c2d3f;
      }
    </style>
  </defs>
  <g id="Layer_1-2" data-name="Layer 1">
    <g>
      <polygon class="cls-1" points="381.25 6.25 381.25 12.5 375 12.5 375 18.75 368.75 18.75 368.75 25 393.75 25 400 25 400 0 393.75 0 387.5 0 387.5 6.25 381.25 6.25"/>
      <polygon class="cls-1" points="362.5 18.75 368.75 18.75 368.75 12.5 375 12.5 375 6.25 381.25 6.25 381.25 0 362.5 0 362.5 12.5 362.5 18.75"/>
      <rect class="cls-2" x="375" y="6.25" width="6.25" height="6.25"/>
      <rect class="cls-2" x="381.25" width="6.25" height="6.25"/>
      <rect class="cls-2" x="362.5" y="18.75" width="6.25" height="6.25"/>
      <rect class="cls-2" x="368.75" y="12.5" width="6.25" height="6.25"/>
      <polygon class="cls-1" points="362.5 56.25 368.75 56.25 368.75 50 375 50 375 43.75 381.25 43.75 381.25 37.5 387.5 37.5 387.5 31.25 393.75 31.25 393.75 25 368.75 25 362.5 25 362.5 50 362.5 56.25"/>
      <polygon class="cls-1" points="393.75 37.5 387.5 37.5 387.5 43.75 381.25 43.75 381.25 50 375 50 375 56.25 368.75 56.25 368.75 62.5 393.75 62.5 400 62.5 400 37.5 400 31.25 393.75 31.25 393.75 37.5"/>
      <rect class="cls-2" x="375" y="43.75" width="6.25" height="6.25"/>
      <rect class="cls-2" x="381.25" y="37.5" width="6.25" height="6.25"/>
      <rect class="cls-2" x="387.5" y="31.25" width="6.25" height="6.25"/>
      <rect class="cls-2" x="393.75" y="25" width="6.25" height="6.25"/>
      <rect class="cls-2" x="362.5" y="56.25" width="6.25" height="6.25"/>
      <rect class="cls-2" x="368.75" y="50" width="6.25" height="6.25"/>
      <polygon class="cls-1" points="362.5 87.5 362.5 93.75 368.75 93.75 368.75 87.5 375 87.5 375 81.25 381.25 81.25 381.25 75 387.5 75 387.5 68.75 393.75 68.75 393.75 62.5 368.75 62.5 362.5 62.5 362.5 87.5"/>
      <polygon class="cls-1" points="393.75 75 387.5 75 387.5 81.25 381.25 81.25 381.25 87.5 375 87.5 375 93.75 368.75 93.75 368.75 100 393.75 100 400 100 400 75 400 68.75 393.75 68.75 393.75 75"/>
      <rect class="cls-2" x="375" y="81.25" width="6.25" height="6.25"/>
      <rect class="cls-2" x="381.25" y="75" width="6.25" height="6.25"/>
      <rect class="cls-2" x="387.5" y="68.75" width="6.25" height="6.25"/>
      <rect class="cls-2" x="393.75" y="62.5" width="6.25" height="6.25"/>
      <rect class="cls-2" x="362.5" y="93.75" width="6.25" height="6.25"/>
      <rect class="cls-2" x="368.75" y="87.5" width="6.25" height="6.25"/>
      <polygon class="cls-1" points="393.75 112.5 387.5 112.5 387.5 118.75 381.25 118.75 381.25 125 375 125 375 131.25 368.75 131.25 368.75 137.5 393.75 137.5 400 137.5 400 112.5 400 106.25 393.75 106.25 393.75 112.5"/>
      <polygon class="cls-1" points="362.5 125 362.5 131.25 368.75 131.25 368.75 125 375 125 375 118.75 381.25 118.75 381.25 112.5 387.5 112.5 387.5 106.25 393.75 106.25 393.75 100 368.75 100 362.5 100 362.5 125"/>
      <rect class="cls-2" x="375" y="118.75" width="6.25" height="6.25"/>
      <rect class="cls-2" x="381.25" y="112.5" width="6.25" height="6.25"/>
      <rect class="cls-2" x="387.5" y="106.25" width="6.25" height="6.25"/>
      <rect class="cls-2" x="393.75" y="100" width="6.25" height="6.25"/>
      <rect class="cls-2" x="362.5" y="131.25" width="6.25" height="6.25"/>
      <rect class="cls-2" x="368.75" y="125" width="6.25" height="6.25"/>
      <polygon class="cls-1" points="362.5 162.5 362.5 168.75 368.75 168.75 368.75 162.5 375 162.5 375 156.25 381.25 156.25 381.25 150 387.5 150 387.5 143.75 393.75 143.75 393.75 137.5 368.75 137.5 362.5 137.5 362.5 162.5"/>
      <polygon class="cls-1" points="393.75 150 387.5 150 387.5 156.25 381.25 156.25 381.25 162.5 375 162.5 375 168.75 368.75 168.75 368.75 175 393.75 175 400 175 400 150 400 143.75 393.75 143.75 393.75 150"/>
      <rect class="cls-2" x="375" y="156.25" width="6.25" height="6.25"/>
      <rect class="cls-2" x="381.25" y="150" width="6.25" height="6.25"/>
      <rect class="cls-2" x="387.5" y="143.75" width="6.25" height="6.25"/>
      <rect class="cls-2" x="393.75" y="137.5" width="6.25" height="6.25"/>
      <rect class="cls-2" x="362.5" y="168.75" width="6.25" height="6.25"/>
      <rect class="cls-2" x="368.75" y="162.5" width="6.25" height="6.25"/>
      <polygon class="cls-1" points="362.5 200 362.5 206.25 368.75 206.25 368.75 200 375 200 375 193.75 381.25 193.75 381.25 187.5 387.5 187.5 387.5 181.25 393.75 181.25 393.75 175 368.75 175 362.5 175 362.5 200"/>
      <polygon class="cls-1" points="393.75 187.5 387.5 187.5 387.5 193.75 381.25 193.75 381.25 200 375 200 375 206.25 368.75 206.25 368.75 212.5 393.75 212.5 400 212.5 400 187.5 400 181.25 393.75 181.25 393.75 187.5"/>
      <rect class="cls-2" x="375" y="193.75" width="6.25" height="6.25"/>
      <rect class="cls-2" x="381.25" y="187.5" width="6.25" height="6.25"/>
      <rect class="cls-2" x="387.5" y="181.25" width="6.25" height="6.25"/>
      <rect class="cls-2" x="393.75" y="175" width="6.25" height="6.25"/>
      <rect class="cls-2" x="362.5" y="206.25" width="6.25" height="6.25"/>
      <rect class="cls-2" x="368.75" y="200" width="6.25" height="6.25"/>
      <polygon class="cls-1" points="362.5 237.5 362.5 243.75 368.75 243.75 368.75 237.5 375 237.5 375 231.25 381.25 231.25 381.25 225 387.5 225 387.5 218.75 393.75 218.75 393.75 212.5 368.75 212.5 362.5 212.5 362.5 237.5"/>
      <polygon class="cls-1" points="393.75 225 387.5 225 387.5 231.25 381.25 231.25 381.25 237.5 375 237.5 375 243.75 368.75 243.75 368.75 250 393.75 250 400 250 400 225 400 218.75 393.75 218.75 393.75 225"/>
      <rect class="cls-2" x="375" y="231.25" width="6.25" height="6.25"/>
      <rect class="cls-2" x="381.25" y="225" width="6.25" height="6.25"/>
      <rect class="cls-2" x="387.5" y="218.75" width="6.25" height="6.25"/>
      <rect class="cls-2" x="393.75" y="212.5" width="6.25" height="6.25"/>
      <rect class="cls-2" x="362.5" y="243.75" width="6.25" height="6.25"/>
      <rect class="cls-2" x="368.75" y="237.5" width="6.25" height="6.25"/>
      <polygon class="cls-1" points="362.5 275 362.5 281.25 368.75 281.25 368.75 275 375 275 375 268.75 381.25 268.75 381.25 262.5 387.5 262.5 387.5 256.25 393.75 256.25 393.75 250 368.75 250 362.5 250 362.5 275"/>
      <polygon class="cls-1" points="393.75 262.5 387.5 262.5 387.5 268.75 381.25 268.75 381.25 275 375 275 375 281.25 368.75 281.25 368.75 287.5 393.75 287.5 400 287.5 400 262.5 400 256.25 393.75 256.25 393.75 262.5"/>
      <rect class="cls-2" x="375" y="268.75" width="6.25" height="6.25"/>
      <rect class="cls-2" x="381.25" y="262.5" width="6.25" height="6.25"/>
      <rect class="cls-2" x="387.5" y="256.25" width="6.25" height="6.25"/>
      <rect class="cls-2" x="393.75" y="250" width="6.25" height="6.25"/>
      <rect class="cls-2" x="362.5" y="281.25" width="6.25" height="6.25"/>
      <rect class="cls-2" x="368.75" y="275" width="6.25" height="6.25"/>
      <polygon class="cls-1" points="362.5 312.5 362.5 318.75 368.75 318.75 368.75 312.5 375 312.5 375 306.25 381.25 306.25 381.25 300 387.5 300 387.5 293.75 393.75 293.75 393.75 287.5 368.75 287.5 362.5 287.5 362.5 312.5"/>
      <polygon class="cls-1" points="393.75 300 387.5 300 387.5 306.25 381.25 306.25 381.25 312.5 375 312.5 375 318.75 368.75 318.75 368.75 325 393.75 325 400 325 400 300 400 293.75 393.75 293.75 393.75 300"/>
      <rect class="cls-2" x="375" y="306.25" width="6.25" height="6.25"/>
      <rect class="cls-2" x="381.25" y="300" width="6.25" height="6.25"/>
      <rect class="cls-2" x="387.5" y="293.75" width="6.25" height="6.25"/>
      <rect class="cls-2" x="393.75" y="287.5" width="6.25" height="6.25"/>
      <rect class="cls-2" x="362.5" y="318.75" width="6.25" height="6.25"/>
      <rect class="cls-2" x="368.75" y="312.5" width="6.25" height="6.25"/>
      <polygon class="cls-1" points="393.75 337.5 387.5 337.5 387.5 343.75 381.25 343.75 381.25 350 375 350 375 356.25 368.75 356.25 368.75 362.5 393.75 362.5 400 362.5 400 337.5 400 331.25 393.75 331.25 393.75 337.5"/>
      <polygon class="cls-1" points="362.5 350 362.5 356.25 368.75 356.25 368.75 350 375 350 375 343.75 381.25 343.75 381.25 337.5 387.5 337.5 387.5 331.25 393.75 331.25 393.75 325 368.75 325 362.5 325 362.5 350"/>
      <rect class="cls-2" x="375" y="343.75" width="6.25" height="6.25"/>
      <rect class="cls-2" x="381.25" y="337.5" width="6.25" height="6.25"/>
      <rect class="cls-2" x="387.5" y="331.25" width="6.25" height="6.25"/>
      <rect class="cls-2" x="393.75" y="325" width="6.25" height="6.25"/>
      <rect class="cls-2" x="362.5" y="356.25" width="6.25" height="6.25"/>
      <rect class="cls-2" x="368.75" y="350" width="6.25" height="6.25"/>
      <polygon class="cls-1" points="400 368.75 393.75 368.75 393.75 375 387.5 375 387.5 381.25 381.25 381.25 381.25 387.5 375 387.5 375 393.75 368.75 393.75 368.75 400 400 400 400 375 400 368.75"/>
      <polygon class="cls-1" points="368.75 362.5 362.5 362.5 362.5 387.5 362.5 393.75 368.75 393.75 368.75 387.5 375 387.5 375 381.25 381.25 381.25 381.25 375 387.5 375 387.5 368.75 393.75 368.75 393.75 362.5 368.75 362.5"/>
      <rect class="cls-2" x="375" y="381.25" width="6.25" height="6.25"/>
      <rect class="cls-2" x="381.25" y="375" width="6.25" height="6.25"/>
      <rect class="cls-2" x="387.5" y="368.75" width="6.25" height="6.25"/>
      <rect class="cls-2" x="393.75" y="362.5" width="6.25" height="6.25"/>
      <rect class="cls-2" x="362.5" y="393.75" width="6.25" height="6.25"/>
      <rect class="cls-2" x="368.75" y="387.5" width="6.25" height="6.25"/>
      <polygon class="cls-1" points="356.25 6.25 356.25 12.5 362.5 12.5 362.5 0 350 0 350 6.25 356.25 6.25"/>
      <polygon class="cls-1" points="318.75 6.25 318.75 12.5 312.5 12.5 312.5 18.75 306.25 18.75 306.25 25 331.25 25 337.5 25 362.5 25 362.5 18.75 356.25 18.75 356.25 12.5 350 12.5 350 6.25 343.75 6.25 343.75 0 337.5 0 331.25 0 325 0 325 6.25 318.75 6.25"/>
      <polygon class="cls-1" points="300 18.75 306.25 18.75 306.25 12.5 312.5 12.5 312.5 6.25 318.75 6.25 318.75 0 300 0 300 12.5 300 18.75"/>
      <rect class="cls-2" x="312.5" y="6.25" width="6.25" height="6.25"/>
      <rect class="cls-2" x="318.75" width="6.25" height="6.25"/>
      <rect class="cls-2" x="343.75" width="6.25" height="6.25"/>
      <rect class="cls-2" x="350" y="6.25" width="6.25" height="6.25"/>
      <rect class="cls-2" x="356.25" y="12.5" width="6.25" height="6.25"/>
      <rect class="cls-2" x="300" y="18.75" width="6.25" height="6.25"/>
      <rect class="cls-2" x="306.25" y="12.5" width="6.25" height="6.25"/>
      <polygon class="cls-1" points="343.75 31.25 343.75 37.5 350 37.5 350 43.75 356.25 43.75 356.25 50 362.5 50 362.5 25 337.5 25 337.5 31.25 343.75 31.25"/>
      <polygon class="cls-1" points="300 56.25 306.25 56.25 306.25 50 312.5 50 312.5 43.75 318.75 43.75 318.75 37.5 325 37.5 325 31.25 331.25 31.25 331.25 25 306.25 25 300 25 300 50 300 56.25"/>
      <polygon class="cls-1" points="331.25 62.5 337.5 62.5 362.5 62.5 362.5 56.25 356.25 56.25 356.25 50 350 50 350 43.75 343.75 43.75 343.75 37.5 337.5 37.5 337.5 31.25 331.25 31.25 331.25 37.5 325 37.5 325 43.75 318.75 43.75 318.75 50 312.5 50 312.5 56.25 306.25 56.25 306.25 62.5 331.25 62.5"/>
      <rect class="cls-2" x="312.5" y="43.75" width="6.25" height="6.25"/>
      <rect class="cls-2" x="318.75" y="37.5" width="6.25" height="6.25"/>
      <rect class="cls-2" x="325" y="31.25" width="6.25" height="6.25"/>
      <rect class="cls-2" x="331.25" y="25" width="6.25" height="6.25"/>
      <rect class="cls-2" x="337.5" y="31.25" width="6.25" height="6.25"/>
      <rect class="cls-2" x="343.75" y="37.5" width="6.25" height="6.25"/>
      <rect class="cls-2" x="350" y="43.75" width="6.25" height="6.25"/>
      <rect class="cls-2" x="356.25" y="50" width="6.25" height="6.25"/>
      <rect class="cls-2" x="300" y="56.25" width="6.25" height="6.25"/>
      <rect class="cls-2" x="306.25" y="50" width="6.25" height="6.25"/>
      <polygon class="cls-1" points="300 93.75 306.25 93.75 306.25 87.5 312.5 87.5 312.5 81.25 318.75 81.25 318.75 75 325 75 325 68.75 331.25 68.75 331.25 62.5 306.25 62.5 300 62.5 300 87.5 300 93.75"/>
      <polygon class="cls-1" points="356.25 87.5 350 87.5 350 81.25 343.75 81.25 343.75 75 337.5 75 337.5 68.75 331.25 68.75 331.25 75 325 75 325 81.25 318.75 81.25 318.75 87.5 312.5 87.5 312.5 93.75 306.25 93.75 306.25 100 331.25 100 337.5 100 362.5 100 362.5 93.75 356.25 93.75 356.25 87.5"/>
      <polygon class="cls-1" points="337.5 68.75 343.75 68.75 343.75 75 350 75 350 81.25 356.25 81.25 356.25 87.5 362.5 87.5 362.5 62.5 337.5 62.5 337.5 68.75"/>
      <rect class="cls-2" x="312.5" y="81.25" width="6.25" height="6.25"/>
      <rect class="cls-2" x="318.75" y="75" width="6.25" height="6.25"/>
      <rect class="cls-2" x="325" y="68.75" width="6.25" height="6.25"/>
      <rect class="cls-2" x="331.25" y="62.5" width="6.25" height="6.25"/>
      <rect class="cls-2" x="337.5" y="68.75" width="6.25" height="6.25"/>
      <rect class="cls-2" x="343.75" y="75" width="6.25" height="6.25"/>
      <rect class="cls-2" x="350" y="81.25" width="6.25" height="6.25"/>
      <rect class="cls-2" x="356.25" y="87.5" width="6.25" height="6.25"/>
      <rect class="cls-2" x="300" y="93.75" width="6.25" height="6.25"/>
      <rect class="cls-2" x="306.25" y="87.5" width="6.25" height="6.25"/>
      <polygon class="cls-1" points="300 125 300 131.25 306.25 131.25 306.25 125 312.5 125 312.5 118.75 318.75 118.75 318.75 112.5 325 112.5 325 106.25 331.25 106.25 331.25 100 306.25 100 300 100 300 125"/>
      <polygon class="cls-1" points="356.25 125 350 125 350 118.75 343.75 118.75 343.75 112.5 337.5 112.5 337.5 106.25 331.25 106.25 331.25 112.5 325 112.5 325 118.75 318.75 118.75 318.75 125 312.5 125 312.5 131.25 306.25 131.25 306.25 137.5 331.25 137.5 337.5 137.5 362.5 137.5 362.5 131.25 356.25 131.25 356.25 125"/>
      <polygon class="cls-1" points="337.5 106.25 343.75 106.25 343.75 112.5 350 112.5 350 118.75 356.25 118.75 356.25 125 362.5 125 362.5 100 337.5 100 337.5 106.25"/>
      <rect class="cls-2" x="312.5" y="118.75" width="6.25" height="6.25"/>
      <rect class="cls-2" x="318.75" y="112.5" width="6.25" height="6.25"/>
      <rect class="cls-2" x="325" y="106.25" width="6.25" height="6.25"/>
      <rect class="cls-2" x="331.25" y="100" width="6.25" height="6.25"/>
      <rect class="cls-2" x="337.5" y="106.25" width="6.25" height="6.25"/>
      <rect class="cls-2" x="343.75" y="112.5" width="6.25" height="6.25"/>
      <rect class="cls-2" x="350" y="118.75" width="6.25" height="6.25"/>
      <rect class="cls-2" x="356.25" y="125" width="6.25" height="6.25"/>
      <rect class="cls-2" x="300" y="131.25" width="6.25" height="6.25"/>
      <rect class="cls-2" x="306.25" y="125" width="6.25" height="6.25"/>
      <polygon class="cls-1" points="300 162.5 300 168.75 306.25 168.75 306.25 162.5 312.5 162.5 312.5 156.25 318.75 156.25 318.75 150 325 150 325 143.75 331.25 143.75 331.25 137.5 306.25 137.5 300 137.5 300 162.5"/>
      <polygon class="cls-1" points="356.25 162.5 350 162.5 350 156.25 343.75 156.25 343.75 150 337.5 150 337.5 143.75 331.25 143.75 331.25 150 325 150 325 156.25 318.75 156.25 318.75 162.5 312.5 162.5 312.5 168.75 306.25 168.75 306.25 175 331.25 175 337.5 175 362.5 175 362.5 168.75 356.25 168.75 356.25 162.5"/>
      <polygon class="cls-1" points="337.5 143.75 343.75 143.75 343.75 150 350 150 350 156.25 356.25 156.25 356.25 162.5 362.5 162.5 362.5 137.5 337.5 137.5 337.5 143.75"/>
      <rect class="cls-2" x="312.5" y="156.25" width="6.25" height="6.25"/>
      <rect class="cls-2" x="318.75" y="150" width="6.25" height="6.25"/>
      <rect class="cls-2" x="325" y="143.75" width="6.25" height="6.25"/>
      <rect class="cls-2" x="331.25" y="137.5" width="6.25" height="6.25"/>
      <rect class="cls-2" x="337.5" y="143.75" width="6.25" height="6.25"/>
      <rect class="cls-2" x="343.75" y="150" width="6.25" height="6.25"/>
      <rect class="cls-2" x="350" y="156.25" width="6.25" height="6.25"/>
      <rect class="cls-2" x="356.25" y="162.5" width="6.25" height="6.25"/>
      <rect class="cls-2" x="300" y="168.75" width="6.25" height="6.25"/>
      <rect class="cls-2" x="306.25" y="162.5" width="6.25" height="6.25"/>
      <polygon class="cls-1" points="300 200 300 206.25 306.25 206.25 306.25 200 312.5 200 312.5 193.75 318.75 193.75 318.75 187.5 325 187.5 325 181.25 331.25 181.25 331.25 175 306.25 175 300 175 300 200"/>
      <polygon class="cls-1" points="337.5 181.25 343.75 181.25 343.75 187.5 350 187.5 350 193.75 356.25 193.75 356.25 200 362.5 200 362.5 175 337.5 175 337.5 181.25"/>
      <polygon class="cls-1" points="356.25 200 350 200 350 193.75 343.75 193.75 343.75 187.5 337.5 187.5 337.5 181.25 331.25 181.25 331.25 187.5 325 187.5 325 193.75 318.75 193.75 318.75 200 312.5 200 312.5 206.25 306.25 206.25 306.25 212.5 331.25 212.5 337.5 212.5 362.5 212.5 362.5 206.25 356.25 206.25 356.25 200"/>
      <rect class="cls-2" x="312.5" y="193.75" width="6.25" height="6.25"/>
      <rect class="cls-2" x="318.75" y="187.5" width="6.25" height="6.25"/>
      <rect class="cls-2" x="325" y="181.25" width="6.25" height="6.25"/>
      <rect class="cls-2" x="331.25" y="175" width="6.25" height="6.25"/>
      <rect class="cls-2" x="337.5" y="181.25" width="6.25" height="6.25"/>
      <rect class="cls-2" x="343.75" y="187.5" width="6.25" height="6.25"/>
      <rect class="cls-2" x="350" y="193.75" width="6.25" height="6.25"/>
      <rect class="cls-2" x="356.25" y="200" width="6.25" height="6.25"/>
      <rect class="cls-2" x="300" y="206.25" width="6.25" height="6.25"/>
      <rect class="cls-2" x="306.25" y="200" width="6.25" height="6.25"/>
      <polygon class="cls-1" points="337.5 218.75 343.75 218.75 343.75 225 350 225 350 231.25 356.25 231.25 356.25 237.5 362.5 237.5 362.5 212.5 337.5 212.5 337.5 218.75"/>
      <polygon class="cls-1" points="356.25 237.5 350 237.5 350 231.25 343.75 231.25 343.75 225 337.5 225 337.5 218.75 331.25 218.75 331.25 225 325 225 325 231.25 318.75 231.25 318.75 237.5 312.5 237.5 312.5 243.75 306.25 243.75 306.25 250 331.25 250 337.5 250 362.5 250 362.5 243.75 356.25 243.75 356.25 237.5"/>
      <polygon class="cls-1" points="300 237.5 300 243.75 306.25 243.75 306.25 237.5 312.5 237.5 312.5 231.25 318.75 231.25 318.75 225 325 225 325 218.75 331.25 218.75 331.25 212.5 306.25 212.5 300 212.5 300 237.5"/>
      <rect class="cls-2" x="312.5" y="231.25" width="6.25" height="6.25"/>
      <rect class="cls-2" x="318.75" y="225" width="6.25" height="6.25"/>
      <rect class="cls-2" x="325" y="218.75" width="6.25" height="6.25"/>
      <rect class="cls-2" x="331.25" y="212.5" width="6.25" height="6.25"/>
      <rect class="cls-2" x="337.5" y="218.75" width="6.25" height="6.25"/>
      <rect class="cls-2" x="343.75" y="225" width="6.25" height="6.25"/>
      <rect class="cls-2" x="350" y="231.25" width="6.25" height="6.25"/>
      <rect class="cls-2" x="356.25" y="237.5" width="6.25" height="6.25"/>
      <rect class="cls-2" x="300" y="243.75" width="6.25" height="6.25"/>
      <rect class="cls-2" x="306.25" y="237.5" width="6.25" height="6.25"/>
      <polygon class="cls-1" points="300 275 300 281.25 306.25 281.25 306.25 275 312.5 275 312.5 268.75 318.75 268.75 318.75 262.5 325 262.5 325 256.25 331.25 256.25 331.25 250 306.25 250 300 250 300 275"/>
      <polygon class="cls-1" points="356.25 275 350 275 350 268.75 343.75 268.75 343.75 262.5 337.5 262.5 337.5 256.25 331.25 256.25 331.25 262.5 325 262.5 325 268.75 318.75 268.75 318.75 275 312.5 275 312.5 281.25 306.25 281.25 306.25 287.5 331.25 287.5 337.5 287.5 362.5 287.5 362.5 281.25 356.25 281.25 356.25 275"/>
      <polygon class="cls-1" points="337.5 256.25 343.75 256.25 343.75 262.5 350 262.5 350 268.75 356.25 268.75 356.25 275 362.5 275 362.5 250 337.5 250 337.5 256.25"/>
      <rect class="cls-2" x="312.5" y="268.75" width="6.25" height="6.25"/>
      <rect class="cls-2" x="318.75" y="262.5" width="6.25" height="6.25"/>
      <rect class="cls-2" x="325" y="256.25" width="6.25" height="6.25"/>
      <rect class="cls-2" x="331.25" y="250" width="6.25" height="6.25"/>
      <rect class="cls-2" x="337.5" y="256.25" width="6.25" height="6.25"/>
      <rect class="cls-2" x="343.75" y="262.5" width="6.25" height="6.25"/>
      <rect class="cls-2" x="350" y="268.75" width="6.25" height="6.25"/>
      <rect class="cls-2" x="356.25" y="275" width="6.25" height="6.25"/>
      <rect class="cls-2" x="300" y="281.25" width="6.25" height="6.25"/>
      <rect class="cls-2" x="306.25" y="275" width="6.25" height="6.25"/>
      <polygon class="cls-1" points="356.25 312.5 350 312.5 350 306.25 343.75 306.25 343.75 300 337.5 300 337.5 293.75 331.25 293.75 331.25 300 325 300 325 306.25 318.75 306.25 318.75 312.5 312.5 312.5 312.5 318.75 306.25 318.75 306.25 325 331.25 325 337.5 325 362.5 325 362.5 318.75 356.25 318.75 356.25 312.5"/>
      <polygon class="cls-1" points="300 312.5 300 318.75 306.25 318.75 306.25 312.5 312.5 312.5 312.5 306.25 318.75 306.25 318.75 300 325 300 325 293.75 331.25 293.75 331.25 287.5 306.25 287.5 300 287.5 300 312.5"/>
      <polygon class="cls-1" points="337.5 293.75 343.75 293.75 343.75 300 350 300 350 306.25 356.25 306.25 356.25 312.5 362.5 312.5 362.5 287.5 337.5 287.5 337.5 293.75"/>
      <rect class="cls-2" x="312.5" y="306.25" width="6.25" height="6.25"/>
      <rect class="cls-2" x="318.75" y="300" width="6.25" height="6.25"/>
      <rect class="cls-2" x="325" y="293.75" width="6.25" height="6.25"/>
      <rect class="cls-2" x="331.25" y="287.5" width="6.25" height="6.25"/>
      <rect class="cls-2" x="337.5" y="293.75" width="6.25" height="6.25"/>
      <rect class="cls-2" x="343.75" y="300" width="6.25" height="6.25"/>
      <rect class="cls-2" x="350" y="306.25" width="6.25" height="6.25"/>
      <rect class="cls-2" x="356.25" y="312.5" width="6.25" height="6.25"/>
      <rect class="cls-2" x="300" y="318.75" width="6.25" height="6.25"/>
      <rect class="cls-2" x="306.25" y="312.5" width="6.25" height="6.25"/>
      <polygon class="cls-1" points="337.5 331.25 343.75 331.25 343.75 337.5 350 337.5 350 343.75 356.25 343.75 356.25 350 362.5 350 362.5 325 337.5 325 337.5 331.25"/>
      <polygon class="cls-1" points="356.25 356.25 356.25 350 350 350 350 343.75 343.75 343.75 343.75 337.5 337.5 337.5 337.5 331.25 331.25 331.25 331.25 337.5 325 337.5 325 343.75 318.75 343.75 318.75 350 312.5 350 312.5 356.25 306.25 356.25 306.25 362.5 331.25 362.5 337.5 362.5 362.5 362.5 362.5 356.25 356.25 356.25"/>
      <polygon class="cls-1" points="306.25 325 300 325 300 350 300 356.25 306.25 356.25 306.25 350 312.5 350 312.5 343.75 318.75 343.75 318.75 337.5 325 337.5 325 331.25 331.25 331.25 331.25 325 306.25 325"/>
      <rect class="cls-2" x="312.5" y="343.75" width="6.25" height="6.25"/>
      <rect class="cls-2" x="318.75" y="337.5" width="6.25" height="6.25"/>
      <rect class="cls-2" x="325" y="331.25" width="6.25" height="6.25"/>
      <rect class="cls-2" x="331.25" y="325" width="6.25" height="6.25"/>
      <rect class="cls-2" x="337.5" y="331.25" width="6.25" height="6.25"/>
      <rect class="cls-2" x="343.75" y="337.5" width="6.25" height="6.25"/>
      <rect class="cls-2" x="350" y="343.75" width="6.25" height="6.25"/>
      <rect class="cls-2" x="356.25" y="350" width="6.25" height="6.25"/>
      <rect class="cls-2" x="300" y="356.25" width="6.25" height="6.25"/>
      <rect class="cls-2" x="306.25" y="350" width="6.25" height="6.25"/>
      <polygon class="cls-1" points="362.5 362.5 337.5 362.5 337.5 368.75 343.75 368.75 343.75 375 350 375 350 381.25 356.25 381.25 356.25 387.5 362.5 387.5 362.5 362.5"/>
      <polygon class="cls-1" points="356.25 393.75 356.25 387.5 350 387.5 350 381.25 343.75 381.25 343.75 375 337.5 375 337.5 368.75 331.25 368.75 331.25 375 325 375 325 381.25 318.75 381.25 318.75 387.5 312.5 387.5 312.5 393.75 306.25 393.75 306.25 400 362.5 400 362.5 393.75 356.25 393.75"/>
      <polygon class="cls-1" points="306.25 362.5 300 362.5 300 387.5 300 393.75 306.25 393.75 306.25 387.5 312.5 387.5 312.5 381.25 318.75 381.25 318.75 375 325 375 325 368.75 331.25 368.75 331.25 362.5 306.25 362.5"/>
      <rect class="cls-2" x="312.5" y="381.25" width="6.25" height="6.25"/>
      <rect class="cls-2" x="318.75" y="375" width="6.25" height="6.25"/>
      <rect class="cls-2" x="325" y="368.75" width="6.25" height="6.25"/>
      <rect class="cls-2" x="331.25" y="362.5" width="6.25" height="6.25"/>
      <rect class="cls-2" x="337.5" y="368.75" width="6.25" height="6.25"/>
      <rect class="cls-2" x="343.75" y="375" width="6.25" height="6.25"/>
      <rect class="cls-2" x="350" y="381.25" width="6.25" height="6.25"/>
      <rect class="cls-2" x="356.25" y="387.5" width="6.25" height="6.25"/>
      <rect class="cls-2" x="300" y="393.75" width="6.25" height="6.25"/>
      <rect class="cls-2" x="306.25" y="387.5" width="6.25" height="6.25"/>
      <polygon class="cls-1" points="256.25 6.25 256.25 12.5 250 12.5 250 18.75 243.75 18.75 243.75 25 268.75 25 275 25 300 25 300 18.75 293.75 18.75 293.75 12.5 287.5 12.5 287.5 6.25 281.25 6.25 281.25 0 275 0 268.75 0 262.5 0 262.5 6.25 256.25 6.25"/>
      <polygon class="cls-1" points="237.5 18.75 243.75 18.75 243.75 12.5 250 12.5 250 6.25 256.25 6.25 256.25 0 237.5 0 237.5 12.5 237.5 18.75"/>
      <polygon class="cls-1" points="293.75 6.25 293.75 12.5 300 12.5 300 0 287.5 0 287.5 6.25 293.75 6.25"/>
      <rect class="cls-2" x="250" y="6.25" width="6.25" height="6.25"/>
      <rect class="cls-2" x="256.25" width="6.25" height="6.25"/>
      <rect class="cls-2" x="281.25" width="6.25" height="6.25"/>
      <rect class="cls-2" x="287.5" y="6.25" width="6.25" height="6.25"/>
      <rect class="cls-2" x="293.75" y="12.5" width="6.25" height="6.25"/>
      <rect class="cls-2" x="237.5" y="18.75" width="6.25" height="6.25"/>
      <rect class="cls-2" x="243.75" y="12.5" width="6.25" height="6.25"/>
      <polygon class="cls-1" points="237.5 56.25 243.75 56.25 243.75 50 250 50 250 43.75 256.25 43.75 256.25 37.5 262.5 37.5 262.5 31.25 268.75 31.25 268.75 25 243.75 25 237.5 25 237.5 50 237.5 56.25"/>
      <polygon class="cls-1" points="281.25 31.25 281.25 37.5 287.5 37.5 287.5 43.75 293.75 43.75 293.75 50 300 50 300 25 275 25 275 31.25 281.25 31.25"/>
      <polygon class="cls-1" points="268.75 62.5 275 62.5 300 62.5 300 56.25 293.75 56.25 293.75 50 287.5 50 287.5 43.75 281.25 43.75 281.25 37.5 275 37.5 275 31.25 268.75 31.25 268.75 37.5 262.5 37.5 262.5 43.75 256.25 43.75 256.25 50 250 50 250 56.25 243.75 56.25 243.75 62.5 268.75 62.5"/>
      <rect class="cls-2" x="250" y="43.75" width="6.25" height="6.25"/>
      <rect class="cls-2" x="256.25" y="37.5" width="6.25" height="6.25"/>
      <rect class="cls-2" x="262.5" y="31.25" width="6.25" height="6.25"/>
      <rect class="cls-2" x="268.75" y="25" width="6.25" height="6.25"/>
      <rect class="cls-2" x="275" y="31.25" width="6.25" height="6.25"/>
      <rect class="cls-2" x="281.25" y="37.5" width="6.25" height="6.25"/>
      <rect class="cls-2" x="287.5" y="43.75" width="6.25" height="6.25"/>
      <rect class="cls-2" x="293.75" y="50" width="6.25" height="6.25"/>
      <rect class="cls-2" x="237.5" y="56.25" width="6.25" height="6.25"/>
      <rect class="cls-2" x="243.75" y="50" width="6.25" height="6.25"/>
      <polygon class="cls-1" points="281.25 68.75 281.25 75 287.5 75 287.5 81.25 293.75 81.25 293.75 87.5 300 87.5 300 62.5 275 62.5 275 68.75 281.25 68.75"/>
      <polygon class="cls-1" points="268.75 100 275 100 300 100 300 93.75 293.75 93.75 293.75 87.5 287.5 87.5 287.5 81.25 281.25 81.25 281.25 75 275 75 275 68.75 268.75 68.75 268.75 75 262.5 75 262.5 81.25 256.25 81.25 256.25 87.5 250 87.5 250 93.75 243.75 93.75 243.75 100 268.75 100"/>
      <polygon class="cls-1" points="237.5 93.75 243.75 93.75 243.75 87.5 250 87.5 250 81.25 256.25 81.25 256.25 75 262.5 75 262.5 68.75 268.75 68.75 268.75 62.5 243.75 62.5 237.5 62.5 237.5 87.5 237.5 93.75"/>
      <rect class="cls-2" x="250" y="81.25" width="6.25" height="6.25"/>
      <rect class="cls-2" x="256.25" y="75" width="6.25" height="6.25"/>
      <rect class="cls-2" x="262.5" y="68.75" width="6.25" height="6.25"/>
      <rect class="cls-2" x="268.75" y="62.5" width="6.25" height="6.25"/>
      <rect class="cls-2" x="275" y="68.75" width="6.25" height="6.25"/>
      <rect class="cls-2" x="281.25" y="75" width="6.25" height="6.25"/>
      <rect class="cls-2" x="287.5" y="81.25" width="6.25" height="6.25"/>
      <rect class="cls-2" x="293.75" y="87.5" width="6.25" height="6.25"/>
      <rect class="cls-2" x="237.5" y="93.75" width="6.25" height="6.25"/>
      <rect class="cls-2" x="243.75" y="87.5" width="6.25" height="6.25"/>
      <polygon class="cls-1" points="275 106.25 281.25 106.25 281.25 112.5 287.5 112.5 287.5 118.75 293.75 118.75 293.75 125 300 125 300 100 275 100 275 106.25"/>
      <polygon class="cls-1" points="293.75 125 287.5 125 287.5 118.75 281.25 118.75 281.25 112.5 275 112.5 275 106.25 268.75 106.25 268.75 112.5 262.5 112.5 262.5 118.75 256.25 118.75 256.25 125 250 125 250 131.25 243.75 131.25 243.75 137.5 268.75 137.5 275 137.5 300 137.5 300 131.25 293.75 131.25 293.75 125"/>
      <polygon class="cls-1" points="237.5 131.25 243.75 131.25 243.75 125 250 125 250 118.75 256.25 118.75 256.25 112.5 262.5 112.5 262.5 106.25 268.75 106.25 268.75 100 243.75 100 237.5 100 237.5 125 237.5 131.25"/>
      <rect class="cls-2" x="250" y="118.75" width="6.25" height="6.25"/>
      <rect class="cls-2" x="256.25" y="112.5" width="6.25" height="6.25"/>
      <rect class="cls-2" x="262.5" y="106.25" width="6.25" height="6.25"/>
      <rect class="cls-2" x="268.75" y="100" width="6.25" height="6.25"/>
      <rect class="cls-2" x="275" y="106.25" width="6.25" height="6.25"/>
      <rect class="cls-2" x="281.25" y="112.5" width="6.25" height="6.25"/>
      <rect class="cls-2" x="287.5" y="118.75" width="6.25" height="6.25"/>
      <rect class="cls-2" x="293.75" y="125" width="6.25" height="6.25"/>
      <rect class="cls-2" x="237.5" y="131.25" width="6.25" height="6.25"/>
      <rect class="cls-2" x="243.75" y="125" width="6.25" height="6.25"/>
      <polygon class="cls-1" points="275 143.75 281.25 143.75 281.25 150 287.5 150 287.5 156.25 293.75 156.25 293.75 162.5 300 162.5 300 137.5 275 137.5 275 143.75"/>
      <polygon class="cls-1" points="293.75 162.5 287.5 162.5 287.5 156.25 281.25 156.25 281.25 150 275 150 275 143.75 268.75 143.75 268.75 150 262.5 150 262.5 156.25 256.25 156.25 256.25 162.5 250 162.5 250 168.75 243.75 168.75 243.75 175 268.75 175 275 175 300 175 300 168.75 293.75 168.75 293.75 162.5"/>
      <polygon class="cls-1" points="237.5 162.5 237.5 168.75 243.75 168.75 243.75 162.5 250 162.5 250 156.25 256.25 156.25 256.25 150 262.5 150 262.5 143.75 268.75 143.75 268.75 137.5 243.75 137.5 237.5 137.5 237.5 162.5"/>
      <rect class="cls-2" x="250" y="156.25" width="6.25" height="6.25"/>
      <rect class="cls-2" x="256.25" y="150" width="6.25" height="6.25"/>
      <rect class="cls-2" x="262.5" y="143.75" width="6.25" height="6.25"/>
      <rect class="cls-2" x="268.75" y="137.5" width="6.25" height="6.25"/>
      <rect class="cls-2" x="275" y="143.75" width="6.25" height="6.25"/>
      <rect class="cls-2" x="281.25" y="150" width="6.25" height="6.25"/>
      <rect class="cls-2" x="287.5" y="156.25" width="6.25" height="6.25"/>
      <rect class="cls-2" x="293.75" y="162.5" width="6.25" height="6.25"/>
      <rect class="cls-2" x="237.5" y="168.75" width="6.25" height="6.25"/>
      <rect class="cls-2" x="243.75" y="162.5" width="6.25" height="6.25"/>
      <polygon class="cls-1" points="293.75 200 287.5 200 287.5 193.75 281.25 193.75 281.25 187.5 275 187.5 275 181.25 268.75 181.25 268.75 187.5 262.5 187.5 262.5 193.75 256.25 193.75 256.25 200 250 200 250 206.25 243.75 206.25 243.75 212.5 268.75 212.5 275 212.5 300 212.5 300 206.25 293.75 206.25 293.75 200"/>
      <polygon class="cls-1" points="237.5 200 237.5 206.25 243.75 206.25 243.75 200 250 200 250 193.75 256.25 193.75 256.25 187.5 262.5 187.5 262.5 181.25 268.75 181.25 268.75 175 243.75 175 237.5 175 237.5 200"/>
      <polygon class="cls-1" points="275 181.25 281.25 181.25 281.25 187.5 287.5 187.5 287.5 193.75 293.75 193.75 293.75 200 300 200 300 175 275 175 275 181.25"/>
      <rect class="cls-2" x="250" y="193.75" width="6.25" height="6.25"/>
      <rect class="cls-2" x="256.25" y="187.5" width="6.25" height="6.25"/>
      <rect class="cls-2" x="262.5" y="181.25" width="6.25" height="6.25"/>
      <rect class="cls-2" x="268.75" y="175" width="6.25" height="6.25"/>
      <rect class="cls-2" x="275" y="181.25" width="6.25" height="6.25"/>
      <rect class="cls-2" x="281.25" y="187.5" width="6.25" height="6.25"/>
      <rect class="cls-2" x="287.5" y="193.75" width="6.25" height="6.25"/>
      <rect class="cls-2" x="293.75" y="200" width="6.25" height="6.25"/>
      <rect class="cls-2" x="237.5" y="206.25" width="6.25" height="6.25"/>
      <rect class="cls-2" x="243.75" y="200" width="6.25" height="6.25"/>
      <polygon class="cls-1" points="237.5 237.5 237.5 243.75 243.75 243.75 243.75 237.5 250 237.5 250 231.25 256.25 231.25 256.25 225 262.5 225 262.5 218.75 268.75 218.75 268.75 212.5 243.75 212.5 237.5 212.5 237.5 237.5"/>
      <polygon class="cls-1" points="293.75 237.5 287.5 237.5 287.5 231.25 281.25 231.25 281.25 225 275 225 275 218.75 268.75 218.75 268.75 225 262.5 225 262.5 231.25 256.25 231.25 256.25 237.5 250 237.5 250 243.75 243.75 243.75 243.75 250 268.75 250 275 250 300 250 300 243.75 293.75 243.75 293.75 237.5"/>
      <polygon class="cls-1" points="275 218.75 281.25 218.75 281.25 225 287.5 225 287.5 231.25 293.75 231.25 293.75 237.5 300 237.5 300 212.5 275 212.5 275 218.75"/>
      <rect class="cls-2" x="250" y="231.25" width="6.25" height="6.25"/>
      <rect class="cls-2" x="256.25" y="225" width="6.25" height="6.25"/>
      <rect class="cls-2" x="262.5" y="218.75" width="6.25" height="6.25"/>
      <rect class="cls-2" x="268.75" y="212.5" width="6.25" height="6.25"/>
      <rect class="cls-2" x="275" y="218.75" width="6.25" height="6.25"/>
      <rect class="cls-2" x="281.25" y="225" width="6.25" height="6.25"/>
      <rect class="cls-2" x="287.5" y="231.25" width="6.25" height="6.25"/>
      <rect class="cls-2" x="293.75" y="237.5" width="6.25" height="6.25"/>
      <rect class="cls-2" x="237.5" y="243.75" width="6.25" height="6.25"/>
      <rect class="cls-2" x="243.75" y="237.5" width="6.25" height="6.25"/>
      <polygon class="cls-1" points="293.75 275 287.5 275 287.5 268.75 281.25 268.75 281.25 262.5 275 262.5 275 256.25 268.75 256.25 268.75 262.5 262.5 262.5 262.5 268.75 256.25 268.75 256.25 275 250 275 250 281.25 243.75 281.25 243.75 287.5 268.75 287.5 275 287.5 300 287.5 300 281.25 293.75 281.25 293.75 275"/>
      <polygon class="cls-1" points="237.5 275 237.5 281.25 243.75 281.25 243.75 275 250 275 250 268.75 256.25 268.75 256.25 262.5 262.5 262.5 262.5 256.25 268.75 256.25 268.75 250 243.75 250 237.5 250 237.5 275"/>
      <polygon class="cls-1" points="275 256.25 281.25 256.25 281.25 262.5 287.5 262.5 287.5 268.75 293.75 268.75 293.75 275 300 275 300 250 275 250 275 256.25"/>
      <rect class="cls-2" x="250" y="268.75" width="6.25" height="6.25"/>
      <rect class="cls-2" x="256.25" y="262.5" width="6.25" height="6.25"/>
      <rect class="cls-2" x="262.5" y="256.25" width="6.25" height="6.25"/>
      <rect class="cls-2" x="268.75" y="250" width="6.25" height="6.25"/>
      <rect class="cls-2" x="275" y="256.25" width="6.25" height="6.25"/>
      <rect class="cls-2" x="281.25" y="262.5" width="6.25" height="6.25"/>
      <rect class="cls-2" x="287.5" y="268.75" width="6.25" height="6.25"/>
      <rect class="cls-2" x="293.75" y="275" width="6.25" height="6.25"/>
      <rect class="cls-2" x="237.5" y="281.25" width="6.25" height="6.25"/>
      <rect class="cls-2" x="243.75" y="275" width="6.25" height="6.25"/>
      <polygon class="cls-1" points="275 293.75 281.25 293.75 281.25 300 287.5 300 287.5 306.25 293.75 306.25 293.75 312.5 300 312.5 300 287.5 275 287.5 275 293.75"/>
      <polygon class="cls-1" points="243.75 287.5 237.5 287.5 237.5 312.5 237.5 318.75 243.75 318.75 243.75 312.5 250 312.5 250 306.25 256.25 306.25 256.25 300 262.5 300 262.5 293.75 268.75 293.75 268.75 287.5 243.75 287.5"/>
      <polygon class="cls-1" points="293.75 318.75 293.75 312.5 287.5 312.5 287.5 306.25 281.25 306.25 281.25 300 275 300 275 293.75 268.75 293.75 268.75 300 262.5 300 262.5 306.25 256.25 306.25 256.25 312.5 250 312.5 250 318.75 243.75 318.75 243.75 325 268.75 325 275 325 300 325 300 318.75 293.75 318.75"/>
      <rect class="cls-2" x="250" y="306.25" width="6.25" height="6.25"/>
      <rect class="cls-2" x="256.25" y="300" width="6.25" height="6.25"/>
      <rect class="cls-2" x="262.5" y="293.75" width="6.25" height="6.25"/>
      <rect class="cls-2" x="268.75" y="287.5" width="6.25" height="6.25"/>
      <rect class="cls-2" x="275" y="293.75" width="6.25" height="6.25"/>
      <rect class="cls-2" x="281.25" y="300" width="6.25" height="6.25"/>
      <rect class="cls-2" x="287.5" y="306.25" width="6.25" height="6.25"/>
      <rect class="cls-2" x="293.75" y="312.5" width="6.25" height="6.25"/>
      <rect class="cls-2" x="237.5" y="318.75" width="6.25" height="6.25"/>
      <rect class="cls-2" x="243.75" y="312.5" width="6.25" height="6.25"/>
      <polygon class="cls-1" points="300 325 275 325 275 331.25 281.25 331.25 281.25 337.5 287.5 337.5 287.5 343.75 293.75 343.75 293.75 350 300 350 300 325"/>
      <polygon class="cls-1" points="243.75 325 237.5 325 237.5 350 237.5 356.25 243.75 356.25 243.75 350 250 350 250 343.75 256.25 343.75 256.25 337.5 262.5 337.5 262.5 331.25 268.75 331.25 268.75 325 243.75 325"/>
      <polygon class="cls-1" points="293.75 356.25 293.75 350 287.5 350 287.5 343.75 281.25 343.75 281.25 337.5 275 337.5 275 331.25 268.75 331.25 268.75 337.5 262.5 337.5 262.5 343.75 256.25 343.75 256.25 350 250 350 250 356.25 243.75 356.25 243.75 362.5 268.75 362.5 275 362.5 300 362.5 300 356.25 293.75 356.25"/>
      <rect class="cls-2" x="250" y="343.75" width="6.25" height="6.25"/>
      <rect class="cls-2" x="256.25" y="337.5" width="6.25" height="6.25"/>
      <rect class="cls-2" x="262.5" y="331.25" width="6.25" height="6.25"/>
      <rect class="cls-2" x="268.75" y="325" width="6.25" height="6.25"/>
      <rect class="cls-2" x="275" y="331.25" width="6.25" height="6.25"/>
      <rect class="cls-2" x="281.25" y="337.5" width="6.25" height="6.25"/>
      <rect class="cls-2" x="287.5" y="343.75" width="6.25" height="6.25"/>
      <rect class="cls-2" x="293.75" y="350" width="6.25" height="6.25"/>
      <rect class="cls-2" x="237.5" y="356.25" width="6.25" height="6.25"/>
      <rect class="cls-2" x="243.75" y="350" width="6.25" height="6.25"/>
      <polygon class="cls-1" points="300 362.5 275 362.5 275 368.75 281.25 368.75 281.25 375 287.5 375 287.5 381.25 293.75 381.25 293.75 387.5 300 387.5 300 362.5"/>
      <polygon class="cls-1" points="293.75 393.75 293.75 387.5 287.5 387.5 287.5 381.25 281.25 381.25 281.25 375 275 375 275 368.75 268.75 368.75 268.75 375 262.5 375 262.5 381.25 256.25 381.25 256.25 387.5 250 387.5 250 393.75 243.75 393.75 243.75 400 300 400 300 393.75 293.75 393.75"/>
      <polygon class="cls-1" points="243.75 362.5 237.5 362.5 237.5 387.5 237.5 393.75 243.75 393.75 243.75 387.5 250 387.5 250 381.25 256.25 381.25 256.25 375 262.5 375 262.5 368.75 268.75 368.75 268.75 362.5 243.75 362.5"/>
      <rect class="cls-2" x="250" y="381.25" width="6.25" height="6.25"/>
      <rect class="cls-2" x="256.25" y="375" width="6.25" height="6.25"/>
      <rect class="cls-2" x="262.5" y="368.75" width="6.25" height="6.25"/>
      <rect class="cls-2" x="268.75" y="362.5" width="6.25" height="6.25"/>
      <rect class="cls-2" x="275" y="368.75" width="6.25" height="6.25"/>
      <rect class="cls-2" x="281.25" y="375" width="6.25" height="6.25"/>
      <rect class="cls-2" x="287.5" y="381.25" width="6.25" height="6.25"/>
      <rect class="cls-2" x="293.75" y="387.5" width="6.25" height="6.25"/>
      <rect class="cls-2" x="237.5" y="393.75" width="6.25" height="6.25"/>
      <rect class="cls-2" x="243.75" y="387.5" width="6.25" height="6.25"/>
      <polygon class="cls-1" points="193.75 6.25 193.75 12.5 187.5 12.5 187.5 18.75 181.25 18.75 181.25 25 206.25 25 212.5 25 237.5 25 237.5 18.75 231.25 18.75 231.25 12.5 225 12.5 225 6.25 218.75 6.25 218.75 0 212.5 0 206.25 0 200 0 200 6.25 193.75 6.25"/>
      <polygon class="cls-1" points="231.25 6.25 231.25 12.5 237.5 12.5 237.5 0 225 0 225 6.25 231.25 6.25"/>
      <polygon class="cls-1" points="175 18.75 181.25 18.75 181.25 12.5 187.5 12.5 187.5 6.25 193.75 6.25 193.75 0 175 0 175 12.5 175 18.75"/>
      <rect class="cls-2" x="187.5" y="6.25" width="6.25" height="6.25"/>
      <rect class="cls-2" x="193.75" width="6.25" height="6.25"/>
      <rect class="cls-2" x="218.75" width="6.25" height="6.25"/>
      <rect class="cls-2" x="225" y="6.25" width="6.25" height="6.25"/>
      <rect class="cls-2" x="231.25" y="12.5" width="6.25" height="6.25"/>
      <rect class="cls-2" x="175" y="18.75" width="6.25" height="6.25"/>
      <rect class="cls-2" x="181.25" y="12.5" width="6.25" height="6.25"/>
      <polygon class="cls-1" points="218.75 31.25 218.75 37.5 225 37.5 225 43.75 231.25 43.75 231.25 50 237.5 50 237.5 25 212.5 25 212.5 31.25 218.75 31.25"/>
      <polygon class="cls-1" points="175 56.25 181.25 56.25 181.25 50 187.5 50 187.5 43.75 193.75 43.75 193.75 37.5 200 37.5 200 31.25 206.25 31.25 206.25 25 181.25 25 175 25 175 50 175 56.25"/>
      <polygon class="cls-1" points="206.25 62.5 212.5 62.5 237.5 62.5 237.5 56.25 231.25 56.25 231.25 50 225 50 225 43.75 218.75 43.75 218.75 37.5 212.5 37.5 212.5 31.25 206.25 31.25 206.25 37.5 200 37.5 200 43.75 193.75 43.75 193.75 50 187.5 50 187.5 56.25 181.25 56.25 181.25 62.5 206.25 62.5"/>
      <rect class="cls-2" x="187.5" y="43.75" width="6.25" height="6.25"/>
      <rect class="cls-2" x="193.75" y="37.5" width="6.25" height="6.25"/>
      <rect class="cls-2" x="200" y="31.25" width="6.25" height="6.25"/>
      <rect class="cls-2" x="206.25" y="25" width="6.25" height="6.25"/>
      <rect class="cls-2" x="212.5" y="31.25" width="6.25" height="6.25"/>
      <rect class="cls-2" x="218.75" y="37.5" width="6.25" height="6.25"/>
      <rect class="cls-2" x="225" y="43.75" width="6.25" height="6.25"/>
      <rect class="cls-2" x="231.25" y="50" width="6.25" height="6.25"/>
      <rect class="cls-2" x="175" y="56.25" width="6.25" height="6.25"/>
      <rect class="cls-2" x="181.25" y="50" width="6.25" height="6.25"/>
      <polygon class="cls-1" points="206.25 100 212.5 100 237.5 100 237.5 93.75 231.25 93.75 231.25 87.5 225 87.5 225 81.25 218.75 81.25 218.75 75 212.5 75 212.5 68.75 206.25 68.75 206.25 75 200 75 200 81.25 193.75 81.25 193.75 87.5 187.5 87.5 187.5 93.75 181.25 93.75 181.25 100 206.25 100"/>
      <polygon class="cls-1" points="218.75 68.75 218.75 75 225 75 225 81.25 231.25 81.25 231.25 87.5 237.5 87.5 237.5 62.5 212.5 62.5 212.5 68.75 218.75 68.75"/>
      <polygon class="cls-1" points="175 93.75 181.25 93.75 181.25 87.5 187.5 87.5 187.5 81.25 193.75 81.25 193.75 75 200 75 200 68.75 206.25 68.75 206.25 62.5 181.25 62.5 175 62.5 175 87.5 175 93.75"/>
      <rect class="cls-2" x="187.5" y="81.25" width="6.25" height="6.25"/>
      <rect class="cls-2" x="193.75" y="75" width="6.25" height="6.25"/>
      <rect class="cls-2" x="200" y="68.75" width="6.25" height="6.25"/>
      <rect class="cls-2" x="206.25" y="62.5" width="6.25" height="6.25"/>
      <rect class="cls-2" x="212.5" y="68.75" width="6.25" height="6.25"/>
      <rect class="cls-2" x="218.75" y="75" width="6.25" height="6.25"/>
      <rect class="cls-2" x="225" y="81.25" width="6.25" height="6.25"/>
      <rect class="cls-2" x="231.25" y="87.5" width="6.25" height="6.25"/>
      <rect class="cls-2" x="175" y="93.75" width="6.25" height="6.25"/>
      <rect class="cls-2" x="181.25" y="87.5" width="6.25" height="6.25"/>
      <polygon class="cls-1" points="237.5 137.5 237.5 131.25 231.25 131.25 231.25 125 225 125 225 118.75 218.75 118.75 218.75 112.5 212.5 112.5 212.5 106.25 206.25 106.25 206.25 112.5 200 112.5 200 118.75 193.75 118.75 193.75 125 187.5 125 187.5 131.25 181.25 131.25 181.25 137.5 206.25 137.5 212.5 137.5 237.5 137.5"/>
      <polygon class="cls-1" points="181.25 125 187.5 125 187.5 118.75 193.75 118.75 193.75 112.5 200 112.5 200 106.25 206.25 106.25 206.25 100 181.25 100 175 100 175 125 175 131.25 181.25 131.25 181.25 125"/>
      <polygon class="cls-1" points="218.75 106.25 218.75 112.5 225 112.5 225 118.75 231.25 118.75 231.25 125 237.5 125 237.5 100 212.5 100 212.5 106.25 218.75 106.25"/>
      <rect class="cls-2" x="187.5" y="118.75" width="6.25" height="6.25"/>
      <rect class="cls-2" x="193.75" y="112.5" width="6.25" height="6.25"/>
      <rect class="cls-2" x="200" y="106.25" width="6.25" height="6.25"/>
      <rect class="cls-2" x="206.25" y="100" width="6.25" height="6.25"/>
      <rect class="cls-2" x="212.5" y="106.25" width="6.25" height="6.25"/>
      <rect class="cls-2" x="218.75" y="112.5" width="6.25" height="6.25"/>
      <rect class="cls-2" x="225" y="118.75" width="6.25" height="6.25"/>
      <rect class="cls-2" x="231.25" y="125" width="6.25" height="6.25"/>
      <rect class="cls-2" x="175" y="131.25" width="6.25" height="6.25"/>
      <rect class="cls-2" x="181.25" y="125" width="6.25" height="6.25"/>
      <polygon class="cls-1" points="181.25 162.5 187.5 162.5 187.5 156.25 193.75 156.25 193.75 150 200 150 200 143.75 206.25 143.75 206.25 137.5 181.25 137.5 175 137.5 175 162.5 175 168.75 181.25 168.75 181.25 162.5"/>
      <polygon class="cls-1" points="212.5 143.75 218.75 143.75 218.75 150 225 150 225 156.25 231.25 156.25 231.25 162.5 237.5 162.5 237.5 137.5 212.5 137.5 212.5 143.75"/>
      <polygon class="cls-1" points="237.5 175 237.5 168.75 231.25 168.75 231.25 162.5 225 162.5 225 156.25 218.75 156.25 218.75 150 212.5 150 212.5 143.75 206.25 143.75 206.25 150 200 150 200 156.25 193.75 156.25 193.75 162.5 187.5 162.5 187.5 168.75 181.25 168.75 181.25 175 206.25 175 212.5 175 237.5 175"/>
      <rect class="cls-2" x="187.5" y="156.25" width="6.25" height="6.25"/>
      <rect class="cls-2" x="193.75" y="150" width="6.25" height="6.25"/>
      <rect class="cls-2" x="200" y="143.75" width="6.25" height="6.25"/>
      <rect class="cls-2" x="206.25" y="137.5" width="6.25" height="6.25"/>
      <rect class="cls-2" x="212.5" y="143.75" width="6.25" height="6.25"/>
      <rect class="cls-2" x="218.75" y="150" width="6.25" height="6.25"/>
      <rect class="cls-2" x="225" y="156.25" width="6.25" height="6.25"/>
      <rect class="cls-2" x="231.25" y="162.5" width="6.25" height="6.25"/>
      <rect class="cls-2" x="175" y="168.75" width="6.25" height="6.25"/>
      <rect class="cls-2" x="181.25" y="162.5" width="6.25" height="6.25"/>
      <polygon class="cls-1" points="237.5 212.5 237.5 206.25 231.25 206.25 231.25 200 225 200 225 193.75 218.75 193.75 218.75 187.5 212.5 187.5 212.5 181.25 206.25 181.25 206.25 187.5 200 187.5 200 193.75 193.75 193.75 193.75 200 187.5 200 187.5 206.25 181.25 206.25 181.25 212.5 206.25 212.5 212.5 212.5 237.5 212.5"/>
      <polygon class="cls-1" points="212.5 181.25 218.75 181.25 218.75 187.5 225 187.5 225 193.75 231.25 193.75 231.25 200 237.5 200 237.5 175 212.5 175 212.5 181.25"/>
      <polygon class="cls-1" points="181.25 200 187.5 200 187.5 193.75 193.75 193.75 193.75 187.5 200 187.5 200 181.25 206.25 181.25 206.25 175 181.25 175 175 175 175 200 175 206.25 181.25 206.25 181.25 200"/>
      <rect class="cls-2" x="187.5" y="193.75" width="6.25" height="6.25"/>
      <rect class="cls-2" x="193.75" y="187.5" width="6.25" height="6.25"/>
      <rect class="cls-2" x="200" y="181.25" width="6.25" height="6.25"/>
      <rect class="cls-2" x="206.25" y="175" width="6.25" height="6.25"/>
      <rect class="cls-2" x="212.5" y="181.25" width="6.25" height="6.25"/>
      <rect class="cls-2" x="218.75" y="187.5" width="6.25" height="6.25"/>
      <rect class="cls-2" x="225" y="193.75" width="6.25" height="6.25"/>
      <rect class="cls-2" x="231.25" y="200" width="6.25" height="6.25"/>
      <rect class="cls-2" x="175" y="206.25" width="6.25" height="6.25"/>
      <rect class="cls-2" x="181.25" y="200" width="6.25" height="6.25"/>
      <polygon class="cls-1" points="212.5 218.75 218.75 218.75 218.75 225 225 225 225 231.25 231.25 231.25 231.25 237.5 237.5 237.5 237.5 212.5 212.5 212.5 212.5 218.75"/>
      <polygon class="cls-1" points="181.25 237.5 187.5 237.5 187.5 231.25 193.75 231.25 193.75 225 200 225 200 218.75 206.25 218.75 206.25 212.5 181.25 212.5 175 212.5 175 237.5 175 243.75 181.25 243.75 181.25 237.5"/>
      <polygon class="cls-1" points="237.5 250 237.5 243.75 231.25 243.75 231.25 237.5 225 237.5 225 231.25 218.75 231.25 218.75 225 212.5 225 212.5 218.75 206.25 218.75 206.25 225 200 225 200 231.25 193.75 231.25 193.75 237.5 187.5 237.5 187.5 243.75 181.25 243.75 181.25 250 206.25 250 212.5 250 237.5 250"/>
      <rect class="cls-2" x="187.5" y="231.25" width="6.25" height="6.25"/>
      <rect class="cls-2" x="193.75" y="225" width="6.25" height="6.25"/>
      <rect class="cls-2" x="200" y="218.75" width="6.25" height="6.25"/>
      <rect class="cls-2" x="206.25" y="212.5" width="6.25" height="6.25"/>
      <rect class="cls-2" x="212.5" y="218.75" width="6.25" height="6.25"/>
      <rect class="cls-2" x="218.75" y="225" width="6.25" height="6.25"/>
      <rect class="cls-2" x="225" y="231.25" width="6.25" height="6.25"/>
      <rect class="cls-2" x="231.25" y="237.5" width="6.25" height="6.25"/>
      <rect class="cls-2" x="175" y="243.75" width="6.25" height="6.25"/>
      <rect class="cls-2" x="181.25" y="237.5" width="6.25" height="6.25"/>
      <polygon class="cls-1" points="181.25 275 187.5 275 187.5 268.75 193.75 268.75 193.75 262.5 200 262.5 200 256.25 206.25 256.25 206.25 250 181.25 250 175 250 175 275 175 281.25 181.25 281.25 181.25 275"/>
      <polygon class="cls-1" points="212.5 256.25 218.75 256.25 218.75 262.5 225 262.5 225 268.75 231.25 268.75 231.25 275 237.5 275 237.5 250 212.5 250 212.5 256.25"/>
      <polygon class="cls-1" points="231.25 281.25 231.25 275 225 275 225 268.75 218.75 268.75 218.75 262.5 212.5 262.5 212.5 256.25 206.25 256.25 206.25 262.5 200 262.5 200 268.75 193.75 268.75 193.75 275 187.5 275 187.5 281.25 181.25 281.25 181.25 287.5 206.25 287.5 212.5 287.5 237.5 287.5 237.5 281.25 231.25 281.25"/>
      <rect class="cls-2" x="187.5" y="268.75" width="6.25" height="6.25"/>
      <rect class="cls-2" x="193.75" y="262.5" width="6.25" height="6.25"/>
      <rect class="cls-2" x="200" y="256.25" width="6.25" height="6.25"/>
      <rect class="cls-2" x="206.25" y="250" width="6.25" height="6.25"/>
      <rect class="cls-2" x="212.5" y="256.25" width="6.25" height="6.25"/>
      <rect class="cls-2" x="218.75" y="262.5" width="6.25" height="6.25"/>
      <rect class="cls-2" x="225" y="268.75" width="6.25" height="6.25"/>
      <rect class="cls-2" x="231.25" y="275" width="6.25" height="6.25"/>
      <rect class="cls-2" x="175" y="281.25" width="6.25" height="6.25"/>
      <rect class="cls-2" x="181.25" y="275" width="6.25" height="6.25"/>
      <polygon class="cls-1" points="231.25 318.75 231.25 312.5 225 312.5 225 306.25 218.75 306.25 218.75 300 212.5 300 212.5 293.75 206.25 293.75 206.25 300 200 300 200 306.25 193.75 306.25 193.75 312.5 187.5 312.5 187.5 318.75 181.25 318.75 181.25 325 206.25 325 212.5 325 237.5 325 237.5 318.75 231.25 318.75"/>
      <polygon class="cls-1" points="237.5 287.5 212.5 287.5 212.5 293.75 218.75 293.75 218.75 300 225 300 225 306.25 231.25 306.25 231.25 312.5 237.5 312.5 237.5 287.5"/>
      <polygon class="cls-1" points="181.25 287.5 175 287.5 175 312.5 175 318.75 181.25 318.75 181.25 312.5 187.5 312.5 187.5 306.25 193.75 306.25 193.75 300 200 300 200 293.75 206.25 293.75 206.25 287.5 181.25 287.5"/>
      <rect class="cls-2" x="187.5" y="306.25" width="6.25" height="6.25"/>
      <rect class="cls-2" x="193.75" y="300" width="6.25" height="6.25"/>
      <rect class="cls-2" x="200" y="293.75" width="6.25" height="6.25"/>
      <rect class="cls-2" x="206.25" y="287.5" width="6.25" height="6.25"/>
      <rect class="cls-2" x="212.5" y="293.75" width="6.25" height="6.25"/>
      <rect class="cls-2" x="218.75" y="300" width="6.25" height="6.25"/>
      <rect class="cls-2" x="225" y="306.25" width="6.25" height="6.25"/>
      <rect class="cls-2" x="231.25" y="312.5" width="6.25" height="6.25"/>
      <rect class="cls-2" x="175" y="318.75" width="6.25" height="6.25"/>
      <rect class="cls-2" x="181.25" y="312.5" width="6.25" height="6.25"/>
      <polygon class="cls-1" points="231.25 356.25 231.25 350 225 350 225 343.75 218.75 343.75 218.75 337.5 212.5 337.5 212.5 331.25 206.25 331.25 206.25 337.5 200 337.5 200 343.75 193.75 343.75 193.75 350 187.5 350 187.5 356.25 181.25 356.25 181.25 362.5 206.25 362.5 212.5 362.5 237.5 362.5 237.5 356.25 231.25 356.25"/>
      <polygon class="cls-1" points="181.25 325 175 325 175 350 175 356.25 181.25 356.25 181.25 350 187.5 350 187.5 343.75 193.75 343.75 193.75 337.5 200 337.5 200 331.25 206.25 331.25 206.25 325 181.25 325"/>
      <polygon class="cls-1" points="237.5 325 212.5 325 212.5 331.25 218.75 331.25 218.75 337.5 225 337.5 225 343.75 231.25 343.75 231.25 350 237.5 350 237.5 325"/>
      <rect class="cls-2" x="187.5" y="343.75" width="6.25" height="6.25"/>
      <rect class="cls-2" x="193.75" y="337.5" width="6.25" height="6.25"/>
      <rect class="cls-2" x="200" y="331.25" width="6.25" height="6.25"/>
      <rect class="cls-2" x="206.25" y="325" width="6.25" height="6.25"/>
      <rect class="cls-2" x="212.5" y="331.25" width="6.25" height="6.25"/>
      <rect class="cls-2" x="218.75" y="337.5" width="6.25" height="6.25"/>
      <rect class="cls-2" x="225" y="343.75" width="6.25" height="6.25"/>
      <rect class="cls-2" x="231.25" y="350" width="6.25" height="6.25"/>
      <rect class="cls-2" x="175" y="356.25" width="6.25" height="6.25"/>
      <rect class="cls-2" x="181.25" y="350" width="6.25" height="6.25"/>
      <polygon class="cls-1" points="231.25 393.75 231.25 387.5 225 387.5 225 381.25 218.75 381.25 218.75 375 212.5 375 212.5 368.75 206.25 368.75 206.25 375 200 375 200 381.25 193.75 381.25 193.75 387.5 187.5 387.5 187.5 393.75 181.25 393.75 181.25 400 237.5 400 237.5 393.75 231.25 393.75"/>
      <polygon class="cls-1" points="181.25 362.5 175 362.5 175 387.5 175 393.75 181.25 393.75 181.25 387.5 187.5 387.5 187.5 381.25 193.75 381.25 193.75 375 200 375 200 368.75 206.25 368.75 206.25 362.5 181.25 362.5"/>
      <polygon class="cls-1" points="237.5 362.5 212.5 362.5 212.5 368.75 218.75 368.75 218.75 375 225 375 225 381.25 231.25 381.25 231.25 387.5 237.5 387.5 237.5 362.5"/>
      <rect class="cls-2" x="187.5" y="381.25" width="6.25" height="6.25"/>
      <rect class="cls-2" x="193.75" y="375" width="6.25" height="6.25"/>
      <rect class="cls-2" x="200" y="368.75" width="6.25" height="6.25"/>
      <rect class="cls-2" x="206.25" y="362.5" width="6.25" height="6.25"/>
      <rect class="cls-2" x="212.5" y="368.75" width="6.25" height="6.25"/>
      <rect class="cls-2" x="218.75" y="375" width="6.25" height="6.25"/>
      <rect class="cls-2" x="225" y="381.25" width="6.25" height="6.25"/>
      <rect class="cls-2" x="231.25" y="387.5" width="6.25" height="6.25"/>
      <rect class="cls-2" x="175" y="393.75" width="6.25" height="6.25"/>
      <rect class="cls-2" x="181.25" y="387.5" width="6.25" height="6.25"/>
      <polygon class="cls-1" points="112.5 18.75 118.75 18.75 118.75 12.5 125 12.5 125 6.25 131.25 6.25 131.25 0 112.5 0 112.5 12.5 112.5 18.75"/>
      <polygon class="cls-1" points="131.25 6.25 131.25 12.5 125 12.5 125 18.75 118.75 18.75 118.75 25 143.75 25 150 25 175 25 175 18.75 168.75 18.75 168.75 12.5 162.5 12.5 162.5 6.25 156.25 6.25 156.25 0 150 0 143.75 0 137.5 0 137.5 6.25 131.25 6.25"/>
      <polygon class="cls-1" points="168.75 6.25 168.75 12.5 175 12.5 175 0 162.5 0 162.5 6.25 168.75 6.25"/>
      <rect class="cls-2" x="125" y="6.25" width="6.25" height="6.25"/>
      <rect class="cls-2" x="131.25" width="6.25" height="6.25"/>
      <rect class="cls-2" x="156.25" width="6.25" height="6.25"/>
      <rect class="cls-2" x="162.5" y="6.25" width="6.25" height="6.25"/>
      <rect class="cls-2" x="168.75" y="12.5" width="6.25" height="6.25"/>
      <rect class="cls-2" x="112.5" y="18.75" width="6.25" height="6.25"/>
      <rect class="cls-2" x="118.75" y="12.5" width="6.25" height="6.25"/>
      <polygon class="cls-1" points="112.5 56.25 118.75 56.25 118.75 50 125 50 125 43.75 131.25 43.75 131.25 37.5 137.5 37.5 137.5 31.25 143.75 31.25 143.75 25 118.75 25 112.5 25 112.5 50 112.5 56.25"/>
      <polygon class="cls-1" points="156.25 31.25 156.25 37.5 162.5 37.5 162.5 43.75 168.75 43.75 168.75 50 175 50 175 25 150 25 150 31.25 156.25 31.25"/>
      <polygon class="cls-1" points="143.75 62.5 150 62.5 175 62.5 175 56.25 168.75 56.25 168.75 50 162.5 50 162.5 43.75 156.25 43.75 156.25 37.5 150 37.5 150 31.25 143.75 31.25 143.75 37.5 137.5 37.5 137.5 43.75 131.25 43.75 131.25 50 125 50 125 56.25 118.75 56.25 118.75 62.5 143.75 62.5"/>
      <rect class="cls-2" x="125" y="43.75" width="6.25" height="6.25"/>
      <rect class="cls-2" x="131.25" y="37.5" width="6.25" height="6.25"/>
      <rect class="cls-2" x="137.5" y="31.25" width="6.25" height="6.25"/>
      <rect class="cls-2" x="143.75" y="25" width="6.25" height="6.25"/>
      <rect class="cls-2" x="150" y="31.25" width="6.25" height="6.25"/>
      <rect class="cls-2" x="156.25" y="37.5" width="6.25" height="6.25"/>
      <rect class="cls-2" x="162.5" y="43.75" width="6.25" height="6.25"/>
      <rect class="cls-2" x="168.75" y="50" width="6.25" height="6.25"/>
      <rect class="cls-2" x="112.5" y="56.25" width="6.25" height="6.25"/>
      <rect class="cls-2" x="118.75" y="50" width="6.25" height="6.25"/>
      <polygon class="cls-1" points="175 100 175 93.75 168.75 93.75 168.75 87.5 162.5 87.5 162.5 81.25 156.25 81.25 156.25 75 150 75 150 68.75 143.75 68.75 143.75 75 137.5 75 137.5 81.25 131.25 81.25 131.25 87.5 125 87.5 125 93.75 118.75 93.75 118.75 100 143.75 100 150 100 175 100"/>
      <polygon class="cls-1" points="118.75 87.5 125 87.5 125 81.25 131.25 81.25 131.25 75 137.5 75 137.5 68.75 143.75 68.75 143.75 62.5 118.75 62.5 112.5 62.5 112.5 87.5 112.5 93.75 118.75 93.75 118.75 87.5"/>
      <polygon class="cls-1" points="156.25 68.75 156.25 75 162.5 75 162.5 81.25 168.75 81.25 168.75 87.5 175 87.5 175 62.5 150 62.5 150 68.75 156.25 68.75"/>
      <rect class="cls-2" x="125" y="81.25" width="6.25" height="6.25"/>
      <rect class="cls-2" x="131.25" y="75" width="6.25" height="6.25"/>
      <rect class="cls-2" x="137.5" y="68.75" width="6.25" height="6.25"/>
      <rect class="cls-2" x="143.75" y="62.5" width="6.25" height="6.25"/>
      <rect class="cls-2" x="150" y="68.75" width="6.25" height="6.25"/>
      <rect class="cls-2" x="156.25" y="75" width="6.25" height="6.25"/>
      <rect class="cls-2" x="162.5" y="81.25" width="6.25" height="6.25"/>
      <rect class="cls-2" x="168.75" y="87.5" width="6.25" height="6.25"/>
      <rect class="cls-2" x="112.5" y="93.75" width="6.25" height="6.25"/>
      <rect class="cls-2" x="118.75" y="87.5" width="6.25" height="6.25"/>
      <polygon class="cls-1" points="118.75 125 125 125 125 118.75 131.25 118.75 131.25 112.5 137.5 112.5 137.5 106.25 143.75 106.25 143.75 100 118.75 100 112.5 100 112.5 125 112.5 131.25 118.75 131.25 118.75 125"/>
      <polygon class="cls-1" points="175 100 150 100 150 106.25 156.25 106.25 156.25 112.5 162.5 112.5 162.5 118.75 168.75 118.75 168.75 125 175 125 175 100"/>
      <polygon class="cls-1" points="175 137.5 175 131.25 168.75 131.25 168.75 125 162.5 125 162.5 118.75 156.25 118.75 156.25 112.5 150 112.5 150 106.25 143.75 106.25 143.75 112.5 137.5 112.5 137.5 118.75 131.25 118.75 131.25 125 125 125 125 131.25 118.75 131.25 118.75 137.5 143.75 137.5 150 137.5 175 137.5"/>
      <rect class="cls-2" x="125" y="118.75" width="6.25" height="6.25"/>
      <rect class="cls-2" x="131.25" y="112.5" width="6.25" height="6.25"/>
      <rect class="cls-2" x="137.5" y="106.25" width="6.25" height="6.25"/>
      <rect class="cls-2" x="143.75" y="100" width="6.25" height="6.25"/>
      <rect class="cls-2" x="150" y="106.25" width="6.25" height="6.25"/>
      <rect class="cls-2" x="156.25" y="112.5" width="6.25" height="6.25"/>
      <rect class="cls-2" x="162.5" y="118.75" width="6.25" height="6.25"/>
      <rect class="cls-2" x="168.75" y="125" width="6.25" height="6.25"/>
      <rect class="cls-2" x="112.5" y="131.25" width="6.25" height="6.25"/>
      <rect class="cls-2" x="118.75" y="125" width="6.25" height="6.25"/>
      <polygon class="cls-1" points="175 137.5 150 137.5 150 143.75 156.25 143.75 156.25 150 162.5 150 162.5 156.25 168.75 156.25 168.75 162.5 175 162.5 175 137.5"/>
      <polygon class="cls-1" points="118.75 162.5 125 162.5 125 156.25 131.25 156.25 131.25 150 137.5 150 137.5 143.75 143.75 143.75 143.75 137.5 118.75 137.5 112.5 137.5 112.5 162.5 112.5 168.75 118.75 168.75 118.75 162.5"/>
      <polygon class="cls-1" points="175 175 175 168.75 168.75 168.75 168.75 162.5 162.5 162.5 162.5 156.25 156.25 156.25 156.25 150 150 150 150 143.75 143.75 143.75 143.75 150 137.5 150 137.5 156.25 131.25 156.25 131.25 162.5 125 162.5 125 168.75 118.75 168.75 118.75 175 143.75 175 150 175 175 175"/>
      <rect class="cls-2" x="125" y="156.25" width="6.25" height="6.25"/>
      <rect class="cls-2" x="131.25" y="150" width="6.25" height="6.25"/>
      <rect class="cls-2" x="137.5" y="143.75" width="6.25" height="6.25"/>
      <rect class="cls-2" x="143.75" y="137.5" width="6.25" height="6.25"/>
      <rect class="cls-2" x="150" y="143.75" width="6.25" height="6.25"/>
      <rect class="cls-2" x="156.25" y="150" width="6.25" height="6.25"/>
      <rect class="cls-2" x="162.5" y="156.25" width="6.25" height="6.25"/>
      <rect class="cls-2" x="168.75" y="162.5" width="6.25" height="6.25"/>
      <rect class="cls-2" x="112.5" y="168.75" width="6.25" height="6.25"/>
      <rect class="cls-2" x="118.75" y="162.5" width="6.25" height="6.25"/>
      <polygon class="cls-1" points="118.75 200 125 200 125 193.75 131.25 193.75 131.25 187.5 137.5 187.5 137.5 181.25 143.75 181.25 143.75 175 118.75 175 112.5 175 112.5 200 112.5 206.25 118.75 206.25 118.75 200"/>
      <polygon class="cls-1" points="175 212.5 175 206.25 168.75 206.25 168.75 200 162.5 200 162.5 193.75 156.25 193.75 156.25 187.5 150 187.5 150 181.25 143.75 181.25 143.75 187.5 137.5 187.5 137.5 193.75 131.25 193.75 131.25 200 125 200 125 206.25 118.75 206.25 118.75 212.5 143.75 212.5 150 212.5 175 212.5"/>
      <polygon class="cls-1" points="175 175 150 175 150 181.25 156.25 181.25 156.25 187.5 162.5 187.5 162.5 193.75 168.75 193.75 168.75 200 175 200 175 175"/>
      <rect class="cls-2" x="125" y="193.75" width="6.25" height="6.25"/>
      <rect class="cls-2" x="131.25" y="187.5" width="6.25" height="6.25"/>
      <rect class="cls-2" x="137.5" y="181.25" width="6.25" height="6.25"/>
      <rect class="cls-2" x="143.75" y="175" width="6.25" height="6.25"/>
      <rect class="cls-2" x="150" y="181.25" width="6.25" height="6.25"/>
      <rect class="cls-2" x="156.25" y="187.5" width="6.25" height="6.25"/>
      <rect class="cls-2" x="162.5" y="193.75" width="6.25" height="6.25"/>
      <rect class="cls-2" x="168.75" y="200" width="6.25" height="6.25"/>
      <rect class="cls-2" x="112.5" y="206.25" width="6.25" height="6.25"/>
      <rect class="cls-2" x="118.75" y="200" width="6.25" height="6.25"/>
      <polygon class="cls-1" points="118.75 237.5 125 237.5 125 231.25 131.25 231.25 131.25 225 137.5 225 137.5 218.75 143.75 218.75 143.75 212.5 118.75 212.5 112.5 212.5 112.5 237.5 112.5 243.75 118.75 243.75 118.75 237.5"/>
      <polygon class="cls-1" points="175 212.5 150 212.5 150 218.75 156.25 218.75 156.25 225 162.5 225 162.5 231.25 168.75 231.25 168.75 237.5 175 237.5 175 212.5"/>
      <polygon class="cls-1" points="175 250 175 243.75 168.75 243.75 168.75 237.5 162.5 237.5 162.5 231.25 156.25 231.25 156.25 225 150 225 150 218.75 143.75 218.75 143.75 225 137.5 225 137.5 231.25 131.25 231.25 131.25 237.5 125 237.5 125 243.75 118.75 243.75 118.75 250 143.75 250 150 250 175 250"/>
      <rect class="cls-2" x="125" y="231.25" width="6.25" height="6.25"/>
      <rect class="cls-2" x="131.25" y="225" width="6.25" height="6.25"/>
      <rect class="cls-2" x="137.5" y="218.75" width="6.25" height="6.25"/>
      <rect class="cls-2" x="143.75" y="212.5" width="6.25" height="6.25"/>
      <rect class="cls-2" x="150" y="218.75" width="6.25" height="6.25"/>
      <rect class="cls-2" x="156.25" y="225" width="6.25" height="6.25"/>
      <rect class="cls-2" x="162.5" y="231.25" width="6.25" height="6.25"/>
      <rect class="cls-2" x="168.75" y="237.5" width="6.25" height="6.25"/>
      <rect class="cls-2" x="112.5" y="243.75" width="6.25" height="6.25"/>
      <rect class="cls-2" x="118.75" y="237.5" width="6.25" height="6.25"/>
      <polygon class="cls-1" points="175 287.5 175 281.25 168.75 281.25 168.75 275 162.5 275 162.5 268.75 156.25 268.75 156.25 262.5 150 262.5 150 256.25 143.75 256.25 143.75 262.5 137.5 262.5 137.5 268.75 131.25 268.75 131.25 275 125 275 125 281.25 118.75 281.25 118.75 287.5 143.75 287.5 150 287.5 175 287.5"/>
      <polygon class="cls-1" points="118.75 275 125 275 125 268.75 131.25 268.75 131.25 262.5 137.5 262.5 137.5 256.25 143.75 256.25 143.75 250 118.75 250 112.5 250 112.5 275 112.5 281.25 118.75 281.25 118.75 275"/>
      <polygon class="cls-1" points="175 250 150 250 150 256.25 156.25 256.25 156.25 262.5 162.5 262.5 162.5 268.75 168.75 268.75 168.75 275 175 275 175 250"/>
      <rect class="cls-2" x="125" y="268.75" width="6.25" height="6.25"/>
      <rect class="cls-2" x="131.25" y="262.5" width="6.25" height="6.25"/>
      <rect class="cls-2" x="137.5" y="256.25" width="6.25" height="6.25"/>
      <rect class="cls-2" x="143.75" y="250" width="6.25" height="6.25"/>
      <rect class="cls-2" x="150" y="256.25" width="6.25" height="6.25"/>
      <rect class="cls-2" x="156.25" y="262.5" width="6.25" height="6.25"/>
      <rect class="cls-2" x="162.5" y="268.75" width="6.25" height="6.25"/>
      <rect class="cls-2" x="168.75" y="275" width="6.25" height="6.25"/>
      <rect class="cls-2" x="112.5" y="281.25" width="6.25" height="6.25"/>
      <rect class="cls-2" x="118.75" y="275" width="6.25" height="6.25"/>
      <polygon class="cls-1" points="168.75 318.75 168.75 312.5 162.5 312.5 162.5 306.25 156.25 306.25 156.25 300 150 300 150 293.75 143.75 293.75 143.75 300 137.5 300 137.5 306.25 131.25 306.25 131.25 312.5 125 312.5 125 318.75 118.75 318.75 118.75 325 143.75 325 150 325 175 325 175 318.75 168.75 318.75"/>
      <polygon class="cls-1" points="175 287.5 150 287.5 150 293.75 156.25 293.75 156.25 300 162.5 300 162.5 306.25 168.75 306.25 168.75 312.5 175 312.5 175 287.5"/>
      <polygon class="cls-1" points="118.75 312.5 125 312.5 125 306.25 131.25 306.25 131.25 300 137.5 300 137.5 293.75 143.75 293.75 143.75 287.5 118.75 287.5 112.5 287.5 112.5 312.5 112.5 318.75 118.75 318.75 118.75 312.5"/>
      <rect class="cls-2" x="125" y="306.25" width="6.25" height="6.25"/>
      <rect class="cls-2" x="131.25" y="300" width="6.25" height="6.25"/>
      <rect class="cls-2" x="137.5" y="293.75" width="6.25" height="6.25"/>
      <rect class="cls-2" x="143.75" y="287.5" width="6.25" height="6.25"/>
      <rect class="cls-2" x="150" y="293.75" width="6.25" height="6.25"/>
      <rect class="cls-2" x="156.25" y="300" width="6.25" height="6.25"/>
      <rect class="cls-2" x="162.5" y="306.25" width="6.25" height="6.25"/>
      <rect class="cls-2" x="168.75" y="312.5" width="6.25" height="6.25"/>
      <rect class="cls-2" x="112.5" y="318.75" width="6.25" height="6.25"/>
      <rect class="cls-2" x="118.75" y="312.5" width="6.25" height="6.25"/>
      <polygon class="cls-1" points="168.75 356.25 168.75 350 162.5 350 162.5 343.75 156.25 343.75 156.25 337.5 150 337.5 150 331.25 143.75 331.25 143.75 337.5 137.5 337.5 137.5 343.75 131.25 343.75 131.25 350 125 350 125 356.25 118.75 356.25 118.75 362.5 143.75 362.5 150 362.5 175 362.5 175 356.25 168.75 356.25"/>
      <polygon class="cls-1" points="175 325 150 325 150 331.25 156.25 331.25 156.25 337.5 162.5 337.5 162.5 343.75 168.75 343.75 168.75 350 175 350 175 325"/>
      <polygon class="cls-1" points="118.75 325 112.5 325 112.5 350 112.5 356.25 118.75 356.25 118.75 350 125 350 125 343.75 131.25 343.75 131.25 337.5 137.5 337.5 137.5 331.25 143.75 331.25 143.75 325 118.75 325"/>
      <rect class="cls-2" x="125" y="343.75" width="6.25" height="6.25"/>
      <rect class="cls-2" x="131.25" y="337.5" width="6.25" height="6.25"/>
      <rect class="cls-2" x="137.5" y="331.25" width="6.25" height="6.25"/>
      <rect class="cls-2" x="143.75" y="325" width="6.25" height="6.25"/>
      <rect class="cls-2" x="150" y="331.25" width="6.25" height="6.25"/>
      <rect class="cls-2" x="156.25" y="337.5" width="6.25" height="6.25"/>
      <rect class="cls-2" x="162.5" y="343.75" width="6.25" height="6.25"/>
      <rect class="cls-2" x="168.75" y="350" width="6.25" height="6.25"/>
      <rect class="cls-2" x="112.5" y="356.25" width="6.25" height="6.25"/>
      <rect class="cls-2" x="118.75" y="350" width="6.25" height="6.25"/>
      <polygon class="cls-1" points="118.75 362.5 112.5 362.5 112.5 387.5 112.5 393.75 118.75 393.75 118.75 387.5 125 387.5 125 381.25 131.25 381.25 131.25 375 137.5 375 137.5 368.75 143.75 368.75 143.75 362.5 118.75 362.5"/>
      <polygon class="cls-1" points="168.75 393.75 168.75 387.5 162.5 387.5 162.5 381.25 156.25 381.25 156.25 375 150 375 150 368.75 143.75 368.75 143.75 375 137.5 375 137.5 381.25 131.25 381.25 131.25 387.5 125 387.5 125 393.75 118.75 393.75 118.75 400 175 400 175 393.75 168.75 393.75"/>
      <polygon class="cls-1" points="175 362.5 150 362.5 150 368.75 156.25 368.75 156.25 375 162.5 375 162.5 381.25 168.75 381.25 168.75 387.5 175 387.5 175 362.5"/>
      <rect class="cls-2" x="125" y="381.25" width="6.25" height="6.25"/>
      <rect class="cls-2" x="131.25" y="375" width="6.25" height="6.25"/>
      <rect class="cls-2" x="137.5" y="368.75" width="6.25" height="6.25"/>
      <rect class="cls-2" x="143.75" y="362.5" width="6.25" height="6.25"/>
      <rect class="cls-2" x="150" y="368.75" width="6.25" height="6.25"/>
      <rect class="cls-2" x="156.25" y="375" width="6.25" height="6.25"/>
      <rect class="cls-2" x="162.5" y="381.25" width="6.25" height="6.25"/>
      <rect class="cls-2" x="168.75" y="387.5" width="6.25" height="6.25"/>
      <rect class="cls-2" x="112.5" y="393.75" width="6.25" height="6.25"/>
      <rect class="cls-2" x="118.75" y="387.5" width="6.25" height="6.25"/>
      <polygon class="cls-1" points="106.25 6.25 106.25 12.5 112.5 12.5 112.5 0 100 0 100 6.25 106.25 6.25"/>
      <polygon class="cls-1" points="50 18.75 56.25 18.75 56.25 12.5 62.5 12.5 62.5 6.25 68.75 6.25 68.75 0 50 0 50 12.5 50 18.75"/>
      <polygon class="cls-1" points="68.75 6.25 68.75 12.5 62.5 12.5 62.5 18.75 56.25 18.75 56.25 25 81.25 25 87.5 25 112.5 25 112.5 18.75 106.25 18.75 106.25 12.5 100 12.5 100 6.25 93.75 6.25 93.75 0 87.5 0 81.25 0 75 0 75 6.25 68.75 6.25"/>
      <rect class="cls-2" x="62.5" y="6.25" width="6.25" height="6.25"/>
      <rect class="cls-2" x="68.75" width="6.25" height="6.25"/>
      <rect class="cls-2" x="93.75" width="6.25" height="6.25"/>
      <rect class="cls-2" x="100" y="6.25" width="6.25" height="6.25"/>
      <rect class="cls-2" x="106.25" y="12.5" width="6.25" height="6.25"/>
      <rect class="cls-2" x="50" y="18.75" width="6.25" height="6.25"/>
      <rect class="cls-2" x="56.25" y="12.5" width="6.25" height="6.25"/>
      <polygon class="cls-1" points="56.25 50 62.5 50 62.5 43.75 68.75 43.75 68.75 37.5 75 37.5 75 31.25 81.25 31.25 81.25 25 56.25 25 50 25 50 50 50 56.25 56.25 56.25 56.25 50"/>
      <polygon class="cls-1" points="93.75 31.25 93.75 37.5 100 37.5 100 43.75 106.25 43.75 106.25 50 112.5 50 112.5 25 87.5 25 87.5 31.25 93.75 31.25"/>
      <polygon class="cls-1" points="112.5 62.5 112.5 56.25 106.25 56.25 106.25 50 100 50 100 43.75 93.75 43.75 93.75 37.5 87.5 37.5 87.5 31.25 81.25 31.25 81.25 37.5 75 37.5 75 43.75 68.75 43.75 68.75 50 62.5 50 62.5 56.25 56.25 56.25 56.25 62.5 81.25 62.5 87.5 62.5 112.5 62.5"/>
      <rect class="cls-2" x="62.5" y="43.75" width="6.25" height="6.25"/>
      <rect class="cls-2" x="68.75" y="37.5" width="6.25" height="6.25"/>
      <rect class="cls-2" x="75" y="31.25" width="6.25" height="6.25"/>
      <rect class="cls-2" x="81.25" y="25" width="6.25" height="6.25"/>
      <rect class="cls-2" x="87.5" y="31.25" width="6.25" height="6.25"/>
      <rect class="cls-2" x="93.75" y="37.5" width="6.25" height="6.25"/>
      <rect class="cls-2" x="100" y="43.75" width="6.25" height="6.25"/>
      <rect class="cls-2" x="106.25" y="50" width="6.25" height="6.25"/>
      <rect class="cls-2" x="50" y="56.25" width="6.25" height="6.25"/>
      <rect class="cls-2" x="56.25" y="50" width="6.25" height="6.25"/>
      <polygon class="cls-1" points="112.5 100 112.5 93.75 106.25 93.75 106.25 87.5 100 87.5 100 81.25 93.75 81.25 93.75 75 87.5 75 87.5 68.75 81.25 68.75 81.25 75 75 75 75 81.25 68.75 81.25 68.75 87.5 62.5 87.5 62.5 93.75 56.25 93.75 56.25 100 81.25 100 87.5 100 112.5 100"/>
      <polygon class="cls-1" points="112.5 62.5 87.5 62.5 87.5 68.75 93.75 68.75 93.75 75 100 75 100 81.25 106.25 81.25 106.25 87.5 112.5 87.5 112.5 62.5"/>
      <polygon class="cls-1" points="56.25 87.5 62.5 87.5 62.5 81.25 68.75 81.25 68.75 75 75 75 75 68.75 81.25 68.75 81.25 62.5 56.25 62.5 50 62.5 50 87.5 50 93.75 56.25 93.75 56.25 87.5"/>
      <rect class="cls-2" x="62.5" y="81.25" width="6.25" height="6.25"/>
      <rect class="cls-2" x="68.75" y="75" width="6.25" height="6.25"/>
      <rect class="cls-2" x="75" y="68.75" width="6.25" height="6.25"/>
      <rect class="cls-2" x="81.25" y="62.5" width="6.25" height="6.25"/>
      <rect class="cls-2" x="87.5" y="68.75" width="6.25" height="6.25"/>
      <rect class="cls-2" x="93.75" y="75" width="6.25" height="6.25"/>
      <rect class="cls-2" x="100" y="81.25" width="6.25" height="6.25"/>
      <rect class="cls-2" x="106.25" y="87.5" width="6.25" height="6.25"/>
      <rect class="cls-2" x="50" y="93.75" width="6.25" height="6.25"/>
      <rect class="cls-2" x="56.25" y="87.5" width="6.25" height="6.25"/>
      <polygon class="cls-1" points="56.25 125 62.5 125 62.5 118.75 68.75 118.75 68.75 112.5 75 112.5 75 106.25 81.25 106.25 81.25 100 56.25 100 50 100 50 125 50 131.25 56.25 131.25 56.25 125"/>
      <polygon class="cls-1" points="112.5 137.5 112.5 131.25 106.25 131.25 106.25 125 100 125 100 118.75 93.75 118.75 93.75 112.5 87.5 112.5 87.5 106.25 81.25 106.25 81.25 112.5 75 112.5 75 118.75 68.75 118.75 68.75 125 62.5 125 62.5 131.25 56.25 131.25 56.25 137.5 81.25 137.5 87.5 137.5 112.5 137.5"/>
      <polygon class="cls-1" points="112.5 100 87.5 100 87.5 106.25 93.75 106.25 93.75 112.5 100 112.5 100 118.75 106.25 118.75 106.25 125 112.5 125 112.5 100"/>
      <rect class="cls-2" x="62.5" y="118.75" width="6.25" height="6.25"/>
      <rect class="cls-2" x="68.75" y="112.5" width="6.25" height="6.25"/>
      <rect class="cls-2" x="75" y="106.25" width="6.25" height="6.25"/>
      <rect class="cls-2" x="81.25" y="100" width="6.25" height="6.25"/>
      <rect class="cls-2" x="87.5" y="106.25" width="6.25" height="6.25"/>
      <rect class="cls-2" x="93.75" y="112.5" width="6.25" height="6.25"/>
      <rect class="cls-2" x="100" y="118.75" width="6.25" height="6.25"/>
      <rect class="cls-2" x="106.25" y="125" width="6.25" height="6.25"/>
      <rect class="cls-2" x="50" y="131.25" width="6.25" height="6.25"/>
      <rect class="cls-2" x="56.25" y="125" width="6.25" height="6.25"/>
      <polygon class="cls-1" points="56.25 162.5 62.5 162.5 62.5 156.25 68.75 156.25 68.75 150 75 150 75 143.75 81.25 143.75 81.25 137.5 56.25 137.5 50 137.5 50 162.5 50 168.75 56.25 168.75 56.25 162.5"/>
      <polygon class="cls-1" points="112.5 137.5 87.5 137.5 87.5 143.75 93.75 143.75 93.75 150 100 150 100 156.25 106.25 156.25 106.25 162.5 112.5 162.5 112.5 137.5"/>
      <polygon class="cls-1" points="112.5 175 112.5 168.75 106.25 168.75 106.25 162.5 100 162.5 100 156.25 93.75 156.25 93.75 150 87.5 150 87.5 143.75 81.25 143.75 81.25 150 75 150 75 156.25 68.75 156.25 68.75 162.5 62.5 162.5 62.5 168.75 56.25 168.75 56.25 175 81.25 175 87.5 175 112.5 175"/>
      <rect class="cls-2" x="62.5" y="156.25" width="6.25" height="6.25"/>
      <rect class="cls-2" x="68.75" y="150" width="6.25" height="6.25"/>
      <rect class="cls-2" x="75" y="143.75" width="6.25" height="6.25"/>
      <rect class="cls-2" x="81.25" y="137.5" width="6.25" height="6.25"/>
      <rect class="cls-2" x="87.5" y="143.75" width="6.25" height="6.25"/>
      <rect class="cls-2" x="93.75" y="150" width="6.25" height="6.25"/>
      <rect class="cls-2" x="100" y="156.25" width="6.25" height="6.25"/>
      <rect class="cls-2" x="106.25" y="162.5" width="6.25" height="6.25"/>
      <rect class="cls-2" x="50" y="168.75" width="6.25" height="6.25"/>
      <rect class="cls-2" x="56.25" y="162.5" width="6.25" height="6.25"/>
      <polygon class="cls-1" points="112.5 175 87.5 175 87.5 181.25 93.75 181.25 93.75 187.5 100 187.5 100 193.75 106.25 193.75 106.25 200 112.5 200 112.5 175"/>
      <polygon class="cls-1" points="112.5 212.5 112.5 206.25 106.25 206.25 106.25 200 100 200 100 193.75 93.75 193.75 93.75 187.5 87.5 187.5 87.5 181.25 81.25 181.25 81.25 187.5 75 187.5 75 193.75 68.75 193.75 68.75 200 62.5 200 62.5 206.25 56.25 206.25 56.25 212.5 81.25 212.5 87.5 212.5 112.5 212.5"/>
      <polygon class="cls-1" points="56.25 200 62.5 200 62.5 193.75 68.75 193.75 68.75 187.5 75 187.5 75 181.25 81.25 181.25 81.25 175 56.25 175 50 175 50 200 50 206.25 56.25 206.25 56.25 200"/>
      <rect class="cls-2" x="62.5" y="193.75" width="6.25" height="6.25"/>
      <rect class="cls-2" x="68.75" y="187.5" width="6.25" height="6.25"/>
      <rect class="cls-2" x="75" y="181.25" width="6.25" height="6.25"/>
      <rect class="cls-2" x="81.25" y="175" width="6.25" height="6.25"/>
      <rect class="cls-2" x="87.5" y="181.25" width="6.25" height="6.25"/>
      <rect class="cls-2" x="93.75" y="187.5" width="6.25" height="6.25"/>
      <rect class="cls-2" x="100" y="193.75" width="6.25" height="6.25"/>
      <rect class="cls-2" x="106.25" y="200" width="6.25" height="6.25"/>
      <rect class="cls-2" x="50" y="206.25" width="6.25" height="6.25"/>
      <rect class="cls-2" x="56.25" y="200" width="6.25" height="6.25"/>
      <polygon class="cls-1" points="112.5 212.5 87.5 212.5 87.5 218.75 93.75 218.75 93.75 225 100 225 100 231.25 106.25 231.25 106.25 237.5 112.5 237.5 112.5 212.5"/>
      <polygon class="cls-1" points="112.5 250 112.5 243.75 106.25 243.75 106.25 237.5 100 237.5 100 231.25 93.75 231.25 93.75 225 87.5 225 87.5 218.75 81.25 218.75 81.25 225 75 225 75 231.25 68.75 231.25 68.75 237.5 62.5 237.5 62.5 243.75 56.25 243.75 56.25 250 81.25 250 87.5 250 112.5 250"/>
      <polygon class="cls-1" points="56.25 237.5 62.5 237.5 62.5 231.25 68.75 231.25 68.75 225 75 225 75 218.75 81.25 218.75 81.25 212.5 56.25 212.5 50 212.5 50 237.5 50 243.75 56.25 243.75 56.25 237.5"/>
      <rect class="cls-2" x="62.5" y="231.25" width="6.25" height="6.25"/>
      <rect class="cls-2" x="68.75" y="225" width="6.25" height="6.25"/>
      <rect class="cls-2" x="75" y="218.75" width="6.25" height="6.25"/>
      <rect class="cls-2" x="81.25" y="212.5" width="6.25" height="6.25"/>
      <rect class="cls-2" x="87.5" y="218.75" width="6.25" height="6.25"/>
      <rect class="cls-2" x="93.75" y="225" width="6.25" height="6.25"/>
      <rect class="cls-2" x="100" y="231.25" width="6.25" height="6.25"/>
      <rect class="cls-2" x="106.25" y="237.5" width="6.25" height="6.25"/>
      <rect class="cls-2" x="50" y="243.75" width="6.25" height="6.25"/>
      <rect class="cls-2" x="56.25" y="237.5" width="6.25" height="6.25"/>
      <polygon class="cls-1" points="112.5 287.5 112.5 281.25 106.25 281.25 106.25 275 100 275 100 268.75 93.75 268.75 93.75 262.5 87.5 262.5 87.5 256.25 81.25 256.25 81.25 262.5 75 262.5 75 268.75 68.75 268.75 68.75 275 62.5 275 62.5 281.25 56.25 281.25 56.25 287.5 81.25 287.5 87.5 287.5 112.5 287.5"/>
      <polygon class="cls-1" points="112.5 250 87.5 250 87.5 256.25 93.75 256.25 93.75 262.5 100 262.5 100 268.75 106.25 268.75 106.25 275 112.5 275 112.5 250"/>
      <polygon class="cls-1" points="56.25 275 62.5 275 62.5 268.75 68.75 268.75 68.75 262.5 75 262.5 75 256.25 81.25 256.25 81.25 250 56.25 250 50 250 50 275 50 281.25 56.25 281.25 56.25 275"/>
      <rect class="cls-2" x="62.5" y="268.75" width="6.25" height="6.25"/>
      <rect class="cls-2" x="68.75" y="262.5" width="6.25" height="6.25"/>
      <rect class="cls-2" x="75" y="256.25" width="6.25" height="6.25"/>
      <rect class="cls-2" x="81.25" y="250" width="6.25" height="6.25"/>
      <rect class="cls-2" x="87.5" y="256.25" width="6.25" height="6.25"/>
      <rect class="cls-2" x="93.75" y="262.5" width="6.25" height="6.25"/>
      <rect class="cls-2" x="100" y="268.75" width="6.25" height="6.25"/>
      <rect class="cls-2" x="106.25" y="275" width="6.25" height="6.25"/>
      <rect class="cls-2" x="50" y="281.25" width="6.25" height="6.25"/>
      <rect class="cls-2" x="56.25" y="275" width="6.25" height="6.25"/>
      <polygon class="cls-1" points="112.5 325 112.5 318.75 106.25 318.75 106.25 312.5 100 312.5 100 306.25 93.75 306.25 93.75 300 87.5 300 87.5 293.75 81.25 293.75 81.25 300 75 300 75 306.25 68.75 306.25 68.75 312.5 62.5 312.5 62.5 318.75 56.25 318.75 56.25 325 81.25 325 87.5 325 112.5 325"/>
      <polygon class="cls-1" points="56.25 312.5 62.5 312.5 62.5 306.25 68.75 306.25 68.75 300 75 300 75 293.75 81.25 293.75 81.25 287.5 56.25 287.5 50 287.5 50 312.5 50 318.75 56.25 318.75 56.25 312.5"/>
      <polygon class="cls-1" points="112.5 287.5 87.5 287.5 87.5 293.75 93.75 293.75 93.75 300 100 300 100 306.25 106.25 306.25 106.25 312.5 112.5 312.5 112.5 287.5"/>
      <rect class="cls-2" x="62.5" y="306.25" width="6.25" height="6.25"/>
      <rect class="cls-2" x="68.75" y="300" width="6.25" height="6.25"/>
      <rect class="cls-2" x="75" y="293.75" width="6.25" height="6.25"/>
      <rect class="cls-2" x="81.25" y="287.5" width="6.25" height="6.25"/>
      <rect class="cls-2" x="87.5" y="293.75" width="6.25" height="6.25"/>
      <rect class="cls-2" x="93.75" y="300" width="6.25" height="6.25"/>
      <rect class="cls-2" x="100" y="306.25" width="6.25" height="6.25"/>
      <rect class="cls-2" x="106.25" y="312.5" width="6.25" height="6.25"/>
      <rect class="cls-2" x="50" y="318.75" width="6.25" height="6.25"/>
      <rect class="cls-2" x="56.25" y="312.5" width="6.25" height="6.25"/>
      <polygon class="cls-1" points="112.5 325 87.5 325 87.5 331.25 93.75 331.25 93.75 337.5 100 337.5 100 343.75 106.25 343.75 106.25 350 112.5 350 112.5 325"/>
      <polygon class="cls-1" points="56.25 350 62.5 350 62.5 343.75 68.75 343.75 68.75 337.5 75 337.5 75 331.25 81.25 331.25 81.25 325 56.25 325 50 325 50 350 50 356.25 56.25 356.25 56.25 350"/>
      <polygon class="cls-1" points="106.25 356.25 106.25 350 100 350 100 343.75 93.75 343.75 93.75 337.5 87.5 337.5 87.5 331.25 81.25 331.25 81.25 337.5 75 337.5 75 343.75 68.75 343.75 68.75 350 62.5 350 62.5 356.25 56.25 356.25 56.25 362.5 81.25 362.5 87.5 362.5 112.5 362.5 112.5 356.25 106.25 356.25"/>
      <rect class="cls-2" x="62.5" y="343.75" width="6.25" height="6.25"/>
      <rect class="cls-2" x="68.75" y="337.5" width="6.25" height="6.25"/>
      <rect class="cls-2" x="75" y="331.25" width="6.25" height="6.25"/>
      <rect class="cls-2" x="81.25" y="325" width="6.25" height="6.25"/>
      <rect class="cls-2" x="87.5" y="331.25" width="6.25" height="6.25"/>
      <rect class="cls-2" x="93.75" y="337.5" width="6.25" height="6.25"/>
      <rect class="cls-2" x="100" y="343.75" width="6.25" height="6.25"/>
      <rect class="cls-2" x="106.25" y="350" width="6.25" height="6.25"/>
      <rect class="cls-2" x="50" y="356.25" width="6.25" height="6.25"/>
      <rect class="cls-2" x="56.25" y="350" width="6.25" height="6.25"/>
      <polygon class="cls-1" points="106.25 393.75 106.25 387.5 100 387.5 100 381.25 93.75 381.25 93.75 375 87.5 375 87.5 368.75 81.25 368.75 81.25 375 75 375 75 381.25 68.75 381.25 68.75 387.5 62.5 387.5 62.5 393.75 56.25 393.75 56.25 400 112.5 400 112.5 393.75 106.25 393.75"/>
      <polygon class="cls-1" points="56.25 362.5 50 362.5 50 387.5 50 393.75 56.25 393.75 56.25 387.5 62.5 387.5 62.5 381.25 68.75 381.25 68.75 375 75 375 75 368.75 81.25 368.75 81.25 362.5 56.25 362.5"/>
      <polygon class="cls-1" points="112.5 362.5 87.5 362.5 87.5 368.75 93.75 368.75 93.75 375 100 375 100 381.25 106.25 381.25 106.25 387.5 112.5 387.5 112.5 362.5"/>
      <rect class="cls-2" x="62.5" y="381.25" width="6.25" height="6.25"/>
      <rect class="cls-2" x="68.75" y="375" width="6.25" height="6.25"/>
      <rect class="cls-2" x="75" y="368.75" width="6.25" height="6.25"/>
      <rect class="cls-2" x="81.25" y="362.5" width="6.25" height="6.25"/>
      <rect class="cls-2" x="87.5" y="368.75" width="6.25" height="6.25"/>
      <rect class="cls-2" x="93.75" y="375" width="6.25" height="6.25"/>
      <rect class="cls-2" x="100" y="381.25" width="6.25" height="6.25"/>
      <rect class="cls-2" x="106.25" y="387.5" width="6.25" height="6.25"/>
      <rect class="cls-2" x="50" y="393.75" width="6.25" height="6.25"/>
      <rect class="cls-2" x="56.25" y="387.5" width="6.25" height="6.25"/>
      <polygon class="cls-1" points="25 25 50 25 50 18.75 43.75 18.75 43.75 12.5 37.5 12.5 37.5 6.25 31.25 6.25 31.25 0 25 0 18.75 0 12.5 0 12.5 6.25 6.25 6.25 6.25 12.5 0 12.5 0 18.75 0 25 18.75 25 25 25"/>
      <polygon class="cls-1" points="43.75 6.25 43.75 12.5 50 12.5 50 0 37.5 0 37.5 6.25 43.75 6.25"/>
      <rect class="cls-1" width="6.25" height="6.25"/>
      <rect class="cls-2" y="6.25" width="6.25" height="6.25"/>
      <rect class="cls-2" x="6.25" width="6.25" height="6.25"/>
      <rect class="cls-2" x="31.25" width="6.25" height="6.25"/>
      <rect class="cls-2" x="37.5" y="6.25" width="6.25" height="6.25"/>
      <rect class="cls-2" x="43.75" y="12.5" width="6.25" height="6.25"/>
      <polygon class="cls-1" points="25 62.5 50 62.5 50 56.25 43.75 56.25 43.75 50 37.5 50 37.5 43.75 31.25 43.75 31.25 37.5 25 37.5 25 31.25 18.75 31.25 18.75 37.5 12.5 37.5 12.5 43.75 6.25 43.75 6.25 50 0 50 0 56.25 0 62.5 18.75 62.5 25 62.5"/>
      <polygon class="cls-1" points="50 25 25 25 25 31.25 31.25 31.25 31.25 37.5 37.5 37.5 37.5 43.75 43.75 43.75 43.75 50 50 50 50 25"/>
      <polygon class="cls-1" points="6.25 37.5 12.5 37.5 12.5 31.25 18.75 31.25 18.75 25 0 25 0 43.75 6.25 43.75 6.25 37.5"/>
      <rect class="cls-2" y="43.75" width="6.25" height="6.25"/>
      <rect class="cls-2" x="6.25" y="37.5" width="6.25" height="6.25"/>
      <rect class="cls-2" x="12.5" y="31.25" width="6.25" height="6.25"/>
      <rect class="cls-2" x="18.75" y="25" width="6.25" height="6.25"/>
      <rect class="cls-2" x="25" y="31.25" width="6.25" height="6.25"/>
      <rect class="cls-2" x="31.25" y="37.5" width="6.25" height="6.25"/>
      <rect class="cls-2" x="37.5" y="43.75" width="6.25" height="6.25"/>
      <rect class="cls-2" x="43.75" y="50" width="6.25" height="6.25"/>
      <polygon class="cls-1" points="50 62.5 25 62.5 25 68.75 31.25 68.75 31.25 75 37.5 75 37.5 81.25 43.75 81.25 43.75 87.5 50 87.5 50 62.5"/>
      <polygon class="cls-1" points="25 100 50 100 50 93.75 43.75 93.75 43.75 87.5 37.5 87.5 37.5 81.25 31.25 81.25 31.25 75 25 75 25 68.75 18.75 68.75 18.75 75 12.5 75 12.5 81.25 6.25 81.25 6.25 87.5 0 87.5 0 93.75 0 100 18.75 100 25 100"/>
      <polygon class="cls-1" points="6.25 75 12.5 75 12.5 68.75 18.75 68.75 18.75 62.5 0 62.5 0 81.25 6.25 81.25 6.25 75"/>
      <rect class="cls-2" y="81.25" width="6.25" height="6.25"/>
      <rect class="cls-2" x="6.25" y="75" width="6.25" height="6.25"/>
      <rect class="cls-2" x="12.5" y="68.75" width="6.25" height="6.25"/>
      <rect class="cls-2" x="18.75" y="62.5" width="6.25" height="6.25"/>
      <rect class="cls-2" x="25" y="68.75" width="6.25" height="6.25"/>
      <rect class="cls-2" x="31.25" y="75" width="6.25" height="6.25"/>
      <rect class="cls-2" x="37.5" y="81.25" width="6.25" height="6.25"/>
      <rect class="cls-2" x="43.75" y="87.5" width="6.25" height="6.25"/>
      <polygon class="cls-1" points="25 137.5 50 137.5 50 131.25 43.75 131.25 43.75 125 37.5 125 37.5 118.75 31.25 118.75 31.25 112.5 25 112.5 25 106.25 18.75 106.25 18.75 112.5 12.5 112.5 12.5 118.75 6.25 118.75 6.25 125 0 125 0 131.25 0 137.5 18.75 137.5 25 137.5"/>
      <polygon class="cls-1" points="6.25 112.5 12.5 112.5 12.5 106.25 18.75 106.25 18.75 100 0 100 0 118.75 6.25 118.75 6.25 112.5"/>
      <polygon class="cls-1" points="50 100 25 100 25 106.25 31.25 106.25 31.25 112.5 37.5 112.5 37.5 118.75 43.75 118.75 43.75 125 50 125 50 100"/>
      <rect class="cls-2" y="118.75" width="6.25" height="6.25"/>
      <rect class="cls-2" x="6.25" y="112.5" width="6.25" height="6.25"/>
      <rect class="cls-2" x="12.5" y="106.25" width="6.25" height="6.25"/>
      <rect class="cls-2" x="18.75" y="100" width="6.25" height="6.25"/>
      <rect class="cls-2" x="25" y="106.25" width="6.25" height="6.25"/>
      <rect class="cls-2" x="31.25" y="112.5" width="6.25" height="6.25"/>
      <rect class="cls-2" x="37.5" y="118.75" width="6.25" height="6.25"/>
      <rect class="cls-2" x="43.75" y="125" width="6.25" height="6.25"/>
      <polygon class="cls-1" points="6.25 150 12.5 150 12.5 143.75 18.75 143.75 18.75 137.5 0 137.5 0 156.25 6.25 156.25 6.25 150"/>
      <polygon class="cls-1" points="25 175 50 175 50 168.75 43.75 168.75 43.75 162.5 37.5 162.5 37.5 156.25 31.25 156.25 31.25 150 25 150 25 143.75 18.75 143.75 18.75 150 12.5 150 12.5 156.25 6.25 156.25 6.25 162.5 0 162.5 0 168.75 0 175 18.75 175 25 175"/>
      <polygon class="cls-1" points="50 137.5 25 137.5 25 143.75 31.25 143.75 31.25 150 37.5 150 37.5 156.25 43.75 156.25 43.75 162.5 50 162.5 50 137.5"/>
      <rect class="cls-2" y="156.25" width="6.25" height="6.25"/>
      <rect class="cls-2" x="6.25" y="150" width="6.25" height="6.25"/>
      <rect class="cls-2" x="12.5" y="143.75" width="6.25" height="6.25"/>
      <rect class="cls-2" x="18.75" y="137.5" width="6.25" height="6.25"/>
      <rect class="cls-2" x="25" y="143.75" width="6.25" height="6.25"/>
      <rect class="cls-2" x="31.25" y="150" width="6.25" height="6.25"/>
      <rect class="cls-2" x="37.5" y="156.25" width="6.25" height="6.25"/>
      <rect class="cls-2" x="43.75" y="162.5" width="6.25" height="6.25"/>
      <polygon class="cls-1" points="6.25 187.5 12.5 187.5 12.5 181.25 18.75 181.25 18.75 175 0 175 0 193.75 6.25 193.75 6.25 187.5"/>
      <polygon class="cls-1" points="25 212.5 50 212.5 50 206.25 43.75 206.25 43.75 200 37.5 200 37.5 193.75 31.25 193.75 31.25 187.5 25 187.5 25 181.25 18.75 181.25 18.75 187.5 12.5 187.5 12.5 193.75 6.25 193.75 6.25 200 0 200 0 206.25 0 212.5 18.75 212.5 25 212.5"/>
      <polygon class="cls-1" points="50 175 25 175 25 181.25 31.25 181.25 31.25 187.5 37.5 187.5 37.5 193.75 43.75 193.75 43.75 200 50 200 50 175"/>
      <rect class="cls-2" y="193.75" width="6.25" height="6.25"/>
      <rect class="cls-2" x="6.25" y="187.5" width="6.25" height="6.25"/>
      <rect class="cls-2" x="12.5" y="181.25" width="6.25" height="6.25"/>
      <rect class="cls-2" x="18.75" y="175" width="6.25" height="6.25"/>
      <rect class="cls-2" x="25" y="181.25" width="6.25" height="6.25"/>
      <rect class="cls-2" x="31.25" y="187.5" width="6.25" height="6.25"/>
      <rect class="cls-2" x="37.5" y="193.75" width="6.25" height="6.25"/>
      <rect class="cls-2" x="43.75" y="200" width="6.25" height="6.25"/>
      <polygon class="cls-1" points="50 212.5 25 212.5 25 218.75 31.25 218.75 31.25 225 37.5 225 37.5 231.25 43.75 231.25 43.75 237.5 50 237.5 50 212.5"/>
      <polygon class="cls-1" points="6.25 225 12.5 225 12.5 218.75 18.75 218.75 18.75 212.5 0 212.5 0 231.25 6.25 231.25 6.25 225"/>
      <polygon class="cls-1" points="25 250 50 250 50 243.75 43.75 243.75 43.75 237.5 37.5 237.5 37.5 231.25 31.25 231.25 31.25 225 25 225 25 218.75 18.75 218.75 18.75 225 12.5 225 12.5 231.25 6.25 231.25 6.25 237.5 0 237.5 0 243.75 0 250 18.75 250 25 250"/>
      <rect class="cls-2" y="231.25" width="6.25" height="6.25"/>
      <rect class="cls-2" x="6.25" y="225" width="6.25" height="6.25"/>
      <rect class="cls-2" x="12.5" y="218.75" width="6.25" height="6.25"/>
      <rect class="cls-2" x="18.75" y="212.5" width="6.25" height="6.25"/>
      <rect class="cls-2" x="25" y="218.75" width="6.25" height="6.25"/>
      <rect class="cls-2" x="31.25" y="225" width="6.25" height="6.25"/>
      <rect class="cls-2" x="37.5" y="231.25" width="6.25" height="6.25"/>
      <rect class="cls-2" x="43.75" y="237.5" width="6.25" height="6.25"/>
      <polygon class="cls-1" points="25 287.5 50 287.5 50 281.25 43.75 281.25 43.75 275 37.5 275 37.5 268.75 31.25 268.75 31.25 262.5 25 262.5 25 256.25 18.75 256.25 18.75 262.5 12.5 262.5 12.5 268.75 6.25 268.75 6.25 275 0 275 0 281.25 0 287.5 18.75 287.5 25 287.5"/>
      <polygon class="cls-1" points="6.25 262.5 12.5 262.5 12.5 256.25 18.75 256.25 18.75 250 0 250 0 268.75 6.25 268.75 6.25 262.5"/>
      <polygon class="cls-1" points="50 250 25 250 25 256.25 31.25 256.25 31.25 262.5 37.5 262.5 37.5 268.75 43.75 268.75 43.75 275 50 275 50 250"/>
      <rect class="cls-2" y="268.75" width="6.25" height="6.25"/>
      <rect class="cls-2" x="6.25" y="262.5" width="6.25" height="6.25"/>
      <rect class="cls-2" x="12.5" y="256.25" width="6.25" height="6.25"/>
      <rect class="cls-2" x="18.75" y="250" width="6.25" height="6.25"/>
      <rect class="cls-2" x="25" y="256.25" width="6.25" height="6.25"/>
      <rect class="cls-2" x="31.25" y="262.5" width="6.25" height="6.25"/>
      <rect class="cls-2" x="37.5" y="268.75" width="6.25" height="6.25"/>
      <rect class="cls-2" x="43.75" y="275" width="6.25" height="6.25"/>
      <polygon class="cls-1" points="25 325 50 325 50 318.75 43.75 318.75 43.75 312.5 37.5 312.5 37.5 306.25 31.25 306.25 31.25 300 25 300 25 293.75 18.75 293.75 18.75 300 12.5 300 12.5 306.25 6.25 306.25 6.25 312.5 0 312.5 0 318.75 0 325 18.75 325 25 325"/>
      <polygon class="cls-1" points="6.25 300 12.5 300 12.5 293.75 18.75 293.75 18.75 287.5 0 287.5 0 306.25 6.25 306.25 6.25 300"/>
      <polygon class="cls-1" points="50 287.5 25 287.5 25 293.75 31.25 293.75 31.25 300 37.5 300 37.5 306.25 43.75 306.25 43.75 312.5 50 312.5 50 287.5"/>
      <rect class="cls-2" y="306.25" width="6.25" height="6.25"/>
      <rect class="cls-2" x="6.25" y="300" width="6.25" height="6.25"/>
      <rect class="cls-2" x="12.5" y="293.75" width="6.25" height="6.25"/>
      <rect class="cls-2" x="18.75" y="287.5" width="6.25" height="6.25"/>
      <rect class="cls-2" x="25" y="293.75" width="6.25" height="6.25"/>
      <rect class="cls-2" x="31.25" y="300" width="6.25" height="6.25"/>
      <rect class="cls-2" x="37.5" y="306.25" width="6.25" height="6.25"/>
      <rect class="cls-2" x="43.75" y="312.5" width="6.25" height="6.25"/>
      <polygon class="cls-1" points="25 362.5 50 362.5 50 356.25 43.75 356.25 43.75 350 37.5 350 37.5 343.75 31.25 343.75 31.25 337.5 25 337.5 25 331.25 18.75 331.25 18.75 337.5 12.5 337.5 12.5 343.75 6.25 343.75 6.25 350 0 350 0 356.25 0 362.5 18.75 362.5 25 362.5"/>
      <polygon class="cls-1" points="6.25 337.5 12.5 337.5 12.5 331.25 18.75 331.25 18.75 325 0 325 0 343.75 6.25 343.75 6.25 337.5"/>
      <polygon class="cls-1" points="50 325 25 325 25 331.25 31.25 331.25 31.25 337.5 37.5 337.5 37.5 343.75 43.75 343.75 43.75 350 50 350 50 325"/>
      <rect class="cls-2" y="343.75" width="6.25" height="6.25"/>
      <rect class="cls-2" x="6.25" y="337.5" width="6.25" height="6.25"/>
      <rect class="cls-2" x="12.5" y="331.25" width="6.25" height="6.25"/>
      <rect class="cls-2" x="18.75" y="325" width="6.25" height="6.25"/>
      <rect class="cls-2" x="25" y="331.25" width="6.25" height="6.25"/>
      <rect class="cls-2" x="31.25" y="337.5" width="6.25" height="6.25"/>
      <rect class="cls-2" x="37.5" y="343.75" width="6.25" height="6.25"/>
      <rect class="cls-2" x="43.75" y="350" width="6.25" height="6.25"/>
      <polygon class="cls-1" points="50 362.5 25 362.5 25 368.75 31.25 368.75 31.25 375 37.5 375 37.5 381.25 43.75 381.25 43.75 387.5 50 387.5 50 362.5"/>
      <polygon class="cls-1" points="43.75 393.75 43.75 387.5 37.5 387.5 37.5 381.25 31.25 381.25 31.25 375 25 375 25 368.75 18.75 368.75 18.75 375 12.5 375 12.5 381.25 6.25 381.25 6.25 387.5 0 387.5 0 393.75 0 400 50 400 50 393.75 43.75 393.75"/>
      <polygon class="cls-1" points="6.25 375 12.5 375 12.5 368.75 18.75 368.75 18.75 362.5 0 362.5 0 381.25 6.25 381.25 6.25 375"/>
      <rect class="cls-2" y="381.25" width="6.25" height="6.25"/>
      <rect class="cls-2" x="6.25" y="375" width="6.25" height="6.25"/>
      <rect class="cls-2" x="12.5" y="368.75" width="6.25" height="6.25"/>
      <rect class="cls-2" x="18.75" y="362.5" width="6.25" height="6.25"/>
      <rect class="cls-2" x="25" y="368.75" width="6.25" height="6.25"/>
      <rect class="cls-2" x="31.25" y="375" width="6.25" height="6.25"/>
      <rect class="cls-2" x="37.5" y="381.25" width="6.25" height="6.25"/>
      <rect class="cls-2" x="43.75" y="387.5" width="6.25" height="6.25"/>
    </g>
  </g>
</svg>