<?xml version="1.0" encoding="UTF-8"?>
<svg id="Layer_2" data-name="Layer 2" xmlns="http://www.w3.org/2000/svg" viewBox="0 0 400 400">
  <defs>
    <style>
      .cls-1 {
        fill: #fdfbfc;
      }

      .cls-1, .cls-2 {
        stroke-width: 0px;
      }

      .cls-2 {
        fill: #1c2d3f;
      }
    </style>
  </defs>
  <g id="Layer_1-2" data-name="Layer 1">
    <g>
      <polygon class="cls-2" points="393.75 11.25 393.75 0 362.5 0 362.5 39.75 400 39.75 400 11.25 393.75 11.25"/>
      <rect class="cls-1" x="393.75" width="6.25" height="11.25"/>
      <polygon class="cls-2" points="368.75 149.5 368.75 143.25 375 143.25 375 137 381.25 137 381.25 130.75 362.5 130.75 362.5 149.5 368.75 149.5"/>
      <polygon class="cls-2" points="393.75 62 387.5 62 387.5 55.75 381.25 55.75 381.25 62 375 62 375 55.75 368.75 55.75 368.75 62 362.5 62 362.5 99.5 368.75 99.5 368.75 93.25 375 93.25 375 87 381.25 87 381.25 80.75 387.5 80.75 387.5 74.5 393.75 74.5 393.75 68.25 400 68.25 400 55.75 393.75 55.75 393.75 62"/>
      <polygon class="cls-2" points="362.5 43.25 368.75 43.25 368.75 49.5 375 49.5 375 43.25 381.25 43.25 381.25 49.5 387.5 49.5 387.5 43.25 393.75 43.25 393.75 49.5 400 49.5 400 39.75 362.5 39.75 362.5 43.25"/>
      <rect class="cls-2" x="387.5" y="49.5" width="6.25" height="6.25"/>
      <rect class="cls-2" x="362.5" y="49.5" width="6.25" height="6.25"/>
      <rect class="cls-2" x="375" y="49.5" width="6.25" height="6.25"/>
      <polygon class="cls-2" points="393.75 155.75 362.5 155.75 362.5 203 400 203 400 174.5 393.75 174.5 393.75 155.75"/>
      <polygon class="cls-2" points="368.75 124.5 368.75 118.25 375 118.25 375 112 381.25 112 381.25 105.75 362.5 105.75 362.5 124.5 368.75 124.5"/>
      <polygon class="cls-1" points="393.75 74.5 387.5 74.5 387.5 80.75 381.25 80.75 381.25 87 375 87 375 93.25 368.75 93.25 368.75 99.5 362.5 99.5 362.5 105.75 381.25 105.75 381.25 112 375 112 375 118.25 368.75 118.25 368.75 124.5 362.5 124.5 362.5 130.75 381.25 130.75 381.25 137 375 137 375 143.25 368.75 143.25 368.75 149.5 362.5 149.5 362.5 155.75 393.75 155.75 393.75 174.5 400 174.5 400 68.25 393.75 68.25 393.75 74.5"/>
      <rect class="cls-1" x="362.5" y="55.75" width="6.25" height="6.25"/>
      <rect class="cls-1" x="375" y="55.75" width="6.25" height="6.25"/>
      <rect class="cls-1" x="387.5" y="55.75" width="6.25" height="6.25"/>
      <rect class="cls-1" x="362.5" y="43.25" width="6.25" height="6.25"/>
      <rect class="cls-1" x="375" y="43.25" width="6.25" height="6.25"/>
      <rect class="cls-1" x="387.5" y="43.25" width="6.25" height="6.25"/>
      <rect class="cls-1" x="368.75" y="49.5" width="6.25" height="6.25"/>
      <rect class="cls-1" x="381.25" y="49.5" width="6.25" height="6.25"/>
      <rect class="cls-1" x="393.75" y="49.5" width="6.25" height="6.25"/>
      <polygon class="cls-2" points="393.75 225.25 387.5 225.25 387.5 219 381.25 219 381.25 225.25 375 225.25 375 219 368.75 219 368.75 225.25 362.5 225.25 362.5 262.75 368.75 262.75 368.75 256.5 375 256.5 375 250.25 381.25 250.25 381.25 244 387.5 244 387.5 237.75 393.75 237.75 393.75 231.5 400 231.5 400 219 393.75 219 393.75 225.25"/>
      <rect class="cls-2" x="387.5" y="212.75" width="6.25" height="6.25"/>
      <polygon class="cls-2" points="368.75 287.75 368.75 281.5 375 281.5 375 275.25 381.25 275.25 381.25 269 362.5 269 362.5 287.75 368.75 287.75"/>
      <polygon class="cls-2" points="368.75 312.75 368.75 306.5 375 306.5 375 300.25 381.25 300.25 381.25 294 362.5 294 362.5 312.75 368.75 312.75"/>
      <rect class="cls-2" x="375" y="212.75" width="6.25" height="6.25"/>
      <polygon class="cls-2" points="362.5 206.5 368.75 206.5 368.75 212.75 375 212.75 375 206.5 381.25 206.5 381.25 212.75 387.5 212.75 387.5 206.5 393.75 206.5 393.75 212.75 400 212.75 400 203 362.5 203 362.5 206.5"/>
      <rect class="cls-2" x="362.5" y="212.75" width="6.25" height="6.25"/>
      <polygon class="cls-2" points="393.75 319 362.5 319 362.5 366.25 400 366.25 400 337.75 393.75 337.75 393.75 319"/>
      <polygon class="cls-1" points="393.75 237.75 387.5 237.75 387.5 244 381.25 244 381.25 250.25 375 250.25 375 256.5 368.75 256.5 368.75 262.75 362.5 262.75 362.5 269 381.25 269 381.25 275.25 375 275.25 375 281.5 368.75 281.5 368.75 287.75 362.5 287.75 362.5 294 381.25 294 381.25 300.25 375 300.25 375 306.5 368.75 306.5 368.75 312.75 362.5 312.75 362.5 319 393.75 319 393.75 337.75 400 337.75 400 231.5 393.75 231.5 393.75 237.75"/>
      <rect class="cls-1" x="362.5" y="219" width="6.25" height="6.25"/>
      <rect class="cls-1" x="375" y="219" width="6.25" height="6.25"/>
      <rect class="cls-1" x="387.5" y="219" width="6.25" height="6.25"/>
      <rect class="cls-1" x="362.5" y="206.5" width="6.25" height="6.25"/>
      <rect class="cls-1" x="375" y="206.5" width="6.25" height="6.25"/>
      <rect class="cls-1" x="387.5" y="206.5" width="6.25" height="6.25"/>
      <rect class="cls-1" x="368.75" y="212.75" width="6.25" height="6.25"/>
      <rect class="cls-1" x="381.25" y="212.75" width="6.25" height="6.25"/>
      <rect class="cls-1" x="393.75" y="212.75" width="6.25" height="6.25"/>
      <rect class="cls-2" x="362.5" y="376" width="6.25" height="6.25"/>
      <polygon class="cls-2" points="393.75 388.5 387.5 388.5 387.5 382.25 381.25 382.25 381.25 388.5 375 388.5 375 382.25 368.75 382.25 368.75 388.5 362.5 388.5 362.5 400 393.75 400 393.75 394.75 400 394.75 400 382.25 393.75 382.25 393.75 388.5"/>
      <rect class="cls-2" x="387.5" y="376" width="6.25" height="6.25"/>
      <rect class="cls-2" x="375" y="376" width="6.25" height="6.25"/>
      <polygon class="cls-2" points="362.5 369.75 368.75 369.75 368.75 376 375 376 375 369.75 381.25 369.75 381.25 376 387.5 376 387.5 369.75 393.75 369.75 393.75 376 400 376 400 366.25 362.5 366.25 362.5 369.75"/>
      <rect class="cls-1" x="393.75" y="394.75" width="6.25" height="5.25"/>
      <rect class="cls-1" x="362.5" y="382.25" width="6.25" height="6.25"/>
      <rect class="cls-1" x="375" y="382.25" width="6.25" height="6.25"/>
      <rect class="cls-1" x="387.5" y="382.25" width="6.25" height="6.25"/>
      <rect class="cls-1" x="362.5" y="369.75" width="6.25" height="6.25"/>
      <rect class="cls-1" x="375" y="369.75" width="6.25" height="6.25"/>
      <rect class="cls-1" x="387.5" y="369.75" width="6.25" height="6.25"/>
      <rect class="cls-1" x="368.75" y="376" width="6.25" height="6.25"/>
      <rect class="cls-1" x="381.25" y="376" width="6.25" height="6.25"/>
      <rect class="cls-1" x="393.75" y="376" width="6.25" height="6.25"/>
      <polygon class="cls-2" points="362.5 39.75 362.5 0 337.5 0 337.5 5 343.75 5 343.75 11.25 350 11.25 350 17.5 318.75 17.5 318.75 36.25 312.5 36.25 312.5 17.5 281.25 17.5 281.25 11.25 287.5 11.25 287.5 5 293.75 5 293.75 0 237.5 0 237.5 11.25 231.25 11.25 231.25 0 200 0 200 39.75 362.5 39.75"/>
      <rect class="cls-1" x="231.25" width="6.25" height="11.25"/>
      <polygon class="cls-1" points="287.5 5 287.5 11.25 281.25 11.25 281.25 17.5 312.5 17.5 312.5 36.25 318.75 36.25 318.75 17.5 350 17.5 350 11.25 343.75 11.25 343.75 5 337.5 5 337.5 0 293.75 0 293.75 5 287.5 5"/>
      <rect class="cls-2" x="337.5" y="49.5" width="6.25" height="6.25"/>
      <rect class="cls-2" x="312.5" y="49.5" width="6.25" height="6.25"/>
      <rect class="cls-2" x="325" y="49.5" width="6.25" height="6.25"/>
      <rect class="cls-2" x="262.5" y="49.5" width="6.25" height="6.25"/>
      <polygon class="cls-2" points="200 43.25 206.25 43.25 206.25 49.5 212.5 49.5 212.5 43.25 218.75 43.25 218.75 49.5 225 49.5 225 43.25 231.25 43.25 231.25 49.5 237.5 49.5 237.5 43.25 243.75 43.25 243.75 49.5 250 49.5 250 43.25 256.25 43.25 256.25 49.5 262.5 49.5 262.5 43.25 268.75 43.25 268.75 49.5 275 49.5 275 43.25 281.25 43.25 281.25 49.5 287.5 49.5 287.5 43.25 293.75 43.25 293.75 49.5 300 49.5 300 43.25 306.25 43.25 306.25 49.5 312.5 49.5 312.5 43.25 318.75 43.25 318.75 49.5 325 49.5 325 43.25 331.25 43.25 331.25 49.5 337.5 49.5 337.5 43.25 343.75 43.25 343.75 49.5 350 49.5 350 43.25 356.25 43.25 356.25 49.5 362.5 49.5 362.5 43.25 362.5 39.75 200 39.75 200 43.25"/>
      <rect class="cls-2" x="200" y="49.5" width="6.25" height="6.25"/>
      <rect class="cls-2" x="350" y="49.5" width="6.25" height="6.25"/>
      <rect class="cls-2" x="287.5" y="49.5" width="6.25" height="6.25"/>
      <rect class="cls-2" x="275" y="49.5" width="6.25" height="6.25"/>
      <polygon class="cls-2" points="206.25 143.25 212.5 143.25 212.5 137 218.75 137 218.75 130.75 200 130.75 200 149.5 206.25 149.5 206.25 143.25"/>
      <rect class="cls-2" x="300" y="49.5" width="6.25" height="6.25"/>
      <rect class="cls-2" x="250" y="49.5" width="6.25" height="6.25"/>
      <rect class="cls-2" x="212.5" y="49.5" width="6.25" height="6.25"/>
      <rect class="cls-2" x="225" y="49.5" width="6.25" height="6.25"/>
      <polygon class="cls-2" points="206.25 118.25 212.5 118.25 212.5 112 218.75 112 218.75 105.75 200 105.75 200 124.5 206.25 124.5 206.25 118.25"/>
      <path class="cls-2" d="M356.25,55.75v6.25h-6.25v-6.25h-6.25v6.25h-6.25v-6.25h-6.25v6.25h-6.25v-6.25h-6.25v6.25h-6.25v-6.25h-6.25v6.25h-6.25v-6.25h-6.25v6.25h-6.25v-6.25h-6.25v6.25h-6.25v-6.25h-6.25v6.25h-6.25v-6.25h-6.25v6.25h-6.25v-6.25h-6.25v6.25h-6.25v-6.25h-6.25v6.25h-6.25v-6.25h-6.25v6.25h-6.25v-6.25h-6.25v6.25h-6.25v37.5h6.25v-6.25h6.25v-6.25h6.25v-6.25h6.25v-6.25h6.25v-6.25h6.25v6.25h6.25v6.25h6.25v6.25h6.25v6.25h6.25v6.25h6.25v6.25h-18.75v6.25h6.25v6.25h6.25v6.25h6.25v6.25h-18.75v6.25h6.25v6.25h6.25v6.25h6.25v6.25h-31.25v18.75h-6.25v-18.75h-31.25v47.25h162.5V55.75h-6.25ZM350,130.75h-18.75v6.25h6.25v6.25h6.25v6.25h6.25v6.25h-18.75v6.25h6.25v6.25h6.25v6.25h6.25v6.25h-31.25v18.75h-6.25v-18.75h-31.25v-6.25h6.25v-6.25h6.25v-6.25h6.25v-6.25h-18.75v-6.25h6.25v-6.25h6.25v-6.25h6.25v-6.25h-18.75v-6.25h6.25v-6.25h6.25v-6.25h6.25v-6.25h6.25v-6.25h6.25v-6.25h6.25v6.25h6.25v6.25h6.25v6.25h6.25v6.25h6.25v6.25h6.25v6.25Z"/>
      <rect class="cls-2" x="237.5" y="49.5" width="6.25" height="6.25"/>
      <polygon class="cls-1" points="218.75 105.75 218.75 112 212.5 112 212.5 118.25 206.25 118.25 206.25 124.5 200 124.5 200 130.75 218.75 130.75 218.75 137 212.5 137 212.5 143.25 206.25 143.25 206.25 149.5 200 149.5 200 155.75 231.25 155.75 231.25 174.5 237.5 174.5 237.5 155.75 268.75 155.75 268.75 149.5 262.5 149.5 262.5 143.25 256.25 143.25 256.25 137 250 137 250 130.75 268.75 130.75 268.75 124.5 262.5 124.5 262.5 118.25 256.25 118.25 256.25 112 250 112 250 105.75 268.75 105.75 268.75 99.5 262.5 99.5 262.5 93.25 256.25 93.25 256.25 87 250 87 250 80.75 243.75 80.75 243.75 74.5 237.5 74.5 237.5 68.25 231.25 68.25 231.25 74.5 225 74.5 225 80.75 218.75 80.75 218.75 87 212.5 87 212.5 93.25 206.25 93.25 206.25 99.5 200 99.5 200 105.75 218.75 105.75"/>
      <polygon class="cls-1" points="343.75 118.25 337.5 118.25 337.5 112 331.25 112 331.25 105.75 325 105.75 325 99.5 318.75 99.5 318.75 93.25 312.5 93.25 312.5 99.5 306.25 99.5 306.25 105.75 300 105.75 300 112 293.75 112 293.75 118.25 287.5 118.25 287.5 124.5 281.25 124.5 281.25 130.75 300 130.75 300 137 293.75 137 293.75 143.25 287.5 143.25 287.5 149.5 281.25 149.5 281.25 155.75 300 155.75 300 162 293.75 162 293.75 168.25 287.5 168.25 287.5 174.5 281.25 174.5 281.25 180.75 312.5 180.75 312.5 199.5 318.75 199.5 318.75 180.75 350 180.75 350 174.5 343.75 174.5 343.75 168.25 337.5 168.25 337.5 162 331.25 162 331.25 155.75 350 155.75 350 149.5 343.75 149.5 343.75 143.25 337.5 143.25 337.5 137 331.25 137 331.25 130.75 350 130.75 350 124.5 343.75 124.5 343.75 118.25"/>
      <rect class="cls-1" x="200" y="55.75" width="6.25" height="6.25"/>
      <rect class="cls-1" x="212.5" y="55.75" width="6.25" height="6.25"/>
      <rect class="cls-1" x="225" y="55.75" width="6.25" height="6.25"/>
      <rect class="cls-1" x="237.5" y="55.75" width="6.25" height="6.25"/>
      <rect class="cls-1" x="250" y="55.75" width="6.25" height="6.25"/>
      <rect class="cls-1" x="262.5" y="55.75" width="6.25" height="6.25"/>
      <rect class="cls-1" x="275" y="55.75" width="6.25" height="6.25"/>
      <rect class="cls-1" x="287.5" y="55.75" width="6.25" height="6.25"/>
      <rect class="cls-1" x="300" y="55.75" width="6.25" height="6.25"/>
      <rect class="cls-1" x="312.5" y="55.75" width="6.25" height="6.25"/>
      <rect class="cls-1" x="325" y="55.75" width="6.25" height="6.25"/>
      <rect class="cls-1" x="337.5" y="55.75" width="6.25" height="6.25"/>
      <rect class="cls-1" x="350" y="55.75" width="6.25" height="6.25"/>
      <rect class="cls-1" x="200" y="43.25" width="6.25" height="6.25"/>
      <rect class="cls-1" x="212.5" y="43.25" width="6.25" height="6.25"/>
      <rect class="cls-1" x="225" y="43.25" width="6.25" height="6.25"/>
      <rect class="cls-1" x="237.5" y="43.25" width="6.25" height="6.25"/>
      <rect class="cls-1" x="250" y="43.25" width="6.25" height="6.25"/>
      <rect class="cls-1" x="262.5" y="43.25" width="6.25" height="6.25"/>
      <rect class="cls-1" x="275" y="43.25" width="6.25" height="6.25"/>
      <rect class="cls-1" x="287.5" y="43.25" width="6.25" height="6.25"/>
      <rect class="cls-1" x="300" y="43.25" width="6.25" height="6.25"/>
      <rect class="cls-1" x="312.5" y="43.25" width="6.25" height="6.25"/>
      <rect class="cls-1" x="325" y="43.25" width="6.25" height="6.25"/>
      <rect class="cls-1" x="337.5" y="43.25" width="6.25" height="6.25"/>
      <rect class="cls-1" x="350" y="43.25" width="6.25" height="6.25"/>
      <rect class="cls-1" x="206.25" y="49.5" width="6.25" height="6.25"/>
      <rect class="cls-1" x="218.75" y="49.5" width="6.25" height="6.25"/>
      <rect class="cls-1" x="231.25" y="49.5" width="6.25" height="6.25"/>
      <rect class="cls-1" x="243.75" y="49.5" width="6.25" height="6.25"/>
      <rect class="cls-1" x="256.25" y="49.5" width="6.25" height="6.25"/>
      <rect class="cls-1" x="268.75" y="49.5" width="6.25" height="6.25"/>
      <rect class="cls-1" x="281.25" y="49.5" width="6.25" height="6.25"/>
      <rect class="cls-1" x="293.75" y="49.5" width="6.25" height="6.25"/>
      <rect class="cls-1" x="306.25" y="49.5" width="6.25" height="6.25"/>
      <rect class="cls-1" x="318.75" y="49.5" width="6.25" height="6.25"/>
      <rect class="cls-1" x="331.25" y="49.5" width="6.25" height="6.25"/>
      <rect class="cls-1" x="343.75" y="49.5" width="6.25" height="6.25"/>
      <rect class="cls-1" x="356.25" y="49.5" width="6.25" height="6.25"/>
      <polygon class="cls-2" points="200 206.5 206.25 206.5 206.25 212.75 212.5 212.75 212.5 206.5 218.75 206.5 218.75 212.75 225 212.75 225 206.5 231.25 206.5 231.25 212.75 237.5 212.75 237.5 206.5 243.75 206.5 243.75 212.75 250 212.75 250 206.5 256.25 206.5 256.25 212.75 262.5 212.75 262.5 206.5 268.75 206.5 268.75 212.75 275 212.75 275 206.5 281.25 206.5 281.25 212.75 287.5 212.75 287.5 206.5 293.75 206.5 293.75 212.75 300 212.75 300 206.5 306.25 206.5 306.25 212.75 312.5 212.75 312.5 206.5 318.75 206.5 318.75 212.75 325 212.75 325 206.5 331.25 206.5 331.25 212.75 337.5 212.75 337.5 206.5 343.75 206.5 343.75 212.75 350 212.75 350 206.5 356.25 206.5 356.25 212.75 362.5 212.75 362.5 206.5 362.5 203 200 203 200 206.5"/>
      <path class="cls-2" d="M356.25,219v6.25h-6.25v-6.25h-6.25v6.25h-6.25v-6.25h-6.25v6.25h-6.25v-6.25h-6.25v6.25h-6.25v-6.25h-6.25v6.25h-6.25v-6.25h-6.25v6.25h-6.25v-6.25h-6.25v6.25h-6.25v-6.25h-6.25v6.25h-6.25v-6.25h-6.25v6.25h-6.25v-6.25h-6.25v6.25h-6.25v-6.25h-6.25v6.25h-6.25v-6.25h-6.25v6.25h-6.25v-6.25h-6.25v6.25h-6.25v37.5h6.25v-6.25h6.25v-6.25h6.25v-6.25h6.25v-6.25h6.25v-6.25h6.25v6.25h6.25v6.25h6.25v6.25h6.25v6.25h6.25v6.25h6.25v6.25h-18.75v6.25h6.25v6.25h6.25v6.25h6.25v6.25h-18.75v6.25h6.25v6.25h6.25v6.25h6.25v6.25h-31.25v18.75h-6.25v-18.75h-31.25v47.25h162.5v-147.25h-6.25ZM350,294h-18.75v6.25h6.25v6.25h6.25v6.25h6.25v6.25h-18.75v6.25h6.25v6.25h6.25v6.25h6.25v6.25h-31.25v18.75h-6.25v-18.75h-31.25v-6.25h6.25v-6.25h6.25v-6.25h6.25v-6.25h-18.75v-6.25h6.25v-6.25h6.25v-6.25h6.25v-6.25h-18.75v-6.25h6.25v-6.25h6.25v-6.25h6.25v-6.25h6.25v-6.25h6.25v-6.25h6.25v6.25h6.25v6.25h6.25v6.25h6.25v6.25h6.25v6.25h6.25v6.25Z"/>
      <rect class="cls-2" x="312.5" y="212.75" width="6.25" height="6.25"/>
      <rect class="cls-2" x="325" y="212.75" width="6.25" height="6.25"/>
      <rect class="cls-2" x="250" y="212.75" width="6.25" height="6.25"/>
      <rect class="cls-2" x="262.5" y="212.75" width="6.25" height="6.25"/>
      <rect class="cls-2" x="200" y="212.75" width="6.25" height="6.25"/>
      <rect class="cls-2" x="237.5" y="212.75" width="6.25" height="6.25"/>
      <rect class="cls-2" x="337.5" y="212.75" width="6.25" height="6.25"/>
      <rect class="cls-2" x="350" y="212.75" width="6.25" height="6.25"/>
      <rect class="cls-2" x="287.5" y="212.75" width="6.25" height="6.25"/>
      <rect class="cls-2" x="212.5" y="212.75" width="6.25" height="6.25"/>
      <rect class="cls-2" x="275" y="212.75" width="6.25" height="6.25"/>
      <polygon class="cls-2" points="206.25 281.5 212.5 281.5 212.5 275.25 218.75 275.25 218.75 269 200 269 200 287.75 206.25 287.75 206.25 281.5"/>
      <rect class="cls-2" x="225" y="212.75" width="6.25" height="6.25"/>
      <polygon class="cls-2" points="206.25 306.5 212.5 306.5 212.5 300.25 218.75 300.25 218.75 294 200 294 200 312.75 206.25 312.75 206.25 306.5"/>
      <rect class="cls-2" x="300" y="212.75" width="6.25" height="6.25"/>
      <polygon class="cls-1" points="218.75 269 218.75 275.25 212.5 275.25 212.5 281.5 206.25 281.5 206.25 287.75 200 287.75 200 294 218.75 294 218.75 300.25 212.5 300.25 212.5 306.5 206.25 306.5 206.25 312.75 200 312.75 200 319 231.25 319 231.25 337.75 237.5 337.75 237.5 319 268.75 319 268.75 312.75 262.5 312.75 262.5 306.5 256.25 306.5 256.25 300.25 250 300.25 250 294 268.75 294 268.75 287.75 262.5 287.75 262.5 281.5 256.25 281.5 256.25 275.25 250 275.25 250 269 268.75 269 268.75 262.75 262.5 262.75 262.5 256.5 256.25 256.5 256.25 250.25 250 250.25 250 244 243.75 244 243.75 237.75 237.5 237.75 237.5 231.5 231.25 231.5 231.25 237.75 225 237.75 225 244 218.75 244 218.75 250.25 212.5 250.25 212.5 256.5 206.25 256.5 206.25 262.75 200 262.75 200 269 218.75 269"/>
      <polygon class="cls-1" points="343.75 281.5 337.5 281.5 337.5 275.25 331.25 275.25 331.25 269 325 269 325 262.75 318.75 262.75 318.75 256.5 312.5 256.5 312.5 262.75 306.25 262.75 306.25 269 300 269 300 275.25 293.75 275.25 293.75 281.5 287.5 281.5 287.5 287.75 281.25 287.75 281.25 294 300 294 300 300.25 293.75 300.25 293.75 306.5 287.5 306.5 287.5 312.75 281.25 312.75 281.25 319 300 319 300 325.25 293.75 325.25 293.75 331.5 287.5 331.5 287.5 337.75 281.25 337.75 281.25 344 312.5 344 312.5 362.75 318.75 362.75 318.75 344 350 344 350 337.75 343.75 337.75 343.75 331.5 337.5 331.5 337.5 325.25 331.25 325.25 331.25 319 350 319 350 312.75 343.75 312.75 343.75 306.5 337.5 306.5 337.5 300.25 331.25 300.25 331.25 294 350 294 350 287.75 343.75 287.75 343.75 281.5"/>
      <rect class="cls-1" x="200" y="219" width="6.25" height="6.25"/>
      <rect class="cls-1" x="212.5" y="219" width="6.25" height="6.25"/>
      <rect class="cls-1" x="225" y="219" width="6.25" height="6.25"/>
      <rect class="cls-1" x="237.5" y="219" width="6.25" height="6.25"/>
      <rect class="cls-1" x="250" y="219" width="6.25" height="6.25"/>
      <rect class="cls-1" x="262.5" y="219" width="6.25" height="6.25"/>
      <rect class="cls-1" x="275" y="219" width="6.25" height="6.25"/>
      <rect class="cls-1" x="287.5" y="219" width="6.25" height="6.25"/>
      <rect class="cls-1" x="300" y="219" width="6.25" height="6.25"/>
      <rect class="cls-1" x="312.5" y="219" width="6.25" height="6.25"/>
      <rect class="cls-1" x="325" y="219" width="6.25" height="6.25"/>
      <rect class="cls-1" x="337.5" y="219" width="6.25" height="6.25"/>
      <rect class="cls-1" x="350" y="219" width="6.25" height="6.25"/>
      <rect class="cls-1" x="200" y="206.5" width="6.25" height="6.25"/>
      <rect class="cls-1" x="212.5" y="206.5" width="6.25" height="6.25"/>
      <rect class="cls-1" x="225" y="206.5" width="6.25" height="6.25"/>
      <rect class="cls-1" x="237.5" y="206.5" width="6.25" height="6.25"/>
      <rect class="cls-1" x="250" y="206.5" width="6.25" height="6.25"/>
      <rect class="cls-1" x="262.5" y="206.5" width="6.25" height="6.25"/>
      <rect class="cls-1" x="275" y="206.5" width="6.25" height="6.25"/>
      <rect class="cls-1" x="287.5" y="206.5" width="6.25" height="6.25"/>
      <rect class="cls-1" x="300" y="206.5" width="6.25" height="6.25"/>
      <rect class="cls-1" x="312.5" y="206.5" width="6.25" height="6.25"/>
      <rect class="cls-1" x="325" y="206.5" width="6.25" height="6.25"/>
      <rect class="cls-1" x="337.5" y="206.5" width="6.25" height="6.25"/>
      <rect class="cls-1" x="350" y="206.5" width="6.25" height="6.25"/>
      <rect class="cls-1" x="206.25" y="212.75" width="6.25" height="6.25"/>
      <rect class="cls-1" x="218.75" y="212.75" width="6.25" height="6.25"/>
      <rect class="cls-1" x="231.25" y="212.75" width="6.25" height="6.25"/>
      <rect class="cls-1" x="243.75" y="212.75" width="6.25" height="6.25"/>
      <rect class="cls-1" x="256.25" y="212.75" width="6.25" height="6.25"/>
      <rect class="cls-1" x="268.75" y="212.75" width="6.25" height="6.25"/>
      <rect class="cls-1" x="281.25" y="212.75" width="6.25" height="6.25"/>
      <rect class="cls-1" x="293.75" y="212.75" width="6.25" height="6.25"/>
      <rect class="cls-1" x="306.25" y="212.75" width="6.25" height="6.25"/>
      <rect class="cls-1" x="318.75" y="212.75" width="6.25" height="6.25"/>
      <rect class="cls-1" x="331.25" y="212.75" width="6.25" height="6.25"/>
      <rect class="cls-1" x="343.75" y="212.75" width="6.25" height="6.25"/>
      <rect class="cls-1" x="356.25" y="212.75" width="6.25" height="6.25"/>
      <polygon class="cls-2" points="362.5 382.25 356.25 382.25 356.25 388.5 350 388.5 350 382.25 343.75 382.25 343.75 388.5 337.5 388.5 337.5 382.25 331.25 382.25 331.25 388.5 325 388.5 325 382.25 318.75 382.25 318.75 388.5 312.5 388.5 312.5 382.25 306.25 382.25 306.25 388.5 300 388.5 300 382.25 293.75 382.25 293.75 388.5 287.5 388.5 287.5 382.25 281.25 382.25 281.25 388.5 275 388.5 275 382.25 268.75 382.25 268.75 388.5 262.5 388.5 262.5 382.25 256.25 382.25 256.25 388.5 250 388.5 250 382.25 243.75 382.25 243.75 388.5 237.5 388.5 237.5 382.25 231.25 382.25 231.25 388.5 225 388.5 225 382.25 218.75 382.25 218.75 388.5 212.5 388.5 212.5 382.25 206.25 382.25 206.25 388.5 200 388.5 200 400 231.25 400 231.25 394.75 237.5 394.75 237.5 400 362.5 400 362.5 388.5 362.5 382.25"/>
      <rect class="cls-2" x="200" y="376" width="6.25" height="6.25"/>
      <polygon class="cls-2" points="200 369.75 206.25 369.75 206.25 376 212.5 376 212.5 369.75 218.75 369.75 218.75 376 225 376 225 369.75 231.25 369.75 231.25 376 237.5 376 237.5 369.75 243.75 369.75 243.75 376 250 376 250 369.75 256.25 369.75 256.25 376 262.5 376 262.5 369.75 268.75 369.75 268.75 376 275 376 275 369.75 281.25 369.75 281.25 376 287.5 376 287.5 369.75 293.75 369.75 293.75 376 300 376 300 369.75 306.25 369.75 306.25 376 312.5 376 312.5 369.75 318.75 369.75 318.75 376 325 376 325 369.75 331.25 369.75 331.25 376 337.5 376 337.5 369.75 343.75 369.75 343.75 376 350 376 350 369.75 356.25 369.75 356.25 376 362.5 376 362.5 369.75 362.5 366.25 200 366.25 200 369.75"/>
      <rect class="cls-2" x="325" y="376" width="6.25" height="6.25"/>
      <rect class="cls-2" x="250" y="376" width="6.25" height="6.25"/>
      <rect class="cls-2" x="337.5" y="376" width="6.25" height="6.25"/>
      <rect class="cls-2" x="225" y="376" width="6.25" height="6.25"/>
      <rect class="cls-2" x="275" y="376" width="6.25" height="6.25"/>
      <rect class="cls-2" x="300" y="376" width="6.25" height="6.25"/>
      <rect class="cls-2" x="312.5" y="376" width="6.25" height="6.25"/>
      <rect class="cls-2" x="212.5" y="376" width="6.25" height="6.25"/>
      <rect class="cls-2" x="237.5" y="376" width="6.25" height="6.25"/>
      <rect class="cls-2" x="350" y="376" width="6.25" height="6.25"/>
      <rect class="cls-2" x="287.5" y="376" width="6.25" height="6.25"/>
      <rect class="cls-2" x="262.5" y="376" width="6.25" height="6.25"/>
      <rect class="cls-1" x="231.25" y="394.75" width="6.25" height="5.25"/>
      <rect class="cls-1" x="200" y="382.25" width="6.25" height="6.25"/>
      <rect class="cls-1" x="212.5" y="382.25" width="6.25" height="6.25"/>
      <rect class="cls-1" x="225" y="382.25" width="6.25" height="6.25"/>
      <rect class="cls-1" x="237.5" y="382.25" width="6.25" height="6.25"/>
      <rect class="cls-1" x="250" y="382.25" width="6.25" height="6.25"/>
      <rect class="cls-1" x="262.5" y="382.25" width="6.25" height="6.25"/>
      <rect class="cls-1" x="275" y="382.25" width="6.25" height="6.25"/>
      <rect class="cls-1" x="287.5" y="382.25" width="6.25" height="6.25"/>
      <rect class="cls-1" x="300" y="382.25" width="6.25" height="6.25"/>
      <rect class="cls-1" x="312.5" y="382.25" width="6.25" height="6.25"/>
      <rect class="cls-1" x="325" y="382.25" width="6.25" height="6.25"/>
      <rect class="cls-1" x="337.5" y="382.25" width="6.25" height="6.25"/>
      <rect class="cls-1" x="350" y="382.25" width="6.25" height="6.25"/>
      <rect class="cls-1" x="200" y="369.75" width="6.25" height="6.25"/>
      <rect class="cls-1" x="212.5" y="369.75" width="6.25" height="6.25"/>
      <rect class="cls-1" x="225" y="369.75" width="6.25" height="6.25"/>
      <rect class="cls-1" x="237.5" y="369.75" width="6.25" height="6.25"/>
      <rect class="cls-1" x="250" y="369.75" width="6.25" height="6.25"/>
      <rect class="cls-1" x="262.5" y="369.75" width="6.25" height="6.25"/>
      <rect class="cls-1" x="275" y="369.75" width="6.25" height="6.25"/>
      <rect class="cls-1" x="287.5" y="369.75" width="6.25" height="6.25"/>
      <rect class="cls-1" x="300" y="369.75" width="6.25" height="6.25"/>
      <rect class="cls-1" x="312.5" y="369.75" width="6.25" height="6.25"/>
      <rect class="cls-1" x="325" y="369.75" width="6.25" height="6.25"/>
      <rect class="cls-1" x="337.5" y="369.75" width="6.25" height="6.25"/>
      <rect class="cls-1" x="350" y="369.75" width="6.25" height="6.25"/>
      <rect class="cls-1" x="206.25" y="376" width="6.25" height="6.25"/>
      <rect class="cls-1" x="218.75" y="376" width="6.25" height="6.25"/>
      <rect class="cls-1" x="231.25" y="376" width="6.25" height="6.25"/>
      <rect class="cls-1" x="243.75" y="376" width="6.25" height="6.25"/>
      <rect class="cls-1" x="256.25" y="376" width="6.25" height="6.25"/>
      <rect class="cls-1" x="268.75" y="376" width="6.25" height="6.25"/>
      <rect class="cls-1" x="281.25" y="376" width="6.25" height="6.25"/>
      <rect class="cls-1" x="293.75" y="376" width="6.25" height="6.25"/>
      <rect class="cls-1" x="306.25" y="376" width="6.25" height="6.25"/>
      <rect class="cls-1" x="318.75" y="376" width="6.25" height="6.25"/>
      <rect class="cls-1" x="331.25" y="376" width="6.25" height="6.25"/>
      <rect class="cls-1" x="343.75" y="376" width="6.25" height="6.25"/>
      <rect class="cls-1" x="356.25" y="376" width="6.25" height="6.25"/>
      <polygon class="cls-2" points="200 39.75 200 0 175 0 175 5 181.25 5 181.25 11.25 187.5 11.25 187.5 17.5 156.25 17.5 156.25 36.25 150 36.25 150 17.5 118.75 17.5 118.75 11.25 125 11.25 125 5 131.25 5 131.25 0 75 0 75 11.25 68.75 11.25 68.75 0 37.5 0 37.5 39.75 200 39.75"/>
      <rect class="cls-1" x="68.75" width="6.25" height="11.25"/>
      <polygon class="cls-1" points="125 5 125 11.25 118.75 11.25 118.75 17.5 150 17.5 150 36.25 156.25 36.25 156.25 17.5 187.5 17.5 187.5 11.25 181.25 11.25 181.25 5 175 5 175 0 131.25 0 131.25 5 125 5"/>
      <rect class="cls-2" x="87.5" y="49.5" width="6.25" height="6.25"/>
      <polygon class="cls-2" points="43.75 143.25 50 143.25 50 137 56.25 137 56.25 130.75 37.5 130.75 37.5 149.5 43.75 149.5 43.75 143.25"/>
      <rect class="cls-2" x="162.5" y="49.5" width="6.25" height="6.25"/>
      <rect class="cls-2" x="137.5" y="49.5" width="6.25" height="6.25"/>
      <rect class="cls-2" x="175" y="49.5" width="6.25" height="6.25"/>
      <rect class="cls-2" x="150" y="49.5" width="6.25" height="6.25"/>
      <rect class="cls-2" x="100" y="49.5" width="6.25" height="6.25"/>
      <path class="cls-2" d="M200,155.75V55.75h-6.25v6.25h-6.25v-6.25h-6.25v6.25h-6.25v-6.25h-6.25v6.25h-6.25v-6.25h-6.25v6.25h-6.25v-6.25h-6.25v6.25h-6.25v-6.25h-6.25v6.25h-6.25v-6.25h-6.25v6.25h-6.25v-6.25h-6.25v6.25h-6.25v-6.25h-6.25v6.25h-6.25v-6.25h-6.25v6.25h-6.25v-6.25h-6.25v6.25h-6.25v-6.25h-6.25v6.25h-6.25v-6.25h-6.25v6.25h-6.25v37.5h6.25v-6.25h6.25v-6.25h6.25v-6.25h6.25v-6.25h6.25v-6.25h6.25v6.25h6.25v6.25h6.25v6.25h6.25v6.25h6.25v6.25h6.25v6.25h-18.75v6.25h6.25v6.25h6.25v6.25h6.25v6.25h-18.75v6.25h6.25v6.25h6.25v6.25h6.25v6.25h-31.25v18.75h-6.25v-18.75h-31.25v47.25h162.5v-47.25ZM187.5,130.75h-18.75v6.25h6.25v6.25h6.25v6.25h6.25v6.25h-18.75v6.25h6.25v6.25h6.25v6.25h6.25v6.25h-31.25v18.75h-6.25v-18.75h-31.25v-6.25h6.25v-6.25h6.25v-6.25h6.25v-6.25h-18.75v-6.25h6.25v-6.25h6.25v-6.25h6.25v-6.25h-18.75v-6.25h6.25v-6.25h6.25v-6.25h6.25v-6.25h6.25v-6.25h6.25v-6.25h6.25v6.25h6.25v6.25h6.25v6.25h6.25v6.25h6.25v6.25h6.25v6.25Z"/>
      <polygon class="cls-2" points="43.75 118.25 50 118.25 50 112 56.25 112 56.25 105.75 37.5 105.75 37.5 124.5 43.75 124.5 43.75 118.25"/>
      <rect class="cls-2" x="125" y="49.5" width="6.25" height="6.25"/>
      <rect class="cls-2" x="112.5" y="49.5" width="6.25" height="6.25"/>
      <rect class="cls-2" x="187.5" y="49.5" width="6.25" height="6.25"/>
      <rect class="cls-2" x="37.5" y="49.5" width="6.25" height="6.25"/>
      <rect class="cls-2" x="75" y="49.5" width="6.25" height="6.25"/>
      <polygon class="cls-2" points="43.75 49.5 50 49.5 50 43.25 56.25 43.25 56.25 49.5 62.5 49.5 62.5 43.25 68.75 43.25 68.75 49.5 75 49.5 75 43.25 81.25 43.25 81.25 49.5 87.5 49.5 87.5 43.25 93.75 43.25 93.75 49.5 100 49.5 100 43.25 106.25 43.25 106.25 49.5 112.5 49.5 112.5 43.25 118.75 43.25 118.75 49.5 125 49.5 125 43.25 131.25 43.25 131.25 49.5 137.5 49.5 137.5 43.25 143.75 43.25 143.75 49.5 150 49.5 150 43.25 156.25 43.25 156.25 49.5 162.5 49.5 162.5 43.25 168.75 43.25 168.75 49.5 175 49.5 175 43.25 181.25 43.25 181.25 49.5 187.5 49.5 187.5 43.25 193.75 43.25 193.75 49.5 200 49.5 200 43.25 200 39.75 37.5 39.75 37.5 43.25 43.75 43.25 43.75 49.5"/>
      <rect class="cls-2" x="50" y="49.5" width="6.25" height="6.25"/>
      <rect class="cls-2" x="62.5" y="49.5" width="6.25" height="6.25"/>
      <polygon class="cls-1" points="68.75 174.5 75 174.5 75 155.75 106.25 155.75 106.25 149.5 100 149.5 100 143.25 93.75 143.25 93.75 137 87.5 137 87.5 130.75 106.25 130.75 106.25 124.5 100 124.5 100 118.25 93.75 118.25 93.75 112 87.5 112 87.5 105.75 106.25 105.75 106.25 99.5 100 99.5 100 93.25 93.75 93.25 93.75 87 87.5 87 87.5 80.75 81.25 80.75 81.25 74.5 75 74.5 75 68.25 68.75 68.25 68.75 74.5 62.5 74.5 62.5 80.75 56.25 80.75 56.25 87 50 87 50 93.25 43.75 93.25 43.75 99.5 37.5 99.5 37.5 105.75 56.25 105.75 56.25 112 50 112 50 118.25 43.75 118.25 43.75 124.5 37.5 124.5 37.5 130.75 56.25 130.75 56.25 137 50 137 50 143.25 43.75 143.25 43.75 149.5 37.5 149.5 37.5 155.75 68.75 155.75 68.75 174.5"/>
      <polygon class="cls-1" points="181.25 118.25 175 118.25 175 112 168.75 112 168.75 105.75 162.5 105.75 162.5 99.5 156.25 99.5 156.25 93.25 150 93.25 150 99.5 143.75 99.5 143.75 105.75 137.5 105.75 137.5 112 131.25 112 131.25 118.25 125 118.25 125 124.5 118.75 124.5 118.75 130.75 137.5 130.75 137.5 137 131.25 137 131.25 143.25 125 143.25 125 149.5 118.75 149.5 118.75 155.75 137.5 155.75 137.5 162 131.25 162 131.25 168.25 125 168.25 125 174.5 118.75 174.5 118.75 180.75 150 180.75 150 199.5 156.25 199.5 156.25 180.75 187.5 180.75 187.5 174.5 181.25 174.5 181.25 168.25 175 168.25 175 162 168.75 162 168.75 155.75 187.5 155.75 187.5 149.5 181.25 149.5 181.25 143.25 175 143.25 175 137 168.75 137 168.75 130.75 187.5 130.75 187.5 124.5 181.25 124.5 181.25 118.25"/>
      <rect class="cls-1" x="37.5" y="55.75" width="6.25" height="6.25"/>
      <rect class="cls-1" x="50" y="55.75" width="6.25" height="6.25"/>
      <rect class="cls-1" x="62.5" y="55.75" width="6.25" height="6.25"/>
      <rect class="cls-1" x="75" y="55.75" width="6.25" height="6.25"/>
      <rect class="cls-1" x="87.5" y="55.75" width="6.25" height="6.25"/>
      <rect class="cls-1" x="100" y="55.75" width="6.25" height="6.25"/>
      <rect class="cls-1" x="112.5" y="55.75" width="6.25" height="6.25"/>
      <rect class="cls-1" x="125" y="55.75" width="6.25" height="6.25"/>
      <rect class="cls-1" x="137.5" y="55.75" width="6.25" height="6.25"/>
      <rect class="cls-1" x="150" y="55.75" width="6.25" height="6.25"/>
      <rect class="cls-1" x="162.5" y="55.75" width="6.25" height="6.25"/>
      <rect class="cls-1" x="175" y="55.75" width="6.25" height="6.25"/>
      <rect class="cls-1" x="187.5" y="55.75" width="6.25" height="6.25"/>
      <rect class="cls-1" x="37.5" y="43.25" width="6.25" height="6.25"/>
      <rect class="cls-1" x="50" y="43.25" width="6.25" height="6.25"/>
      <rect class="cls-1" x="62.5" y="43.25" width="6.25" height="6.25"/>
      <rect class="cls-1" x="75" y="43.25" width="6.25" height="6.25"/>
      <rect class="cls-1" x="87.5" y="43.25" width="6.25" height="6.25"/>
      <rect class="cls-1" x="100" y="43.25" width="6.25" height="6.25"/>
      <rect class="cls-1" x="112.5" y="43.25" width="6.25" height="6.25"/>
      <rect class="cls-1" x="125" y="43.25" width="6.25" height="6.25"/>
      <rect class="cls-1" x="137.5" y="43.25" width="6.25" height="6.25"/>
      <rect class="cls-1" x="150" y="43.25" width="6.25" height="6.25"/>
      <rect class="cls-1" x="162.5" y="43.25" width="6.25" height="6.25"/>
      <rect class="cls-1" x="175" y="43.25" width="6.25" height="6.25"/>
      <rect class="cls-1" x="187.5" y="43.25" width="6.25" height="6.25"/>
      <rect class="cls-1" x="43.75" y="49.5" width="6.25" height="6.25"/>
      <rect class="cls-1" x="56.25" y="49.5" width="6.25" height="6.25"/>
      <rect class="cls-1" x="68.75" y="49.5" width="6.25" height="6.25"/>
      <rect class="cls-1" x="81.25" y="49.5" width="6.25" height="6.25"/>
      <rect class="cls-1" x="93.75" y="49.5" width="6.25" height="6.25"/>
      <rect class="cls-1" x="106.25" y="49.5" width="6.25" height="6.25"/>
      <rect class="cls-1" x="118.75" y="49.5" width="6.25" height="6.25"/>
      <rect class="cls-1" x="131.25" y="49.5" width="6.25" height="6.25"/>
      <rect class="cls-1" x="143.75" y="49.5" width="6.25" height="6.25"/>
      <rect class="cls-1" x="156.25" y="49.5" width="6.25" height="6.25"/>
      <rect class="cls-1" x="168.75" y="49.5" width="6.25" height="6.25"/>
      <rect class="cls-1" x="181.25" y="49.5" width="6.25" height="6.25"/>
      <rect class="cls-1" x="193.75" y="49.5" width="6.25" height="6.25"/>
      <rect class="cls-2" x="100" y="212.75" width="6.25" height="6.25"/>
      <polygon class="cls-2" points="43.75 306.5 50 306.5 50 300.25 56.25 300.25 56.25 294 37.5 294 37.5 312.75 43.75 312.75 43.75 306.5"/>
      <rect class="cls-2" x="37.5" y="212.75" width="6.25" height="6.25"/>
      <polygon class="cls-2" points="43.75 212.75 50 212.75 50 206.5 56.25 206.5 56.25 212.75 62.5 212.75 62.5 206.5 68.75 206.5 68.75 212.75 75 212.75 75 206.5 81.25 206.5 81.25 212.75 87.5 212.75 87.5 206.5 93.75 206.5 93.75 212.75 100 212.75 100 206.5 106.25 206.5 106.25 212.75 112.5 212.75 112.5 206.5 118.75 206.5 118.75 212.75 125 212.75 125 206.5 131.25 206.5 131.25 212.75 137.5 212.75 137.5 206.5 143.75 206.5 143.75 212.75 150 212.75 150 206.5 156.25 206.5 156.25 212.75 162.5 212.75 162.5 206.5 168.75 206.5 168.75 212.75 175 212.75 175 206.5 181.25 206.5 181.25 212.75 187.5 212.75 187.5 206.5 193.75 206.5 193.75 212.75 200 212.75 200 206.5 200 203 37.5 203 37.5 206.5 43.75 206.5 43.75 212.75"/>
      <polygon class="cls-2" points="43.75 281.5 50 281.5 50 275.25 56.25 275.25 56.25 269 37.5 269 37.5 287.75 43.75 287.75 43.75 281.5"/>
      <rect class="cls-2" x="50" y="212.75" width="6.25" height="6.25"/>
      <rect class="cls-2" x="150" y="212.75" width="6.25" height="6.25"/>
      <rect class="cls-2" x="137.5" y="212.75" width="6.25" height="6.25"/>
      <path class="cls-2" d="M200,319v-100h-6.25v6.25h-6.25v-6.25h-6.25v6.25h-6.25v-6.25h-6.25v6.25h-6.25v-6.25h-6.25v6.25h-6.25v-6.25h-6.25v6.25h-6.25v-6.25h-6.25v6.25h-6.25v-6.25h-6.25v6.25h-6.25v-6.25h-6.25v6.25h-6.25v-6.25h-6.25v6.25h-6.25v-6.25h-6.25v6.25h-6.25v-6.25h-6.25v6.25h-6.25v-6.25h-6.25v6.25h-6.25v-6.25h-6.25v6.25h-6.25v37.5h6.25v-6.25h6.25v-6.25h6.25v-6.25h6.25v-6.25h6.25v-6.25h6.25v6.25h6.25v6.25h6.25v6.25h6.25v6.25h6.25v6.25h6.25v6.25h-18.75v6.25h6.25v6.25h6.25v6.25h6.25v6.25h-18.75v6.25h6.25v6.25h6.25v6.25h6.25v6.25h-31.25v18.75h-6.25v-18.75h-31.25v47.25h162.5v-47.25ZM187.5,294h-18.75v6.25h6.25v6.25h6.25v6.25h6.25v6.25h-18.75v6.25h6.25v6.25h6.25v6.25h6.25v6.25h-31.25v18.75h-6.25v-18.75h-31.25v-6.25h6.25v-6.25h6.25v-6.25h6.25v-6.25h-18.75v-6.25h6.25v-6.25h6.25v-6.25h6.25v-6.25h-18.75v-6.25h6.25v-6.25h6.25v-6.25h6.25v-6.25h6.25v-6.25h6.25v-6.25h6.25v6.25h6.25v6.25h6.25v6.25h6.25v6.25h6.25v6.25h6.25v6.25Z"/>
      <rect class="cls-2" x="125" y="212.75" width="6.25" height="6.25"/>
      <rect class="cls-2" x="87.5" y="212.75" width="6.25" height="6.25"/>
      <rect class="cls-2" x="187.5" y="212.75" width="6.25" height="6.25"/>
      <rect class="cls-2" x="62.5" y="212.75" width="6.25" height="6.25"/>
      <rect class="cls-2" x="75" y="212.75" width="6.25" height="6.25"/>
      <rect class="cls-2" x="175" y="212.75" width="6.25" height="6.25"/>
      <rect class="cls-2" x="112.5" y="212.75" width="6.25" height="6.25"/>
      <rect class="cls-2" x="162.5" y="212.75" width="6.25" height="6.25"/>
      <polygon class="cls-1" points="68.75 337.75 75 337.75 75 319 106.25 319 106.25 312.75 100 312.75 100 306.5 93.75 306.5 93.75 300.25 87.5 300.25 87.5 294 106.25 294 106.25 287.75 100 287.75 100 281.5 93.75 281.5 93.75 275.25 87.5 275.25 87.5 269 106.25 269 106.25 262.75 100 262.75 100 256.5 93.75 256.5 93.75 250.25 87.5 250.25 87.5 244 81.25 244 81.25 237.75 75 237.75 75 231.5 68.75 231.5 68.75 237.75 62.5 237.75 62.5 244 56.25 244 56.25 250.25 50 250.25 50 256.5 43.75 256.5 43.75 262.75 37.5 262.75 37.5 269 56.25 269 56.25 275.25 50 275.25 50 281.5 43.75 281.5 43.75 287.75 37.5 287.75 37.5 294 56.25 294 56.25 300.25 50 300.25 50 306.5 43.75 306.5 43.75 312.75 37.5 312.75 37.5 319 68.75 319 68.75 337.75"/>
      <polygon class="cls-1" points="181.25 281.5 175 281.5 175 275.25 168.75 275.25 168.75 269 162.5 269 162.5 262.75 156.25 262.75 156.25 256.5 150 256.5 150 262.75 143.75 262.75 143.75 269 137.5 269 137.5 275.25 131.25 275.25 131.25 281.5 125 281.5 125 287.75 118.75 287.75 118.75 294 137.5 294 137.5 300.25 131.25 300.25 131.25 306.5 125 306.5 125 312.75 118.75 312.75 118.75 319 137.5 319 137.5 325.25 131.25 325.25 131.25 331.5 125 331.5 125 337.75 118.75 337.75 118.75 344 150 344 150 362.75 156.25 362.75 156.25 344 187.5 344 187.5 337.75 181.25 337.75 181.25 331.5 175 331.5 175 325.25 168.75 325.25 168.75 319 187.5 319 187.5 312.75 181.25 312.75 181.25 306.5 175 306.5 175 300.25 168.75 300.25 168.75 294 187.5 294 187.5 287.75 181.25 287.75 181.25 281.5"/>
      <rect class="cls-1" x="37.5" y="219" width="6.25" height="6.25"/>
      <rect class="cls-1" x="50" y="219" width="6.25" height="6.25"/>
      <rect class="cls-1" x="62.5" y="219" width="6.25" height="6.25"/>
      <rect class="cls-1" x="75" y="219" width="6.25" height="6.25"/>
      <rect class="cls-1" x="87.5" y="219" width="6.25" height="6.25"/>
      <rect class="cls-1" x="100" y="219" width="6.25" height="6.25"/>
      <rect class="cls-1" x="112.5" y="219" width="6.25" height="6.25"/>
      <rect class="cls-1" x="125" y="219" width="6.25" height="6.25"/>
      <rect class="cls-1" x="137.5" y="219" width="6.25" height="6.25"/>
      <rect class="cls-1" x="150" y="219" width="6.25" height="6.25"/>
      <rect class="cls-1" x="162.5" y="219" width="6.25" height="6.25"/>
      <rect class="cls-1" x="175" y="219" width="6.25" height="6.25"/>
      <rect class="cls-1" x="187.5" y="219" width="6.25" height="6.25"/>
      <rect class="cls-1" x="37.5" y="206.5" width="6.25" height="6.25"/>
      <rect class="cls-1" x="50" y="206.5" width="6.25" height="6.25"/>
      <rect class="cls-1" x="62.5" y="206.5" width="6.25" height="6.25"/>
      <rect class="cls-1" x="75" y="206.5" width="6.25" height="6.25"/>
      <rect class="cls-1" x="87.5" y="206.5" width="6.25" height="6.25"/>
      <rect class="cls-1" x="100" y="206.5" width="6.25" height="6.25"/>
      <rect class="cls-1" x="112.5" y="206.5" width="6.25" height="6.25"/>
      <rect class="cls-1" x="125" y="206.5" width="6.25" height="6.25"/>
      <rect class="cls-1" x="137.5" y="206.5" width="6.25" height="6.25"/>
      <rect class="cls-1" x="150" y="206.5" width="6.25" height="6.25"/>
      <rect class="cls-1" x="162.5" y="206.5" width="6.25" height="6.25"/>
      <rect class="cls-1" x="175" y="206.5" width="6.25" height="6.25"/>
      <rect class="cls-1" x="187.5" y="206.5" width="6.25" height="6.25"/>
      <rect class="cls-1" x="43.75" y="212.75" width="6.25" height="6.25"/>
      <rect class="cls-1" x="56.25" y="212.75" width="6.25" height="6.25"/>
      <rect class="cls-1" x="68.75" y="212.75" width="6.25" height="6.25"/>
      <rect class="cls-1" x="81.25" y="212.75" width="6.25" height="6.25"/>
      <rect class="cls-1" x="93.75" y="212.75" width="6.25" height="6.25"/>
      <rect class="cls-1" x="106.25" y="212.75" width="6.25" height="6.25"/>
      <rect class="cls-1" x="118.75" y="212.75" width="6.25" height="6.25"/>
      <rect class="cls-1" x="131.25" y="212.75" width="6.25" height="6.25"/>
      <rect class="cls-1" x="143.75" y="212.75" width="6.25" height="6.25"/>
      <rect class="cls-1" x="156.25" y="212.75" width="6.25" height="6.25"/>
      <rect class="cls-1" x="168.75" y="212.75" width="6.25" height="6.25"/>
      <rect class="cls-1" x="181.25" y="212.75" width="6.25" height="6.25"/>
      <rect class="cls-1" x="193.75" y="212.75" width="6.25" height="6.25"/>
      <rect class="cls-2" x="175" y="376" width="6.25" height="6.25"/>
      <rect class="cls-2" x="75" y="376" width="6.25" height="6.25"/>
      <polygon class="cls-2" points="200 382.25 193.75 382.25 193.75 388.5 187.5 388.5 187.5 382.25 181.25 382.25 181.25 388.5 175 388.5 175 382.25 168.75 382.25 168.75 388.5 162.5 388.5 162.5 382.25 156.25 382.25 156.25 388.5 150 388.5 150 382.25 143.75 382.25 143.75 388.5 137.5 388.5 137.5 382.25 131.25 382.25 131.25 388.5 125 388.5 125 382.25 118.75 382.25 118.75 388.5 112.5 388.5 112.5 382.25 106.25 382.25 106.25 388.5 100 388.5 100 382.25 93.75 382.25 93.75 388.5 87.5 388.5 87.5 382.25 81.25 382.25 81.25 388.5 75 388.5 75 382.25 68.75 382.25 68.75 388.5 62.5 388.5 62.5 382.25 56.25 382.25 56.25 388.5 50 388.5 50 382.25 43.75 382.25 43.75 388.5 37.5 388.5 37.5 400 68.75 400 68.75 394.75 75 394.75 75 400 200 400 200 388.5 200 382.25"/>
      <rect class="cls-2" x="150" y="376" width="6.25" height="6.25"/>
      <rect class="cls-2" x="137.5" y="376" width="6.25" height="6.25"/>
      <polygon class="cls-2" points="43.75 376 50 376 50 369.75 56.25 369.75 56.25 376 62.5 376 62.5 369.75 68.75 369.75 68.75 376 75 376 75 369.75 81.25 369.75 81.25 376 87.5 376 87.5 369.75 93.75 369.75 93.75 376 100 376 100 369.75 106.25 369.75 106.25 376 112.5 376 112.5 369.75 118.75 369.75 118.75 376 125 376 125 369.75 131.25 369.75 131.25 376 137.5 376 137.5 369.75 143.75 369.75 143.75 376 150 376 150 369.75 156.25 369.75 156.25 376 162.5 376 162.5 369.75 168.75 369.75 168.75 376 175 376 175 369.75 181.25 369.75 181.25 376 187.5 376 187.5 369.75 193.75 369.75 193.75 376 200 376 200 369.75 200 366.25 37.5 366.25 37.5 369.75 43.75 369.75 43.75 376"/>
      <rect class="cls-2" x="162.5" y="376" width="6.25" height="6.25"/>
      <rect class="cls-2" x="100" y="376" width="6.25" height="6.25"/>
      <rect class="cls-2" x="87.5" y="376" width="6.25" height="6.25"/>
      <rect class="cls-2" x="50" y="376" width="6.25" height="6.25"/>
      <rect class="cls-2" x="62.5" y="376" width="6.25" height="6.25"/>
      <rect class="cls-2" x="112.5" y="376" width="6.25" height="6.25"/>
      <rect class="cls-2" x="125" y="376" width="6.25" height="6.25"/>
      <rect class="cls-2" x="187.5" y="376" width="6.25" height="6.25"/>
      <rect class="cls-2" x="37.5" y="376" width="6.25" height="6.25"/>
      <rect class="cls-1" x="68.75" y="394.75" width="6.25" height="5.25"/>
      <rect class="cls-1" x="37.5" y="382.25" width="6.25" height="6.25"/>
      <rect class="cls-1" x="50" y="382.25" width="6.25" height="6.25"/>
      <rect class="cls-1" x="62.5" y="382.25" width="6.25" height="6.25"/>
      <rect class="cls-1" x="75" y="382.25" width="6.25" height="6.25"/>
      <rect class="cls-1" x="87.5" y="382.25" width="6.25" height="6.25"/>
      <rect class="cls-1" x="100" y="382.25" width="6.25" height="6.25"/>
      <rect class="cls-1" x="112.5" y="382.25" width="6.25" height="6.25"/>
      <rect class="cls-1" x="125" y="382.25" width="6.25" height="6.25"/>
      <rect class="cls-1" x="137.5" y="382.25" width="6.25" height="6.25"/>
      <rect class="cls-1" x="150" y="382.25" width="6.25" height="6.25"/>
      <rect class="cls-1" x="162.5" y="382.25" width="6.25" height="6.25"/>
      <rect class="cls-1" x="175" y="382.25" width="6.25" height="6.25"/>
      <rect class="cls-1" x="187.5" y="382.25" width="6.25" height="6.25"/>
      <rect class="cls-1" x="37.5" y="369.75" width="6.25" height="6.25"/>
      <rect class="cls-1" x="50" y="369.75" width="6.25" height="6.25"/>
      <rect class="cls-1" x="62.5" y="369.75" width="6.25" height="6.25"/>
      <rect class="cls-1" x="75" y="369.75" width="6.25" height="6.25"/>
      <rect class="cls-1" x="87.5" y="369.75" width="6.25" height="6.25"/>
      <rect class="cls-1" x="100" y="369.75" width="6.25" height="6.25"/>
      <rect class="cls-1" x="112.5" y="369.75" width="6.25" height="6.25"/>
      <rect class="cls-1" x="125" y="369.75" width="6.25" height="6.25"/>
      <rect class="cls-1" x="137.5" y="369.75" width="6.25" height="6.25"/>
      <rect class="cls-1" x="150" y="369.75" width="6.25" height="6.25"/>
      <rect class="cls-1" x="162.5" y="369.75" width="6.25" height="6.25"/>
      <rect class="cls-1" x="175" y="369.75" width="6.25" height="6.25"/>
      <rect class="cls-1" x="187.5" y="369.75" width="6.25" height="6.25"/>
      <rect class="cls-1" x="43.75" y="376" width="6.25" height="6.25"/>
      <rect class="cls-1" x="56.25" y="376" width="6.25" height="6.25"/>
      <rect class="cls-1" x="68.75" y="376" width="6.25" height="6.25"/>
      <rect class="cls-1" x="81.25" y="376" width="6.25" height="6.25"/>
      <rect class="cls-1" x="93.75" y="376" width="6.25" height="6.25"/>
      <rect class="cls-1" x="106.25" y="376" width="6.25" height="6.25"/>
      <rect class="cls-1" x="118.75" y="376" width="6.25" height="6.25"/>
      <rect class="cls-1" x="131.25" y="376" width="6.25" height="6.25"/>
      <rect class="cls-1" x="143.75" y="376" width="6.25" height="6.25"/>
      <rect class="cls-1" x="156.25" y="376" width="6.25" height="6.25"/>
      <rect class="cls-1" x="168.75" y="376" width="6.25" height="6.25"/>
      <rect class="cls-1" x="181.25" y="376" width="6.25" height="6.25"/>
      <rect class="cls-1" x="193.75" y="376" width="6.25" height="6.25"/>
      <polygon class="cls-2" points="37.5 0 12.5 0 12.5 5 18.75 5 18.75 11.25 25 11.25 25 17.5 0 17.5 0 39.75 37.5 39.75 37.5 0"/>
      <polygon class="cls-1" points="25 11.25 18.75 11.25 18.75 5 12.5 5 12.5 0 0 0 0 17.5 25 17.5 25 11.25"/>
      <rect class="cls-2" x="0" y="49.5" width="6.25" height="6.25"/>
      <rect class="cls-2" x="12.5" y="49.5" width="6.25" height="6.25"/>
      <polygon class="cls-2" points="0 43.25 6.25 43.25 6.25 49.5 12.5 49.5 12.5 43.25 18.75 43.25 18.75 49.5 25 49.5 25 43.25 31.25 43.25 31.25 49.5 37.5 49.5 37.5 43.25 37.5 39.75 0 39.75 0 49.5 0 49.5 0 43.25"/>
      <rect class="cls-2" x="25" y="49.5" width="6.25" height="6.25"/>
      <polygon class="cls-2" points="37.5 155.75 37.5 149.5 37.5 130.75 37.5 124.5 37.5 105.75 37.5 99.5 37.5 62 37.5 55.75 31.25 55.75 31.25 62 25 62 25 55.75 18.75 55.75 18.75 62 12.5 62 12.5 55.75 6.25 55.75 6.25 62 0 62 0 55.75 0 55.75 0 99.5 0 99.5 0 105.75 6.25 105.75 6.25 112 12.5 112 12.5 118.25 18.75 118.25 18.75 124.5 25 124.5 25 130.75 6.25 130.75 6.25 137 12.5 137 12.5 143.25 18.75 143.25 18.75 149.5 25 149.5 25 155.75 6.25 155.75 6.25 162 12.5 162 12.5 168.25 18.75 168.25 18.75 174.5 25 174.5 25 180.75 0 180.75 0 203 37.5 203 37.5 155.75"/>
      <polygon class="cls-1" points="25 174.5 18.75 174.5 18.75 168.25 12.5 168.25 12.5 162 6.25 162 6.25 155.75 25 155.75 25 149.5 18.75 149.5 18.75 143.25 12.5 143.25 12.5 137 6.25 137 6.25 130.75 25 130.75 25 124.5 18.75 124.5 18.75 118.25 12.5 118.25 12.5 112 6.25 112 6.25 105.75 0 105.75 0 99.5 0 99.5 0 180.75 25 180.75 25 174.5"/>
      <rect class="cls-1" x="0" y="55.75" width="6.25" height="6.25"/>
      <rect class="cls-1" x="12.5" y="55.75" width="6.25" height="6.25"/>
      <rect class="cls-1" x="25" y="55.75" width="6.25" height="6.25"/>
      <rect class="cls-1" x="0" y="43.25" width="6.25" height="6.25"/>
      <rect class="cls-1" x="12.5" y="43.25" width="6.25" height="6.25"/>
      <rect class="cls-1" x="25" y="43.25" width="6.25" height="6.25"/>
      <rect class="cls-1" y="49.5" width="0" height="6.25"/>
      <rect class="cls-1" x="6.25" y="49.5" width="6.25" height="6.25"/>
      <rect class="cls-1" x="18.75" y="49.5" width="6.25" height="6.25"/>
      <rect class="cls-1" x="31.25" y="49.5" width="6.25" height="6.25"/>
      <rect class="cls-2" x="12.5" y="212.75" width="6.25" height="6.25"/>
      <rect class="cls-2" x="0" y="212.75" width="6.25" height="6.25"/>
      <polygon class="cls-2" points="0 206.5 6.25 206.5 6.25 212.75 12.5 212.75 12.5 206.5 18.75 206.5 18.75 212.75 25 212.75 25 206.5 31.25 206.5 31.25 212.75 37.5 212.75 37.5 206.5 37.5 203 0 203 0 212.75 0 212.75 0 206.5"/>
      <rect class="cls-2" x="25" y="212.75" width="6.25" height="6.25"/>
      <polygon class="cls-2" points="37.5 319 37.5 312.75 37.5 294 37.5 287.75 37.5 269 37.5 262.75 37.5 225.25 37.5 219 31.25 219 31.25 225.25 25 225.25 25 219 18.75 219 18.75 225.25 12.5 225.25 12.5 219 6.25 219 6.25 225.25 0 225.25 0 219 0 219 0 262.75 0 262.75 0 269 6.25 269 6.25 275.25 12.5 275.25 12.5 281.5 18.75 281.5 18.75 287.75 25 287.75 25 294 6.25 294 6.25 300.25 12.5 300.25 12.5 306.5 18.75 306.5 18.75 312.75 25 312.75 25 319 6.25 319 6.25 325.25 12.5 325.25 12.5 331.5 18.75 331.5 18.75 337.75 25 337.75 25 344 0 344 0 366.25 37.5 366.25 37.5 319"/>
      <polygon class="cls-1" points="25 337.75 18.75 337.75 18.75 331.5 12.5 331.5 12.5 325.25 6.25 325.25 6.25 319 25 319 25 312.75 18.75 312.75 18.75 306.5 12.5 306.5 12.5 300.25 6.25 300.25 6.25 294 25 294 25 287.75 18.75 287.75 18.75 281.5 12.5 281.5 12.5 275.25 6.25 275.25 6.25 269 0 269 0 262.75 0 262.75 0 344 25 344 25 337.75"/>
      <rect class="cls-1" x="0" y="219" width="6.25" height="6.25"/>
      <rect class="cls-1" x="12.5" y="219" width="6.25" height="6.25"/>
      <rect class="cls-1" x="25" y="219" width="6.25" height="6.25"/>
      <rect class="cls-1" x="0" y="206.5" width="6.25" height="6.25"/>
      <rect class="cls-1" x="12.5" y="206.5" width="6.25" height="6.25"/>
      <rect class="cls-1" x="25" y="206.5" width="6.25" height="6.25"/>
      <rect class="cls-1" y="212.75" width="0" height="6.25"/>
      <rect class="cls-1" x="6.25" y="212.75" width="6.25" height="6.25"/>
      <rect class="cls-1" x="18.75" y="212.75" width="6.25" height="6.25"/>
      <rect class="cls-1" x="31.25" y="212.75" width="6.25" height="6.25"/>
      <polygon class="cls-2" points="37.5 382.25 31.25 382.25 31.25 388.5 25 388.5 25 382.25 18.75 382.25 18.75 388.5 12.5 388.5 12.5 382.25 6.25 382.25 6.25 388.5 0 388.5 0 382.25 0 382.25 0 400 37.5 400 37.5 388.5 37.5 382.25"/>
      <rect class="cls-2" x="0" y="376" width="6.25" height="6.25"/>
      <rect class="cls-2" x="25" y="376" width="6.25" height="6.25"/>
      <polygon class="cls-2" points="0 369.75 6.25 369.75 6.25 376 12.5 376 12.5 369.75 18.75 369.75 18.75 376 25 376 25 369.75 31.25 369.75 31.25 376 37.5 376 37.5 369.75 37.5 366.25 0 366.25 0 376 0 376 0 369.75"/>
      <rect class="cls-2" x="12.5" y="376" width="6.25" height="6.25"/>
      <rect class="cls-1" x="0" y="382.25" width="6.25" height="6.25"/>
      <rect class="cls-1" x="12.5" y="382.25" width="6.25" height="6.25"/>
      <rect class="cls-1" x="25" y="382.25" width="6.25" height="6.25"/>
      <rect class="cls-1" x="0" y="369.75" width="6.25" height="6.25"/>
      <rect class="cls-1" x="12.5" y="369.75" width="6.25" height="6.25"/>
      <rect class="cls-1" x="25" y="369.75" width="6.25" height="6.25"/>
      <rect class="cls-1" y="376" width="0" height="6.25"/>
      <rect class="cls-1" x="6.25" y="376" width="6.25" height="6.25"/>
      <rect class="cls-1" x="18.75" y="376" width="6.25" height="6.25"/>
      <rect class="cls-1" x="31.25" y="376" width="6.25" height="6.25"/>
    </g>
  </g>
</svg>