<?xml version="1.0" encoding="UTF-8"?>
<svg id="Layer_2" data-name="Layer 2" xmlns="http://www.w3.org/2000/svg" viewBox="0 0 400 400">
  <defs>
    <style>
      .cls-1 {
        fill: #fdfbfc;
      }

      .cls-1, .cls-2 {
        stroke-width: 0px;
      }

      .cls-2 {
        fill: #1c2d3f;
      }
    </style>
  </defs>
  <g id="Layer_1-2" data-name="Layer 1">
    <g>
      <rect class="cls-2" x="393.75" y="34.5" width="6.25" height="6.25"/>
      <rect class="cls-2" x="368.75" y="22" width="6.25" height="6.25"/>
      <rect class="cls-2" x="375" y="40.75" width="6.25" height="6.25"/>
      <rect class="cls-2" x="368.75" y="47" width="6.25" height="6.25"/>
      <rect class="cls-2" x="393.75" y="47" width="6.25" height="6.25"/>
      <rect class="cls-2" x="362.5" y="53.25" width="6.25" height="6.25"/>
      <rect class="cls-2" x="375" y="28.25" width="6.25" height="6.25"/>
      <rect class="cls-2" x="387.5" y="28.25" width="6.25" height="6.25"/>
      <rect class="cls-2" x="362.5" y="15.75" width="6.25" height="6.25"/>
      <rect class="cls-2" x="381.25" y="34.5" width="6.25" height="6.25"/>
      <rect class="cls-2" x="300" y="34.5" width="6.25" height="6.25"/>
      <rect class="cls-2" x="387.5" y="40.75" width="6.25" height="6.25"/>
      <path class="cls-2" d="M306.25,28.25v6.25h6.25v6.25h-6.25v6.25h-6.25v50h6.25v6.25h6.25v-6.25h6.25v-6.25h6.25v6.25h6.25v6.25h6.25v-6.25h6.25v-6.25h6.25v6.25h6.25v6.25h6.25v-6.25h6.25v-6.25h6.25v6.25h6.25v6.25h6.25v-6.25h6.25v-6.25h6.25v-18.75h-6.25v-6.25h-6.25v-18.75h-6.25v18.75h-6.25v6.25h-6.25v6.25h-6.25v-18.75h-18.75v-6.25h6.25v-6.25h6.25v-6.25h18.75v-6.25h-18.75v-6.25h-6.25v-6.25h-6.25v-6.25h18.75V0h-62.5v28.25h6.25ZM381.25,78.25h6.25v6.25h-6.25v-6.25ZM337.5,34.5h6.25v6.25h-6.25v-6.25Z"/>
      <polygon class="cls-2" points="375 3.25 375 9.5 381.25 9.5 381.25 28.25 387.5 28.25 387.5 9.5 393.75 9.5 393.75 3.25 400 3.25 400 0 368.75 0 368.75 3.25 375 3.25"/>
      <rect class="cls-2" x="393.75" y="22" width="6.25" height="6.25"/>
      <polygon class="cls-2" points="400 97 393.75 97 393.75 103.25 387.5 103.25 387.5 109.5 381.25 109.5 381.25 103.25 375 103.25 375 97 368.75 97 368.75 103.25 362.5 103.25 362.5 109.5 356.25 109.5 356.25 103.25 350 103.25 350 97 343.75 97 343.75 103.25 337.5 103.25 337.5 109.5 331.25 109.5 331.25 103.25 325 103.25 325 97 318.75 97 318.75 103.25 312.5 103.25 312.5 109.5 306.25 109.5 306.25 103.25 300 103.25 300 112.75 400 112.75 400 103.25 400 97"/>
      <rect class="cls-1" x="393.75" y="90.75" width="6.25" height="6.25"/>
      <rect class="cls-1" x="387.5" y="97" width="6.25" height="6.25"/>
      <rect class="cls-1" x="381.25" y="103.25" width="6.25" height="6.25"/>
      <rect class="cls-1" x="375" y="97" width="6.25" height="6.25"/>
      <rect class="cls-1" x="368.75" y="90.75" width="6.25" height="6.25"/>
      <rect class="cls-1" x="362.5" y="97" width="6.25" height="6.25"/>
      <rect class="cls-1" x="356.25" y="103.25" width="6.25" height="6.25"/>
      <rect class="cls-1" x="350" y="97" width="6.25" height="6.25"/>
      <rect class="cls-1" x="343.75" y="90.75" width="6.25" height="6.25"/>
      <rect class="cls-1" x="337.5" y="97" width="6.25" height="6.25"/>
      <rect class="cls-1" x="331.25" y="103.25" width="6.25" height="6.25"/>
      <rect class="cls-1" x="325" y="97" width="6.25" height="6.25"/>
      <rect class="cls-1" x="318.75" y="90.75" width="6.25" height="6.25"/>
      <rect class="cls-1" x="312.5" y="97" width="6.25" height="6.25"/>
      <rect class="cls-1" x="306.25" y="103.25" width="6.25" height="6.25"/>
      <rect class="cls-1" x="300" y="97" width="6.25" height="6.25"/>
      <rect class="cls-1" x="337.5" y="34.5" width="6.25" height="6.25"/>
      <rect class="cls-1" x="381.25" y="78.25" width="6.25" height="6.25"/>
      <rect class="cls-1" x="300" y="28.25" width="6.25" height="6.25"/>
      <rect class="cls-1" x="300" y="40.75" width="6.25" height="6.25"/>
      <rect class="cls-1" x="306.25" y="34.5" width="6.25" height="6.25"/>
      <polygon class="cls-1" points="368.75 15.75 368.75 22 375 22 375 28.25 381.25 28.25 381.25 9.5 375 9.5 375 3.25 368.75 3.25 368.75 0 362.5 0 362.5 15.75 368.75 15.75"/>
      <polygon class="cls-1" points="368.75 28.25 368.75 22 362.5 22 362.5 15.75 343.75 15.75 343.75 22 350 22 350 28.25 356.25 28.25 356.25 34.5 375 34.5 375 28.25 368.75 28.25"/>
      <polygon class="cls-1" points="393.75 9.5 387.5 9.5 387.5 28.25 393.75 28.25 393.75 22 400 22 400 15.75 400 3.25 393.75 3.25 393.75 9.5"/>
      <rect class="cls-1" x="393.75" y="28.25" width="6.25" height="6.25"/>
      <polygon class="cls-1" points="393.75 47 387.5 47 387.5 65.75 393.75 65.75 393.75 72 400 72 400 59.5 400 53.25 393.75 53.25 393.75 47"/>
      <rect class="cls-1" x="393.75" y="40.75" width="6.25" height="6.25"/>
      <polygon class="cls-1" points="375 53.25 368.75 53.25 368.75 59.5 362.5 59.5 362.5 78.25 368.75 78.25 368.75 72 375 72 375 65.75 381.25 65.75 381.25 47 375 47 375 53.25"/>
      <polygon class="cls-1" points="368.75 53.25 368.75 47 375 47 375 40.75 356.25 40.75 356.25 47 350 47 350 53.25 343.75 53.25 343.75 59.5 362.5 59.5 362.5 53.25 368.75 53.25"/>
      <rect class="cls-1" x="381.25" y="28.25" width="6.25" height="6.25"/>
      <rect class="cls-1" x="375" y="34.5" width="6.25" height="6.25"/>
      <rect class="cls-1" x="387.5" y="34.5" width="6.25" height="6.25"/>
      <rect class="cls-1" x="381.25" y="40.75" width="6.25" height="6.25"/>
      <rect class="cls-2" x="393.75" y="197.25" width="6.25" height="6.25"/>
      <polygon class="cls-2" points="393.75 266 387.5 266 387.5 272.25 381.25 272.25 381.25 266 375 266 375 259.75 368.75 259.75 368.75 266 362.5 266 362.5 272.25 356.25 272.25 356.25 266 350 266 350 259.75 343.75 259.75 343.75 266 337.5 266 337.5 272.25 331.25 272.25 331.25 266 325 266 325 259.75 318.75 259.75 318.75 266 312.5 266 312.5 272.25 306.25 272.25 306.25 266 300 266 300 275.5 400 275.5 400 266 400 259.75 393.75 259.75 393.75 266"/>
      <rect class="cls-2" x="381.25" y="197.25" width="6.25" height="6.25"/>
      <rect class="cls-2" x="387.5" y="203.5" width="6.25" height="6.25"/>
      <rect class="cls-2" x="362.5" y="216" width="6.25" height="6.25"/>
      <rect class="cls-2" x="375" y="203.5" width="6.25" height="6.25"/>
      <rect class="cls-2" x="393.75" y="209.75" width="6.25" height="6.25"/>
      <rect class="cls-2" x="362.5" y="178.5" width="6.25" height="6.25"/>
      <rect class="cls-2" x="300" y="197.25" width="6.25" height="6.25"/>
      <rect class="cls-2" x="368.75" y="209.75" width="6.25" height="6.25"/>
      <rect class="cls-2" x="393.75" y="184.75" width="6.25" height="6.25"/>
      <path class="cls-2" d="M300,116v18.75h6.25v-6.25h6.25v6.25h6.25v6.25h6.25v-6.25h6.25v-6.25h6.25v6.25h6.25v6.25h6.25v-6.25h6.25v-6.25h6.25v6.25h6.25v6.25h6.25v-6.25h6.25v-6.25h6.25v6.25h6.25v6.25h6.25v-18.75h-6.25v-6.25h6.25v-3.25h-100v3.25ZM381.25,116h6.25v6.25h-6.25v-6.25ZM368.75,116h6.25v6.25h-6.25v-6.25ZM356.25,116h6.25v6.25h-6.25v-6.25ZM343.75,116h6.25v6.25h-6.25v-6.25ZM331.25,116h6.25v6.25h-6.25v-6.25ZM318.75,116h6.25v6.25h-6.25v-6.25ZM306.25,116h6.25v6.25h-6.25v-6.25Z"/>
      <path class="cls-2" d="M393.75,141h-6.25v-6.25h-6.25v6.25h-6.25v6.25h-6.25v-6.25h-6.25v-6.25h-6.25v6.25h-6.25v6.25h-6.25v-6.25h-6.25v-6.25h-6.25v6.25h-6.25v6.25h-6.25v-6.25h-6.25v-6.25h-6.25v6.25h-6.25v50h6.25v6.25h6.25v6.25h-6.25v6.25h-6.25v50h6.25v6.25h6.25v-6.25h6.25v-6.25h6.25v6.25h6.25v6.25h6.25v-6.25h6.25v-6.25h6.25v6.25h6.25v6.25h6.25v-6.25h6.25v-6.25h6.25v6.25h6.25v6.25h6.25v-6.25h6.25v-6.25h6.25v-18.75h-6.25v-6.25h-6.25v-18.75h-6.25v18.75h-6.25v6.25h-6.25v6.25h-6.25v-18.75h-18.75v-6.25h6.25v-6.25h6.25v-6.25h18.75v-6.25h-18.75v-6.25h-6.25v-6.25h-6.25v-6.25h18.75v-18.75h6.25v6.25h6.25v6.25h6.25v18.75h6.25v-18.75h6.25v-6.25h6.25v-18.75h-6.25v-6.25ZM381.25,241h6.25v6.25h-6.25v-6.25ZM343.75,203.5h-6.25v-6.25h6.25v6.25ZM387.5,159.75h-6.25v-6.25h6.25v6.25Z"/>
      <rect class="cls-2" x="375" y="191" width="6.25" height="6.25"/>
      <rect class="cls-2" x="387.5" y="191" width="6.25" height="6.25"/>
      <rect class="cls-2" x="368.75" y="184.75" width="6.25" height="6.25"/>
      <rect class="cls-1" x="300" y="134.75" width="6.25" height="6.25"/>
      <rect class="cls-1" x="306.25" y="128.5" width="6.25" height="6.25"/>
      <rect class="cls-1" x="312.5" y="134.75" width="6.25" height="6.25"/>
      <rect class="cls-1" x="318.75" y="141" width="6.25" height="6.25"/>
      <rect class="cls-1" x="325" y="134.75" width="6.25" height="6.25"/>
      <rect class="cls-1" x="331.25" y="128.5" width="6.25" height="6.25"/>
      <rect class="cls-1" x="337.5" y="134.75" width="6.25" height="6.25"/>
      <rect class="cls-1" x="343.75" y="141" width="6.25" height="6.25"/>
      <rect class="cls-1" x="350" y="134.75" width="6.25" height="6.25"/>
      <rect class="cls-1" x="356.25" y="128.5" width="6.25" height="6.25"/>
      <rect class="cls-1" x="362.5" y="134.75" width="6.25" height="6.25"/>
      <rect class="cls-1" x="368.75" y="141" width="6.25" height="6.25"/>
      <rect class="cls-1" x="375" y="134.75" width="6.25" height="6.25"/>
      <rect class="cls-1" x="381.25" y="128.5" width="6.25" height="6.25"/>
      <rect class="cls-1" x="387.5" y="134.75" width="6.25" height="6.25"/>
      <rect class="cls-1" x="393.75" y="141" width="6.25" height="6.25"/>
      <rect class="cls-1" x="306.25" y="116" width="6.25" height="6.25"/>
      <rect class="cls-1" x="318.75" y="116" width="6.25" height="6.25"/>
      <rect class="cls-1" x="331.25" y="116" width="6.25" height="6.25"/>
      <rect class="cls-1" x="343.75" y="116" width="6.25" height="6.25"/>
      <rect class="cls-1" x="356.25" y="116" width="6.25" height="6.25"/>
      <rect class="cls-1" x="368.75" y="116" width="6.25" height="6.25"/>
      <rect class="cls-1" x="381.25" y="116" width="6.25" height="6.25"/>
      <rect class="cls-1" x="393.75" y="116" width="6.25" height="6.25"/>
      <rect class="cls-1" x="393.75" y="253.5" width="6.25" height="6.25"/>
      <rect class="cls-1" x="387.5" y="259.75" width="6.25" height="6.25"/>
      <rect class="cls-1" x="381.25" y="266" width="6.25" height="6.25"/>
      <rect class="cls-1" x="375" y="259.75" width="6.25" height="6.25"/>
      <rect class="cls-1" x="368.75" y="253.5" width="6.25" height="6.25"/>
      <rect class="cls-1" x="362.5" y="259.75" width="6.25" height="6.25"/>
      <rect class="cls-1" x="356.25" y="266" width="6.25" height="6.25"/>
      <rect class="cls-1" x="350" y="259.75" width="6.25" height="6.25"/>
      <rect class="cls-1" x="343.75" y="253.5" width="6.25" height="6.25"/>
      <rect class="cls-1" x="337.5" y="259.75" width="6.25" height="6.25"/>
      <rect class="cls-1" x="331.25" y="266" width="6.25" height="6.25"/>
      <rect class="cls-1" x="325" y="259.75" width="6.25" height="6.25"/>
      <rect class="cls-1" x="318.75" y="253.5" width="6.25" height="6.25"/>
      <rect class="cls-1" x="312.5" y="259.75" width="6.25" height="6.25"/>
      <rect class="cls-1" x="306.25" y="266" width="6.25" height="6.25"/>
      <rect class="cls-1" x="300" y="259.75" width="6.25" height="6.25"/>
      <rect class="cls-1" x="337.5" y="197.25" width="6.25" height="6.25"/>
      <rect class="cls-1" x="381.25" y="153.5" width="6.25" height="6.25"/>
      <rect class="cls-1" x="381.25" y="241" width="6.25" height="6.25"/>
      <rect class="cls-1" x="300" y="191" width="6.25" height="6.25"/>
      <rect class="cls-1" x="300" y="203.5" width="6.25" height="6.25"/>
      <rect class="cls-1" x="306.25" y="197.25" width="6.25" height="6.25"/>
      <polygon class="cls-1" points="368.75 184.75 375 184.75 375 191 381.25 191 381.25 172.25 375 172.25 375 166 368.75 166 368.75 159.75 362.5 159.75 362.5 178.5 368.75 178.5 368.75 184.75"/>
      <polygon class="cls-1" points="368.75 191 368.75 184.75 362.5 184.75 362.5 178.5 343.75 178.5 343.75 184.75 350 184.75 350 191 356.25 191 356.25 197.25 375 197.25 375 191 368.75 191"/>
      <polygon class="cls-1" points="393.75 172.25 387.5 172.25 387.5 191 393.75 191 393.75 184.75 400 184.75 400 178.5 400 166 393.75 166 393.75 172.25"/>
      <rect class="cls-1" x="393.75" y="191" width="6.25" height="6.25"/>
      <polygon class="cls-1" points="393.75 209.75 387.5 209.75 387.5 228.5 393.75 228.5 393.75 234.75 400 234.75 400 222.25 400 216 393.75 216 393.75 209.75"/>
      <rect class="cls-1" x="393.75" y="203.5" width="6.25" height="6.25"/>
      <polygon class="cls-1" points="375 216 368.75 216 368.75 222.25 362.5 222.25 362.5 241 368.75 241 368.75 234.75 375 234.75 375 228.5 381.25 228.5 381.25 209.75 375 209.75 375 216"/>
      <polygon class="cls-1" points="368.75 216 368.75 209.75 375 209.75 375 203.5 356.25 203.5 356.25 209.75 350 209.75 350 216 343.75 216 343.75 222.25 362.5 222.25 362.5 216 368.75 216"/>
      <rect class="cls-1" x="381.25" y="191" width="6.25" height="6.25"/>
      <rect class="cls-1" x="375" y="197.25" width="6.25" height="6.25"/>
      <rect class="cls-1" x="387.5" y="197.25" width="6.25" height="6.25"/>
      <rect class="cls-1" x="381.25" y="203.5" width="6.25" height="6.25"/>
      <rect class="cls-2" x="393.75" y="360" width="6.25" height="6.25"/>
      <path class="cls-2" d="M393.75,303.75h-6.25v-6.25h-6.25v6.25h-6.25v6.25h-6.25v-6.25h-6.25v-6.25h-6.25v6.25h-6.25v6.25h-6.25v-6.25h-6.25v-6.25h-6.25v6.25h-6.25v6.25h-6.25v-6.25h-6.25v-6.25h-6.25v6.25h-6.25v50h6.25v6.25h6.25v6.25h-6.25v6.25h-6.25v27.5h62.5v-15h-18.75v-6.25h6.25v-6.25h6.25v-6.25h18.75v-6.25h-18.75v-6.25h-6.25v-6.25h-6.25v-6.25h18.75v-18.75h6.25v6.25h6.25v6.25h6.25v18.75h6.25v-18.75h6.25v-6.25h6.25v-18.75h-6.25v-6.25ZM343.75,366.25h-6.25v-6.25h6.25v6.25ZM387.5,322.5h-6.25v-6.25h6.25v6.25Z"/>
      <rect class="cls-2" x="393.75" y="347.5" width="6.25" height="6.25"/>
      <rect class="cls-2" x="381.25" y="360" width="6.25" height="6.25"/>
      <path class="cls-2" d="M300,278.75v18.75h6.25v-6.25h6.25v6.25h6.25v6.25h6.25v-6.25h6.25v-6.25h6.25v6.25h6.25v6.25h6.25v-6.25h6.25v-6.25h6.25v6.25h6.25v6.25h6.25v-6.25h6.25v-6.25h6.25v6.25h6.25v6.25h6.25v-18.75h-6.25v-6.25h6.25v-3.25h-100v3.25ZM381.25,278.75h6.25v6.25h-6.25v-6.25ZM368.75,278.75h6.25v6.25h-6.25v-6.25ZM356.25,278.75h6.25v6.25h-6.25v-6.25ZM343.75,278.75h6.25v6.25h-6.25v-6.25ZM331.25,278.75h6.25v6.25h-6.25v-6.25ZM318.75,278.75h6.25v6.25h-6.25v-6.25ZM306.25,278.75h6.25v6.25h-6.25v-6.25Z"/>
      <rect class="cls-2" x="387.5" y="366.25" width="6.25" height="6.25"/>
      <rect class="cls-2" x="387.5" y="353.75" width="6.25" height="6.25"/>
      <rect class="cls-2" x="362.5" y="341.25" width="6.25" height="6.25"/>
      <rect class="cls-2" x="368.75" y="347.5" width="6.25" height="6.25"/>
      <rect class="cls-2" x="375" y="353.75" width="6.25" height="6.25"/>
      <rect class="cls-2" x="368.75" y="372.5" width="6.25" height="6.25"/>
      <rect class="cls-2" x="300" y="360" width="6.25" height="6.25"/>
      <polygon class="cls-2" points="393.75 391.25 387.5 391.25 387.5 372.5 381.25 372.5 381.25 391.25 375 391.25 375 397.5 368.75 397.5 368.75 400 400 400 400 397.5 393.75 397.5 393.75 391.25"/>
      <rect class="cls-2" x="362.5" y="378.75" width="6.25" height="6.25"/>
      <rect class="cls-2" x="393.75" y="372.5" width="6.25" height="6.25"/>
      <rect class="cls-2" x="375" y="366.25" width="6.25" height="6.25"/>
      <rect class="cls-1" x="300" y="297.5" width="6.25" height="6.25"/>
      <rect class="cls-1" x="306.25" y="291.25" width="6.25" height="6.25"/>
      <rect class="cls-1" x="312.5" y="297.5" width="6.25" height="6.25"/>
      <rect class="cls-1" x="318.75" y="303.75" width="6.25" height="6.25"/>
      <rect class="cls-1" x="325" y="297.5" width="6.25" height="6.25"/>
      <rect class="cls-1" x="331.25" y="291.25" width="6.25" height="6.25"/>
      <rect class="cls-1" x="337.5" y="297.5" width="6.25" height="6.25"/>
      <rect class="cls-1" x="343.75" y="303.75" width="6.25" height="6.25"/>
      <rect class="cls-1" x="350" y="297.5" width="6.25" height="6.25"/>
      <rect class="cls-1" x="356.25" y="291.25" width="6.25" height="6.25"/>
      <rect class="cls-1" x="362.5" y="297.5" width="6.25" height="6.25"/>
      <rect class="cls-1" x="368.75" y="303.75" width="6.25" height="6.25"/>
      <rect class="cls-1" x="375" y="297.5" width="6.25" height="6.25"/>
      <rect class="cls-1" x="381.25" y="291.25" width="6.25" height="6.25"/>
      <rect class="cls-1" x="387.5" y="297.5" width="6.25" height="6.25"/>
      <rect class="cls-1" x="393.75" y="303.75" width="6.25" height="6.25"/>
      <rect class="cls-1" x="306.25" y="278.75" width="6.25" height="6.25"/>
      <rect class="cls-1" x="318.75" y="278.75" width="6.25" height="6.25"/>
      <rect class="cls-1" x="331.25" y="278.75" width="6.25" height="6.25"/>
      <rect class="cls-1" x="343.75" y="278.75" width="6.25" height="6.25"/>
      <rect class="cls-1" x="356.25" y="278.75" width="6.25" height="6.25"/>
      <rect class="cls-1" x="368.75" y="278.75" width="6.25" height="6.25"/>
      <rect class="cls-1" x="381.25" y="278.75" width="6.25" height="6.25"/>
      <rect class="cls-1" x="393.75" y="278.75" width="6.25" height="6.25"/>
      <rect class="cls-1" x="337.5" y="360" width="6.25" height="6.25"/>
      <rect class="cls-1" x="381.25" y="316.25" width="6.25" height="6.25"/>
      <rect class="cls-1" x="300" y="353.75" width="6.25" height="6.25"/>
      <rect class="cls-1" x="300" y="366.25" width="6.25" height="6.25"/>
      <rect class="cls-1" x="306.25" y="360" width="6.25" height="6.25"/>
      <polygon class="cls-1" points="368.75 347.5 375 347.5 375 353.75 381.25 353.75 381.25 335 375 335 375 328.75 368.75 328.75 368.75 322.5 362.5 322.5 362.5 341.25 368.75 341.25 368.75 347.5"/>
      <polygon class="cls-1" points="368.75 353.75 368.75 347.5 362.5 347.5 362.5 341.25 343.75 341.25 343.75 347.5 350 347.5 350 353.75 356.25 353.75 356.25 360 375 360 375 353.75 368.75 353.75"/>
      <polygon class="cls-1" points="393.75 335 387.5 335 387.5 353.75 393.75 353.75 393.75 347.5 400 347.5 400 341.25 400 328.75 393.75 328.75 393.75 335"/>
      <rect class="cls-1" x="393.75" y="353.75" width="6.25" height="6.25"/>
      <polygon class="cls-1" points="393.75 372.5 387.5 372.5 387.5 391.25 393.75 391.25 393.75 397.5 400 397.5 400 385 400 378.75 393.75 378.75 393.75 372.5"/>
      <rect class="cls-1" x="393.75" y="366.25" width="6.25" height="6.25"/>
      <polygon class="cls-1" points="375 397.5 375 391.25 381.25 391.25 381.25 372.5 375 372.5 375 378.75 368.75 378.75 368.75 385 362.5 385 362.5 400 368.75 400 368.75 397.5 375 397.5"/>
      <polygon class="cls-1" points="368.75 378.75 368.75 372.5 375 372.5 375 366.25 356.25 366.25 356.25 372.5 350 372.5 350 378.75 343.75 378.75 343.75 385 362.5 385 362.5 378.75 368.75 378.75"/>
      <rect class="cls-1" x="381.25" y="353.75" width="6.25" height="6.25"/>
      <rect class="cls-1" x="375" y="360" width="6.25" height="6.25"/>
      <rect class="cls-1" x="387.5" y="360" width="6.25" height="6.25"/>
      <rect class="cls-1" x="381.25" y="366.25" width="6.25" height="6.25"/>
      <rect class="cls-2" x="187.5" y="15.75" width="6.25" height="6.25"/>
      <rect class="cls-2" x="125" y="34.5" width="6.25" height="6.25"/>
      <polygon class="cls-2" points="293.75 97 293.75 103.25 287.5 103.25 287.5 109.5 281.25 109.5 281.25 103.25 275 103.25 275 97 268.75 97 268.75 103.25 262.5 103.25 262.5 109.5 256.25 109.5 256.25 103.25 250 103.25 250 97 243.75 97 243.75 103.25 237.5 103.25 237.5 109.5 231.25 109.5 231.25 103.25 225 103.25 225 97 218.75 97 218.75 103.25 212.5 103.25 212.5 109.5 206.25 109.5 206.25 103.25 200 103.25 200 97 193.75 97 193.75 103.25 187.5 103.25 187.5 109.5 181.25 109.5 181.25 103.25 175 103.25 175 97 168.75 97 168.75 103.25 162.5 103.25 162.5 109.5 156.25 109.5 156.25 103.25 150 103.25 150 97 143.75 97 143.75 103.25 137.5 103.25 137.5 109.5 131.25 109.5 131.25 103.25 125 103.25 125 112.75 300 112.75 300 103.25 300 97 293.75 97"/>
      <rect class="cls-2" x="193.75" y="22" width="6.25" height="6.25"/>
      <rect class="cls-2" x="200" y="40.75" width="6.25" height="6.25"/>
      <rect class="cls-2" x="218.75" y="47" width="6.25" height="6.25"/>
      <rect class="cls-2" x="193.75" y="47" width="6.25" height="6.25"/>
      <rect class="cls-2" x="225" y="53.25" width="6.25" height="6.25"/>
      <rect class="cls-2" x="200" y="28.25" width="6.25" height="6.25"/>
      <rect class="cls-2" x="187.5" y="53.25" width="6.25" height="6.25"/>
      <rect class="cls-2" x="218.75" y="22" width="6.25" height="6.25"/>
      <rect class="cls-2" x="212.5" y="40.75" width="6.25" height="6.25"/>
      <rect class="cls-2" x="225" y="15.75" width="6.25" height="6.25"/>
      <rect class="cls-2" x="212.5" y="28.25" width="6.25" height="6.25"/>
      <path class="cls-2" d="M131.25,28.25v6.25h6.25v6.25h-6.25v6.25h-6.25v50h6.25v6.25h6.25v-6.25h6.25v-6.25h6.25v6.25h6.25v6.25h6.25v-6.25h6.25v-6.25h6.25v6.25h6.25v6.25h6.25v-6.25h6.25v-6.25h6.25v6.25h6.25v6.25h6.25v-6.25h6.25v-6.25h6.25v6.25h6.25v6.25h6.25v-6.25h6.25v-6.25h6.25v6.25h6.25v6.25h6.25v-6.25h6.25v-6.25h6.25v6.25h6.25v6.25h6.25v-6.25h6.25v-6.25h6.25v-50h-6.25v-6.25h6.25V0h-68.75v15.75h18.75v6.25h-6.25v6.25h-6.25v6.25h-18.75v6.25h18.75v6.25h6.25v6.25h6.25v6.25h-18.75v18.75h-6.25v-6.25h-6.25v-6.25h-6.25v-18.75h-6.25v18.75h-6.25v6.25h-6.25v6.25h-6.25v-18.75h-18.75v-6.25h6.25v-6.25h6.25v-6.25h18.75v-6.25h-18.75v-6.25h-6.25v-6.25h-6.25v-6.25h18.75V0h-62.5v28.25h6.25ZM250,34.5h6.25v6.25h-6.25v-6.25ZM206.25,78.25h6.25v6.25h-6.25v-6.25ZM162.5,34.5h6.25v6.25h-6.25v-6.25Z"/>
      <polygon class="cls-2" points="200 3.25 200 9.5 206.25 9.5 206.25 28.25 212.5 28.25 212.5 9.5 218.75 9.5 218.75 3.25 225 3.25 225 0 193.75 0 193.75 3.25 200 3.25"/>
      <rect class="cls-2" x="206.25" y="34.5" width="6.25" height="6.25"/>
      <rect class="cls-1" x="293.75" y="90.75" width="6.25" height="6.25"/>
      <rect class="cls-1" x="287.5" y="97" width="6.25" height="6.25"/>
      <rect class="cls-1" x="281.25" y="103.25" width="6.25" height="6.25"/>
      <rect class="cls-1" x="275" y="97" width="6.25" height="6.25"/>
      <rect class="cls-1" x="268.75" y="90.75" width="6.25" height="6.25"/>
      <rect class="cls-1" x="262.5" y="97" width="6.25" height="6.25"/>
      <rect class="cls-1" x="256.25" y="103.25" width="6.25" height="6.25"/>
      <rect class="cls-1" x="250" y="97" width="6.25" height="6.25"/>
      <rect class="cls-1" x="243.75" y="90.75" width="6.25" height="6.25"/>
      <rect class="cls-1" x="237.5" y="97" width="6.25" height="6.25"/>
      <rect class="cls-1" x="231.25" y="103.25" width="6.25" height="6.25"/>
      <rect class="cls-1" x="225" y="97" width="6.25" height="6.25"/>
      <rect class="cls-1" x="218.75" y="90.75" width="6.25" height="6.25"/>
      <rect class="cls-1" x="212.5" y="97" width="6.25" height="6.25"/>
      <rect class="cls-1" x="206.25" y="103.25" width="6.25" height="6.25"/>
      <rect class="cls-1" x="200" y="97" width="6.25" height="6.25"/>
      <rect class="cls-1" x="193.75" y="90.75" width="6.25" height="6.25"/>
      <rect class="cls-1" x="187.5" y="97" width="6.25" height="6.25"/>
      <rect class="cls-1" x="181.25" y="103.25" width="6.25" height="6.25"/>
      <rect class="cls-1" x="175" y="97" width="6.25" height="6.25"/>
      <rect class="cls-1" x="168.75" y="90.75" width="6.25" height="6.25"/>
      <rect class="cls-1" x="162.5" y="97" width="6.25" height="6.25"/>
      <rect class="cls-1" x="156.25" y="103.25" width="6.25" height="6.25"/>
      <rect class="cls-1" x="150" y="97" width="6.25" height="6.25"/>
      <rect class="cls-1" x="143.75" y="90.75" width="6.25" height="6.25"/>
      <rect class="cls-1" x="137.5" y="97" width="6.25" height="6.25"/>
      <rect class="cls-1" x="131.25" y="103.25" width="6.25" height="6.25"/>
      <rect class="cls-1" x="125" y="97" width="6.25" height="6.25"/>
      <rect class="cls-1" x="250" y="34.5" width="6.25" height="6.25"/>
      <rect class="cls-1" x="162.5" y="34.5" width="6.25" height="6.25"/>
      <rect class="cls-1" x="206.25" y="78.25" width="6.25" height="6.25"/>
      <rect class="cls-1" x="293.75" y="34.5" width="6.25" height="6.25"/>
      <rect class="cls-1" x="125" y="28.25" width="6.25" height="6.25"/>
      <rect class="cls-1" x="125" y="40.75" width="6.25" height="6.25"/>
      <rect class="cls-1" x="131.25" y="34.5" width="6.25" height="6.25"/>
      <polygon class="cls-1" points="193.75 15.75 193.75 22 200 22 200 28.25 206.25 28.25 206.25 9.5 200 9.5 200 3.25 193.75 3.25 193.75 0 187.5 0 187.5 15.75 193.75 15.75"/>
      <polygon class="cls-1" points="193.75 28.25 193.75 22 187.5 22 187.5 15.75 168.75 15.75 168.75 22 175 22 175 28.25 181.25 28.25 181.25 34.5 200 34.5 200 28.25 193.75 28.25"/>
      <polygon class="cls-1" points="218.75 3.25 218.75 9.5 212.5 9.5 212.5 28.25 218.75 28.25 218.75 22 225 22 225 15.75 231.25 15.75 231.25 0 225 0 225 3.25 218.75 3.25"/>
      <polygon class="cls-1" points="225 22 225 28.25 218.75 28.25 218.75 34.5 237.5 34.5 237.5 28.25 243.75 28.25 243.75 22 250 22 250 15.75 231.25 15.75 231.25 22 225 22"/>
      <polygon class="cls-1" points="225 53.25 218.75 53.25 218.75 47 212.5 47 212.5 65.75 218.75 65.75 218.75 72 225 72 225 78.25 231.25 78.25 231.25 59.5 225 59.5 225 53.25"/>
      <polygon class="cls-1" points="225 47 225 53.25 231.25 53.25 231.25 59.5 250 59.5 250 53.25 243.75 53.25 243.75 47 237.5 47 237.5 40.75 218.75 40.75 218.75 47 225 47"/>
      <polygon class="cls-1" points="200 53.25 193.75 53.25 193.75 59.5 187.5 59.5 187.5 78.25 193.75 78.25 193.75 72 200 72 200 65.75 206.25 65.75 206.25 47 200 47 200 53.25"/>
      <polygon class="cls-1" points="193.75 53.25 193.75 47 200 47 200 40.75 181.25 40.75 181.25 47 175 47 175 53.25 168.75 53.25 168.75 59.5 187.5 59.5 187.5 53.25 193.75 53.25"/>
      <rect class="cls-1" x="206.25" y="28.25" width="6.25" height="6.25"/>
      <rect class="cls-1" x="200" y="34.5" width="6.25" height="6.25"/>
      <rect class="cls-1" x="212.5" y="34.5" width="6.25" height="6.25"/>
      <rect class="cls-1" x="206.25" y="40.75" width="6.25" height="6.25"/>
      <path class="cls-2" d="M125,116v18.75h6.25v-6.25h6.25v6.25h6.25v6.25h6.25v-6.25h6.25v-6.25h6.25v6.25h6.25v6.25h6.25v-6.25h6.25v-6.25h6.25v6.25h6.25v6.25h6.25v-6.25h6.25v-6.25h6.25v6.25h6.25v6.25h6.25v-6.25h6.25v-6.25h6.25v6.25h6.25v6.25h6.25v-6.25h6.25v-6.25h6.25v6.25h6.25v6.25h6.25v-6.25h6.25v-6.25h6.25v6.25h6.25v6.25h6.25v-18.75h-6.25v-6.25h6.25v-3.25H125v3.25ZM281.25,116h6.25v6.25h-6.25v-6.25ZM268.75,116h6.25v6.25h-6.25v-6.25ZM256.25,116h6.25v6.25h-6.25v-6.25ZM243.75,116h6.25v6.25h-6.25v-6.25ZM231.25,116h6.25v6.25h-6.25v-6.25ZM218.75,116h6.25v6.25h-6.25v-6.25ZM206.25,116h6.25v6.25h-6.25v-6.25ZM193.75,116h6.25v6.25h-6.25v-6.25ZM181.25,116h6.25v6.25h-6.25v-6.25ZM168.75,116h6.25v6.25h-6.25v-6.25ZM156.25,116h6.25v6.25h-6.25v-6.25ZM143.75,116h6.25v6.25h-6.25v-6.25ZM131.25,116h6.25v6.25h-6.25v-6.25Z"/>
      <rect class="cls-2" x="212.5" y="191" width="6.25" height="6.25"/>
      <rect class="cls-2" x="187.5" y="178.5" width="6.25" height="6.25"/>
      <rect class="cls-2" x="193.75" y="209.75" width="6.25" height="6.25"/>
      <polygon class="cls-2" points="293.75 266 287.5 266 287.5 272.25 281.25 272.25 281.25 266 275 266 275 259.75 268.75 259.75 268.75 266 262.5 266 262.5 272.25 256.25 272.25 256.25 266 250 266 250 259.75 243.75 259.75 243.75 266 237.5 266 237.5 272.25 231.25 272.25 231.25 266 225 266 225 259.75 218.75 259.75 218.75 266 212.5 266 212.5 272.25 206.25 272.25 206.25 266 200 266 200 259.75 193.75 259.75 193.75 266 187.5 266 187.5 272.25 181.25 272.25 181.25 266 175 266 175 259.75 168.75 259.75 168.75 266 162.5 266 162.5 272.25 156.25 272.25 156.25 266 150 266 150 259.75 143.75 259.75 143.75 266 137.5 266 137.5 272.25 131.25 272.25 131.25 266 125 266 125 275.5 300 275.5 300 266 300 259.75 293.75 259.75 293.75 266"/>
      <rect class="cls-2" x="193.75" y="184.75" width="6.25" height="6.25"/>
      <rect class="cls-2" x="200" y="191" width="6.25" height="6.25"/>
      <path class="cls-2" d="M293.75,141h-6.25v-6.25h-6.25v6.25h-6.25v6.25h-6.25v-6.25h-6.25v-6.25h-6.25v6.25h-6.25v6.25h-6.25v-6.25h-6.25v-6.25h-6.25v6.25h-6.25v6.25h-6.25v-6.25h-6.25v-6.25h-6.25v6.25h-6.25v6.25h-6.25v-6.25h-6.25v-6.25h-6.25v6.25h-6.25v6.25h-6.25v-6.25h-6.25v-6.25h-6.25v6.25h-6.25v6.25h-6.25v-6.25h-6.25v-6.25h-6.25v6.25h-6.25v50h6.25v6.25h6.25v6.25h-6.25v6.25h-6.25v50h6.25v6.25h6.25v-6.25h6.25v-6.25h6.25v6.25h6.25v6.25h6.25v-6.25h6.25v-6.25h6.25v6.25h6.25v6.25h6.25v-6.25h6.25v-6.25h6.25v6.25h6.25v6.25h6.25v-6.25h6.25v-6.25h6.25v6.25h6.25v6.25h6.25v-6.25h6.25v-6.25h6.25v6.25h6.25v6.25h6.25v-6.25h6.25v-6.25h6.25v6.25h6.25v6.25h6.25v-6.25h6.25v-6.25h6.25v-50h-6.25v-6.25h6.25v-50h-6.25v-6.25ZM206.25,153.5h6.25v6.25h-6.25v-6.25ZM162.5,203.5v-6.25h6.25v6.25h-6.25ZM212.5,247.25h-6.25v-6.25h6.25v6.25ZM250,222.25h-18.75v18.75h-6.25v-6.25h-6.25v-6.25h-6.25v-18.75h-6.25v18.75h-6.25v6.25h-6.25v6.25h-6.25v-18.75h-18.75v-6.25h6.25v-6.25h6.25v-6.25h18.75v-6.25h-18.75v-6.25h-6.25v-6.25h-6.25v-6.25h18.75v-18.75h6.25v6.25h6.25v6.25h6.25v18.75h6.25v-18.75h6.25v-6.25h6.25v-6.25h6.25v18.75h18.75v6.25h-6.25v6.25h-6.25v6.25h-18.75v6.25h18.75v6.25h6.25v6.25h6.25v6.25ZM256.25,203.5h-6.25v-6.25h6.25v6.25Z"/>
      <rect class="cls-2" x="212.5" y="203.5" width="6.25" height="6.25"/>
      <rect class="cls-2" x="200" y="203.5" width="6.25" height="6.25"/>
      <rect class="cls-2" x="218.75" y="209.75" width="6.25" height="6.25"/>
      <rect class="cls-2" x="206.25" y="197.25" width="6.25" height="6.25"/>
      <rect class="cls-2" x="225" y="216" width="6.25" height="6.25"/>
      <rect class="cls-2" x="225" y="178.5" width="6.25" height="6.25"/>
      <rect class="cls-2" x="125" y="197.25" width="6.25" height="6.25"/>
      <rect class="cls-2" x="187.5" y="216" width="6.25" height="6.25"/>
      <rect class="cls-2" x="218.75" y="184.75" width="6.25" height="6.25"/>
      <rect class="cls-1" x="293.75" y="141" width="6.25" height="6.25"/>
      <rect class="cls-1" x="125" y="134.75" width="6.25" height="6.25"/>
      <rect class="cls-1" x="131.25" y="128.5" width="6.25" height="6.25"/>
      <rect class="cls-1" x="137.5" y="134.75" width="6.25" height="6.25"/>
      <rect class="cls-1" x="143.75" y="141" width="6.25" height="6.25"/>
      <rect class="cls-1" x="150" y="134.75" width="6.25" height="6.25"/>
      <rect class="cls-1" x="156.25" y="128.5" width="6.25" height="6.25"/>
      <rect class="cls-1" x="162.5" y="134.75" width="6.25" height="6.25"/>
      <rect class="cls-1" x="168.75" y="141" width="6.25" height="6.25"/>
      <rect class="cls-1" x="175" y="134.75" width="6.25" height="6.25"/>
      <rect class="cls-1" x="181.25" y="128.5" width="6.25" height="6.25"/>
      <rect class="cls-1" x="187.5" y="134.75" width="6.25" height="6.25"/>
      <rect class="cls-1" x="193.75" y="141" width="6.25" height="6.25"/>
      <rect class="cls-1" x="200" y="134.75" width="6.25" height="6.25"/>
      <rect class="cls-1" x="206.25" y="128.5" width="6.25" height="6.25"/>
      <rect class="cls-1" x="212.5" y="134.75" width="6.25" height="6.25"/>
      <rect class="cls-1" x="218.75" y="141" width="6.25" height="6.25"/>
      <rect class="cls-1" x="225" y="134.75" width="6.25" height="6.25"/>
      <rect class="cls-1" x="231.25" y="128.5" width="6.25" height="6.25"/>
      <rect class="cls-1" x="237.5" y="134.75" width="6.25" height="6.25"/>
      <rect class="cls-1" x="243.75" y="141" width="6.25" height="6.25"/>
      <rect class="cls-1" x="250" y="134.75" width="6.25" height="6.25"/>
      <rect class="cls-1" x="256.25" y="128.5" width="6.25" height="6.25"/>
      <rect class="cls-1" x="262.5" y="134.75" width="6.25" height="6.25"/>
      <rect class="cls-1" x="268.75" y="141" width="6.25" height="6.25"/>
      <rect class="cls-1" x="275" y="134.75" width="6.25" height="6.25"/>
      <rect class="cls-1" x="281.25" y="128.5" width="6.25" height="6.25"/>
      <rect class="cls-1" x="287.5" y="134.75" width="6.25" height="6.25"/>
      <rect class="cls-1" x="293.75" y="116" width="6.25" height="6.25"/>
      <rect class="cls-1" x="131.25" y="116" width="6.25" height="6.25"/>
      <rect class="cls-1" x="143.75" y="116" width="6.25" height="6.25"/>
      <rect class="cls-1" x="156.25" y="116" width="6.25" height="6.25"/>
      <rect class="cls-1" x="168.75" y="116" width="6.25" height="6.25"/>
      <rect class="cls-1" x="181.25" y="116" width="6.25" height="6.25"/>
      <rect class="cls-1" x="193.75" y="116" width="6.25" height="6.25"/>
      <rect class="cls-1" x="206.25" y="116" width="6.25" height="6.25"/>
      <rect class="cls-1" x="218.75" y="116" width="6.25" height="6.25"/>
      <rect class="cls-1" x="231.25" y="116" width="6.25" height="6.25"/>
      <rect class="cls-1" x="243.75" y="116" width="6.25" height="6.25"/>
      <rect class="cls-1" x="256.25" y="116" width="6.25" height="6.25"/>
      <rect class="cls-1" x="268.75" y="116" width="6.25" height="6.25"/>
      <rect class="cls-1" x="281.25" y="116" width="6.25" height="6.25"/>
      <rect class="cls-1" x="293.75" y="253.5" width="6.25" height="6.25"/>
      <rect class="cls-1" x="287.5" y="259.75" width="6.25" height="6.25"/>
      <rect class="cls-1" x="281.25" y="266" width="6.25" height="6.25"/>
      <rect class="cls-1" x="275" y="259.75" width="6.25" height="6.25"/>
      <rect class="cls-1" x="268.75" y="253.5" width="6.25" height="6.25"/>
      <rect class="cls-1" x="262.5" y="259.75" width="6.25" height="6.25"/>
      <rect class="cls-1" x="256.25" y="266" width="6.25" height="6.25"/>
      <rect class="cls-1" x="250" y="259.75" width="6.25" height="6.25"/>
      <rect class="cls-1" x="243.75" y="253.5" width="6.25" height="6.25"/>
      <rect class="cls-1" x="237.5" y="259.75" width="6.25" height="6.25"/>
      <rect class="cls-1" x="231.25" y="266" width="6.25" height="6.25"/>
      <rect class="cls-1" x="225" y="259.75" width="6.25" height="6.25"/>
      <rect class="cls-1" x="218.75" y="253.5" width="6.25" height="6.25"/>
      <rect class="cls-1" x="212.5" y="259.75" width="6.25" height="6.25"/>
      <rect class="cls-1" x="206.25" y="266" width="6.25" height="6.25"/>
      <rect class="cls-1" x="200" y="259.75" width="6.25" height="6.25"/>
      <rect class="cls-1" x="193.75" y="253.5" width="6.25" height="6.25"/>
      <rect class="cls-1" x="187.5" y="259.75" width="6.25" height="6.25"/>
      <rect class="cls-1" x="181.25" y="266" width="6.25" height="6.25"/>
      <rect class="cls-1" x="175" y="259.75" width="6.25" height="6.25"/>
      <rect class="cls-1" x="168.75" y="253.5" width="6.25" height="6.25"/>
      <rect class="cls-1" x="162.5" y="259.75" width="6.25" height="6.25"/>
      <rect class="cls-1" x="156.25" y="266" width="6.25" height="6.25"/>
      <rect class="cls-1" x="150" y="259.75" width="6.25" height="6.25"/>
      <rect class="cls-1" x="143.75" y="253.5" width="6.25" height="6.25"/>
      <rect class="cls-1" x="137.5" y="259.75" width="6.25" height="6.25"/>
      <rect class="cls-1" x="131.25" y="266" width="6.25" height="6.25"/>
      <rect class="cls-1" x="125" y="259.75" width="6.25" height="6.25"/>
      <rect class="cls-1" x="250" y="197.25" width="6.25" height="6.25"/>
      <rect class="cls-1" x="162.5" y="197.25" width="6.25" height="6.25"/>
      <rect class="cls-1" x="206.25" y="153.5" width="6.25" height="6.25"/>
      <rect class="cls-1" x="206.25" y="241" width="6.25" height="6.25"/>
      <rect class="cls-1" x="293.75" y="197.25" width="6.25" height="6.25"/>
      <rect class="cls-1" x="125" y="191" width="6.25" height="6.25"/>
      <rect class="cls-1" x="125" y="203.5" width="6.25" height="6.25"/>
      <rect class="cls-1" x="131.25" y="197.25" width="6.25" height="6.25"/>
      <polygon class="cls-1" points="193.75 184.75 200 184.75 200 191 206.25 191 206.25 172.25 200 172.25 200 166 193.75 166 193.75 159.75 187.5 159.75 187.5 178.5 193.75 178.5 193.75 184.75"/>
      <polygon class="cls-1" points="193.75 191 193.75 184.75 187.5 184.75 187.5 178.5 168.75 178.5 168.75 184.75 175 184.75 175 191 181.25 191 181.25 197.25 200 197.25 200 191 193.75 191"/>
      <polygon class="cls-1" points="218.75 184.75 225 184.75 225 178.5 231.25 178.5 231.25 159.75 225 159.75 225 166 218.75 166 218.75 172.25 212.5 172.25 212.5 191 218.75 191 218.75 184.75"/>
      <polygon class="cls-1" points="225 184.75 225 191 218.75 191 218.75 197.25 237.5 197.25 237.5 191 243.75 191 243.75 184.75 250 184.75 250 178.5 231.25 178.5 231.25 184.75 225 184.75"/>
      <polygon class="cls-1" points="225 216 218.75 216 218.75 209.75 212.5 209.75 212.5 228.5 218.75 228.5 218.75 234.75 225 234.75 225 241 231.25 241 231.25 222.25 225 222.25 225 216"/>
      <polygon class="cls-1" points="243.75 209.75 237.5 209.75 237.5 203.5 218.75 203.5 218.75 209.75 225 209.75 225 216 231.25 216 231.25 222.25 250 222.25 250 216 243.75 216 243.75 209.75"/>
      <polygon class="cls-1" points="200 216 193.75 216 193.75 222.25 187.5 222.25 187.5 241 193.75 241 193.75 234.75 200 234.75 200 228.5 206.25 228.5 206.25 209.75 200 209.75 200 216"/>
      <polygon class="cls-1" points="193.75 216 193.75 209.75 200 209.75 200 203.5 181.25 203.5 181.25 209.75 175 209.75 175 216 168.75 216 168.75 222.25 187.5 222.25 187.5 216 193.75 216"/>
      <rect class="cls-1" x="206.25" y="191" width="6.25" height="6.25"/>
      <rect class="cls-1" x="200" y="197.25" width="6.25" height="6.25"/>
      <rect class="cls-1" x="212.5" y="197.25" width="6.25" height="6.25"/>
      <rect class="cls-1" x="206.25" y="203.5" width="6.25" height="6.25"/>
      <rect class="cls-2" x="212.5" y="353.75" width="6.25" height="6.25"/>
      <rect class="cls-2" x="193.75" y="347.5" width="6.25" height="6.25"/>
      <rect class="cls-2" x="218.75" y="347.5" width="6.25" height="6.25"/>
      <rect class="cls-2" x="225" y="378.75" width="6.25" height="6.25"/>
      <rect class="cls-2" x="187.5" y="341.25" width="6.25" height="6.25"/>
      <rect class="cls-2" x="200" y="353.75" width="6.25" height="6.25"/>
      <path class="cls-2" d="M125,278.75v18.75h6.25v-6.25h6.25v6.25h6.25v6.25h6.25v-6.25h6.25v-6.25h6.25v6.25h6.25v6.25h6.25v-6.25h6.25v-6.25h6.25v6.25h6.25v6.25h6.25v-6.25h6.25v-6.25h6.25v6.25h6.25v6.25h6.25v-6.25h6.25v-6.25h6.25v6.25h6.25v6.25h6.25v-6.25h6.25v-6.25h6.25v6.25h6.25v6.25h6.25v-6.25h6.25v-6.25h6.25v6.25h6.25v6.25h6.25v-18.75h-6.25v-6.25h6.25v-3.25H125v3.25ZM281.25,278.75h6.25v6.25h-6.25v-6.25ZM268.75,278.75h6.25v6.25h-6.25v-6.25ZM256.25,278.75h6.25v6.25h-6.25v-6.25ZM243.75,278.75h6.25v6.25h-6.25v-6.25ZM231.25,278.75h6.25v6.25h-6.25v-6.25ZM218.75,278.75h6.25v6.25h-6.25v-6.25ZM206.25,278.75h6.25v6.25h-6.25v-6.25ZM193.75,278.75h6.25v6.25h-6.25v-6.25ZM181.25,278.75h6.25v6.25h-6.25v-6.25ZM168.75,278.75h6.25v6.25h-6.25v-6.25ZM156.25,278.75h6.25v6.25h-6.25v-6.25ZM143.75,278.75h6.25v6.25h-6.25v-6.25ZM131.25,278.75h6.25v6.25h-6.25v-6.25Z"/>
      <rect class="cls-2" x="125" y="360" width="6.25" height="6.25"/>
      <rect class="cls-2" x="212.5" y="366.25" width="6.25" height="6.25"/>
      <rect class="cls-2" x="218.75" y="372.5" width="6.25" height="6.25"/>
      <rect class="cls-2" x="206.25" y="360" width="6.25" height="6.25"/>
      <rect class="cls-2" x="225" y="341.25" width="6.25" height="6.25"/>
      <rect class="cls-2" x="200" y="366.25" width="6.25" height="6.25"/>
      <polygon class="cls-2" points="218.75 397.5 218.75 391.25 212.5 391.25 212.5 372.5 206.25 372.5 206.25 391.25 200 391.25 200 397.5 193.75 397.5 193.75 400 225 400 225 397.5 218.75 397.5"/>
      <rect class="cls-2" x="187.5" y="378.75" width="6.25" height="6.25"/>
      <path class="cls-2" d="M300,366.25h-6.25v-6.25h6.25v-50h-6.25v-6.25h-6.25v-6.25h-6.25v6.25h-6.25v6.25h-6.25v-6.25h-6.25v-6.25h-6.25v6.25h-6.25v6.25h-6.25v-6.25h-6.25v-6.25h-6.25v6.25h-6.25v6.25h-6.25v-6.25h-6.25v-6.25h-6.25v6.25h-6.25v6.25h-6.25v-6.25h-6.25v-6.25h-6.25v6.25h-6.25v6.25h-6.25v-6.25h-6.25v-6.25h-6.25v6.25h-6.25v6.25h-6.25v-6.25h-6.25v-6.25h-6.25v6.25h-6.25v50h6.25v6.25h6.25v6.25h-6.25v6.25h-6.25v27.5h62.5v-15h-18.75v-6.25h6.25v-6.25h6.25v-6.25h18.75v-6.25h-18.75v-6.25h-6.25v-6.25h-6.25v-6.25h18.75v-18.75h6.25v6.25h6.25v6.25h6.25v18.75h6.25v-18.75h6.25v-6.25h6.25v-6.25h6.25v18.75h18.75v6.25h-6.25v6.25h-6.25v6.25h-18.75v6.25h18.75v6.25h6.25v6.25h6.25v6.25h-18.75v15h68.75v-33.75ZM168.75,366.25h-6.25v-6.25h6.25v6.25ZM212.5,322.5h-6.25v-6.25h6.25v6.25ZM256.25,366.25h-6.25v-6.25h6.25v6.25Z"/>
      <rect class="cls-2" x="193.75" y="372.5" width="6.25" height="6.25"/>
      <rect class="cls-1" x="293.75" y="303.75" width="6.25" height="6.25"/>
      <rect class="cls-1" x="125" y="297.5" width="6.25" height="6.25"/>
      <rect class="cls-1" x="131.25" y="291.25" width="6.25" height="6.25"/>
      <rect class="cls-1" x="137.5" y="297.5" width="6.25" height="6.25"/>
      <rect class="cls-1" x="143.75" y="303.75" width="6.25" height="6.25"/>
      <rect class="cls-1" x="150" y="297.5" width="6.25" height="6.25"/>
      <rect class="cls-1" x="156.25" y="291.25" width="6.25" height="6.25"/>
      <rect class="cls-1" x="162.5" y="297.5" width="6.25" height="6.25"/>
      <rect class="cls-1" x="168.75" y="303.75" width="6.25" height="6.25"/>
      <rect class="cls-1" x="175" y="297.5" width="6.25" height="6.25"/>
      <rect class="cls-1" x="181.25" y="291.25" width="6.25" height="6.25"/>
      <rect class="cls-1" x="187.5" y="297.5" width="6.25" height="6.25"/>
      <rect class="cls-1" x="193.75" y="303.75" width="6.25" height="6.25"/>
      <rect class="cls-1" x="200" y="297.5" width="6.25" height="6.25"/>
      <rect class="cls-1" x="206.25" y="291.25" width="6.25" height="6.25"/>
      <rect class="cls-1" x="212.5" y="297.5" width="6.25" height="6.25"/>
      <rect class="cls-1" x="218.75" y="303.75" width="6.25" height="6.25"/>
      <rect class="cls-1" x="225" y="297.5" width="6.25" height="6.25"/>
      <rect class="cls-1" x="231.25" y="291.25" width="6.25" height="6.25"/>
      <rect class="cls-1" x="237.5" y="297.5" width="6.25" height="6.25"/>
      <rect class="cls-1" x="243.75" y="303.75" width="6.25" height="6.25"/>
      <rect class="cls-1" x="250" y="297.5" width="6.25" height="6.25"/>
      <rect class="cls-1" x="256.25" y="291.25" width="6.25" height="6.25"/>
      <rect class="cls-1" x="262.5" y="297.5" width="6.25" height="6.25"/>
      <rect class="cls-1" x="268.75" y="303.75" width="6.25" height="6.25"/>
      <rect class="cls-1" x="275" y="297.5" width="6.25" height="6.25"/>
      <rect class="cls-1" x="281.25" y="291.25" width="6.25" height="6.25"/>
      <rect class="cls-1" x="287.5" y="297.5" width="6.25" height="6.25"/>
      <rect class="cls-1" x="293.75" y="278.75" width="6.25" height="6.25"/>
      <rect class="cls-1" x="131.25" y="278.75" width="6.25" height="6.25"/>
      <rect class="cls-1" x="143.75" y="278.75" width="6.25" height="6.25"/>
      <rect class="cls-1" x="156.25" y="278.75" width="6.25" height="6.25"/>
      <rect class="cls-1" x="168.75" y="278.75" width="6.25" height="6.25"/>
      <rect class="cls-1" x="181.25" y="278.75" width="6.25" height="6.25"/>
      <rect class="cls-1" x="193.75" y="278.75" width="6.25" height="6.25"/>
      <rect class="cls-1" x="206.25" y="278.75" width="6.25" height="6.25"/>
      <rect class="cls-1" x="218.75" y="278.75" width="6.25" height="6.25"/>
      <rect class="cls-1" x="231.25" y="278.75" width="6.25" height="6.25"/>
      <rect class="cls-1" x="243.75" y="278.75" width="6.25" height="6.25"/>
      <rect class="cls-1" x="256.25" y="278.75" width="6.25" height="6.25"/>
      <rect class="cls-1" x="268.75" y="278.75" width="6.25" height="6.25"/>
      <rect class="cls-1" x="281.25" y="278.75" width="6.25" height="6.25"/>
      <rect class="cls-1" x="250" y="360" width="6.25" height="6.25"/>
      <rect class="cls-1" x="162.5" y="360" width="6.25" height="6.25"/>
      <rect class="cls-1" x="206.25" y="316.25" width="6.25" height="6.25"/>
      <rect class="cls-1" x="293.75" y="360" width="6.25" height="6.25"/>
      <rect class="cls-1" x="125" y="353.75" width="6.25" height="6.25"/>
      <rect class="cls-1" x="125" y="366.25" width="6.25" height="6.25"/>
      <rect class="cls-1" x="131.25" y="360" width="6.25" height="6.25"/>
      <polygon class="cls-1" points="193.75 347.5 200 347.5 200 353.75 206.25 353.75 206.25 335 200 335 200 328.75 193.75 328.75 193.75 322.5 187.5 322.5 187.5 341.25 193.75 341.25 193.75 347.5"/>
      <polygon class="cls-1" points="193.75 353.75 193.75 347.5 187.5 347.5 187.5 341.25 168.75 341.25 168.75 347.5 175 347.5 175 353.75 181.25 353.75 181.25 360 200 360 200 353.75 193.75 353.75"/>
      <polygon class="cls-1" points="218.75 347.5 225 347.5 225 341.25 231.25 341.25 231.25 322.5 225 322.5 225 328.75 218.75 328.75 218.75 335 212.5 335 212.5 353.75 218.75 353.75 218.75 347.5"/>
      <polygon class="cls-1" points="225 347.5 225 353.75 218.75 353.75 218.75 360 237.5 360 237.5 353.75 243.75 353.75 243.75 347.5 250 347.5 250 341.25 231.25 341.25 231.25 347.5 225 347.5"/>
      <polygon class="cls-1" points="225 385 225 378.75 218.75 378.75 218.75 372.5 212.5 372.5 212.5 391.25 218.75 391.25 218.75 397.5 225 397.5 225 400 231.25 400 231.25 385 225 385"/>
      <polygon class="cls-1" points="225 372.5 225 378.75 231.25 378.75 231.25 385 250 385 250 378.75 243.75 378.75 243.75 372.5 237.5 372.5 237.5 366.25 218.75 366.25 218.75 372.5 225 372.5"/>
      <polygon class="cls-1" points="200 397.5 200 391.25 206.25 391.25 206.25 372.5 200 372.5 200 378.75 193.75 378.75 193.75 385 187.5 385 187.5 400 193.75 400 193.75 397.5 200 397.5"/>
      <polygon class="cls-1" points="193.75 378.75 193.75 372.5 200 372.5 200 366.25 181.25 366.25 181.25 372.5 175 372.5 175 378.75 168.75 378.75 168.75 385 187.5 385 187.5 378.75 193.75 378.75"/>
      <rect class="cls-1" x="206.25" y="353.75" width="6.25" height="6.25"/>
      <rect class="cls-1" x="200" y="360" width="6.25" height="6.25"/>
      <rect class="cls-1" x="212.5" y="360" width="6.25" height="6.25"/>
      <rect class="cls-1" x="206.25" y="366.25" width="6.25" height="6.25"/>
      <rect class="cls-2" x="18.75" y="47" width="6.25" height="6.25"/>
      <rect class="cls-2" x="12.5" y="53.25" width="6.25" height="6.25"/>
      <rect class="cls-2" x="50" y="15.75" width="6.25" height="6.25"/>
      <rect class="cls-2" x="12.5" y="15.75" width="6.25" height="6.25"/>
      <path class="cls-2" d="M6.25,103.25h6.25v-6.25h6.25v-6.25h6.25v6.25h6.25v6.25h6.25v-6.25h6.25v-6.25h6.25v6.25h6.25v6.25h6.25v-6.25h6.25v-6.25h6.25v6.25h6.25v6.25h6.25v-6.25h6.25v-6.25h6.25v6.25h6.25v6.25h6.25v-6.25h6.25v-6.25h6.25v-50h-6.25v-6.25h6.25V0H56.25v15.75h18.75v6.25h-6.25v6.25h-6.25v6.25h-18.75v6.25h18.75v6.25h6.25v6.25h6.25v6.25h-18.75v18.75h-6.25v-6.25h-6.25v-6.25h-6.25v-18.75h-6.25v18.75h-6.25v6.25h-6.25v6.25h-6.25v-18.75H0v37.5h6.25v6.25ZM75,34.5h6.25v6.25h-6.25v-6.25ZM31.25,78.25h6.25v6.25h-6.25v-6.25Z"/>
      <rect class="cls-2" x="43.75" y="22" width="6.25" height="6.25"/>
      <rect class="cls-2" x="37.5" y="28.25" width="6.25" height="6.25"/>
      <rect class="cls-2" width="12.5" height="15.75"/>
      <polygon class="cls-2" points="6.25 40.75 25 40.75 25 34.5 6.25 34.5 6.25 28.25 0 28.25 0 47 6.25 47 6.25 40.75"/>
      <polygon class="cls-2" points="125 103.25 125 97 118.75 97 118.75 103.25 112.5 103.25 112.5 109.5 106.25 109.5 106.25 103.25 100 103.25 100 97 93.75 97 93.75 103.25 87.5 103.25 87.5 109.5 81.25 109.5 81.25 103.25 75 103.25 75 97 68.75 97 68.75 103.25 62.5 103.25 62.5 109.5 56.25 109.5 56.25 103.25 50 103.25 50 97 43.75 97 43.75 103.25 37.5 103.25 37.5 109.5 31.25 109.5 31.25 103.25 25 103.25 25 97 18.75 97 18.75 103.25 12.5 103.25 12.5 109.5 6.25 109.5 6.25 103.25 0 103.25 0 112.75 125 112.75 125 103.25"/>
      <rect class="cls-2" x="50" y="53.25" width="6.25" height="6.25"/>
      <rect class="cls-2" x="37.5" y="40.75" width="6.25" height="6.25"/>
      <rect class="cls-2" x="18.75" y="22" width="6.25" height="6.25"/>
      <rect class="cls-2" x="25" y="28.25" width="6.25" height="6.25"/>
      <polygon class="cls-2" points="25 3.25 25 9.5 31.25 9.5 31.25 28.25 37.5 28.25 37.5 9.5 43.75 9.5 43.75 3.25 50 3.25 50 0 18.75 0 18.75 3.25 25 3.25"/>
      <rect class="cls-2" x="25" y="40.75" width="6.25" height="6.25"/>
      <rect class="cls-2" x="31.25" y="34.5" width="6.25" height="6.25"/>
      <rect class="cls-2" x="43.75" y="47" width="6.25" height="6.25"/>
      <rect class="cls-1" x="118.75" y="90.75" width="6.25" height="6.25"/>
      <rect class="cls-1" x="112.5" y="97" width="6.25" height="6.25"/>
      <rect class="cls-1" x="106.25" y="103.25" width="6.25" height="6.25"/>
      <rect class="cls-1" x="100" y="97" width="6.25" height="6.25"/>
      <rect class="cls-1" x="93.75" y="90.75" width="6.25" height="6.25"/>
      <rect class="cls-1" x="87.5" y="97" width="6.25" height="6.25"/>
      <rect class="cls-1" x="81.25" y="103.25" width="6.25" height="6.25"/>
      <rect class="cls-1" x="75" y="97" width="6.25" height="6.25"/>
      <rect class="cls-1" x="68.75" y="90.75" width="6.25" height="6.25"/>
      <rect class="cls-1" x="62.5" y="97" width="6.25" height="6.25"/>
      <rect class="cls-1" x="56.25" y="103.25" width="6.25" height="6.25"/>
      <rect class="cls-1" x="50" y="97" width="6.25" height="6.25"/>
      <rect class="cls-1" x="43.75" y="90.75" width="6.25" height="6.25"/>
      <rect class="cls-1" x="37.5" y="97" width="6.25" height="6.25"/>
      <rect class="cls-1" x="31.25" y="103.25" width="6.25" height="6.25"/>
      <rect class="cls-1" x="25" y="97" width="6.25" height="6.25"/>
      <rect class="cls-1" x="18.75" y="90.75" width="6.25" height="6.25"/>
      <rect class="cls-1" x="12.5" y="97" width="6.25" height="6.25"/>
      <rect class="cls-1" x="6.25" y="103.25" width="6.25" height="6.25"/>
      <rect class="cls-1" y="97" width="6.25" height="6.25"/>
      <rect class="cls-1" x="75" y="34.5" width="6.25" height="6.25"/>
      <rect class="cls-1" x="31.25" y="78.25" width="6.25" height="6.25"/>
      <rect class="cls-1" x="118.75" y="34.5" width="6.25" height="6.25"/>
      <polygon class="cls-1" points="18.75 15.75 18.75 22 25 22 25 28.25 31.25 28.25 31.25 9.5 25 9.5 25 3.25 18.75 3.25 18.75 0 12.5 0 12.5 15.75 18.75 15.75"/>
      <polygon class="cls-1" points="6.25 34.5 25 34.5 25 28.25 18.75 28.25 18.75 22 12.5 22 12.5 15.75 0 15.75 0 22 0 28.25 6.25 28.25 6.25 34.5"/>
      <polygon class="cls-1" points="43.75 3.25 43.75 9.5 37.5 9.5 37.5 28.25 43.75 28.25 43.75 22 50 22 50 15.75 56.25 15.75 56.25 0 50 0 50 3.25 43.75 3.25"/>
      <polygon class="cls-1" points="50 22 50 28.25 43.75 28.25 43.75 34.5 62.5 34.5 62.5 28.25 68.75 28.25 68.75 22 75 22 75 15.75 56.25 15.75 56.25 22 50 22"/>
      <polygon class="cls-1" points="50 53.25 43.75 53.25 43.75 47 37.5 47 37.5 65.75 43.75 65.75 43.75 72 50 72 50 78.25 56.25 78.25 56.25 59.5 50 59.5 50 53.25"/>
      <polygon class="cls-1" points="50 47 50 53.25 56.25 53.25 56.25 59.5 75 59.5 75 53.25 68.75 53.25 68.75 47 62.5 47 62.5 40.75 43.75 40.75 43.75 47 50 47"/>
      <polygon class="cls-1" points="25 53.25 18.75 53.25 18.75 59.5 12.5 59.5 12.5 78.25 18.75 78.25 18.75 72 25 72 25 65.75 31.25 65.75 31.25 47 25 47 25 53.25"/>
      <polygon class="cls-1" points="12.5 53.25 18.75 53.25 18.75 47 25 47 25 40.75 6.25 40.75 6.25 47 0 47 0 53.25 0 59.5 12.5 59.5 12.5 53.25"/>
      <rect class="cls-1" x="31.25" y="28.25" width="6.25" height="6.25"/>
      <rect class="cls-1" x="25" y="34.5" width="6.25" height="6.25"/>
      <rect class="cls-1" x="37.5" y="34.5" width="6.25" height="6.25"/>
      <rect class="cls-1" x="31.25" y="40.75" width="6.25" height="6.25"/>
      <polygon class="cls-2" points="6.25 203.5 25 203.5 25 197.25 6.25 197.25 6.25 191 0 191 0 209.75 6.25 209.75 6.25 203.5"/>
      <rect class="cls-2" x="25" y="191" width="6.25" height="6.25"/>
      <rect class="cls-2" x="18.75" y="184.75" width="6.25" height="6.25"/>
      <rect class="cls-2" x="43.75" y="184.75" width="6.25" height="6.25"/>
      <rect class="cls-2" x="50" y="178.5" width="6.25" height="6.25"/>
      <rect class="cls-2" x="37.5" y="191" width="6.25" height="6.25"/>
      <rect class="cls-2" x="12.5" y="178.5" width="6.25" height="6.25"/>
      <polygon class="cls-2" points="125 266 125 259.75 118.75 259.75 118.75 266 112.5 266 112.5 272.25 106.25 272.25 106.25 266 100 266 100 259.75 93.75 259.75 93.75 266 87.5 266 87.5 272.25 81.25 272.25 81.25 266 75 266 75 259.75 68.75 259.75 68.75 266 62.5 266 62.5 272.25 56.25 272.25 56.25 266 50 266 50 259.75 43.75 259.75 43.75 266 37.5 266 37.5 272.25 31.25 272.25 31.25 266 25 266 25 259.75 18.75 259.75 18.75 266 12.5 266 12.5 272.25 6.25 272.25 6.25 266 0 266 0 275.5 125 275.5 125 266"/>
      <path class="cls-2" d="M6.25,266h6.25v-6.25h6.25v-6.25h6.25v6.25h6.25v6.25h6.25v-6.25h6.25v-6.25h6.25v6.25h6.25v6.25h6.25v-6.25h6.25v-6.25h6.25v6.25h6.25v6.25h6.25v-6.25h6.25v-6.25h6.25v6.25h6.25v6.25h6.25v-6.25h6.25v-6.25h6.25v-50h-6.25v-6.25h6.25v-50h-6.25v-6.25h-6.25v-6.25h-6.25v6.25h-6.25v6.25h-6.25v-6.25h-6.25v-6.25h-6.25v6.25h-6.25v6.25h-6.25v-6.25h-6.25v-6.25h-6.25v6.25h-6.25v6.25h-6.25v-6.25h-6.25v-6.25h-6.25v6.25h-6.25v6.25h-6.25v-6.25h-6.25v-6.25h-6.25v6.25H0v37.5h12.5v-18.75h6.25v6.25h6.25v6.25h6.25v18.75h6.25v-18.75h6.25v-6.25h6.25v-6.25h6.25v18.75h18.75v6.25h-6.25v6.25h-6.25v6.25h-18.75v6.25h18.75v6.25h6.25v6.25h6.25v6.25h-18.75v18.75h-6.25v-6.25h-6.25v-6.25h-6.25v-18.75h-6.25v18.75h-6.25v6.25h-6.25v6.25h-6.25v-18.75H0v37.5h6.25v6.25ZM37.5,159.75h-6.25v-6.25h6.25v6.25ZM75,197.25h6.25v6.25h-6.25v-6.25ZM31.25,241h6.25v6.25h-6.25v-6.25Z"/>
      <rect class="cls-2" x="31.25" y="197.25" width="6.25" height="6.25"/>
      <rect class="cls-2" x="37.5" y="203.5" width="6.25" height="6.25"/>
      <path class="cls-2" d="M6.25,128.5h6.25v6.25h6.25v6.25h6.25v-6.25h6.25v-6.25h6.25v6.25h6.25v6.25h6.25v-6.25h6.25v-6.25h6.25v6.25h6.25v6.25h6.25v-6.25h6.25v-6.25h6.25v6.25h6.25v6.25h6.25v-6.25h6.25v-6.25h6.25v6.25h6.25v6.25h6.25v-18.75h-6.25v-6.25h6.25v-3.25H0v22h6.25v-6.25ZM106.25,116h6.25v6.25h-6.25v-6.25ZM93.75,116h6.25v6.25h-6.25v-6.25ZM81.25,116h6.25v6.25h-6.25v-6.25ZM68.75,116h6.25v6.25h-6.25v-6.25ZM56.25,116h6.25v6.25h-6.25v-6.25ZM43.75,116h6.25v6.25h-6.25v-6.25ZM31.25,116h6.25v6.25h-6.25v-6.25ZM18.75,116h6.25v6.25h-6.25v-6.25ZM6.25,116h6.25v6.25h-6.25v-6.25Z"/>
      <rect class="cls-2" x="12.5" y="216" width="6.25" height="6.25"/>
      <rect class="cls-2" x="43.75" y="209.75" width="6.25" height="6.25"/>
      <rect class="cls-2" x="50" y="216" width="6.25" height="6.25"/>
      <rect class="cls-2" x="25" y="203.5" width="6.25" height="6.25"/>
      <rect class="cls-2" x="18.75" y="209.75" width="6.25" height="6.25"/>
      <rect class="cls-1" x="118.75" y="141" width="6.25" height="6.25"/>
      <rect class="cls-1" y="134.75" width="6.25" height="6.25"/>
      <rect class="cls-1" x="6.25" y="128.5" width="6.25" height="6.25"/>
      <rect class="cls-1" x="12.5" y="134.75" width="6.25" height="6.25"/>
      <rect class="cls-1" x="18.75" y="141" width="6.25" height="6.25"/>
      <rect class="cls-1" x="25" y="134.75" width="6.25" height="6.25"/>
      <rect class="cls-1" x="31.25" y="128.5" width="6.25" height="6.25"/>
      <rect class="cls-1" x="37.5" y="134.75" width="6.25" height="6.25"/>
      <rect class="cls-1" x="43.75" y="141" width="6.25" height="6.25"/>
      <rect class="cls-1" x="50" y="134.75" width="6.25" height="6.25"/>
      <rect class="cls-1" x="56.25" y="128.5" width="6.25" height="6.25"/>
      <rect class="cls-1" x="62.5" y="134.75" width="6.25" height="6.25"/>
      <rect class="cls-1" x="68.75" y="141" width="6.25" height="6.25"/>
      <rect class="cls-1" x="75" y="134.75" width="6.25" height="6.25"/>
      <rect class="cls-1" x="81.25" y="128.5" width="6.25" height="6.25"/>
      <rect class="cls-1" x="87.5" y="134.75" width="6.25" height="6.25"/>
      <rect class="cls-1" x="93.75" y="141" width="6.25" height="6.25"/>
      <rect class="cls-1" x="100" y="134.75" width="6.25" height="6.25"/>
      <rect class="cls-1" x="106.25" y="128.5" width="6.25" height="6.25"/>
      <rect class="cls-1" x="112.5" y="134.75" width="6.25" height="6.25"/>
      <rect class="cls-1" x="118.75" y="116" width="6.25" height="6.25"/>
      <rect class="cls-1" x="6.25" y="116" width="6.25" height="6.25"/>
      <rect class="cls-1" x="18.75" y="116" width="6.25" height="6.25"/>
      <rect class="cls-1" x="31.25" y="116" width="6.25" height="6.25"/>
      <rect class="cls-1" x="43.75" y="116" width="6.25" height="6.25"/>
      <rect class="cls-1" x="56.25" y="116" width="6.25" height="6.25"/>
      <rect class="cls-1" x="68.75" y="116" width="6.25" height="6.25"/>
      <rect class="cls-1" x="81.25" y="116" width="6.25" height="6.25"/>
      <rect class="cls-1" x="93.75" y="116" width="6.25" height="6.25"/>
      <rect class="cls-1" x="106.25" y="116" width="6.25" height="6.25"/>
      <rect class="cls-1" x="118.75" y="253.5" width="6.25" height="6.25"/>
      <rect class="cls-1" x="112.5" y="259.75" width="6.25" height="6.25"/>
      <rect class="cls-1" x="106.25" y="266" width="6.25" height="6.25"/>
      <rect class="cls-1" x="100" y="259.75" width="6.25" height="6.25"/>
      <rect class="cls-1" x="93.75" y="253.5" width="6.25" height="6.25"/>
      <rect class="cls-1" x="87.5" y="259.75" width="6.25" height="6.25"/>
      <rect class="cls-1" x="81.25" y="266" width="6.25" height="6.25"/>
      <rect class="cls-1" x="75" y="259.75" width="6.25" height="6.25"/>
      <rect class="cls-1" x="68.75" y="253.5" width="6.25" height="6.25"/>
      <rect class="cls-1" x="62.5" y="259.75" width="6.25" height="6.25"/>
      <rect class="cls-1" x="56.25" y="266" width="6.25" height="6.25"/>
      <rect class="cls-1" x="50" y="259.75" width="6.25" height="6.25"/>
      <rect class="cls-1" x="43.75" y="253.5" width="6.25" height="6.25"/>
      <rect class="cls-1" x="37.5" y="259.75" width="6.25" height="6.25"/>
      <rect class="cls-1" x="31.25" y="266" width="6.25" height="6.25"/>
      <rect class="cls-1" x="25" y="259.75" width="6.25" height="6.25"/>
      <rect class="cls-1" x="18.75" y="253.5" width="6.25" height="6.25"/>
      <rect class="cls-1" x="12.5" y="259.75" width="6.25" height="6.25"/>
      <rect class="cls-1" x="6.25" y="266" width="6.25" height="6.25"/>
      <rect class="cls-1" y="259.75" width="6.25" height="6.25"/>
      <rect class="cls-1" x="75" y="197.25" width="6.25" height="6.25"/>
      <rect class="cls-1" x="31.25" y="153.5" width="6.25" height="6.25"/>
      <rect class="cls-1" x="31.25" y="241" width="6.25" height="6.25"/>
      <rect class="cls-1" x="118.75" y="197.25" width="6.25" height="6.25"/>
      <polygon class="cls-1" points="18.75 184.75 25 184.75 25 191 31.25 191 31.25 172.25 25 172.25 25 166 18.75 166 18.75 159.75 12.5 159.75 12.5 178.5 18.75 178.5 18.75 184.75"/>
      <polygon class="cls-1" points="6.25 197.25 25 197.25 25 191 18.75 191 18.75 184.75 12.5 184.75 12.5 178.5 0 178.5 0 184.75 0 191 6.25 191 6.25 197.25"/>
      <polygon class="cls-1" points="43.75 184.75 50 184.75 50 178.5 56.25 178.5 56.25 159.75 50 159.75 50 166 43.75 166 43.75 172.25 37.5 172.25 37.5 191 43.75 191 43.75 184.75"/>
      <polygon class="cls-1" points="50 184.75 50 191 43.75 191 43.75 197.25 62.5 197.25 62.5 191 68.75 191 68.75 184.75 75 184.75 75 178.5 56.25 178.5 56.25 184.75 50 184.75"/>
      <polygon class="cls-1" points="50 216 43.75 216 43.75 209.75 37.5 209.75 37.5 228.5 43.75 228.5 43.75 234.75 50 234.75 50 241 56.25 241 56.25 222.25 50 222.25 50 216"/>
      <polygon class="cls-1" points="50 209.75 50 216 56.25 216 56.25 222.25 75 222.25 75 216 68.75 216 68.75 209.75 62.5 209.75 62.5 203.5 43.75 203.5 43.75 209.75 50 209.75"/>
      <polygon class="cls-1" points="25 216 18.75 216 18.75 222.25 12.5 222.25 12.5 241 18.75 241 18.75 234.75 25 234.75 25 228.5 31.25 228.5 31.25 209.75 25 209.75 25 216"/>
      <polygon class="cls-1" points="12.5 216 18.75 216 18.75 209.75 25 209.75 25 203.5 6.25 203.5 6.25 209.75 0 209.75 0 216 0 222.25 12.5 222.25 12.5 216"/>
      <rect class="cls-1" x="31.25" y="191" width="6.25" height="6.25"/>
      <rect class="cls-1" x="25" y="197.25" width="6.25" height="6.25"/>
      <rect class="cls-1" x="37.5" y="197.25" width="6.25" height="6.25"/>
      <rect class="cls-1" x="31.25" y="203.5" width="6.25" height="6.25"/>
      <rect class="cls-2" x="18.75" y="347.5" width="6.25" height="6.25"/>
      <rect class="cls-2" x="50" y="341.25" width="6.25" height="6.25"/>
      <rect class="cls-2" x="25" y="353.75" width="6.25" height="6.25"/>
      <rect class="cls-2" x="12.5" y="341.25" width="6.25" height="6.25"/>
      <rect class="cls-2" y="385" width="12.5" height="15"/>
      <rect class="cls-2" x="12.5" y="378.75" width="6.25" height="6.25"/>
      <polygon class="cls-2" points="6.25 366.25 25 366.25 25 360 6.25 360 6.25 353.75 0 353.75 0 372.5 6.25 372.5 6.25 366.25"/>
      <polygon class="cls-2" points="43.75 397.5 43.75 391.25 37.5 391.25 37.5 372.5 31.25 372.5 31.25 391.25 25 391.25 25 397.5 18.75 397.5 18.75 400 50 400 50 397.5 43.75 397.5"/>
      <rect class="cls-2" x="50" y="378.75" width="6.25" height="6.25"/>
      <rect class="cls-2" x="43.75" y="347.5" width="6.25" height="6.25"/>
      <rect class="cls-2" x="18.75" y="372.5" width="6.25" height="6.25"/>
      <rect class="cls-2" x="31.25" y="360" width="6.25" height="6.25"/>
      <rect class="cls-2" x="37.5" y="366.25" width="6.25" height="6.25"/>
      <rect class="cls-2" x="25" y="366.25" width="6.25" height="6.25"/>
      <rect class="cls-2" x="37.5" y="353.75" width="6.25" height="6.25"/>
      <rect class="cls-2" x="43.75" y="372.5" width="6.25" height="6.25"/>
      <path class="cls-2" d="M125,366.25h-6.25v-6.25h6.25v-50h-6.25v-6.25h-6.25v-6.25h-6.25v6.25h-6.25v6.25h-6.25v-6.25h-6.25v-6.25h-6.25v6.25h-6.25v6.25h-6.25v-6.25h-6.25v-6.25h-6.25v6.25h-6.25v6.25h-6.25v-6.25h-6.25v-6.25h-6.25v6.25h-6.25v6.25h-6.25v-6.25h-6.25v-6.25h-6.25v6.25H0v37.5h12.5v-18.75h6.25v6.25h6.25v6.25h6.25v18.75h6.25v-18.75h6.25v-6.25h6.25v-6.25h6.25v18.75h18.75v6.25h-6.25v6.25h-6.25v6.25h-18.75v6.25h18.75v6.25h6.25v6.25h6.25v6.25h-18.75v15h68.75v-33.75ZM37.5,322.5h-6.25v-6.25h6.25v6.25ZM81.25,366.25h-6.25v-6.25h6.25v6.25Z"/>
      <path class="cls-2" d="M6.25,291.25h6.25v6.25h6.25v6.25h6.25v-6.25h6.25v-6.25h6.25v6.25h6.25v6.25h6.25v-6.25h6.25v-6.25h6.25v6.25h6.25v6.25h6.25v-6.25h6.25v-6.25h6.25v6.25h6.25v6.25h6.25v-6.25h6.25v-6.25h6.25v6.25h6.25v6.25h6.25v-18.75h-6.25v-6.25h6.25v-3.25H0v22h6.25v-6.25ZM106.25,278.75h6.25v6.25h-6.25v-6.25ZM93.75,278.75h6.25v6.25h-6.25v-6.25ZM81.25,278.75h6.25v6.25h-6.25v-6.25ZM68.75,278.75h6.25v6.25h-6.25v-6.25ZM56.25,278.75h6.25v6.25h-6.25v-6.25ZM43.75,278.75h6.25v6.25h-6.25v-6.25ZM31.25,278.75h6.25v6.25h-6.25v-6.25ZM18.75,278.75h6.25v6.25h-6.25v-6.25ZM6.25,278.75h6.25v6.25h-6.25v-6.25Z"/>
      <rect class="cls-1" x="118.75" y="303.75" width="6.25" height="6.25"/>
      <rect class="cls-1" y="297.5" width="6.25" height="6.25"/>
      <rect class="cls-1" x="6.25" y="291.25" width="6.25" height="6.25"/>
      <rect class="cls-1" x="12.5" y="297.5" width="6.25" height="6.25"/>
      <rect class="cls-1" x="18.75" y="303.75" width="6.25" height="6.25"/>
      <rect class="cls-1" x="25" y="297.5" width="6.25" height="6.25"/>
      <rect class="cls-1" x="31.25" y="291.25" width="6.25" height="6.25"/>
      <rect class="cls-1" x="37.5" y="297.5" width="6.25" height="6.25"/>
      <rect class="cls-1" x="43.75" y="303.75" width="6.25" height="6.25"/>
      <rect class="cls-1" x="50" y="297.5" width="6.25" height="6.25"/>
      <rect class="cls-1" x="56.25" y="291.25" width="6.25" height="6.25"/>
      <rect class="cls-1" x="62.5" y="297.5" width="6.25" height="6.25"/>
      <rect class="cls-1" x="68.75" y="303.75" width="6.25" height="6.25"/>
      <rect class="cls-1" x="75" y="297.5" width="6.25" height="6.25"/>
      <rect class="cls-1" x="81.25" y="291.25" width="6.25" height="6.25"/>
      <rect class="cls-1" x="87.5" y="297.5" width="6.25" height="6.25"/>
      <rect class="cls-1" x="93.75" y="303.75" width="6.25" height="6.25"/>
      <rect class="cls-1" x="100" y="297.5" width="6.25" height="6.25"/>
      <rect class="cls-1" x="106.25" y="291.25" width="6.25" height="6.25"/>
      <rect class="cls-1" x="112.5" y="297.5" width="6.25" height="6.25"/>
      <rect class="cls-1" x="118.75" y="278.75" width="6.25" height="6.25"/>
      <rect class="cls-1" x="6.25" y="278.75" width="6.25" height="6.25"/>
      <rect class="cls-1" x="18.75" y="278.75" width="6.25" height="6.25"/>
      <rect class="cls-1" x="31.25" y="278.75" width="6.25" height="6.25"/>
      <rect class="cls-1" x="43.75" y="278.75" width="6.25" height="6.25"/>
      <rect class="cls-1" x="56.25" y="278.75" width="6.25" height="6.25"/>
      <rect class="cls-1" x="68.75" y="278.75" width="6.25" height="6.25"/>
      <rect class="cls-1" x="81.25" y="278.75" width="6.25" height="6.25"/>
      <rect class="cls-1" x="93.75" y="278.75" width="6.25" height="6.25"/>
      <rect class="cls-1" x="106.25" y="278.75" width="6.25" height="6.25"/>
      <rect class="cls-1" x="75" y="360" width="6.25" height="6.25"/>
      <rect class="cls-1" x="31.25" y="316.25" width="6.25" height="6.25"/>
      <rect class="cls-1" x="118.75" y="360" width="6.25" height="6.25"/>
      <polygon class="cls-1" points="18.75 347.5 25 347.5 25 353.75 31.25 353.75 31.25 335 25 335 25 328.75 18.75 328.75 18.75 322.5 12.5 322.5 12.5 341.25 18.75 341.25 18.75 347.5"/>
      <polygon class="cls-1" points="6.25 360 25 360 25 353.75 18.75 353.75 18.75 347.5 12.5 347.5 12.5 341.25 0 341.25 0 347.5 0 353.75 6.25 353.75 6.25 360"/>
      <polygon class="cls-1" points="43.75 347.5 50 347.5 50 341.25 56.25 341.25 56.25 322.5 50 322.5 50 328.75 43.75 328.75 43.75 335 37.5 335 37.5 353.75 43.75 353.75 43.75 347.5"/>
      <polygon class="cls-1" points="50 347.5 50 353.75 43.75 353.75 43.75 360 62.5 360 62.5 353.75 68.75 353.75 68.75 347.5 75 347.5 75 341.25 56.25 341.25 56.25 347.5 50 347.5"/>
      <polygon class="cls-1" points="50 385 50 378.75 43.75 378.75 43.75 372.5 37.5 372.5 37.5 391.25 43.75 391.25 43.75 397.5 50 397.5 50 400 56.25 400 56.25 385 50 385"/>
      <polygon class="cls-1" points="50 372.5 50 378.75 56.25 378.75 56.25 385 75 385 75 378.75 68.75 378.75 68.75 372.5 62.5 372.5 62.5 366.25 43.75 366.25 43.75 372.5 50 372.5"/>
      <polygon class="cls-1" points="25 397.5 25 391.25 31.25 391.25 31.25 372.5 25 372.5 25 378.75 18.75 378.75 18.75 385 12.5 385 12.5 400 18.75 400 18.75 397.5 25 397.5"/>
      <polygon class="cls-1" points="12.5 378.75 18.75 378.75 18.75 372.5 25 372.5 25 366.25 6.25 366.25 6.25 372.5 0 372.5 0 378.75 0 385 12.5 385 12.5 378.75"/>
      <rect class="cls-1" x="31.25" y="353.75" width="6.25" height="6.25"/>
      <rect class="cls-1" x="25" y="360" width="6.25" height="6.25"/>
      <rect class="cls-1" x="37.5" y="360" width="6.25" height="6.25"/>
      <rect class="cls-1" x="31.25" y="366.25" width="6.25" height="6.25"/>
    </g>
  </g>
</svg>