<svg width="23" height="14" viewBox="0 0 23 14" fill="none" xmlns="http://www.w3.org/2000/svg">
<path d="M12 6C12.5933 6 13.1734 5.82405 13.6667 5.49441C14.1601 5.16477 14.5446 4.69623 14.7716 4.14805C14.9987 3.59987 15.0581 2.99667 14.9424 2.41473C14.8266 1.83279 14.5409 1.29824 14.1213 0.878681C13.7018 0.459123 13.1672 0.173401 12.5853 0.0576455C12.0033 -0.0581102 11.4001 0.00129986 10.8519 0.228363C10.3038 0.455426 9.83524 0.839943 9.50559 1.33329C9.17595 1.82664 9 2.40666 9 3C9 3.79565 9.31607 4.55871 9.87868 5.12132C10.4413 5.68393 11.2044 6 12 6ZM12 2C12.1978 2 12.3911 2.05865 12.5556 2.16853C12.72 2.27841 12.8482 2.43459 12.9239 2.61732C12.9996 2.80004 13.0194 3.00111 12.9808 3.19509C12.9422 3.38907 12.847 3.56726 12.7071 3.70711C12.5673 3.84696 12.3891 3.9422 12.1951 3.98079C12.0011 4.01937 11.8 3.99957 11.6173 3.92388C11.4346 3.84819 11.2784 3.72002 11.1685 3.55557C11.0586 3.39112 11 3.19778 11 3C11 2.73478 11.1054 2.48043 11.2929 2.29289C11.4804 2.10536 11.7348 2 12 2ZM16.11 5.86C16.6951 5.02103 17.0087 4.02282 17.0087 3C17.0087 1.97718 16.6951 0.97897 16.11 0.140001C16.3976 0.0474144 16.6979 0.000181955 17 1.1415e-06C17.7956 1.1415e-06 18.5587 0.316072 19.1213 0.878681C19.6839 1.44129 20 2.20435 20 3C20 3.79565 19.6839 4.55871 19.1213 5.12132C18.5587 5.68393 17.7956 6 17 6C16.6979 5.99982 16.3976 5.95259 16.11 5.86ZM12 8C6 8 6 12 6 12V14H18V12C18 12 18 8 12 8ZM8 12C8 11.71 8.32 10 12 10C15.5 10 15.94 11.56 16 12M23 12V14H20V12C19.9766 11.2566 19.8054 10.5254 19.4964 9.84891C19.1873 9.17244 18.7466 8.5643 18.2 8.06C23 8.55 23 12 23 12ZM6.34 3.92L7.5 5.33L2.75 10.08L0 7.08L1.16 5.92L2.75 7.5L6.34 3.92Z" fill="#222222"/>
</svg>
