<svg width="22" height="22" viewBox="0 0 22 22" fill="none" xmlns="http://www.w3.org/2000/svg">
<path fill-rule="evenodd" clip-rule="evenodd" d="M14.6634 17.8125H20.9537C21.0735 17.8119 21.1883 17.7641 21.2731 17.6793C21.3578 17.5946 21.4057 17.4798 21.4063 17.36V15.4213C21.4057 15.3014 21.3578 15.1867 21.2731 15.1019C21.1883 15.0172 21.0735 14.9693 20.9537 14.9688H15.3347C15.2897 15.9502 15.0621 16.9146 14.6634 17.8125ZM16.0237 10.3125V14.2188H15.3347C15.324 13.9893 15.3037 13.7625 15.2737 13.5384V10.3125L14.5744 9.10752C14.5499 9.06501 14.5341 9.0181 14.5278 8.96947C14.5215 8.92085 14.5249 8.87146 14.5376 8.82413C14.5504 8.77679 14.5724 8.73244 14.6023 8.6936C14.6323 8.65477 14.6695 8.6222 14.7121 8.59777C14.7546 8.57335 14.8015 8.55753 14.8501 8.55123C14.8987 8.54493 14.9481 8.54826 14.9954 8.56105C15.0428 8.57384 15.0871 8.59582 15.126 8.62575C15.1648 8.65567 15.1974 8.69296 15.2218 8.73547L15.6487 9.46845L16.0756 8.73547C16.125 8.64961 16.2064 8.58686 16.302 8.56103C16.3976 8.53521 16.4995 8.54841 16.5854 8.59775C16.6713 8.64709 16.734 8.72851 16.7598 8.82411C16.7857 8.91971 16.7724 9.02165 16.7231 9.10752L16.0237 10.3125ZM9.8773 0.21875C9.25855 1.55469 9.42617 3.50197 10.4497 5.27473C11.3638 6.85761 12.7391 7.91914 14.067 8.22238L11.8859 4.44467C11.8615 4.40216 11.8457 4.35525 11.8394 4.30663C11.8331 4.258 11.8364 4.20861 11.8492 4.16128C11.875 4.06568 11.9378 3.98425 12.0236 3.93491C12.1095 3.88556 12.2114 3.87235 12.307 3.89817C12.3543 3.91095 12.3987 3.93293 12.4375 3.96286C12.4764 3.99278 12.5089 4.03007 12.5334 4.07258L14.7137 7.84897C15.1151 6.5473 14.8835 4.82553 13.9697 3.24242C12.9463 1.4697 11.3436 0.35075 9.8773 0.21875ZM21.4203 0.21875C22.0391 1.55469 21.8715 3.50197 20.848 5.27473C19.9339 6.85761 18.5586 7.91914 17.2306 8.22238L19.4117 4.44467C19.46 4.35887 19.4725 4.25744 19.4465 4.16246C19.4204 4.06748 19.3578 3.98666 19.2724 3.93758C19.187 3.88851 19.0857 3.87516 18.9905 3.90044C18.8953 3.92573 18.814 3.9876 18.7642 4.07258L16.5839 7.84902C16.1825 6.5473 16.414 4.8253 17.3279 3.24242C18.3512 1.4697 19.9538 0.35075 21.4203 0.21875ZM7.40624 7.40628C5.98469 7.40628 4.59506 7.82782 3.41309 8.61759C2.23111 9.40736 1.30987 10.5299 0.765868 11.8432C0.221864 13.1566 0.0795281 14.6017 0.356859 15.996C0.634189 17.3902 1.31873 18.6709 2.32392 19.6761C3.32911 20.6813 4.60979 21.3658 6.00403 21.6431C7.39826 21.9205 8.84343 21.7781 10.1568 21.2341C11.4701 20.6901 12.5926 19.7689 13.3824 18.5869C14.1722 17.4049 14.5937 16.0153 14.5937 14.5938C14.5937 13.6499 14.4078 12.7153 14.0466 11.8432C13.6854 10.9712 13.156 10.1789 12.4886 9.51143C11.8211 8.84401 11.0288 8.31459 10.1568 7.95338C9.28475 7.59218 8.35011 7.40628 7.40624 7.40628ZM9.22175 13.3641C9.22175 13.4636 9.18224 13.5589 9.11192 13.6293C9.04159 13.6996 8.94621 13.7391 8.84675 13.7391C8.7473 13.7391 8.65191 13.6996 8.58159 13.6293C8.51126 13.5589 8.47175 13.4636 8.47175 13.3641C8.47175 12.5996 7.29519 12.2119 6.63088 12.7788C5.99113 13.3249 6.47835 14.2186 7.40628 14.2186C8.34997 14.2186 9.22175 14.8865 9.22175 15.8232C9.22175 16.6331 8.56297 17.2475 7.78128 17.3935V18.0508C7.78128 18.1503 7.74178 18.2457 7.67145 18.316C7.60112 18.3863 7.50574 18.4258 7.40628 18.4258C7.30683 18.4258 7.21144 18.3863 7.14112 18.316C7.07079 18.2457 7.03128 18.1503 7.03128 18.0508V17.3934C6.24964 17.2477 5.59077 16.6332 5.59077 15.8231C5.59077 15.7236 5.63028 15.6282 5.7006 15.5579C5.77093 15.4876 5.86631 15.4481 5.96577 15.4481C6.06522 15.4481 6.16061 15.4876 6.23093 15.5579C6.30126 15.6282 6.34077 15.7236 6.34077 15.8231C6.34077 16.5875 7.51733 16.9752 8.18169 16.4083C8.82144 15.8623 8.33422 14.9685 7.40628 14.9685C6.46255 14.9685 5.59077 14.3007 5.59077 13.364C5.59077 12.5541 6.2496 11.9396 7.03128 11.7937V11.1367C7.03128 11.0373 7.07079 10.9419 7.14112 10.8716C7.21144 10.8012 7.30683 10.7617 7.40628 10.7617C7.50574 10.7617 7.60112 10.8012 7.67145 10.8716C7.74178 10.9419 7.78128 11.0373 7.78128 11.1367V11.7942C8.56297 11.9398 9.22175 12.5543 9.22175 13.3645V13.3641ZM7.40628 8.96975C8.51858 8.96975 9.60589 9.29958 10.5307 9.91753C11.4556 10.5355 12.1764 11.4138 12.6021 12.4414C13.0277 13.4691 13.1391 14.5998 12.9221 15.6907C12.7051 16.7817 12.1695 17.7837 11.383 18.5703C10.5965 19.3568 9.59445 19.8924 8.50353 20.1094C7.41262 20.3264 6.28185 20.2151 5.25422 19.7894C4.22659 19.3638 3.34825 18.643 2.73027 17.7182C2.1123 16.7934 1.78244 15.7061 1.78241 14.5938C1.78243 13.1022 2.37496 11.6718 3.42963 10.6171C4.48431 9.56244 5.91475 8.96992 7.40628 8.96989V8.96975ZM10.8526 11.1472C11.5343 11.8289 11.9985 12.6973 12.1865 13.6428C12.3746 14.5882 12.2781 15.5682 11.9092 16.4588C11.5403 17.3494 10.9156 18.1106 10.1141 18.6462C9.31256 19.1817 8.37023 19.4676 7.40626 19.4676C6.44229 19.4676 5.49996 19.1817 4.69845 18.6462C3.89694 18.1106 3.27223 17.3494 2.90334 16.4588C2.53445 15.5682 2.43793 14.5882 2.62599 13.6428C2.81406 12.6973 3.27826 11.8289 3.95989 11.1472C4.87394 10.2332 6.11363 9.71975 7.40626 9.71975C8.69889 9.71975 9.93858 10.2332 10.8526 11.1472ZM20.9537 18.5625C21.0735 18.563 21.1883 18.6109 21.2731 18.6957C21.3578 18.7804 21.4057 18.8952 21.4063 19.0151V20.9537C21.4057 21.0735 21.3578 21.1883 21.2731 21.2731C21.1883 21.3578 21.0735 21.4057 20.9537 21.4063H11.4811C12.6403 20.7109 13.6039 19.7324 14.2813 18.5625H20.9537Z" fill="#222222"/>
</svg>
