<?xml version="1.0" encoding="UTF-8"?>
<svg id="Layer_2" data-name="Layer 2" xmlns="http://www.w3.org/2000/svg" viewBox="0 0 23.99 24">
  <defs>
    <style>
      .cls-1 {
        fill: #222;
        stroke-width: 0px;
      }
    </style>
  </defs>
  <g id="Layer_1-2" data-name="Layer 1">
    <path class="cls-1" d="M14.66,22.24c-2.51.66-5.18.36-7.5-.83-2.34-1.2-4.14-3.22-5.07-5.68-.86-2.28-.92-4.71-.16-7.02.56-1.71,1.55-3.26,2.86-4.47l-.24,2,1.4.17.53-4.41-4.35-.51-.17,1.4,1.95.23c-1.52,1.39-2.68,3.17-3.33,5.15C.18,9.55-.02,10.87,0,12.2c.02,1.38.28,2.73.77,4.03,1.05,2.79,3.09,5.08,5.74,6.44,1.71.88,3.59,1.33,5.48,1.33,1.01,0,2.03-.13,3.02-.39l-.36-1.37ZM23.27,16.1c.98-2.69.97-5.65-.05-8.33-1.1-2.91-3.24-5.25-6.05-6.59C14.38-.16,11.23-.37,8.29.59l.44,1.34c2.59-.84,5.37-.66,7.84.52,2.47,1.18,4.37,3.25,5.33,5.81.89,2.37.91,4.98.04,7.35-.69,1.88-1.88,3.51-3.44,4.73l.26-2.17-1.4-.17-.53,4.41,4.35.51.17-1.4-1.78-.21c1.68-1.37,2.96-3.17,3.71-5.2Z"/>
    <path class="cls-1" d="M15.61,10.27c.41-.51.65-1.16.65-1.86,0-1.65-1.34-3-3-3-1.12,0-2.09.61-2.61,1.52,2.28.16,4.09,2.07,4.09,4.4,0,.45-.07.9-.21,1.34.46.36.87.78,1.21,1.27.21.31.4.64.55.99h2.03v-.71c0-1.8-1.13-3.34-2.72-3.95Z"/>
    <path class="cls-1" d="M12.98,12.87c.42-.51.67-1.17.67-1.88,0-1.65-1.34-3-3-3s-3,1.34-3,3c0,.71.25,1.37.67,1.89-1.56.62-2.66,2.15-2.66,3.93v.71h9.99v-.71c0-1.78-1.11-3.31-2.67-3.93Z"/>
  </g>
</svg>