<svg width="83" height="48" viewBox="0 0 83 48" fill="none" xmlns="http://www.w3.org/2000/svg">
<path d="M60.6318 6.15637C59.4971 6.15637 58.5609 6.15637 57.6532 6.95066C56.7738 7.74495 56.5752 8.62435 56.5752 9.75907V25.3042C56.5752 28.453 57.7667 29.5026 60.8871 29.5026H72.4896V34.2967H59.1C54.3909 34.2967 51.7811 31.5734 51.7811 26.8927V8.68017C51.7811 6.41073 52.0364 4.48182 53.7952 2.89315C55.4405 1.47482 57.3979 1.36127 59.4687 1.36127H72.4894V6.15537L60.6318 6.15637ZM32.0087 20.2272V34.2981H27.2146V8.08597C27.2146 6.10028 27.8954 4.22801 29.4273 2.8947C31.0158 1.56143 32.6895 1.36282 34.732 1.36282H47.3555V6.15692H36.0085C33.7958 6.15692 32.0087 7.20653 32.0087 9.61772V15.4898H47.355V20.2272H32.0087ZM10.3648 6.15637C5.91112 6.15637 6.16648 8.36903 6.16648 11.8866C6.16648 12.9362 6.45016 13.8723 7.30118 14.5532C8.23732 15.2908 9.23024 15.2908 10.365 15.2908H15.4428C19.6979 15.2908 22.6198 17.6736 22.6198 22.0423V27.262C22.6198 31.9143 19.6412 34.2687 15.1591 34.2687H1.42969V29.503H13.7413C18.3368 29.503 17.883 27.0918 17.883 23.4324C17.883 20.7658 16.2945 20.085 13.8832 20.085H8.77698C4.77721 20.085 1.37305 17.7589 1.37305 13.447V8.31253C1.37305 6.21328 2.16734 4.17082 3.78429 2.78087C5.2594 1.5327 6.79129 1.36254 8.69195 1.36254H22.6778V6.15664L10.3648 6.15637Z" fill="#636362"/>
<path d="M68.1774 43.0629V46.5804H67.2696V43.0629L64.7449 38.0702H65.7094L67.7235 42.1267L69.7092 38.0702H70.6737L68.1774 43.0629ZM57.6246 45.6443C57.0289 46.2968 56.2345 46.6088 55.3552 46.6088C54.5325 46.6088 53.7667 46.2968 53.1993 45.7294C52.405 44.9351 52.405 44.0841 52.405 42.2969C52.405 40.5097 52.405 39.6586 53.1993 38.8643C53.7667 38.297 54.5326 37.9849 55.3552 37.9849C56.9721 37.9849 58.0784 39.0345 58.3338 40.5096H57.426C57.1991 39.4316 56.4332 38.7791 55.3552 38.7791C54.7878 38.7791 54.2488 39.006 53.8801 39.3748C53.3411 39.9138 53.2843 40.4811 53.2843 42.2683C53.2843 44.0554 53.3411 44.6227 53.8801 45.1901C54.2488 45.5589 54.7878 45.7858 55.3552 45.7858C55.9792 45.7858 56.575 45.5305 56.9721 45.0483C57.3125 44.6227 57.4543 44.1689 57.4543 43.5164V42.8639H55.3551V42.0696H58.3337V43.4029C58.3621 44.4241 58.1351 45.0766 57.6245 45.6439L57.6246 45.6443ZM44.5188 46.5521L42.5898 42.7791H40.5473V46.5521H39.6396V38.0702H42.9018C44.3769 38.0702 45.4264 38.978 45.4264 40.4247C45.4264 41.6728 44.6889 42.4671 43.5826 42.6941L45.5966 46.5521H44.5188ZM42.8168 38.8928H40.5473V42.0132H42.8168C43.8096 42.0132 44.5188 41.5026 44.5188 40.4529C44.4905 39.4033 43.7813 38.8926 42.8168 38.8926V38.8928ZM27.214 46.5521V38.0702H32.4904V38.8929H28.1219V41.8715H31.8381V42.6941H28.1219V45.7579H32.4904V46.5806H27.214V46.5521ZM18.647 46.5521L14.1365 39.7439V46.5521H13.2287V38.0702H14.0798L18.5902 44.8501V38.0702H19.498V46.5521H18.647ZM1.37109 46.5521V38.0702H6.64753V38.8929H2.27898V41.8715H5.99514V42.6941H2.27898V45.7579H6.64753V46.5806H1.37109V46.5521ZM75.9206 29.475H80.9133V46.6371H75.9206V29.475Z" fill="#65B32E"/>
</svg>
