<svg width="24" height="24" viewBox="0 0 24 24" fill="none" xmlns="http://www.w3.org/2000/svg">
<path d="M13.9135 14.7237C17.9407 14.7237 21.217 11.4212 21.217 7.36188C21.217 3.30258 17.9407 0 13.9135 0C9.88634 0 6.60999 3.30253 6.60999 7.36183C6.60999 11.4211 9.88634 14.7237 13.9135 14.7237ZM11.5667 9.65912C11.7791 9.33438 12.2146 9.24321 12.5394 9.45576C13.0126 9.76528 13.1911 9.79381 13.8155 9.78945C14.425 9.78542 14.7787 9.33114 14.8493 8.91074C14.8837 8.70625 14.8969 8.20691 14.278 7.98813C13.5521 7.7315 12.8092 7.43819 12.2924 7.03283C11.7756 6.62746 11.5389 5.92766 11.6748 5.20663C11.8222 4.42499 12.3674 3.80277 13.0978 3.58277C13.1045 3.5808 13.1109 3.57921 13.1175 3.57724V3.31087C13.1175 2.92279 13.4321 2.60817 13.8202 2.60817C14.2083 2.60817 14.5229 2.92279 14.5229 3.31087V3.53297C15.0002 3.64691 15.3335 3.86526 15.4689 3.9664C15.7797 4.19881 15.8433 4.63913 15.611 4.95C15.3786 5.26088 14.9383 5.3245 14.6274 5.09204C14.4834 4.98439 14.0854 4.75297 13.5032 4.92841C13.163 5.03091 13.0748 5.36652 13.0559 5.46692C13.0187 5.66419 13.0604 5.84909 13.1597 5.92695C13.518 6.20794 14.1629 6.45675 14.7464 6.66302C15.8224 7.04337 16.4208 8.04027 16.2353 9.14371C16.1443 9.68512 15.8719 10.1874 15.4683 10.5582C15.1934 10.8108 14.8734 10.9909 14.5229 11.0937V11.4128C14.5229 11.8009 14.2083 12.1155 13.8202 12.1155C13.4321 12.1155 13.1175 11.8009 13.1175 11.4128V11.1638C12.6632 11.1087 12.2817 10.9666 11.77 10.6319C11.4453 10.4194 11.3542 9.98387 11.5667 9.65912ZM2.66435 17.0849H1.06208C0.674 17.0849 0.359375 17.3995 0.359375 17.7876V23.2963C0.359375 23.6844 0.674 23.999 1.06208 23.999H2.66439L2.66435 17.0849ZM23.4363 17.0358C22.1192 15.7187 19.9761 15.7187 18.6591 17.0358L16.554 19.1408L15.6913 20.0036C15.3426 20.3523 14.8696 20.5482 14.3765 20.5482H10.1811C9.80225 20.5482 9.47619 20.257 9.45835 19.8785C9.43933 19.4744 9.76131 19.1408 10.1612 19.1408H14.4255C15.2829 19.1408 16.0266 18.5304 16.174 17.6858C16.2078 17.4918 16.2255 17.2924 16.2255 17.0889C16.2255 16.7001 15.9106 16.3846 15.5218 16.3846H13.1852C12.4216 16.3846 11.6883 16.0382 10.9119 15.6714C10.0976 15.2868 9.25554 14.889 8.27096 14.8235C7.40982 14.7661 6.54671 14.8604 5.70547 15.1033C4.80474 15.3634 4.15727 16.1637 4.07875 17.0876C4.07575 17.0873 4.07271 17.0873 4.06966 17.0871V23.9966L16.1762 24C17.0086 24 17.7912 23.6758 18.3799 23.0871L23.4361 18.0309C23.7111 17.7562 23.7111 17.3106 23.4363 17.0358Z" fill="#222222"/>
</svg>
