<svg width="48" height="20" viewBox="0 0 48 20" fill="none" xmlns="http://www.w3.org/2000/svg">
<path d="M11.3067 12.786V0H14.4025V18.8425H11.9797L3.09587 6.05653V18.8425H0V0H2.42286L11.3067 12.786Z" fill="white"/>
<rect width="3.82051" height="3" transform="matrix(1 0 0 -1 18.4025 3)" fill="white"/>
<rect width="3.82051" height="3" transform="matrix(1 0 0 -1 26.2231 3)" fill="white"/>
<path d="M41.3122 19.5424C39.4995 19.5424 37.956 19.1386 36.6818 18.3311C35.4255 17.5056 34.5461 16.3661 34.0436 14.9125L36.7087 13.3513C37.4625 15.4688 39.0239 16.5276 41.3929 16.5276C42.5415 16.5276 43.412 16.3033 44.0042 15.8546C44.5965 15.406 44.8926 14.8048 44.8926 14.0511C44.8926 13.2974 44.5785 12.7142 43.9504 12.3015C43.3222 11.8887 42.2095 11.4401 40.6122 10.9556C38.979 10.4711 37.6599 9.89682 36.6549 9.23284C35.4345 8.37147 34.8243 7.10633 34.8243 5.43742C34.8243 3.76851 35.4165 2.44953 36.601 1.48048C37.7676 0.493495 39.1944 0 40.8814 0C42.371 0 43.6812 0.367878 44.8118 1.10363C45.9605 1.82144 46.8399 2.83535 47.4501 4.14536L44.8388 5.65276C44.0491 3.89412 42.73 3.01481 40.8814 3.01481C39.9841 3.01481 39.2662 3.23015 38.7278 3.66084C38.1894 4.07358 37.9202 4.63885 37.9202 5.35666C37.9202 6.05653 38.1894 6.61283 38.7278 7.02557C39.2662 7.42037 40.2623 7.84208 41.716 8.29071C42.6133 8.59578 43.1338 8.77524 43.2774 8.82907C43.5107 8.90085 43.9773 9.08031 44.6772 9.36743C45.2515 9.60072 45.7092 9.85195 46.0502 10.1211C47.4501 11.2158 48.0962 12.5079 47.9885 13.9973C47.9885 15.7021 47.3693 17.057 46.131 18.0619C44.9285 19.0489 43.3222 19.5424 41.3122 19.5424Z" fill="white"/>
</svg>
