<svg id="Layer_1" data-name="Layer 1" xmlns="http://www.w3.org/2000/svg" width="160" height="68" viewBox="0 0 160 68"><defs><style>.cls-2{fill:#fff}</style></defs><g id="Group_25" data-name="Group 25"><path id="Path_74" data-name="Path 74" d="M32.51 8.21c.2-1.67 0-4.12 1.28-5.27.39-1.78 3.21-1.36 2.77-2.5C36.29-.27 35 .07 34.42.2a56.73 56.73 0 01-5.77 1.48l-1.89-.53c-2.43.33-3.83 2.25-5.19 3.78-1.13 1.29-2.67 4.42-1.45 6.3-.06.41-.13.82-.2 1.23l2.76 4c1 .68 1.08 1.19 2.11 1.86l.63.94a5.39 5.39 0 003.73.2c4 .37 3.56-7.65 4.82-9.33a3.37 3.37 0 00-1.46-1.93M15.34 32.29a18.88 18.88 0 003-.71c1.2-.59 5.33-3.47 4-5.81C22 20.84 16 25 13.46 23.28 10.88 23 8 18.1 7.21 16a3.49 3.49 0 00-.59-1.19l-.26.19c-.76.87-.63 1.63-.74 3.76l-1-.06a2.33 2.33 0 01-.51 1.58l-.22.39c-.64-.21-.32.09-.58-.44-2.37.12-2.2 2.49-3.29 3.84.03 4.42 8.84 9.93 15.32 8.22m29.28-13.45a17.63 17.63 0 00-7.62 2.8 5.11 5.11 0 00-1.53 1.47 2.4 2.4 0 00-.26 1.64 2.66 2.66 0 001 1.82c4.73-.34 12.93-.64 14.53 3.3.08.55.21.88.22 1 1.56-.39.42-.25 2.72.11a10.2 10.2 0 002.69-.42 1.06 1.06 0 00.61-.45 3.68 3.68 0 010-.58 2.22 2.22 0 001.02-.17c2.19-.36 1-1.37 2.07-2.52-.62-7.38-8.23-9.09-15.48-8m-8.43 16c-1.1.83-1.56.63-2.2 1.91v.2c.65 1.3 2.15 1.82 3.25 2.73.35.29 1.27 1.89 1.72 2 .49.6.82 2.22 1.14 2.22.34.46 0 1.53.29 2 0 1.93-.24 2.07-.58 2.43 0 .14.19.49.19.62s.87.65 1.21.58c1 0 5.38 3.39 5.72 4 3.11.24 2.88-.71 5-1.61.58-.25 1 0 1.42-.41s.43-1.2.81-1.61c.06-7.59-10.33-14.77-18-15M24 36.61c-.43.46-1.61.63-1.95 1.15a21.68 21.68 0 01-2.58 3.45c-2.99 2.79-9.28 4.17-12.39 1.52-.2 0-.08.13.16.89.23 1.44 1.39 4.81 1 5.67.28 1 .57.6 1.1 1.13.36.36.51 1.3.92 1.55l1.42-.1c.08.27.17.53.26.79l1.82-.13c.34.08 1.37.61 1.68.69l2-.14A5.08 5.08 0 0021.61 52c.73-.49 1.52-.41 2.17-1a14.87 14.87 0 002.8-3.43c1.47-2.64 1-9-.36-10.53-.51-.56-1.12-.57-2.26-.44" fill-rule="evenodd" fill="#fff"/><path id="Path_75" data-name="Path 75" class="cls-2" d="M98.48 19.37c6.39 0 10.71 4 10.71 11.2 0 9-5.94 11.7-12.16 11.7H88.7v-22.9m7.91 18.55c3.53 0 6.4-1.16 6.4-7.35 0-5.27-2.87-7-6.4-7h-1.85v14.35z"/><path id="Path_76" data-name="Path 76" class="cls-2" d="M118.25 38.76c0 1.67.08 3.51.08 3.51h-6.18v-22.9h14.6v4.43s-3.26-.09-4.37-.09h-4.14v4.62h7.58v4.22s-2.37-.07-3.44-.07h-4.14"/><path id="Path_77" data-name="Path 77" class="cls-2" d="M76.37 37.64a4.86 4.86 0 01-5.14-4.55 3.09 3.09 0 010-.43v-.26s5.4-.13 7.23-.13c3.11 0 4.39 0 6.85-.06v-1.73c0-7.81-3.33-11.6-10.19-11.6-3.12 0-10.51 1.18-10.51 12.12 0 7.29 3.7 11.64 10.17 11.64 5.09 0 8.21-1.28 10.47-2.93-.26-.38-2.15-3.75-2.4-4.12a10.82 10.82 0 01-6.48 2.06M71.23 28c.09-1.32.57-4.4 3.93-4.4s3.64 2.91 3.64 4.4v.31s-2.3.06-3.68.06-3.91-.06-3.91-.06z"/><path id="Path_78" data-name="Path 78" class="cls-2" d="M65.69 58.94c0-.82-.07-1.64-.09-2.44h1.81l.07 1.78a3.07 3.07 0 013.25-1.93v1.84a3.5 3.5 0 00-.72-.06c-1.45 0-2.48 1.24-2.48 3.71v6h-1.84"/><path id="Path_79" data-name="Path 79" class="cls-2" d="M73.72 62.72c0 2.63 1 3.85 3.11 3.85a4.84 4.84 0 002.61-.94l.09 1.69a7.62 7.62 0 01-3.2.67c-3 0-4.58-2.27-4.58-5.82s1.57-5.83 4.4-5.83c2.58 0 4 2 4 5.38v1m-1.87-1.42c0-2.36-.73-3.53-2.23-3.53-1.21 0-2.28.89-2.33 3.53z"/><path id="Path_80" data-name="Path 80" class="cls-2" d="M82.24 58.94c0-.82-.07-1.64-.09-2.44H84v1.69a3 3 0 013-1.85c2 0 3.33 1.14 3.33 3.63v7.86H88.4v-7.31c0-1.8-.67-2.58-1.88-2.58-1.47 0-2.41 1-2.41 3.07v6.82h-1.88"/><path id="Path_81" data-name="Path 81" class="cls-2" d="M94.42 62.72c0 2.63 1 3.85 3.11 3.85a4.84 4.84 0 002.61-.94l.09 1.69A7.61 7.61 0 0197 68c-3 0-4.59-2.27-4.59-5.82s1.57-5.83 4.41-5.83c2.57 0 4 2 4 5.38v1M99 61.3c0-2.36-.74-3.53-2.23-3.53-1.21 0-2.28.89-2.33 3.53z"/><path id="Path_82" data-name="Path 82" class="cls-2" d="M113.72 67.83h-2.15l-2.39-9.58h-.05L107 67.83h-2.2l-3-11.33h2l2.12 9.5 2.17-9.46h2.24l2.3 9.46 2.15-9.46h1.87"/><path id="Path_83" data-name="Path 83" class="cls-2" d="M118.3 57.28a6.11 6.11 0 013.22-.94 4.4 4.4 0 013 1.07 3.46 3.46 0 011 2.78v5.91a16.56 16.56 0 00.09 1.73h-1.7l-.11-1.53a3.46 3.46 0 01-3.2 1.69 3 3 0 01-3.28-2.76 2.09 2.09 0 010-.5c0-2.2 1.45-3.83 5.36-3.83h1.09v-.51a2.73 2.73 0 00-.42-1.82 2.33 2.33 0 00-1.9-.71A4.05 4.05 0 00118.5 59m5.25 3.24a11.5 11.5 0 00-1.32 0c-2.21 0-3.26 1-3.26 2.36a1.77 1.77 0 001.54 2 1.61 1.61 0 00.38 0 2.68 2.68 0 002.67-2.7.81.81 0 000-.16z"/><path id="Path_84" data-name="Path 84" class="cls-2" d="M128 51.17h1.87v6.89a3.14 3.14 0 012.91-1.72c2.34 0 3.93 1.92 3.93 5.83S135.2 68 132.86 68a3.23 3.23 0 01-3-1.82h-.05l-.06 1.66h-1.81c0-.69.09-1.4.09-2.09m4.37.74c1.72 0 2.51-1.47 2.51-4.31s-.79-4.31-2.51-4.31-2.5 1.46-2.5 4.31.78 4.31 2.5 4.31"/><path id="Rectangle_32" data-name="Rectangle 32" class="cls-2" d="M139.14 51.17h1.88v16.67h-1.88z"/><path id="Path_85" data-name="Path 85" class="cls-2" d="M145.33 62.72c0 2.63 1 3.85 3.11 3.85a4.84 4.84 0 002.61-.94l.09 1.69a7.66 7.66 0 01-3.2.67c-3 0-4.58-2.27-4.58-5.82s1.56-5.83 4.4-5.83c2.58 0 4 2 4 5.38v1m-1.88-1.42c0-2.36-.74-3.53-2.24-3.53-1.2 0-2.28.89-2.32 3.53z"/><g id="Group_70" data-name="Group 70"><path id="Path_86" data-name="Path 86" class="cls-2" d="M153.36 65.63a5.15 5.15 0 002.68.85c1.43 0 2.17-.74 2.17-1.6s-.4-1.31-1.45-1.78l-1.25-.56c-1.64-.73-2.24-1.46-2.24-2.91a3.35 3.35 0 013.4-3.3h.27a7 7 0 012.41.4l-.09 1.6a5.52 5.52 0 00-2.23-.48c-1.23 0-1.88.66-1.88 1.55s.67 1.42 1.92 1.91l.67.27a3.08 3.08 0 012.26 2.9c0 2-1.05 3.51-3.67 3.51a6.85 6.85 0 01-3.08-.67"/></g></g></svg>